<?xml version="1.0" encoding="UTF-8" standalone="no"?>
<svg
   version="1.0"
   width="300"
   height="300"
   viewBox="0 0 225 225"
   preserveAspectRatio="xMidYMid"
   id="svg8"
   sodipodi:docname="cloudShadow.svg"
   inkscape:version="1.3.2 (091e20ef0f, 2023-11-25)"
   xmlns:inkscape="http://www.inkscape.org/namespaces/inkscape"
   xmlns:sodipodi="http://sodipodi.sourceforge.net/DTD/sodipodi-0.dtd"
   xmlns="http://www.w3.org/2000/svg"
   xmlns:svg="http://www.w3.org/2000/svg">
  <defs
     id="defs8">
    <clipPath
       clipPathUnits="userSpaceOnUse"
       id="clipPath1">
      <rect
         style="fill:none;stroke:#000000;stroke-width:20;stroke-linejoin:bevel;stroke-dasharray:none;stroke-dashoffset:13;stroke-opacity:1"
         id="rect1"
         width="4500"
         height="4500"
         x="4500"
         y="-1500"
         transform="scale(1,-1)" />
    </clipPath>
  </defs>
  <sodipodi:namedview
     id="namedview8"
     pagecolor="#ffffff"
     bordercolor="#000000"
     borderopacity="0.25"
     inkscape:showpageshadow="2"
     inkscape:pageopacity="0.0"
     inkscape:pagecheckerboard="0"
     inkscape:deskcolor="#d1d1d1"
     inkscape:document-units="pt"
     inkscape:zoom="2.8284271"
     inkscape:cx="156.62415"
     inkscape:cy="147.43177"
     inkscape:window-width="2486"
     inkscape:window-height="1376"
     inkscape:window-x="0"
     inkscape:window-y="0"
     inkscape:window-maximized="1"
     inkscape:current-layer="svg8"
     showgrid="true">
    <inkscape:grid
       id="grid52"
       units="px"
       originx="0"
       originy="0"
       spacingx="225"
       spacingy="225"
       empcolor="#0099e5"
       empopacity="0.30196078"
       color="#0099e5"
       opacity="0.14901961"
       empspacing="5"
       dotted="false"
       gridanglex="30"
       gridanglez="30"
       visible="true" />
  </sodipodi:namedview>
  <metadata
     id="metadata1">
Created by potrace 1.10, written by Peter Selinger 2001-2011
</metadata>
  <g
     transform="matrix(0.05,0,0,-0.05,-225,75)"
     fill="#000000"
     stroke="none"
     id="g8"
     clip-path="url(#clipPath1)"
     style="opacity:1">
    <path
       d="m 6895.5761,-547.85645 c -78.3285,-14.0786 -154.6094,-65.7857 -205.2925,-139.50675 -15.8704,-23.0379 -17.6624,-24.0618 -40.9561,-24.0618 -84.472,0 -185.0705,-84.4719 -185.0705,-155.6331 0,-3.5837 -9.4709,-9.7271 -20.7338,-13.3107 -129.2679,-42.74797 -126.196,-229.6102 4.8634,-291.0442 0,0 116.6656,-71.7627 239.4281,-64.8533 119.9064,6.7487 168.09,34.8309 168.09,34.8309 0,0 115.4608,-42.3032 168.1942,-43.9541 38.3655,-1.2012 90.0048,-14.5693 206.0922,2.8675 154.2642,23.1711 204.2136,71.109 204.2136,71.109 83.4482,44.2837 101.3664,142.8343 38.6524,210.92383 -20.478,22.0139 -21.2461,24.3176 -22.7818,61.4341 -4.0957,105.46207 -99.0627,191.46977 -206.8283,186.86217 l -26.8774,-1.0238 -18.6863,27.6453 c -67.5776,100.85445 -191.7257,157.42505 -302.3072,137.71495 z"
       id="path3"
       style="fill:#000000;fill-opacity:1;stroke-width:0.255975"
       sodipodi:nodetypes="ccssccscssccccccc" />
    <path
       id="path15"
       style="fill:#000000;stroke-width:2269.51;stroke-linejoin:bevel;stroke-dashoffset:13;stroke-opacity:0.8"
       d="m 7719.1021,-1232.7447 c -67.3752,-0.111 -131.296,-19.4621 -174.9167,-52.9536 -36.2117,1.8684 -78.7966,24.2994 -140.3,-39.9557 -138.7854,6.4253 -149.7224,-18.441 -188.4248,-104.4785 -66.7164,-9.2966 -121.714,-46.6754 -149.4203,-101.5527 -49.9567,-99.7413 73.143,-171.0009 150.6382,-172.8833 6.8325,-76.4971 174.0531,-144.5412 237.2564,-75.4636 59.9903,-26.0262 156.9573,-57.6166 219.2539,-20.4056 113.6772,-26.5608 182.6154,7.8953 251.7111,56.1734 167.93,14.6498 287.1821,71.8009 287.5054,137.7858 -0.012,42.3314 -49.4621,82.4401 -134.7941,109.3312 -10.3985,50.072 -56.9865,95.6034 -128.9769,126.0516 -9.4717,78.1069 -109.4063,138.3427 -229.5322,138.351 z"
       sodipodi:nodetypes="ccccccccccccc" />
    <path
       id="path32"
       style="fill:#000000;stroke-width:2269.51;stroke-linejoin:bevel;stroke-dashoffset:13;stroke-opacity:0.8"
       d="m 7131.6088,474.59528 c -86.6464,4.0363 -155.2714,-1.2049 -189.8733,-109.8073 -41.3244,-34.6464 -63.4813,-75.2059 -63.7571,-116.7107 0.183,-29.7434 11.6075,-59.1371 33.5405,-86.2949 -20.4869,-22.9604 8.5388,-102.290102 82.3548,-121.989002 8.1329,-43.3223982 50.5553,-79.579498 112.627,-91.563198 18.7353,-23.925702 64.7305,-14.9598 85.1773,-11.6254 40.9234,-39.0804 98.6763,-51.1577 164.0331,-26.939602 53.2743,-16.410598 142.6872,1.3933 181.4787,59.516202 78.7946,11.7697 126.3465,106.612998 118.1177,166.5107 49.9953,11.4546 75.2442,116.3925 45.5965,150.1808 23.0092,26.1591 21.7609,102.4349 -14.6425,123.3554 -29.4894,51.7984 -56.0601,73.6282 -146.4355,62.7205 -36.129,51.6079 -172.4656,64.7609 -214.9162,47.811 -38.1389,18.3904 -163.2406,19.545 -193.301,-45.1645 z"
       sodipodi:nodetypes="ccccccccccccccc" />
    <path
       id="path15-3"
       style="fill:#000000;stroke-width:2951.84;stroke-linejoin:bevel;stroke-dashoffset:13;stroke-opacity:0.8"
       d="m 6604.2772,174.95623 c -83.1469,-0.1525 -162.0308,-26.6786 -215.8626,-72.5887 -44.6885,2.5612 -97.2421,33.3094 -173.1427,-54.771196 -171.2735,8.8077 -184.7706,-25.278999 -232.5328,-143.2189 -82.334,-12.743804 -150.2059,-63.982504 -184.3978,-139.208204 -61.651,-136.7252 90.2648,-234.4077 185.9008,-236.988 8.4319,-104.8621 214.7969,-198.1367 292.7954,-103.4453 74.0333,-35.6767 193.6992,-78.9806 270.5786,-27.972 140.2877,-36.4094 225.3636,10.8228 310.6338,77.0024 207.2404,20.0819 354.4081,98.4245 354.8072,188.8765 -0.016,58.0278 -61.0406,113.0087 -166.3478,149.871 -12.8328,68.6385 -70.3266,131.052602 -159.169,172.791202 -11.6889,107.068502 -135.0171,189.639598 -283.2631,189.651198 z"
       sodipodi:nodetypes="ccccccccccccc" />
    <path
       d="m 7971.6134,174.07947 c -78.3285,-14.0786 -154.6093,-65.7857 -205.2924,-139.506694 -15.8705,-23.0379 -17.6624,-24.0618 -40.9562,-24.0618 -84.4719,0 -185.0704,-84.4719 -185.0704,-155.633096 0,-3.5837 -9.471,-9.7271 -20.7339,-13.3107 -129.2678,-42.74801 -126.196,-229.61032 4.8634,-291.04432 0,0 116.6656,-71.7627 239.4282,-64.8533 119.9063,6.7487 168.0899,34.8309 168.0899,34.8309 0,0 115.4609,-42.3032 168.1942,-43.95409 38.3656,-1.2011 90.0048,-14.5693 206.0922,2.86759 154.2642,23.1711 204.2137,71.1089 204.2137,71.1089 83.4481,44.2837 101.3664,142.83441 38.6523,210.92391 -20.478,22.0139 -21.246,24.3177 -22.7818,61.4341 -4.0957,105.462106 -99.0626,191.469906 -206.8283,186.8622062 l -26.8774,-1.0238 -18.6863,27.6453998 C 8206.343,137.21897 8082.1949,193.78957 7971.6134,174.07947 Z"
       id="path3-5"
       style="fill:#000000;fill-opacity:1;stroke-width:0.255975"
       sodipodi:nodetypes="ccssccscssccccccc" />
    <path
       id="path9-7"
       style="fill:#000000;stroke-width:1909.32;stroke-linejoin:bevel;stroke-dashoffset:13;stroke-opacity:0.8"
       d="m 8209.8218,907.56733 c -74.4755,-0.084 -144.8837,-25.1217 -191.4533,-68.0817 -144.2128,-30.571 -184.658,-66.0346 -209.3216,-163.60579 -30.7125,-68.6436 -7.3731,-157.5395 71.0811,-193.2521 -42.1895,-23.2397 -41.3173,-65.0335 -28.6067,-99.5799 22.1807,-59.8475 59.6533,-74.8868 114.1876,-95.8065 41.2852,-9.4556 92.2392,-16.1886 120.4811,-4.0886 14.1562,-74.0054 129.469,-112.6693 246.1994,-90.956 134.1049,-39.0743 240.5902,22.1797 247.2728,99.9757 75.9469,33.521 135.4065,82.7077 170.2981,140.8756 102.5209,23.459 119.0104,109.8722 93.3171,196.3528 14.4887,96.40999 -33.114,143.71339 -171.2025,143.70869 h -0.2705 c -17.0105,69.1154 -95.6542,119.1611 -187.2602,119.1647 -41.0293,-0.044 -80.9445,-10.2543 -113.8117,-29.1118 -44.6683,28.622 -101.7952,44.3866 -160.9107,44.4049 z"
       sodipodi:nodetypes="cccccccccccscccc" />
    <path
       id="path9-7-4"
       style="fill:#000000;stroke-width:1909.32;stroke-linejoin:bevel;stroke-dashoffset:13;stroke-opacity:0.8"
       d="m 5198.084,360.7665 c -74.4755,-0.084 -144.8837,-25.1217 -191.4533,-68.0817 -144.2128,-30.571 -184.658,-66.0346 -209.3216,-163.60579 -30.7125,-68.643598 -7.3731,-157.539498 71.0811,-193.252098 -42.1895,-23.2397 -41.3173,-65.033502 -28.6067,-99.579902 22.1807,-59.8475 59.6533,-74.8868 114.1876,-95.8065 41.2852,-9.4556 92.2392,-16.1886 120.4811,-4.0886 14.1562,-74.0054 129.469,-112.6693 246.1994,-90.956 134.1049,-39.0743 240.5902,22.1797 247.2728,99.9757 75.9469,33.521 135.4065,82.7077 170.2981,140.8756 102.5209,23.459002 119.0104,109.8722024 93.3171,196.352802 C 5846.0283,179.01 5798.4256,226.3134 5660.3371,226.3087 h -0.2705 c -17.0105,69.1154 -95.6542,119.1611 -187.2602,119.1647 -41.0293,-0.044 -80.9445,-10.2543 -113.8117,-29.1118 -44.6683,28.622 -101.7952,44.3866 -160.9107,44.4049 z"
       sodipodi:nodetypes="cccccccccccscccc" />
    <path
       d="m 6156.2621,975.29367 c -78.3286,-14.07865 -154.6094,-65.78575 -205.2925,-139.50677 -15.8705,-23.0378 -17.6624,-24.0618 -40.9561,-24.0618 -84.472,0 -185.0705,-84.4719 -185.0705,-155.6331 0,-3.5837 -9.4709,-9.7271 -20.7338,-13.3107 -129.2679,-42.748 -126.1961,-229.6102 4.8634,-291.0443 0,0 116.6656,-71.7627 239.4281,-64.8533 119.9064,6.7487 168.09,34.8309 168.09,34.8309 0,0 115.4608,-42.3032 168.1942,-43.9541 38.3655,-1.2011 90.0048,-14.5692 206.0921,2.8676 154.2643,23.1711 204.2137,71.1089 204.2137,71.1089 83.4481,44.2837 101.3664,142.8344 38.6524,210.9239 -20.4781,22.0139 -21.2461,24.3177 -22.7818,61.4341 -4.0957,105.4621 -99.0627,191.4699 -206.8283,186.8622 l -26.8774,-1.0238 -18.6863,27.6454 c -67.5776,100.85432 -191.7257,157.42487 -302.3072,137.71487 z"
       id="path3-9"
       style="fill:#000000;fill-opacity:1;stroke-width:0.255975"
       sodipodi:nodetypes="ccssccscssccccccc" />
    <path
       id="path32-2"
       style="fill:#000000;stroke-width:2124.34;stroke-linejoin:bevel;stroke-dashoffset:13;stroke-opacity:0.8"
       d="m 6892.367,-1851.8756 c -89.822,3.4114 -160.9618,-1.0184 -196.832,-92.8079 -42.8387,-29.2827 -65.8078,-63.5632 -66.0937,-98.6425 0.1898,-25.1388 12.033,-49.982 34.7698,-72.9355 -21.2378,-19.4059 8.8517,-86.4544 85.3731,-103.1036 8.4309,-36.6156 52.4079,-67.2596 116.7544,-77.3882 19.4221,-20.2217 67.1029,-12.6439 88.299,-9.8257 42.4231,-33.0303 102.2927,-43.2379 170.0446,-22.769 55.2268,-13.87 147.9165,1.1776 188.1296,50.3024 81.6824,9.9476 130.977,90.1081 122.4466,140.7329 51.8276,9.6813 78.0018,98.3736 47.2674,126.9311 23.8526,22.1093 22.5585,86.5767 -15.1789,104.2585 -30.5703,43.7794 -58.1148,62.2297 -151.8022,53.0106 -37.4532,43.6184 -178.7862,54.7352 -222.7925,40.4094 -39.5367,15.5433 -169.2231,16.5192 -200.3852,-38.1725 z"
       sodipodi:nodetypes="ccccccccccccccc" />
    <path
       id="path38-2-7"
       style="fill:#000000;stroke-width:2621.31;stroke-linejoin:bevel;stroke-dashoffset:13;stroke-opacity:0.8"
       d="m 8199.1246,-2093.7661 c -59.9447,54.6243 -219.9182,44.3748 -270.7302,10.6478 -39.3555,11.2814 -82.3561,17.1361 -125.9013,17.142 -79.8296,-3.2755 -136.6792,6.3089 -181.7851,-83.9254 -83.3836,-3.2678 -101.8302,-148.2024 -81.8835,-172.5548 -7.6373,-18.2273 -11.6417,-36.8562 -11.9428,-55.5587 0.3925,-74.3145 59.1353,-144.9289 161.1906,-193.7662 22.7195,-85.2734 127.0648,-147.0438 248.7206,-147.2379 72.0033,0.1451 140.5302,22.1088 188.5052,60.4181 30.3833,-15.0462 64.6532,-23.0285 99.55,-23.1876 112.9709,0 204.5456,80.2828 204.5318,179.3026 -0.015,7.2396 -0.5289,14.4719 -1.541,21.6571 25.8434,32.4255 39.2584,67.422 39.4115,102.8139 0.013,50.6 -27.076,100.0854 -77.8985,142.302 0.8041,5.2385 1.2925,10.4979 1.464,15.7646 -11.2987,92.0355 -97.768,136.308 -191.6913,126.1825 z"
       sodipodi:nodetypes="cccccccccccccccc" />
    <path
       id="path38-2-7-2"
       style="fill:#000000;stroke-width:2621.31;stroke-linejoin:bevel;stroke-dashoffset:13;stroke-opacity:0.8"
       d="m 7414.6555,1159.2744 c -59.9447,54.6243 -219.9182,44.3748 -270.7302,10.6478 -39.3555,11.2814 -82.3561,17.1361 -125.9013,17.142 -79.8296,-3.2755 -136.6792,6.3089 -181.7851,-83.9254 -83.3836,-3.2678 -101.8302,-148.20236 -81.8835,-172.55476 -7.6373,-18.2273 -11.6417,-36.8562 -11.9428,-55.5587 0.3925,-74.3145 59.1353,-144.9289 161.1906,-193.7662 22.7195,-85.2734 127.0648,-147.0438 248.7206,-147.2379 72.0033,0.1451 140.5302,22.1088 188.5052,60.4181 30.3833,-15.0462 64.6532,-23.0285 99.55,-23.1876 112.9709,0 204.5456,80.2828 204.5318,179.3026 -0.015,7.2396 -0.5289,14.4719 -1.541,21.6571 25.8434,32.4255 39.2584,67.422 39.4115,102.8139 0.013,50.6 -27.076,100.0854 -77.8985,142.30196 0.8041,5.2385 1.2925,10.4979 1.464,15.7646 -11.2987,92.0355 -97.768,136.308 -191.6913,126.1825 z"
       sodipodi:nodetypes="cccccccccccccccc" />
    <path
       id="path15-6-2"
       style="fill:#000000;stroke-width:1831.92;stroke-linejoin:bevel;stroke-dashoffset:13;stroke-opacity:0.8"
       d="m 6368.6786,-2083.2074 c -57.185,-0.085 -111.437,-14.9404 -148.46,-40.6508 -30.7347,1.4343 -66.8785,18.6538 -119.0793,-30.6728 -117.7936,4.9325 -127.0764,-14.1566 -159.9248,-80.2049 -56.6254,-7.1368 -103.3045,-35.8313 -126.8201,-77.9589 -42.4005,-76.5683 62.0799,-131.2721 127.8537,-132.7172 5.7991,-58.7244 147.727,-110.9597 201.3706,-57.931 50.9166,-19.9797 133.2169,-44.2305 186.0909,-15.6648 96.483,-20.3898 154.994,6.061 213.639,43.1226 142.53,11.2462 243.745,55.1193 244.019,105.7739 -0.01,32.4965 -41.98,63.2867 -114.406,83.9302 -8.825,38.4387 -48.367,73.3917 -109.468,96.7659 -8.04,59.9602 -92.859,106.2013 -194.815,106.2078 z"
       sodipodi:nodetypes="ccccccccccccc" />
    <path
       id="path15-6-3"
       style="fill:#000000;stroke-width:1831.92;stroke-linejoin:bevel;stroke-dashoffset:13;stroke-opacity:0.8"
       d="m 5447.0584,-1273.2112 c -57.1845,-0.085 -111.4371,-14.9404 -148.46,-40.6508 -30.7346,1.4343 -66.8784,18.6538 -119.0792,-30.6728 -117.7936,4.9325 -127.0764,-14.1566 -159.9248,-80.2049 -56.6254,-7.1368 -103.3045,-35.8313 -126.8201,-77.9589 -42.4005,-76.5683 62.0799,-131.2721 127.8537,-132.7172 5.7991,-58.7244 147.727,-110.9597 201.3706,-57.931 50.9166,-19.9797 133.217,-44.2305 186.0909,-15.6648 96.4832,-20.3898 154.9943,6.061 213.639,43.1226 142.53,11.2462 243.7448,55.1193 244.0193,105.7739 -0.011,32.4965 -41.9808,63.2867 -114.4061,83.9302 -8.8257,38.4387 -48.3671,73.3917 -109.4686,96.7659 -8.0392,59.9602 -92.8583,106.2013 -194.8147,106.2078 z"
       sodipodi:nodetypes="ccccccccccccc" />
    <path
       id="path15-6-3-9"
       style="fill:#000000;stroke-width:1831.92;stroke-linejoin:bevel;stroke-dashoffset:13;stroke-opacity:0.8"
       d="m 5147.898,880.65503 c -57.1845,-0.085 -111.4371,-14.9404 -148.46,-40.6508 -30.7346,1.4343 -66.8784,18.6538 -119.0792,-30.6728 -117.7936,4.9325 -127.0764,-14.1566 -159.9248,-80.2049 -56.6254,-7.1368 -103.3045,-35.8313 -126.8201,-77.9589 -42.4005,-76.5683 62.0799,-131.2721 127.8537,-132.7172 5.7991,-58.7244 147.727,-110.9597 201.3706,-57.931 50.9166,-19.9797 133.217,-44.2305 186.0909,-15.6648 96.4832,-20.3898 154.9943,6.061 213.639,43.1226 142.53,11.2462 243.7448,55.1193 244.0193,105.7739 -0.011,32.4965 -41.9808,63.2867 -114.4061,83.9302 -8.8257,38.4387 -48.3671,73.3917 -109.4686,96.7659 -8.0392,59.9602 -92.8583,106.2013 -194.8147,106.2078 z"
       sodipodi:nodetypes="ccccccccccccc" />
    <path
       id="path26-7"
       style="fill:#000000;stroke-width:2269.52;stroke-linejoin:bevel;stroke-dashoffset:13;stroke-opacity:0.8"
       d="m 4599.4207,-765.83235 c -79.0354,-0.04 -154.6854,-19.7842 -209.787,-54.7154 -152.3796,13.0986 -187.1154,-25.4382 -210.9638,-100.1382 -79.975,-13.4274 -86.5706,-132.16945 -50.3796,-170.58925 -29.2266,-18.1436 -32.2156,-107.3278 45.6746,-118.2396 4.8872,-36.3584 61.8872,-70.3682 116.1772,-70.9286 5.453,0.06 10.8978,0.26 16.3216,0.566 37.982,-94.3148 129.3034,-104.2546 219.1306,-89.6936 21.3272,-15.6922 91.1946,-35.4214 132.5974,15.8644 55.9058,-56.0732 219.2636,-57.5114 267.3862,36.0454 79.2452,-43.0716 218.9984,44.054 200.3688,127.6356 33.2536,51.8762 23.2528,122.8554 -25.81,169.199 -14.4062,117.13525 -101.2456,204.18725 -203.7036,204.20225 -24.1542,-0.204 -48.0878,-5.3304 -70.7046,-15.1248 -55.6586,41.7246 -138.6808,65.907 -226.3078,65.9176 z"
       sodipodi:nodetypes="ccccccccccccccc" />
    <path
       id="path26-7-5"
       style="fill:#000000;stroke-width:2269.52;stroke-linejoin:bevel;stroke-dashoffset:13;stroke-opacity:0.8"
       d="m 5673.8891,-598.71982 c -79.0354,-0.04 -154.6854,-19.7842 -209.787,-54.7154 -152.3796,13.0986 -187.1154,-25.4382 -210.9638,-100.1382 -79.975,-13.4274 -86.5706,-132.1694 -50.3796,-170.5892 -29.2266,-18.1436 -32.2156,-107.32778 45.6746,-118.23958 4.8872,-36.3584 61.8872,-70.3682 116.1772,-70.9286 5.453,0.06 10.8978,0.26 16.3216,0.566 37.982,-94.3148 129.3034,-104.2546 219.1306,-89.6936 21.3272,-15.6922 91.1946,-35.4214 132.5974,15.8644 55.9058,-56.0732 219.2636,-57.5114 267.3862,36.0454 79.2452,-43.0716 218.9984,44.054 200.3688,127.6356 33.2536,51.87618 23.2528,122.85538 -25.81,169.19898 -14.4062,117.1352 -101.2456,204.1872 -203.7036,204.2022 -24.1542,-0.204 -48.0878,-5.3304 -70.7046,-15.1248 -55.6586,41.7246 -138.6808,65.907 -226.3078,65.9176 z"
       sodipodi:nodetypes="ccccccccccccccc" />
    <path
       id="path26"
       style="fill:#000000;stroke-width:2269.52;stroke-linejoin:bevel;stroke-dashoffset:13;stroke-opacity:0.8"
       d="m 8517.9281,-939.19789 c -79.0352,-0.04 -154.6852,-19.7844 -209.7868,-54.7154 -152.3798,13.0984 -187.1154,-25.43821 -210.9638,-100.13841 -79.975,-13.4272 -86.5706,-132.1694 -50.3798,-170.589 -29.2264,-18.1436 -32.2156,-107.3278 45.6746,-118.2396 4.8874,-36.3586 61.8872,-70.3684 116.1774,-70.9286 5.4528,0.06 10.8978,0.262 16.3216,0.566 37.982,-94.3148 129.3034,-104.2544 219.1304,-89.6934 21.3272,-15.6924 91.1946,-35.4214 132.5974,15.8644 55.906,-56.0734 219.2638,-57.5114 267.3864,36.0452 79.2452,-43.0714 218.9984,44.0542 200.3686,127.6356 33.2538,51.8764 23.253,122.8554 -25.8098,169.199 -14.4064,117.1352 -101.2458,204.18721 -203.7036,204.20221 -24.1544,-0.204 -48.0878,-5.3304 -70.7046,-15.12481 -55.6588,41.72461 -138.681,65.90701 -226.308,65.91781 z"
       sodipodi:nodetypes="ccccccccccccccc" />
    <path
       id="path26-6"
       style="fill:#000000;stroke-width:2269.52;stroke-linejoin:bevel;stroke-dashoffset:13;stroke-opacity:0.8"
       d="m 6419.427,-1253.2316 c -79.0352,-0.04 -154.6852,-19.7844 -209.7868,-54.7154 -152.3798,13.0984 -187.1154,-25.4382 -210.9638,-100.1384 -79.975,-13.4272 -86.5706,-132.1694 -50.3798,-170.589 -29.2264,-18.1436 -32.2156,-107.3278 45.6746,-118.2396 4.8874,-36.3586 61.8872,-70.3684 116.1774,-70.9286 5.4528,0.06 10.8978,0.262 16.3216,0.566 37.982,-94.3148 129.3034,-104.2544 219.1304,-89.6934 21.3272,-15.6924 91.1946,-35.4214 132.5974,15.8644 55.906,-56.0734 219.2638,-57.5114 267.3864,36.0452 79.2452,-43.0714 218.9984,44.0542 200.3686,127.6356 33.2538,51.8764 23.253,122.8554 -25.8098,169.199 -14.4064,117.1352 -101.2458,204.1872 -203.7036,204.2022 -24.1544,-0.204 -48.0878,-5.3304 -70.7046,-15.1248 -55.6588,41.7246 -138.681,65.907 -226.308,65.9178 z"
       sodipodi:nodetypes="ccccccccccccccc" />
    <path
       d="m 8492.1771,-1596.4501 c -45.7475,-8.2225 -90.2991,-38.4219 -119.9005,-81.4785 -9.2691,-13.4552 -10.3157,-14.0532 -23.9203,-14.0532 -49.3356,0 -108.0899,-49.3356 -108.0899,-90.8972 0,-2.093 -5.5316,-5.681 -12.1096,-7.774 -75.4986,-24.9669 -73.7045,-134.1034 2.8404,-169.9837 0,0 68.1383,-41.9129 139.8375,-37.8774 70.031,3.9415 98.1725,20.3429 98.1725,20.3429 0,0 67.4346,-24.7071 98.2334,-25.6713 22.4073,-0.7016 52.567,-8.5092 120.3676,1.6747 90.0977,13.533 119.2705,41.5311 119.2705,41.5311 48.7377,25.8637 59.2029,83.422 22.5748,123.1895 -11.9601,12.8572 -12.4086,14.2027 -13.3056,35.8804 -2.3921,61.5949 -57.8573,111.8276 -120.7976,109.1365 l -15.6977,-0.598 -10.9137,16.1462 c -39.4685,58.9038 -111.9769,91.9437 -176.5618,80.432 z"
       id="path3-3-8"
       style="fill:#000000;fill-opacity:1;stroke-width:0.149502"
       sodipodi:nodetypes="ccssccscssccccccc" />
    <path
       d="m 8017.579,1383.9648 c -45.7475,-8.2225 -90.2991,-38.4219 -119.9005,-81.4785 -9.2691,-13.4552 -10.3157,-14.0532 -23.9203,-14.0532 -49.3356,0 -108.0899,-49.3356 -108.0899,-90.8972 0,-2.093 -5.5316,-5.681 -12.1096,-7.774 -75.4986,-24.9669 -73.7045,-134.1034 2.8404,-169.9838 0,0 68.1383,-41.91287 139.8375,-37.87736 70.031,3.9415 98.1725,20.34286 98.1725,20.34286 0,0 67.4346,-24.70707 98.2334,-25.67127 22.4073,-0.7016 52.567,-8.5092 120.3676,1.6747 90.0977,13.53301 119.2705,41.53107 119.2705,41.53107 48.7377,25.8638 59.2029,83.4221 22.5748,123.1896 -11.9601,12.8572 -12.4086,14.2027 -13.3056,35.8804 -2.3921,61.5949 -57.8573,111.8276 -120.7976,109.1365 l -15.6977,-0.598 -10.9137,16.1462 c -39.4685,58.9038 -111.9769,91.9437 -176.5618,80.432 z"
       id="path3-3-8-1"
       style="fill:#000000;fill-opacity:1;stroke-width:0.149502"
       sodipodi:nodetypes="ccssccscssccccccc" />
    <path
       id="path26-9"
       style="fill:#000000;stroke-width:1694.46;stroke-linejoin:bevel;stroke-dashoffset:13;stroke-opacity:0.8"
       d="m 7843.0483,-553.89661 c -59.439,-0.03 -116.3321,-14.6645 -157.7716,-40.5559 -114.5983,9.7088 -140.7214,-18.8552 -158.6567,-74.2241 -60.1458,-9.9525 -65.1061,-97.96605 -37.8885,-126.44325 -21.9799,-13.4483 -24.228,-79.5531 34.3499,-87.6411 3.6756,-26.9496 46.5427,-52.1582 87.372,-52.5734 4.1008,0.044 8.1957,0.1942 12.2747,0.4195 28.5647,-69.90754 97.2435,-77.27494 164.7985,-66.48204 16.0393,-11.6315 68.5836,-26.2551 99.7208,11.75888 42.0445,-41.56258 164.8988,-42.62848 201.0898,26.71726 59.5968,-31.92516 164.6992,32.6537 150.6885,94.6055 25.0088,38.4516 17.4876,91.0624 -19.4104,125.413 -10.8345,86.82245 -76.1426,151.34675 -153.1967,151.35785 -18.1655,-0.1512 -36.1647,-3.951 -53.1739,-11.2107 -41.8585,30.9269 -104.2959,48.8513 -170.1964,48.8593 z"
       sodipodi:nodetypes="ccccccccccccccc" />
    <path
       d="m 5665.4197,-1737.3722 c -45.7475,-8.2225 -90.2991,-38.4219 -119.9005,-81.4785 -9.2691,-13.4552 -10.3157,-14.0532 -23.9203,-14.0532 -49.3356,0 -108.0899,-49.3356 -108.0899,-90.8972 0,-2.093 -5.5316,-5.681 -12.1096,-7.774 -75.4986,-24.9669 -73.7045,-134.1034 2.8404,-169.9838 0,0 68.1383,-41.9129 139.8375,-37.8774 70.031,3.9415 98.1725,20.3429 98.1725,20.3429 0,0 67.4346,-24.7071 98.2334,-25.6713 22.4073,-0.7016 52.567,-8.5092 120.3676,1.6747 90.0977,13.533 119.2705,41.5311 119.2705,41.5311 48.7377,25.8638 59.2029,83.4221 22.5748,123.1896 -11.9601,12.8572 -12.4086,14.2027 -13.3056,35.8804 -2.3921,61.5949 -57.8573,111.8276 -120.7976,109.1365 l -15.6977,-0.598 -10.9137,16.1462 c -39.4685,58.9038 -111.9769,91.9437 -176.5618,80.432 z"
       id="path3-3-8-1-3"
       style="opacity:1;fill:#000000;fill-opacity:1;stroke-width:0.149502"
       sodipodi:nodetypes="ccssccscssccccccc" />
    <path
       d="m 4879.6228,-328.45016 c -45.7475,-8.2225 -90.2991,-38.4219 -119.9005,-81.4785 -9.2691,-13.4552 -10.3157,-14.0532 -23.9203,-14.0532 -49.3356,0 -108.0899,-49.3356 -108.0899,-90.8972 0,-2.093 -5.5316,-5.681 -12.1096,-7.774 -75.4986,-24.9669 -73.7045,-134.1034 2.8404,-169.9837 0,0 68.1383,-41.9129 139.8375,-37.8774 70.031,3.9415 98.1725,20.3429 98.1725,20.3429 0,0 67.4346,-24.7071 98.2334,-25.6713 22.4073,-0.7016 52.567,-8.5092 120.3676,1.6747 90.0977,13.533 119.2705,41.5311 119.2705,41.5311 48.7377,25.8637 59.2029,83.422 22.5748,123.1895 -11.9601,12.8572 -12.4086,14.2027 -13.3056,35.8804 -2.3921,61.5949 -57.8573,111.8276 -120.7976,109.1365 l -15.6977,-0.598 -10.9137,16.1462 c -39.4685,58.9038 -111.9769,91.9437 -176.5618,80.432 z"
       id="path3-3-8-6"
       style="fill:#000000;fill-opacity:1;stroke-width:0.149502"
       sodipodi:nodetypes="ccssccscssccccccc" />
    <path
       d="m 5600.4786,1230.3996 c -45.7475,-8.2225 -90.2991,-38.4219 -119.9005,-81.4785 -9.2691,-13.4552 -10.3157,-14.0532 -23.9203,-14.0532 -49.3356,0 -108.0899,-49.3356 -108.0899,-90.8972 0,-2.093 -5.5316,-5.681 -12.1096,-7.774 -75.4986,-24.9669 -73.7045,-134.10342 2.8404,-169.98372 0,0 68.1383,-41.9129 139.8375,-37.8774 70.031,3.9415 98.1725,20.3429 98.1725,20.3429 0,0 67.4346,-24.7071 98.2334,-25.6713 22.4073,-0.7016 52.567,-8.5092 120.3676,1.6747 90.0977,13.533 119.2705,41.5311 119.2705,41.5311 48.7377,25.8637 59.2029,83.422 22.5748,123.1895 -11.9601,12.85722 -12.4086,14.20272 -13.3056,35.88042 -2.3921,61.5949 -57.8573,111.8276 -120.7976,109.1365 l -15.6977,-0.598 -10.9137,16.1462 c -39.4685,58.9038 -111.9769,91.9437 -176.5618,80.432 z"
       id="path3-3-8-7"
       style="fill:#000000;fill-opacity:1;stroke-width:0.149502"
       sodipodi:nodetypes="ccssccscssccccccc" />
    <path
       id="path38-2-7-5"
       style="fill:#000000;stroke-width:2621.31;stroke-linejoin:bevel;stroke-dashoffset:13;stroke-opacity:0.8"
       d="m 4804.1332,-1642.5748 c -59.9447,54.6243 -219.9182,44.3748 -270.7302,10.6478 -39.3555,11.2814 -82.3561,17.1361 -125.9013,17.142 -79.8296,-3.2755 -136.6792,6.3089 -181.7851,-83.9254 -83.3836,-3.2678 -101.8302,-148.2024 -81.8835,-172.5548 -7.6373,-18.2273 -11.6417,-36.8562 -11.9428,-55.5587 0.3925,-74.3145 59.1353,-144.9289 161.1906,-193.7662 22.7195,-85.2734 127.0648,-147.0438 248.7206,-147.2379 72.0033,0.1451 140.5302,22.1088 188.5052,60.4181 30.3833,-15.0462 64.6532,-23.0285 99.55,-23.1876 112.9709,0 204.5456,80.2828 204.5318,179.3026 -0.015,7.2396 -0.5289,14.4719 -1.541,21.6571 25.8434,32.4255 39.2584,67.422 39.4115,102.8139 0.013,50.6 -27.076,100.0854 -77.8985,142.302 0.8041,5.2385 1.2925,10.4979 1.464,15.7646 -11.2987,92.0355 -97.768,136.308 -191.6913,126.1825 z"
       sodipodi:nodetypes="cccccccccccccccc" />
    <path
       id="path32-2-3"
       style="fill:#000000;stroke-width:2124.34;stroke-linejoin:bevel;stroke-dashoffset:13;stroke-opacity:0.8"
       d="m 5117.5341,-2254.4051 c -89.822,3.4114 -160.9618,-1.0184 -196.832,-92.8079 -42.8387,-29.2827 -65.8078,-63.5632 -66.0937,-98.6425 0.1898,-25.1388 12.033,-49.982 34.7698,-72.9355 -21.2378,-19.4059 8.8517,-86.4544 85.3731,-103.1036 8.4309,-36.6156 52.4079,-67.2596 116.7544,-77.3882 19.4221,-20.2217 67.1029,-12.6439 88.299,-9.8257 42.4231,-33.0303 102.2927,-43.2379 170.0446,-22.769 55.2268,-13.87 147.9165,1.1776 188.1296,50.3024 81.6824,9.9476 130.977,90.1081 122.4466,140.7329 51.8276,9.6813 78.0018,98.3736 47.2674,126.9311 23.8526,22.1093 22.5585,86.5767 -15.1789,104.2585 -30.5703,43.7794 -58.1148,62.2297 -151.8022,53.0106 -37.4532,43.6184 -178.7862,54.7352 -222.7925,40.4094 -39.5367,15.5433 -169.2231,16.5192 -200.3852,-38.1725 z"
       sodipodi:nodetypes="ccccccccccccccc" />
    <path
       id="path32-5"
       style="fill:#000000;stroke-width:2269.51;stroke-linejoin:bevel;stroke-dashoffset:13;stroke-opacity:0.8"
       d="m 8765.5306,278.37607 c -86.6464,4.0363 -155.2714,-1.2049 -189.8733,-109.8073 -41.3244,-34.6464 -63.4813,-75.205896 -63.7571,-116.710696 0.183,-29.7434 11.6075,-59.1371003 33.5405,-86.2949 -20.4869,-22.9604 8.5388,-102.290104 82.3548,-121.989004 8.1329,-43.3224 50.5553,-79.57949 112.627,-91.56319 18.7353,-23.9257 64.7305,-14.9598 85.1773,-11.6254 40.9234,-39.0804 98.6763,-51.1577 164.0331,-26.9396 53.2747,-16.4106 142.6877,1.3933 181.4787,59.51619 78.795,11.7697 126.346,106.613 118.118,166.510704 49.995,11.4546 75.244,116.3925 45.596,150.1808 23.009,26.159096 21.761,102.434896 -14.642,123.355396 -29.49,51.7984 -56.06,73.6282 -146.436,62.7205 -36.129,51.6079 -172.4654,64.7609 -214.916,47.811 -38.1389,18.3904 -163.2406,19.545 -193.301,-45.1645 z"
       sodipodi:nodetypes="ccccccccccccccc" />
    <path
       d="m 8738.5383,-402.6476 c -57.3128,-10.33489 -113.1274,-48.29264 -150.2122,-102.41065 -11.6124,-16.91189 -12.9236,-17.66352 -29.9676,-17.66352 -61.808,0 -135.4159,-62.01011 -135.4159,-114.24905 0,-2.6307 -6.93,-7.14047 -15.171,-9.77117 -94.5852,-31.38099 -92.3375,-168.55509 3.5585,-213.65318 0,0 85.3642,-52.68049 175.1895,-47.60826 87.7354,4.95409 122.9913,25.56908 122.9913,25.56908 0,0 84.4826,-31.05446 123.0676,-32.26636 28.072,-0.88185 65.8563,-10.69525 150.7975,2.10493 112.8751,17.00969 149.423,52.20061 149.423,52.20061 61.059,32.50818 74.1698,104.85344 28.2819,154.83737 -14.9837,16.16026 -15.5456,17.85143 -16.6694,45.09821 -2.9968,77.41887 -72.4841,140.55655 -151.3362,137.1741 l -19.6662,-0.75163 -13.6727,20.29422 c -49.4465,74.03642 -140.2856,115.5644 -221.1981,101.0953 z"
       id="path3-3-8-62"
       style="fill:#000000;fill-opacity:1;stroke-width:0.187603"
       sodipodi:nodetypes="ccssccscssccccccc" />
    <path
       id="path15-9"
       style="fill:#000000;stroke-width:2269.51;stroke-linejoin:bevel;stroke-dashoffset:13;stroke-opacity:0.8"
       d="m 8643.1642,-2629.3791 c -67.3752,-0.111 -131.296,-19.4621 -174.9167,-52.9536 -36.2117,1.8684 -78.7966,24.2994 -140.3,-39.9557 -138.7854,6.4253 -149.7224,-18.441 -188.4248,-104.4785 -66.7164,-9.2966 -121.714,-46.6754 -149.4203,-101.5527 -49.9567,-99.7413 73.143,-171.0009 150.6382,-172.8833 6.8325,-76.4971 174.0531,-144.5412 237.2564,-75.4636 59.9903,-26.0262 156.9573,-57.6166 219.2539,-20.4056 113.6772,-26.5608 182.6154,7.8953 251.7111,56.1734 167.93,14.6498 287.1821,71.8009 287.5054,137.7858 -0.012,42.3314 -49.4621,82.4401 -134.7941,109.3312 -10.3985,50.072 -56.9865,95.6034 -128.9769,126.0516 -9.4717,78.1069 -109.4063,138.3427 -229.5322,138.351 z"
       sodipodi:nodetypes="ccccccccccccc" />
    <path
       id="path26-7-1"
       style="fill:#000000;stroke-width:2269.52;stroke-linejoin:bevel;stroke-dashoffset:13;stroke-opacity:0.8"
       d="m 9020.5504,-2017.0235 c -79.036,-0.04 -154.686,-19.7842 -209.7872,-54.7154 -152.3796,13.0986 -187.1154,-25.4382 -210.9638,-100.1382 -79.975,-13.4274 -86.5706,-132.1694 -50.3796,-170.5892 -29.2266,-18.1436 -32.2156,-107.3278 45.6746,-118.2396 4.8872,-36.3584 61.8872,-70.3682 116.1772,-70.9286 5.453,0.06 10.8978,0.26 16.3216,0.566 37.982,-94.3148 129.3032,-104.2546 219.1302,-89.6936 21.328,-15.6922 91.195,-35.4214 132.598,15.8644 55.906,-56.0732 219.263,-57.5114 267.386,36.0454 79.245,-43.0716 218.998,44.054 200.369,127.6356 33.253,51.8762 23.253,122.8554 -25.81,169.199 -14.406,117.1353 -101.246,204.1872 -203.704,204.2023 -24.154,-0.204 -48.088,-5.3304 -70.704,-15.1249 -55.659,41.7247 -138.681,65.907 -226.308,65.9176 z"
       sodipodi:nodetypes="ccccccccccccccc" />
    <path
       id="path26-7-2"
       style="fill:#000000;stroke-width:2269.52;stroke-linejoin:bevel;stroke-dashoffset:13;stroke-opacity:0.8"
       d="m 7095.0897,-2438.7609 c -79.0354,-0.04 -154.6854,-19.7842 -209.787,-54.7154 -152.3796,13.0986 -187.1154,-25.4382 -210.9638,-100.1382 -79.975,-13.4274 -86.5706,-132.1694 -50.3796,-170.5892 -29.2266,-18.1436 -32.2156,-107.3278 45.6746,-118.2396 4.8872,-36.3584 61.8872,-70.3682 116.1772,-70.9286 5.453,0.06 10.8978,0.26 16.3216,0.566 37.982,-94.3148 129.3034,-104.2546 219.1306,-89.6936 21.3272,-15.6922 91.1946,-35.4214 132.5974,15.8644 55.9058,-56.0732 219.2636,-57.5114 267.3862,36.0454 79.2452,-43.0716 218.9984,44.054 200.3688,127.6356 33.2536,51.8762 23.2528,122.8554 -25.81,169.199 -14.4062,117.1353 -101.2456,204.1872 -203.7036,204.2023 -24.1542,-0.204 -48.0878,-5.3304 -70.7046,-15.1249 -55.6586,41.7247 -138.6808,65.907 -226.3078,65.9176 z"
       sodipodi:nodetypes="ccccccccccccccc" />
    <path
       id="path26-9-7"
       style="fill:#000000;stroke-width:2020.82;stroke-linejoin:bevel;stroke-dashoffset:13;stroke-opacity:0.8"
       d="m 6081.9206,-2572.1277 c -70.8874,-0.036 -138.7384,-17.4889 -188.1594,-48.3672 -136.6706,11.5788 -167.8252,-22.4868 -189.2149,-88.5201 -71.7303,-11.8694 -77.646,-116.8349 -45.1861,-150.797 -26.2133,-16.0385 -28.8944,-94.8755 40.9659,-104.5213 4.3836,-32.1403 55.5071,-62.2042 104.2004,-62.6994 4.8906,0.053 9.7742,0.2316 14.6389,0.5003 34.0664,-83.3721 115.9731,-92.1585 196.5396,-79.2868 19.1286,-13.8718 81.7933,-31.312 118.9277,14.0237 50.1425,-49.5678 196.6593,-50.839 239.8209,31.8631 71.0755,-38.074 196.4212,38.943 179.712,112.8271 29.8256,45.8576 20.8558,108.6016 -23.149,149.5683 -12.9213,103.545 -90.8081,180.4971 -182.7033,180.5104 -21.6643,-0.1804 -43.1302,-4.712 -63.4155,-13.37 -49.9207,36.8836 -124.3839,58.2604 -202.9772,58.2699 z"
       sodipodi:nodetypes="ccccccccccccccc" />
    <path
       id="path9-7-4-0"
       style="fill:#000000;stroke-width:1909.32;stroke-linejoin:bevel;stroke-dashoffset:13;stroke-opacity:0.8"
       d="m 4837.2098,-2748.8597 c -74.4755,-0.084 -144.8837,-25.1217 -191.4533,-68.0817 -144.2128,-30.571 -184.658,-66.0346 -209.3216,-163.6058 -30.7125,-68.6436 -7.3731,-157.5395 71.0811,-193.2521 -42.1895,-23.2397 -41.3173,-65.0335 -28.6067,-99.5799 22.1807,-59.8475 59.6533,-74.8868 114.1876,-95.8065 41.2852,-9.4556 92.2392,-16.1886 120.4811,-4.0886 14.1562,-74.0054 129.469,-112.6693 246.1994,-90.956 134.1049,-39.0743 240.5902,22.1797 247.2728,99.9757 75.9469,33.521 135.4065,82.7077 170.2981,140.8756 102.5209,23.459 119.0104,109.8722 93.3171,196.3528 14.4887,96.41 -33.114,143.7134 -171.2025,143.7087 h -0.2705 c -17.0105,69.1154 -95.6542,119.1611 -187.2602,119.1647 -41.0293,-0.044 -80.9444,-10.2543 -113.8117,-29.1118 -44.6683,28.622 -101.7951,44.3866 -160.9107,44.4049 z"
       sodipodi:nodetypes="cccccccccccscccc" />
    <path
       d="m 4474.9974,-2336.7528 c -45.7475,-8.2225 -90.2991,-38.4219 -119.9005,-81.4785 -9.2691,-13.4552 -10.3157,-14.0532 -23.9203,-14.0532 -49.3356,0 -108.0899,-49.3356 -108.0899,-90.8972 0,-2.093 -5.5316,-5.681 -12.1096,-7.774 -75.4986,-24.9669 -73.7045,-134.1034 2.8404,-169.9838 0,0 68.1383,-41.9129 139.8375,-37.8774 70.031,3.9415 98.1725,20.3429 98.1725,20.3429 0,0 67.4346,-24.7071 98.2334,-25.6713 22.4073,-0.7016 52.567,-8.5092 120.3676,1.6747 90.0977,13.533 119.2705,41.5311 119.2705,41.5311 48.7377,25.8638 59.2029,83.4221 22.5748,123.1896 -11.9601,12.8572 -12.4086,14.2027 -13.3056,35.8804 -2.3921,61.5949 -57.8573,111.8276 -120.7976,109.1365 l -15.6977,-0.598 -10.9137,16.1462 c -39.4685,58.9038 -111.9769,91.9437 -176.5618,80.432 z"
       id="path3-3-8-1-3-9"
       style="fill:#000000;fill-opacity:1;stroke-width:0.149502"
       sodipodi:nodetypes="ccssccscssccccccc" />
    <path
       id="path9-7-4-0-3"
       style="fill:#000000;stroke-width:1909.32;stroke-linejoin:bevel;stroke-dashoffset:13;stroke-opacity:0.8"
       d="m 6302.7653,1713.8052 c -74.4755,-0.084 -144.8837,-25.1217 -191.4533,-68.0817 -144.2128,-30.571 -184.658,-66.0346 -209.3216,-163.6058 -30.7125,-68.6436 -7.3731,-157.5395 71.0811,-193.2521 -42.1895,-23.2397 -41.3173,-65.0335 -28.6067,-99.5799 22.1807,-59.8475 59.6533,-74.8868 114.1876,-95.8065 41.2852,-9.4556 92.2392,-16.1886 120.4811,-4.0886 14.1562,-74.0054 129.469,-112.66928 246.1994,-90.95598 134.1049,-39.0743 240.5902,22.17968 247.2728,99.97568 75.9469,33.521 135.4065,82.7077 170.2981,140.8756 102.5209,23.459 119.0104,109.8722 93.3171,196.3528 14.4887,96.41 -33.114,143.7134 -171.2025,143.7087 h -0.2705 c -17.0105,69.1154 -95.6542,119.1611 -187.2602,119.1647 -41.0293,-0.044 -80.9444,-10.2543 -113.8117,-29.1118 -44.6683,28.622 -101.7951,44.3866 -160.9107,44.4049 z"
       sodipodi:nodetypes="cccccccccccscccc" />
    <path
       id="path15-3-6"
       style="fill:#000000;stroke-width:2951.84;stroke-linejoin:bevel;stroke-dashoffset:13;stroke-opacity:0.8"
       d="m 4758.9939,1667.6892 c -83.1469,-0.1525 -162.0308,-26.6786 -215.8626,-72.5887 -44.6885,2.5612 -97.2421,33.3094 -173.1427,-54.7712 -171.2735,8.8077 -184.7706,-25.279 -232.5328,-143.2189 -82.334,-12.7438 -150.2059,-63.9825 -184.3978,-139.2082 -61.651,-136.7252 90.2648,-234.4077 185.9008,-236.988 8.4319,-104.86206 214.7969,-198.13666 292.7954,-103.44526 74.0333,-35.6767 193.6992,-78.9806 270.5786,-27.972 140.2877,-36.4094 225.3636,10.8228 310.6338,77.0024 207.2404,20.0819 354.4081,98.42446 354.8072,188.87646 -0.016,58.0278 -61.0406,113.0087 -166.3478,149.871 -12.8328,68.6385 -70.3266,131.0526 -159.169,172.7912 -11.6889,107.0685 -135.0171,189.6396 -283.2631,189.6512 z"
       sodipodi:nodetypes="ccccccccccccc" />
    <path
       id="path32-5-0"
       style="fill:#000000;stroke-width:2269.51;stroke-linejoin:bevel;stroke-dashoffset:13;stroke-opacity:0.8"
       d="m 4161.3808,422.25395 c -86.6464,4.0363 -155.2714,-1.2049 -189.8733,-109.8073 -41.3244,-34.6464 -63.4813,-75.2059 -63.7571,-116.7107 0.183,-29.7434 11.6075,-59.1371 33.5405,-86.2949 -20.4869,-22.960402 8.5388,-102.2901019 82.3548,-121.989002 8.1329,-43.3224 50.5553,-79.57949 112.627,-91.563188 18.7353,-23.9257 64.7305,-14.9598 85.1773,-11.6254 40.9234,-39.0804 98.6763,-51.1577 164.0331,-26.9396 53.2747,-16.4106 142.6877,1.3933 181.4787,59.516188 78.795,11.7697 126.346,106.613 118.118,166.5107 49.995,11.4546 75.244,116.392502 45.596,150.180802 23.009,26.1591 21.761,102.4349 -14.642,123.3554 -29.49,51.7984 -56.06,73.6282 -146.436,62.7205 -36.129,51.6079 -172.4654,64.7609 -214.916,47.811 -38.1389,18.3904 -163.2406,19.545 -193.301,-45.1645 z"
       sodipodi:nodetypes="ccccccccccccccc" />
    <path
       id="path38-2-7-2-6"
       style="fill:#000000;stroke-width:2621.31;stroke-linejoin:bevel;stroke-dashoffset:13;stroke-opacity:0.8"
       d="m 9061.1041,1563.505 c -59.9447,54.6243 -219.9182,44.3748 -270.7302,10.6478 -39.3555,11.2814 -82.3561,17.1361 -125.9013,17.142 -79.8296,-3.2755 -136.6792,6.3089 -181.7851,-83.9254 -83.3836,-3.2678 -101.8302,-148.2023 -81.8835,-172.5547 -7.6373,-18.2273 -11.6417,-36.8562 -11.9428,-55.5587 0.3925,-74.3145 59.1353,-144.9289 161.1906,-193.7662 22.7195,-85.2734 127.0648,-147.04379 248.7206,-147.23789 72.0033,0.1451 140.5302,22.1088 188.5052,60.4181 30.3833,-15.0462 64.6532,-23.0285 99.55,-23.1876 112.971,0 204.546,80.28279 204.532,179.30259 -0.01,7.2396 -0.529,14.4719 -1.541,21.6571 25.843,32.4255 39.258,67.422 39.411,102.8139 0.01,50.6 -27.076,100.0854 -77.898,142.3019 0.804,5.2385 1.292,10.4979 1.464,15.7646 -11.299,92.0355 -97.768,136.308 -191.6915,126.1825 z"
       sodipodi:nodetypes="cccccccccccccccc" />
    <path
       id="path15-6-3-2"
       style="fill:#000000;stroke-width:1831.92;stroke-linejoin:bevel;stroke-dashoffset:13;stroke-opacity:0.8"
       d="m 7601.0442,1749.9519 c -57.1845,-0.085 -111.4371,-14.9404 -148.46,-40.6508 -30.7346,1.4343 -66.8784,18.6538 -119.0792,-30.6728 -117.7936,4.9325 -127.0764,-14.1566 -159.9248,-80.2049 -56.6254,-7.1368 -103.3045,-35.8313 -126.8201,-77.9589 -42.4005,-76.5683 62.0799,-131.2721 127.8537,-132.7172 5.7991,-58.7244 147.727,-110.9597 201.3706,-57.931 50.9166,-19.9797 133.217,-44.2305 186.0909,-15.6648 96.4832,-20.3898 154.9943,6.061 213.639,43.1226 142.53,11.2462 243.7448,55.1193 244.0193,105.7739 -0.011,32.4965 -41.9808,63.2867 -114.4061,83.9302 -8.8257,38.4387 -48.3671,73.3917 -109.4686,96.7659 -8.0392,59.9602 -92.8583,106.2013 -194.8147,106.2078 z"
       sodipodi:nodetypes="ccccccccccccc" />
  </g>
</svg>
