<?xml version="1.0" encoding="UTF-8" standalone="no"?>
<svg
   version="1.0"
   width="300.000000pt"
   height="300.000000pt"
   viewBox="0 0 300.000000 300.000000"
   preserveAspectRatio="xMidYMid meet"
   id="svg4"
   sodipodi:docname="grass2.svg"
   inkscape:version="1.3 (0e150ed6c4, 2023-07-21)"
   xmlns:inkscape="http://www.inkscape.org/namespaces/inkscape"
   xmlns:sodipodi="http://sodipodi.sourceforge.net/DTD/sodipodi-0.dtd"
   xmlns:xlink="http://www.w3.org/1999/xlink"
   xmlns="http://www.w3.org/2000/svg"
   xmlns:svg="http://www.w3.org/2000/svg">
  <defs
     id="defs4">
    <linearGradient
       id="linearGradient4"
       inkscape:collect="always">
      <stop
         style="stop-color:#114b5f;stop-opacity:1;"
         offset="0"
         id="stop4" />
      <stop
         style="stop-color:#028090;stop-opacity:1;"
         offset="1"
         id="stop5" />
    </linearGradient>
    <linearGradient
       inkscape:collect="always"
       xlink:href="#linearGradient4"
       id="linearGradient5"
       x1="2886.4397"
       y1="1272.0624"
       x2="2883.1313"
       y2="1005.1818"
       gradientUnits="userSpaceOnUse" />
  </defs>
  <sodipodi:namedview
     id="namedview4"
     pagecolor="#ffffff"
     bordercolor="#000000"
     borderopacity="0.25"
     inkscape:showpageshadow="2"
     inkscape:pageopacity="0.0"
     inkscape:pagecheckerboard="0"
     inkscape:deskcolor="#d1d1d1"
     inkscape:document-units="pt"
     inkscape:zoom="2.94"
     inkscape:cx="199.82993"
     inkscape:cy="200"
     inkscape:window-width="2486"
     inkscape:window-height="1376"
     inkscape:window-x="0"
     inkscape:window-y="0"
     inkscape:window-maximized="1"
     inkscape:current-layer="svg4" />
  <metadata
     id="metadata1">&#10;Created by potrace 1.10, written by Peter Selinger 2001-2011&#10;</metadata>
  <g
     transform="translate(0.000000,300.000000) scale(0.050000,-0.050000)"
     fill="#000000"
     stroke="none"
     id="g4"
     style="fill:url(#linearGradient5);fill-opacity:1">
    <path
       d="M2528 5060 c7 -60 35 -303 63 -540 27 -236 68 -559 91 -717 48 -336 43 -368 -19 -127 -58 223 -312 1089 -351 1194 -44 119 -38 71 18 -150 53 -209 419 -1862 438 -1980 19 -116 0 -56 -178 569 -152 534 -190 653 -190 603 0 -8 22 -102 49 -209 27 -107 122 -498 210 -870 l161 -675 0 -330 c0 -182 -7 -326 -15 -321 -40 25 -132 251 -205 503 -45 154 -86 296 -92 315 -6 19 -2 35 8 35 16 0 69 -108 174 -355 37 -88 70 -111 70 -49 0 75 -123 529 -229 844 -135 400 -189 597 -271 990 -64 310 -144 598 -180 650 -41 60 27 -859 82 -1115 48 -223 41 -253 -22 -85 -25 67 -49 118 -53 114 -4 -4 16 -70 45 -146 109 -287 471 -1368 457 -1368 -44 0 -186 271 -148 284 23 7 -104 198 -224 334 -83 94 -112 175 -247 673 -51 187 -67 229 -59 153 9 -89 91 -444 140 -609 9 -30 -37 3 -142 105 l-155 150 111 -140 c259 -329 808 -1193 844 -1330 16 -59 27 -76 -227 334 -210 338 -628 886 -655 859 -5 -4 64 -108 151 -231 292 -407 833 -1362 758 -1338 -14 5 -107 170 -206 368 -218 431 -364 668 -539 868 -140 161 -172 216 -178 310 -2 33 -9 69 -16 80 -36 60 -183 591 -215 780 l-39 220 8 -210 c7 -191 18 -242 126 -575 65 -201 114 -365 108 -365 -6 0 -98 83 -203 185 -332 321 -441 390 -264 168 210 -265 426 -599 378 -585 -287 82 -513 34 -678 -141 -172 -184 -184 -261 -23 -148 346 241 777 157 1152 -224 142 -145 119 -88 -79 197 -70 100 -121 188 -114 195 38 39 85 4 145 -109 171 -320 416 -998 361 -998 -35 0 -99 125 -88 171 15 61 -193 245 -389 342 -281 141 -621 105 -806 -86 -73 -76 -60 -81 98 -35 328 96 638 -1 921 -285 l166 -167 499 0 c436 0 499 4 499 31 0 47 73 180 142 258 72 83 124 89 239 31 103 -53 102 -16 -1 52 -101 67 -88 86 127 190 237 115 510 147 753 90 34 -9 27 -2 -20 21 -181 87 -661 36 -940 -100 -71 -34 -138 -67 -148 -71 -22 -9 15 53 233 398 162 255 132 267 -39 17 -91 -133 -126 -154 -126 -74 0 41 145 300 187 333 67 53 272 109 407 111 164 2 165 29 3 51 l-107 14 80 35 c109 48 219 71 350 75 l110 4 -110 13 c-128 17 -371 -6 -506 -47 -119 -36 -119 -33 28 123 319 341 602 820 787 1330 92 254 79 246 -70 -44 -214 -422 -494 -811 -791 -1101 -95 -93 -166 -156 -156 -140 57 103 202 289 252 326 121 90 516 1387 516 1696 0 54 -22 -4 -90 -240 -224 -770 -692 -1804 -926 -2047 -135 -139 -196 -176 -133 -80 61 93 471 850 464 856 -10 11 -282 -443 -406 -677 -62 -119 -108 -222 -102 -228 7 -7 -35 -67 -93 -134 -58 -67 -149 -187 -203 -267 -154 -228 -131 -153 45 149 223 383 487 1017 1027 2476 97 260 30 144 -109 -190 -186 -447 -459 -1062 -467 -1054 -4 4 16 83 44 176 73 241 209 790 207 832 -1 20 -24 -36 -51 -124 -412 -1334 -403 -1310 -578 -1661 -93 -187 -169 -350 -169 -361 0 -11 -12 -36 -26 -56 -23 -31 -25 -21 -21 71 23 509 43 968 45 1067 4 151 83 696 164 1136 63 343 69 474 10 210 -56 -248 -130 -637 -161 -844 -43 -288 -63 -246 -52 108 7 219 105 965 152 1160 10 43 9 45 -11 14 -33 -51 -113 -447 -141 -694 -32 -287 -40 -297 -71 -90 -40 265 -104 568 -129 606 -18 30 -20 29 -11 -6 33 -131 141 -853 162 -1090 20 -211 -16 -156 -57 90 -41 238 -134 636 -146 624 -4 -5 14 -120 42 -256 143 -710 200 -1487 135 -1838 l-17 -90 -14 140 c-8 77 -20 183 -26 235 -9 78 -5 95 21 95 18 0 32 11 32 25 0 171 -201 1583 -302 2124 -61 322 -95 435 -70 231z m1099 -2965 c-22 -25 -84 -123 -138 -219 -54 -95 -101 -171 -104 -168 -15 16 162 366 201 397 63 49 88 43 41 -10z m-108 -434 c-35 -80 -54 -101 -90 -101 -26 0 -53 -10 -61 -23 -10 -17 4 -20 49 -11 83 17 82 15 -54 -92 -67 -53 -153 -148 -202 -223 -98 -149 -115 -163 -70 -56 71 171 330 636 278 500 -28 -74 12 -30 95 105 l86 139 6 -68 c4 -39 -13 -112 -37 -170z m-365 -144 c-48 -114 -108 -259 -133 -322 -80 -201 -112 -127 -39 91 41 122 65 169 184 360 89 144 86 102 -12 -129z m-292 -106 c26 17 21 -15 -10 -57 -25 -32 -28 -30 -36 26 -9 62 9 108 21 52 3 -18 14 -27 25 -21z"
       id="path1"
       style="fill:url(#linearGradient5);fill-opacity:1.0" />
    <path
       d="M3592 4200 c-30 -246 -327 -1354 -331 -1238 0 18 26 225 60 459 33 235 57 441 54 458 -9 43 -105 -460 -163 -849 -40 -271 -68 -390 -164 -710 -4 -16 8 -9 28 17 171 218 574 1664 540 1937 -5 35 -13 8 -24 -74z"
       id="path2"
       style="fill:url(#linearGradient5);fill-opacity:1.0" />
    <path
       d="M1440 3593 c0 -22 98 -220 99 -201 1 27 -77 208 -90 208 -5 0 -9 -3 -9 -7z"
       id="path3"
       style="fill:url(#linearGradient5);fill-opacity:1.0" />
    <path
       d="M1920 1953 c0 -20 273 -342 358 -422 87 -82 77 -34 -16 82 -92 114 -342 363 -342 340z"
       id="path4"
       style="fill:url(#linearGradient5);fill-opacity:1.0" />
  </g>
</svg>
