<?xml version="1.0" encoding="UTF-8" standalone="no"?>
<svg
   version="1.0"
   width="300.000000pt"
   height="300.000000pt"
   viewBox="0 0 300.000000 300.000000"
   preserveAspectRatio="xMidYMid meet"
   id="svg20"
   sodipodi:docname="C5LZti01.svg"
   inkscape:version="1.3 (0e150ed6c4, 2023-07-21)"
   xmlns:inkscape="http://www.inkscape.org/namespaces/inkscape"
   xmlns:sodipodi="http://sodipodi.sourceforge.net/DTD/sodipodi-0.dtd"
   xmlns:xlink="http://www.w3.org/1999/xlink"
   xmlns="http://www.w3.org/2000/svg"
   xmlns:svg="http://www.w3.org/2000/svg">
  <defs
     id="defs20">
    <linearGradient
       id="linearGradient20"
       inkscape:collect="always">
      <stop
         style="stop-color:#114b5f;stop-opacity:1;"
         offset="0"
         id="stop20" />
      <stop
         style="stop-color:#028090;stop-opacity:1;"
         offset="1"
         id="stop21" />
    </linearGradient>
    <linearGradient
       inkscape:collect="always"
       xlink:href="#linearGradient20"
       id="linearGradient21"
       x1="1421.5663"
       y1="640.83362"
       x2="1421.1305"
       y2="481.67386"
       gradientUnits="userSpaceOnUse" />
  </defs>
  <sodipodi:namedview
     id="namedview20"
     pagecolor="#ffffff"
     bordercolor="#000000"
     borderopacity="0.25"
     inkscape:showpageshadow="2"
     inkscape:pageopacity="0.0"
     inkscape:pagecheckerboard="0"
     inkscape:deskcolor="#d1d1d1"
     inkscape:document-units="pt"
     inkscape:zoom="2.94"
     inkscape:cx="199.82993"
     inkscape:cy="200"
     inkscape:window-width="2486"
     inkscape:window-height="1376"
     inkscape:window-x="0"
     inkscape:window-y="0"
     inkscape:window-maximized="1"
     inkscape:current-layer="g20" />
  <metadata
     id="metadata1">&#10;Created by potrace 1.10, written by Peter Selinger 2001-2011&#10;</metadata>
  <g
     transform="translate(0.000000,300.000000) scale(0.100000,-0.100000)"
     fill="#000000"
     stroke="none"
     id="g20"
     style="fill:url(#linearGradient21);fill-opacity:1">
    <path
       d="M1450 2477 c52 -78 110 -211 135 -310 82 -324 72 -586 -37 -925 -16 -52 -28 -96 -25 -98 7 -7 53 122 91 254 43 148 61 286 53 412 -8 124 -48 324 -87 433 -33 91 -108 230 -142 262 -13 12 -8 1 12 -28z"
       id="path1"
       style="fill:url(#linearGradient21);fill-opacity:1" />
    <path
       d="M1011 2432 c-1 -40 24 -207 43 -293 8 -35 22 -146 31 -246 8 -100 22 -230 30 -289 9 -59 14 -109 12 -111 -7 -6 -41 91 -39 112 1 25 -52 81 -139 146 -83 61 -97 63 -30 3 28 -25 87 -100 132 -166 l82 -121 49 -206 c27 -113 60 -251 73 -306 17 -74 24 -91 25 -65 1 19 2 43 1 53 -1 9 0 17 4 17 10 0 43 -82 40 -99 -1 -9 -6 -56 -9 -106 -11 -139 -16 -168 -30 -156 -7 6 -23 34 -36 63 -115 256 -149 311 -307 506 -47 57 -82 106 -79 109 2 3 24 -8 48 -25 89 -61 229 -212 281 -302 14 -25 35 -57 46 -70 l21 -25 -11 30 c-30 85 -115 200 -225 305 -140 133 -278 210 -392 216 -56 4 -63 3 -42 -7 133 -61 200 -109 306 -221 70 -74 142 -168 185 -243 19 -33 10 -26 -50 38 -80 84 -168 136 -269 157 -29 7 -50 16 -46 21 3 5 39 9 80 9 78 0 99 14 38 26 -142 26 -302 -63 -380 -212 -42 -79 -54 -124 -14 -54 60 106 149 176 238 187 106 12 259 -62 391 -190 46 -45 71 -82 110 -160 27 -56 60 -132 73 -169 l23 -68 175 0 175 1 40 87 c44 95 124 227 188 312 56 73 65 90 32 60 -40 -36 -317 -374 -351 -428 -2 -2 -11 1 -21 7 -15 9 -16 10 -2 11 10 0 37 36 70 93 29 50 57 95 63 99 6 4 7 8 2 8 -6 0 -3 6 5 13 9 6 38 44 65 82 27 39 100 123 163 188 186 191 349 314 534 403 51 24 88 44 82 44 -21 0 -270 -95 -337 -129 -66 -34 -89 -58 -50 -54 11 1 5 -9 -18 -29 -202 -177 -328 -312 -395 -423 -40 -67 -44 -67 -14 2 29 68 10 44 -66 -81 -36 -60 -65 -102 -65 -94 0 26 102 187 179 281 41 51 135 155 208 231 172 179 221 245 293 391 58 119 180 416 180 438 0 6 -24 -38 -54 -98 -56 -114 -131 -226 -220 -330 -81 -94 -81 -95 -62 -95 9 0 40 21 68 47 l50 48 -14 -35 c-35 -82 -129 -208 -258 -344 -156 -165 -206 -224 -257 -301 -26 -38 -48 -64 -51 -57 -2 7 7 43 19 79 19 53 39 83 101 151 96 104 181 227 242 350 46 89 59 105 69 80 3 -7 19 19 37 57 54 119 108 294 134 440 14 77 34 180 45 230 23 102 21 125 -3 38 -82 -293 -188 -577 -300 -803 -73 -147 -121 -220 -228 -347 -86 -101 -99 -126 -153 -294 -54 -170 -117 -319 -133 -319 -19 0 -11 63 23 195 36 137 195 521 207 498 3 -4 4 -3 2 4 -1 6 17 62 42 125 25 62 50 132 56 156 6 23 15 42 20 42 5 0 6 5 3 10 -3 6 3 47 15 91 55 212 155 724 148 757 -2 9 -8 -5 -12 -33 -21 -138 -93 -435 -138 -564 -28 -80 -93 -252 -145 -381 -83 -206 -183 -484 -183 -507 0 -4 4 -1 10 7 5 8 12 11 16 8 3 -4 -13 -56 -37 -117 -24 -61 -44 -109 -46 -107 -6 6 17 218 26 234 10 16 10 15 11 -2 0 -11 3 -17 6 -13 12 11 33 304 34 452 0 205 -16 357 -52 494 -17 64 -45 172 -63 241 -34 127 -67 214 -86 226 -7 4 -9 0 -5 -12 5 -18 52 -428 59 -519 l3 -40 9 30 c7 26 -6 224 -21 305 -12 67 41 -79 66 -180 64 -264 69 -504 20 -900 -11 -85 -25 -218 -31 -295 -15 -200 -15 -202 -42 -201 -12 1 -25 6 -30 13 -4 6 -2 69 5 140 17 176 15 205 -21 306 -30 86 -104 422 -100 455 1 9 -1 24 -4 32 -10 25 -22 133 -19 175 1 31 0 35 -8 20 -5 -11 -9 -15 -9 -9 -3 41 -47 263 -77 389 -20 83 -46 209 -59 280 -13 72 -24 115 -24 97z m621 -1200 c-7 -2 -12 -12 -12 -22 0 -10 -4 -22 -10 -25 -16 -10 -12 14 7 46 10 17 20 24 22 17 2 -6 -1 -14 -7 -16z m-97 -615 c-28 -67 -26 -38 2 43 3 8 7 10 9 4 3 -6 -2 -27 -11 -47z m100 -6 c-8 -27 -32 -51 -51 -51 -23 0 -16 19 18 50 35 32 43 32 33 1z"
       id="path2"
       style="fill:url(#linearGradient21);fill-opacity:1" />
    <path
       d="M1784 2288 c0 -187 -11 -264 -78 -554 -19 -82 -33 -150 -32 -151 1 -2 9 9 16 25 8 15 22 36 32 47 34 40 78 390 77 615 -1 80 -4 155 -7 168 -4 13 -7 -55 -8 -150z"
       id="path3"
       style="fill:url(#linearGradient21);fill-opacity:1" />
    <path
       d="M734 2300 c49 -91 126 -268 166 -378 18 -51 34 -91 36 -89 5 5 -34 118 -75 219 -37 93 -123 265 -146 293 -9 11 -1 -9 19 -45z"
       id="path4"
       style="fill:url(#linearGradient21);fill-opacity:1" />
    <path
       d="M2062 2126 c-45 -52 -86 -114 -124 -191 -36 -72 -141 -355 -135 -362 7 -6 57 113 92 215 41 124 91 223 154 306 55 72 60 86 13 32z"
       id="path5"
       style="fill:url(#linearGradient21);fill-opacity:1" />
    <path
       d="M1199 2123 c30 -59 158 -519 146 -531 -1 -2 -18 19 -38 45 -32 43 -64 73 -107 98 -8 5 11 -20 43 -55 32 -34 69 -79 82 -99 l23 -36 -17 -128 c-15 -107 -15 -126 -3 -114 20 20 53 223 41 254 -5 13 -9 42 -9 64 0 38 -19 166 -41 279 -18 96 -41 154 -76 198 -35 42 -62 58 -44 25z"
       id="path6"
       style="fill:url(#linearGradient21);fill-opacity:1" />
    <path
       d="M1406 1738 c-3 -29 -8 -107 -12 -173 -6 -125 4 -174 40 -204 13 -11 14 -9 3 21 -7 20 -11 103 -12 215 0 183 -8 239 -19 141z"
       id="path7"
       style="fill:url(#linearGradient21);fill-opacity:1" />
    <path
       d="M703 1740 c2 -8 21 -64 41 -125 47 -138 114 -270 138 -270 10 0 38 -20 63 -45 25 -24 45 -41 45 -37 0 4 -26 44 -58 89 -77 109 -146 224 -194 323 -21 44 -37 73 -35 65z"
       id="path8"
       style="fill:url(#linearGradient21);fill-opacity:1" />
    <path
       d="M1020 1554 c0 -23 55 -202 61 -199 9 6 32 -62 58 -174 19 -77 41 -127 41 -90 0 53 -75 271 -100 289 -3 3 -17 44 -30 93 -20 75 -30 103 -30 81z"
       id="path9"
       style="fill:url(#linearGradient21);fill-opacity:1" />
    <path
       d="M946 1430 c25 -87 78 -190 129 -245 30 -33 54 -57 55 -53 0 4 -20 36 -45 72 -26 36 -69 107 -96 158 -28 51 -47 82 -43 68z"
       id="path10"
       style="fill:url(#linearGradient21);fill-opacity:1" />
    <path
       d="M1220 1447 c0 -15 55 -135 67 -147 14 -13 14 -12 8 10 -15 49 -75 159 -75 137z"
       id="path11"
       style="fill:url(#linearGradient21);fill-opacity:1" />
    <path
       d="M1411 1295 c0 -33 4 -67 9 -75 12 -19 12 86 0 115 -6 14 -9 3 -9 -40z"
       id="path12"
       style="fill:url(#linearGradient21);fill-opacity:1" />
    <path
       d="M1764 1247 c-43 -47 -113 -157 -100 -157 2 0 18 22 34 48 16 26 50 74 76 105 25 31 44 57 42 57 -2 0 -26 -24 -52 -53z"
       id="path13"
       style="fill:url(#linearGradient21);fill-opacity:1" />
    <path
       d="M1382 1185 c0 -46 2 -54 8 -33 4 14 4 41 0 60 -7 28 -8 24 -8 -27z"
       id="path14"
       style="fill:url(#linearGradient21);fill-opacity:1" />
    <path
       d="M1582 978 c-24 -39 -52 -132 -51 -167 0 -17 5 -8 14 26 8 28 25 79 39 112 13 34 23 61 21 61 -2 0 -12 -15 -23 -32z"
       id="path15"
       style="fill:url(#linearGradient21);fill-opacity:1" />
    <path
       d="M968 870 c42 -43 79 -75 81 -69 2 6 -2 16 -8 22 -6 6 -11 16 -11 21 0 6 22 -11 48 -37 52 -51 70 -60 51 -25 -37 68 -168 168 -223 168 -8 0 20 -36 62 -80z"
       id="path16"
       style="fill:url(#linearGradient21);fill-opacity:1" />
    <path
       d="M646 905 c-21 -7 -46 -21 -55 -30 -14 -15 -12 -15 19 1 54 28 138 23 243 -14 50 -18 104 -45 123 -62 44 -38 67 -39 30 -1 -55 57 -207 122 -285 121 -20 -1 -54 -7 -75 -15z"
       id="path17"
       style="fill:url(#linearGradient21);fill-opacity:1" />
    <path
       d="M1988 854 c-89 -21 -243 -105 -235 -128 3 -6 -10 -29 -28 -51 -55 -69 -51 -72 15 -12 72 65 204 135 308 163 79 22 131 11 210 -43 78 -53 132 -134 178 -263 12 -36 23 -58 23 -49 1 9 -7 40 -18 70 -49 145 -126 243 -226 290 l-60 29 85 0 c47 0 110 -6 140 -14 71 -19 78 -12 9 8 -67 20 -316 20 -401 0z m37 -11 c-11 -3 -42 -14 -70 -25 -27 -11 -45 -15 -40 -9 14 14 85 40 110 39 20 0 20 0 0 -5z"
       id="path18"
       style="fill:#114b5f;fill-opacity:1" />
    <path
       d="M720 853 c-79 -30 -148 -118 -186 -238 -34 -107 -30 -122 11 -39 64 131 169 205 271 189 92 -13 241 -116 305 -209 21 -31 29 -36 65 -36 35 0 43 4 48 22 7 27 -10 49 -20 25 -13 -34 -48 -18 -104 44 -62 72 -180 152 -253 174 -55 16 -119 12 -174 -10 -26 -11 -31 -11 -27 -1 5 14 101 66 121 66 7 0 15 5 18 10 7 11 -49 13 -75 3z"
       id="path19"
       style="fill:url(#linearGradient21);fill-opacity:1" />
    <path
       d="M1865 635 c-143 -31 -175 -42 -202 -73 -13 -14 -23 -26 -23 -28 0 -2 30 11 68 29 144 68 345 40 488 -69 48 -37 64 -27 19 12 -55 49 -148 92 -230 107 -70 13 -70 13 -30 20 85 14 231 5 309 -19 11 -4 16 -2 12 4 -11 18 -141 42 -223 41 -43 0 -127 -11 -188 -24z"
       id="path20"
       style="fill:#114b5f;fill-opacity:1" />
  </g>
</svg>
