<?xml version="1.0" encoding="UTF-8" standalone="no"?>
<svg
   id="eDvfmVN7tWS1"
   viewBox="0 0 100 100"
   shape-rendering="geometricPrecision"
   text-rendering="geometricPrecision"
   version="1.1"
   sodipodi:docname="pillarV2.svg"
   inkscape:version="1.3 (0e150ed6c4, 2023-07-21)"
   xmlns:inkscape="http://www.inkscape.org/namespaces/inkscape"
   xmlns:sodipodi="http://sodipodi.sourceforge.net/DTD/sodipodi-0.dtd"
   xmlns="http://www.w3.org/2000/svg"
   xmlns:svg="http://www.w3.org/2000/svg">
  <defs
     id="defs3">
    <clipPath
       clipPathUnits="userSpaceOnUse"
       id="clipPath273">
      <path
         style="fill:none;stroke:#114b5f;stroke-width:0.514313"
         d="m 27.346947,129.28647 c 1.780281,-0.0321 3.520572,0.0454 5.288315,0.0454 0.406776,0 0.813553,0 1.22033,0 0.140881,0 0.326958,-0.0367 0.462883,0 0.290429,0.0784 0.619462,0.0455 0.925767,0.0455 0.420804,0 0.841607,0 1.26241,0 0.268166,0 0.834767,0.0719 1.052009,-0.0455 0.100851,-0.0545 0.278233,0.0551 0.378723,0 0.01783,-0.01 0.02422,-0.0365 0.04208,-0.0462 0.07986,-0.0434 0.304477,0.0405 0.463706,-0.0455 0.164971,-0.0891 0.80403,0.0885 0.967847,0 0.01774,-0.01 0.02434,-0.0359 0.04208,-0.0454 0.06438,-0.0348 0.123715,0.0214 0.168321,0.0454 0.107086,0.0578 0.382583,0 0.504964,0 0.332384,0 0.706818,0.0508 1.021599,-0.0454 0.05559,-0.017 0.174816,0.0326 0.221086,0 0.01533,-0.0108 -0.0158,-0.0493 0,-0.0593 0.06336,-0.04 0.193039,0.0284 0.26218,0 0.03442,-0.0142 0.06163,-0.046 0.09698,-0.0572 0.05954,-0.0188 0.441377,0.0236 0.462883,0 0.01,-0.011 -0.01008,-0.0353 0,-0.0462 0.0034,-0.004 0.580522,0 0.621836,0 0.197863,0 0.464608,-0.0433 0.631862,0.0455 0.09047,0.048 0.247348,-0.0487 0.337465,0 0.01774,0.01 0.02326,0.0387 0.04208,0.0454 0.148108,0.0533 1.177336,0 1.431718,0 0.05153,0 0.546988,0.0743 0.565783,0.0454 0.0078,-0.0119 -0.0097,-0.0336 0,-0.0438 0.03527,-0.0372 0.153883,0.01 0.18969,-0.0254 0.03192,-0.0314 -0.0329,-0.46363 0,-0.53176 0.0091,-0.0188 0.03259,-0.0261 0.04159,-0.0449 0.022,-0.046 -0.03261,-0.18223 0,-0.21732 0.0099,-0.0106 0.03206,0.0107 0.04192,0 0.02411,-0.0262 0.03912,-0.47327 0.03912,-0.57615 0,-0.4721 0,-0.94421 0,-1.41631 0,-0.12863 -0.041,-0.5379 0,-0.63581 0.10633,-0.25393 0.04208,-1.38663 0.04208,-1.74567 0,-0.1149 -0.0015,-0.17865 0.04208,-0.27272 0.03611,-0.078 -0.03371,-0.29081 0.04208,-0.45453 0.06733,-0.14545 -0.06733,-0.39998 0,-0.54543 0.03939,-0.0851 0.04208,-0.12484 0.04208,-0.22904 0,-0.42423 0,-0.84846 0,-1.27268 0,-0.13219 0.05354,-0.42977 0,-0.54544 -0.0089,-0.0192 -0.03321,-0.0263 -0.04208,-0.0455 -0.0335,-0.0724 0.0303,-0.25219 -0.04208,-0.40854 -0.03508,-0.0758 0,-0.81365 0,-0.95451 0,-0.72724 0,-1.45449 0,-2.18173 0,-0.10218 -0.01056,-1.03402 0,-1.04542 0.0099,-0.0107 0.03216,0.0107 0.04208,0 0.03836,-0.0414 0,-0.34397 0,-0.40907 0,-0.15983 -0.01912,-0.32208 0.0429,-0.45453 0.0502,-0.1072 0,-0.3814 0,-0.50069 0,-0.42423 0,-0.84846 0,-1.27268 0,-0.14913 0.04867,-0.75846 0,-0.86361 -0.0089,-0.0192 -0.03321,-0.0263 -0.04208,-0.0454 -0.04413,-0.0953 0,-0.34131 0,-0.45453 0,-0.11189 0.0088,0.0336 -0.04208,-0.10138 -0.02974,-0.0788 0,-0.24186 0,-0.32829 0,-0.0303 0.01984,-0.0695 0,-0.0909 -0.0099,-0.0107 -0.03216,0.0107 -0.04208,0 -0.0077,-0.008 0,-0.69732 0,-0.7727 0,-0.0202 0.01306,-0.15361 0,-0.18181 -0.0089,-0.0192 -0.03581,-0.0251 -0.04208,-0.0454 -0.04913,-0.15921 0,-0.70802 0,-0.90906 0,-1.43934 0,-2.87868 0,-4.31802 0,-0.15519 0.04467,-1.17617 0,-1.27268 -0.0089,-0.0192 -0.03321,-0.0263 -0.04208,-0.0455 -0.03885,-0.0839 0.03679,-0.3296 -0.04208,-0.49998 -0.03885,-0.0839 0.03679,-0.32961 -0.04208,-0.49998 -0.04908,-0.10602 0,-0.37882 0,-0.49998 0,-0.39393 0,-0.78785 0,-1.18178 0,-0.30278 -0.06964,-0.94144 0.0429,-1.18177 0.0622,-0.13283 -0.06258,-0.368096 0,-0.500691 0.06777,-0.143598 0.01282,-0.255064 0.0429,-0.319057 0.0091,-0.01925 0.03639,-0.02498 0.04274,-0.04545 0.04699,-0.151487 -0.03666,-0.345618 0.04208,-0.558573 0.04746,-0.128354 0,-1.236599 0,-1.465676 0,-0.03559 0.021,-0.204584 0,-0.227264 -0.0099,-0.01071 -0.03216,0.01071 -0.04208,0 -0.0164,-0.01771 0,-0.154074 0,-0.181811 0,-0.280661 0.0685,-0.715626 -0.04208,-0.95451 -0.03885,-0.08393 0.03679,-0.329605 -0.04208,-0.499981 -0.07336,-0.158479 0.06768,-0.428963 0,-0.590887 -0.0091,-0.02173 -0.03368,-0.03317 -0.04208,-0.05522 -0.01973,-0.05177 -0.01798,-1.146328 0,-1.184437 0.0091,-0.01927 0.03386,-0.02614 0.0429,-0.04545 0.04058,-0.08666 -0.04091,-0.589228 0,-0.630835 0.01025,-0.01043 0.03236,0.01084 0.04225,0 0.0071,-0.0078 0,-0.574232 0,-0.636873 0,-0.01725 0.0107,-0.11883 0,-0.130144 -0.0093,-0.0098 -0.03012,0.01027 -0.03896,0 -0.02354,-0.02736 0,-1.184402 0,-1.319197 0,-0.03618 -0.02338,-0.266591 0,-0.285145 0.01082,-0.0086 0.03099,0.01048 0.04027,0 0.04722,-0.0533 -0.04816,-0.257278 0,-0.309293 0.0099,-0.01071 0.03216,0.01071 0.04208,0 0.02132,-0.02303 0.04208,-0.953899 0.04208,-1.083056 0,-0.168385 0.0042,-0.692276 0,-0.695286 -0.01112,-0.008 -0.03079,0.01035 -0.04011,0 -0.02075,-0.02305 0.0228,-0.128256 0,-0.148254 -0.01,-0.0087 -0.02982,0.01022 -0.03847,0 -0.03852,-0.04553 0.02696,-0.198229 0,-0.254784 -0.0086,-0.01801 -0.03146,-0.02481 -0.03978,-0.04297 -0.04135,-0.09026 0.02726,-0.219365 -0.02745,-0.287986 -0.01472,-0.01846 -0.09186,-0.06497 -0.111284,-0.08948 -0.0089,-0.01124 0.0099,-0.03413 0,-0.04439 -0.01027,-0.01066 -0.03259,0.0108 -0.04274,0 -0.01,-0.01063 0.0099,-0.03474 0,-0.04545 -0.01984,-0.02142 -0.06027,0.01588 -0.08416,0 -0.01894,-0.01259 -0.02259,-0.04435 -0.04208,-0.05593 -0.02752,-0.01633 -0.07199,0.02398 -0.09419,0 -0.0099,-0.01071 0.0099,-0.03474 0,-0.04546 -0.02811,-0.03036 -0.05605,0.03037 -0.08416,0 -0.0099,-0.01071 0.0099,-0.03474 0,-0.04545 -0.01744,-0.01884 -0.09916,0.0205 -0.114407,0 -0.0082,-0.01103 0.0094,-0.03258 0,-0.04244 -0.02465,-0.02587 -0.156638,8.01e-4 -0.172923,-0.02663 -0.0071,-0.01196 0.0095,-0.03276 0,-0.04261 -0.01862,-0.01939 -0.06041,0.02088 -0.07759,0 -0.0091,-0.01111 0.0096,-0.03394 0,-0.04456 -0.0133,-0.01471 -0.07922,-0.04579 -0.106351,-0.06623 -0.01357,-0.01022 -0.09801,0.01464 -0.10553,0 -0.0077,-0.015 0.01129,-0.03942 0,-0.05149 -0.01908,-0.0204 -0.06393,0.02278 -0.08055,0 -0.0085,-0.01162 0.0098,-0.03405 0,-0.04439 -0.02007,-0.02117 -0.05903,0.01347 -0.08416,0 -0.04978,-0.02668 -0.07843,-0.06484 -0.12772,-0.09162 -0.07126,-0.03871 -0.183617,-0.0083 -0.253962,-0.04634 -0.170615,-0.09214 -0.305809,-0.09698 -0.462884,-0.181811 -0.06065,-0.03276 -0.319345,-0.02268 -0.336642,-0.04545 -0.02785,-0.03666 0.01116,-0.04422 -0.0937,-0.100848 -0.02541,-0.01372 -0.106788,0.02101 -0.126241,0 -0.0099,-0.01071 0.0099,-0.03474 0,-0.04545 -0.02916,-0.03149 -0.181246,-0.01396 -0.210402,-0.04545 -0.0099,-0.01071 0.0099,-0.03474 0,-0.04545 -0.02808,-0.03033 -0.05608,0.03033 -0.08416,0 -0.0099,-0.01071 0.0099,-0.03474 0,-0.04545 -0.01983,-0.02142 -0.05859,0.01245 -0.08416,0 -0.05681,-0.02766 -0.09178,-0.06217 -0.144979,-0.09091 -0.04415,-0.02384 -0.178414,-0.0109 -0.210403,-0.04545 -0.0099,-0.01071 0.0099,-0.03474 0,-0.04545 -0.01983,-0.02143 -0.06432,0.02143 -0.08416,0 -0.0099,-0.01071 0.0099,-0.03474 0,-0.04545 -0.01984,-0.02143 -0.05859,0.01247 -0.08416,0 -0.02012,-0.0098 -0.03071,-0.03639 -0.05112,-0.04545 -0.02879,-0.01277 -0.07157,0.024 -0.09337,0 -0.01001,-0.01103 0.0101,-0.0354 0,-0.04634 -0.01403,-0.01521 -0.111773,-0.03002 -0.126405,-0.04545 -0.0097,-0.01021 0.0097,-0.0337 0,-0.04385 -0.01995,-0.02079 -0.06357,0.02118 -0.08317,0 -0.01064,-0.01149 -0.07248,-0.119717 -0.08334,-0.131209 -0.0014,-0.0015 -0.08119,0.0014 -0.08268,0 -0.01406,-0.0138 -0.02752,-0.0674 -0.04208,-0.07901 -0.02583,-0.0206 -0.0716,0.02213 -0.09632,0 -0.01657,-0.01484 -0.02556,-0.06787 -0.04192,-0.08434 -0.03235,-0.03257 -0.136893,-0.0046 -0.164048,-0.04013 -0.02569,-0.03357 -0.0234,-0.06919 -0.05063,-0.09836 -0.01991,-0.02134 -0.06432,0.02142 -0.08416,0 -0.0099,-0.01071 0.0099,-0.03474 0,-0.04545 -0.01984,-0.02143 -0.06432,0.02143 -0.08416,0 -0.0099,-0.01071 0.0099,-0.03474 0,-0.04545 -0.01984,-0.02143 -0.05907,0.01355 -0.08416,0 -0.06137,-0.03314 -0.06732,-0.07271 -0.08416,-0.0909 -0.01984,-0.02143 -0.06432,0.02143 -0.08416,0 -0.0099,-0.01071 0.0099,-0.03474 0,-0.04545 -0.01984,-0.02143 -0.06432,0.02143 -0.08416,0 -0.05611,-0.0606 0.07013,-0.04545 -0.04208,-0.04545 -0.07009,0 -0.109907,-0.05945 -0.167828,-0.09073 -0.02509,-0.01355 -0.06432,0.02143 -0.08416,0 -0.0099,-0.01071 0.0099,-0.03474 0,-0.04545 -0.02916,-0.0315 -0.181246,-0.01396 -0.210401,-0.04545 -0.0099,-0.01071 0.0099,-0.03474 0,-0.04545 -0.01984,-0.02143 -0.05907,0.01355 -0.08416,0 -0.03314,-0.0179 -0.148355,-0.06987 -0.167829,-0.09091 -0.0098,-0.01059 0.0099,-0.0344 0,-0.04492 -0.04007,-0.04278 -0.1691,-0.04874 -0.210072,-0.09091 -0.0096,-0.0099 0.0104,-0.03408 0,-0.04297 -0.005,-0.0042 -0.09537,0.0042 -0.100434,0 -0.01023,-0.0085 0.01024,-0.03337 0,-0.0419 -0.02642,-0.02201 -0.07407,0.02255 -0.100106,0 -0.01039,-0.009 0.0097,-0.03324 0,-0.04315 -0.02003,-0.02054 -0.06332,0.02109 -0.08284,0 -0.0096,-0.01038 0.0098,-0.03382 0,-0.04403 -0.01968,-0.02059 -0.06286,0.02097 -0.08219,0 -0.0095,-0.01027 0.0096,-0.03339 0,-0.0435 -0.01882,-0.01976 -0.063,0.02268 -0.07874,0 -0.01,-0.01435 0.01187,-0.04127 0,-0.0538 -0.01379,-0.01456 -0.118891,-0.02835 -0.134789,-0.04545 -0.0098,-0.01057 0.0099,-0.0344 0,-0.04492 -0.0198,-0.02114 -0.06378,0.02121 -0.0835,0 -0.0097,-0.01048 0.0098,-0.03417 0,-0.04456 -0.01858,-0.01968 -0.100423,-0.03191 -0.126734,-0.04599 -0.08249,-0.04412 -0.141353,-0.109543 -0.219443,-0.155889 -0.02718,-0.01613 -0.07111,0.02368 -0.09304,0 -0.0099,-0.01071 0.0099,-0.03474 0,-0.04545 -0.01984,-0.02143 -0.06432,0.02142 -0.08416,0 -0.0099,-0.01071 0.01001,-0.03485 0,-0.04545 -0.02038,-0.02159 -0.0653,0.02163 -0.08564,0 -0.01,-0.01063 0.0099,-0.03474 0,-0.04545 -3.31e-4,-3.58e-4 -0.08301,3.52e-4 -0.08367,0 -0.05174,-0.02794 -0.07632,-0.07044 -0.125255,-0.09907 -0.02707,-0.01584 -0.0728,0.02567 -0.09238,0 -0.01066,-0.01398 0.01195,-0.04163 0,-0.05433 -0.007,-0.0074 -0.0815,0.0061 -0.09287,0 -0.0604,-0.03218 -0.06817,-0.07217 -0.08449,-0.08931 -0.01983,-0.02084 -0.0634,0.02109 -0.08301,0 -0.0096,-0.01036 0.0098,-0.03382 0,-0.04403 -0.0198,-0.02071 -0.06323,0.02109 -0.08268,0 -0.0096,-0.0104 0.0098,-0.03382 0,-0.04403 -0.02015,-0.02108 -0.06432,0.02142 -0.08416,0 -0.0099,-0.01071 0.0099,-0.03474 0,-0.04545 -0.01984,-0.02142 -0.06432,0.02142 -0.08416,0 -0.0099,-0.01071 0.0099,-0.03474 0,-0.04545 -0.01984,-0.02142 -0.06432,0.02142 -0.08416,0 -0.01685,-0.01819 -0.02279,-0.05776 -0.08416,-0.0909 -0.02455,-0.01326 -0.0631,0.02114 -0.08235,0 -0.0096,-0.0105 0.0098,-0.03392 0,-0.04421 -0.01862,-0.01964 -0.06069,0.02092 -0.07808,0 -0.009,-0.01079 0.0097,-0.03347 0,-0.0435 -0.01959,-0.02026 -0.06262,0.02118 -0.08137,0 -0.0095,-0.0107 0.0096,-0.03386 0,-0.04439 -0.01702,-0.01861 -0.0593,0.02182 -0.07265,0 -0.02363,-0.0386 -0.01959,-0.06438 -0.04833,-0.09055 -0.02094,-0.01908 -0.06205,0.02007 -0.08219,0 -0.0091,-0.0091 0.0093,-0.03127 0,-0.04013 -0.02046,-0.0195 -0.06276,0.02106 -0.08186,0 -0.0095,-0.01044 0.0097,-0.03371 0,-0.04385 -0.02015,-0.021 -0.0642,0.02139 -0.084,0 -0.0099,-0.01067 0.0099,-0.03463 0,-0.04528 -0.02812,-0.03025 -0.05604,0.03025 -0.08416,0 -0.0099,-0.01065 0.0099,-0.03458 0,-0.04527 -0.04103,-0.04449 -0.196032,0.0087 -0.231935,-0.03888 -0.0086,-0.01138 0.0098,-0.03382 0,-0.04403 -0.02607,-0.02728 -0.174892,-0.01448 -0.199224,-0.0451 -0.0088,-0.01109 0.0097,-0.03371 0,-0.04385 -0.138112,-0.143937 0.05046,0.136627 -0.08202,0 -0.0092,-0.0095 0.0094,-0.03191 0,-0.04119 -0.01844,-0.01826 -0.09958,0.02063 -0.115063,0 -0.0084,-0.01117 0.0095,-0.03308 0,-0.04315 -0.01624,-0.01719 -0.09304,0.01896 -0.107174,0 -0.0085,-0.01134 0.0095,-0.03336 0,-0.04368 -0.03751,-0.04068 -0.147379,-0.0036 -0.18558,-0.04368 -0.009,-0.0095 0.01,-0.03255 0,-0.04084 -0.02581,-0.02138 -0.153169,0.02791 -0.170952,0 -0.0092,-0.01438 0.01176,-0.0404 0,-0.05238 -0.02189,-0.02228 -0.06879,0.02278 -0.09024,0 -0.0091,-0.0096 0.0094,-0.03197 0,-0.04119 -0.02126,-0.0208 -0.09911,0.02174 -0.119337,0 -0.0083,-0.009 0.009,-0.02995 0,-0.03818 -0.03967,-0.03627 -0.219131,0.01213 -0.245743,-0.0309 -0.04534,-0.07331 -0.04948,-0.01353 -0.06789,-0.04172 -0.0076,-0.01165 0.0094,-0.03279 0,-0.04279 -0.0166,-0.01764 -0.05596,0.02018 -0.06986,0 -0.0079,-0.01149 0.0094,-0.0329 0,-0.04297 -0.01692,-0.01805 -0.05628,0.01988 -0.07134,0 -0.008,-0.01058 0.009,-0.03143 0,-0.04101 -0.0164,-0.01741 -0.08603,0.01833 -0.10142,0 -0.0079,-0.0094 0.0089,-0.02988 0,-0.03818 -0.0197,-0.0183 -0.100022,0.02103 -0.116542,0 -0.0089,-0.01133 0.0098,-0.03417 0,-0.04456 -0.03842,-0.04068 -0.180837,0.0069 -0.215005,-0.03533 -0.0091,-0.01128 0.0099,-0.0344 0,-0.04492 -0.02071,-0.02211 -0.103854,0.0225 -0.124104,0 -0.0095,-0.01061 0.0096,-0.03386 0,-0.04439 -0.01622,-0.01773 -0.09125,0.01896 -0.106023,0 -0.0085,-0.01087 0.0096,-0.0329 0,-0.04261 -0.01941,-0.01966 -0.101169,0.02149 -0.118351,0 -0.0089,-0.01116 0.0097,-0.03383 0,-0.04421 -0.01709,-0.01831 -0.09495,0.01978 -0.110296,0 -0.0089,-0.01148 0.0099,-0.0344 0,-0.04492 -0.01995,-0.0213 -0.06432,0.02143 -0.08416,0 -0.0099,-0.01071 0.0099,-0.03474 0,-0.04545 -0.0211,-0.02279 -0.05895,0.02084 -0.08054,0 -0.0085,-0.0082 0.0088,-0.02916 0,-0.03711 -0.03423,-0.03103 -0.183457,0.0016 -0.207443,-0.03373 -0.0079,-0.01164 0.0095,-0.03311 0,-0.04332 -0.02493,-0.02693 -0.09457,-0.0056 -0.119502,-0.03249 -0.01581,-0.01707 -0.02296,-0.05998 -0.0406,-0.07386 -5.94e-4,-4.65e-4 -0.07957,4.68e-4 -0.08005,0 -0.01676,-0.01617 -0.02493,-0.06013 -0.04159,-0.07688 -0.01813,-0.01823 -0.0576,0.01976 -0.0743,0 -0.01993,-0.02357 -0.02072,-0.06455 -0.04159,-0.08593 -0.01976,-0.02025 -0.06244,0.0208 -0.0817,0 -0.01865,-0.02014 -0.02213,-0.06521 -0.04126,-0.08416 -0.01999,-0.0198 -0.06223,0.02076 -0.08137,0 -0.0054,-0.0059 -0.07249,-0.11059 -0.08268,-0.120024 -0.03334,-0.03084 -0.279998,-0.04645 -0.303768,-0.02255 -0.0071,0.0072 -0.01916,0.04719 -0.02499,0.05167 -0.04381,0.03366 -0.129911,-0.01144 -0.171444,0.02592 -0.0099,0.0089 0.009,0.03169 0,0.04155 -0.01376,0.01506 -0.04985,0.0094 -0.06329,0.02503 -0.01218,0.01419 0.01484,0.04721 0,0.05806 -0.02555,0.01866 -0.05614,0.01985 -0.07348,0.04279 -0.01123,0.01485 0.01454,0.09763 0,0.108661 -0.06808,0.05165 -0.122895,0.272044 -0.134953,0.280706 -0.0098,0.007 -0.02766,-0.0096 -0.03534,0 -0.01214,0.01524 0.01508,0.09853 0,0.110259 -0.0108,0.0084 -0.03045,-0.01009 -0.03995,0 -0.01531,0.01627 0.016,0.05413 0,0.0696 -0.007,0.0067 -0.0228,-0.0083 -0.02811,0 -0.01821,0.02864 0.01509,0.09356 0,0.12464 -0.01977,0.04069 -0.04504,0.06247 -0.06296,0.102624 -0.0078,0.01749 0.01579,0.04897 0,0.05824 -0.01382,0.0081 -0.0361,-0.01205 -0.04718,0 -0.01691,0.01839 0.02001,0.06345 0,0.07777 -0.01028,0.0074 -0.02876,-0.0099 -0.03699,0 -0.02803,0.03378 0.0073,0.173788 -0.02383,0.199922 -0.01072,0.009 -0.03094,-0.01014 -0.04077,0 -0.03034,0.03132 -10e-4,0.117323 -0.02613,0.156244 -0.0147,0.02281 -0.04774,0.03891 -0.06542,0.05859 -0.01458,0.01622 0.01871,0.05768 0,0.06782 -0.01386,0.0075 -0.03559,-0.01189 -0.04652,0 -0.01769,0.01924 -0.0063,0.09552 -0.02515,0.112744 -0.0082,0.0075 -0.02569,-0.0092 -0.03222,0 -0.03772,0.05321 0.0361,0.03675 0,0.08895 -0.006,0.0087 -0.02405,-0.0087 -0.03008,0 -0.03066,0.04398 -0.02251,0.214216 -0.05326,0.257092 -0.0063,0.0088 -0.02476,-0.0089 -0.03107,0 -0.01626,0.02286 0.01694,0.0642 0,0.08647 -0.0069,0.0091 -0.02583,-0.0092 -0.03255,0 -0.01683,0.02305 0.01802,0.06609 0,0.08807 -0.0079,0.0096 -0.02794,-0.0098 -0.03567,0 -0.01708,0.0216 0.01915,0.06575 0,0.08522 -0.01809,0.0184 -0.05735,0.02312 -0.07216,0.04315 -0.01649,0.02228 0.01804,0.06475 0,0.08558 -0.01325,0.01529 -0.05451,0.02523 -0.06624,0.04155 -0.0029,0.004 0.003,0.08188 0,0.0854 -0.0081,0.0097 -0.02841,-0.0099 -0.03633,0 -0.01808,0.02262 0.01961,0.06857 0,0.08966 -0.01852,0.01993 -0.05893,0.02401 -0.07611,0.04475 -0.01633,0.01971 0.01756,0.06093 0,0.07937 -0.0084,0.0089 -0.02686,-0.0088 -0.03534,0 -0.02139,0.02225 -4.94e-4,0.08557 -0.02137,0.10866 -0.0077,0.0086 -0.02522,-0.0083 -0.0332,0 -0.01344,0.01394 0.0159,0.04988 0,0.06037 -0.01117,0.0074 -0.03031,-0.0103 -0.03929,0 -0.01772,0.02034 0.01849,0.06428 0,0.0838 -0.0087,0.0092 -0.02863,-0.01 -0.03665,0 -0.03379,0.04189 -0.0044,0.138749 -0.04011,0.177372 -0.0094,0.01017 -0.03059,-0.01023 -0.03994,0 -0.01617,0.01768 0.01969,0.06172 0,0.07457 -0.03732,0.02435 -0.05629,0.02047 -0.07841,0.0522 -0.01645,0.02359 0.0188,0.06716 0,0.0886 -0.0089,0.0101 -0.02992,-0.01025 -0.03863,0 -0.01812,0.02132 0.01945,0.06692 0,0.08682 -0.0098,0.01001 -0.03094,-0.01034 -0.04044,0 -0.0292,0.03179 -0.0053,0.09557 -0.0337,0.130854 -0.0075,0.0094 -0.02623,-0.0086 -0.03452,0 -0.01402,0.01457 0.01636,0.05167 0,0.06303 -0.01097,0.0076 -0.02992,-0.01 -0.03912,0 -0.0072,0.0078 -0.01486,0.09126 -0.02499,0.101203 -0.008,0.0078 -0.02639,-0.0097 -0.03238,0 -0.03379,0.05466 4.95e-4,0.150902 -0.04027,0.194772 -0.01756,0.01889 -0.06695,0.02571 -0.08202,0.04545 -0.02091,0.0274 0.02093,0.07915 0,0.10653 -0.0086,0.01122 -0.0311,-0.0105 -0.04044,0 -0.0189,0.02125 0.01934,0.06762 0,0.08842 -0.0094,0.01015 -0.03061,-0.01025 -0.03994,0 -0.03555,0.03903 -0.02675,0.137984 -0.05408,0.168851 -0.0066,0.0075 -0.02319,-0.0084 -0.02877,0 -0.02383,0.03603 0.0029,0.206701 -0.02729,0.230815 -0.01066,0.0085 -0.03038,-0.01011 -0.03978,0 -0.03191,0.03433 0.0021,0.166715 -0.03074,0.196725 -0.01012,0.0093 -0.03067,-0.01041 -0.03978,0 -0.0052,0.0059 -0.0276,0.114841 -0.04455,0.146834 -0.0092,0.01745 0.01452,0.101129 0,0.112212 -0.01007,0.0077 -0.02885,-0.01 -0.03699,0 -0.03408,0.04188 -0.0047,0.139973 -0.0406,0.178793 -0.0097,0.01046 -0.03152,-0.01058 -0.04109,0 -0.01929,0.02134 0.01949,0.06835 0,0.08948 -0.02054,0.02228 -0.06126,0.0232 -0.08186,0.04545 -0.0191,0.02063 0.0191,0.0669 0,0.08753 -0.0094,0.01013 -0.03048,-0.01021 -0.03978,0 -0.01641,0.01801 0.01871,0.06064 0,0.07581 -0.01056,0.0086 -0.03027,-0.01009 -0.03961,0 -0.01592,0.0172 0.01843,0.05899 0,0.07297 -0.01085,0.0082 -0.03035,-0.01007 -0.03978,0 -0.01587,0.01692 0.01835,0.05857 0,0.07226 -0.01095,0.0082 -0.03051,-0.01015 -0.03994,0 -0.01619,0.01741 0.01857,0.05966 0,0.07404 -0.01086,0.0084 -0.03077,-0.01033 -0.04011,0 -0.01768,0.01957 0.01924,0.06426 0,0.08203 -0.01033,0.0095 -0.0311,-0.01032 -0.04077,0 -0.01657,0.01768 0.01982,0.06226 0,0.07546 -0.03718,0.02476 -0.05738,0.02001 -0.08038,0.05167 -0.01678,0.02309 0.01802,0.06609 0,0.08807 -0.0079,0.0096 -0.02801,-0.0098 -0.03567,0 -0.0183,0.02351 0.0207,0.111844 0,0.132274 -0.01031,0.01018 -0.03206,-0.01069 -0.04191,0 -0.02578,0.02796 0.02682,0.145451 0,0.171869 -0.01012,0.01 -0.03143,-0.01048 -0.04109,0 -0.01615,0.01751 0.01742,0.09819 0,0.113987 -0.0091,0.0083 -0.02809,-0.0098 -0.03583,0 -0.01712,0.02171 0.02097,0.129285 0,0.145769 -0.0099,0.0078 -0.02874,-0.01 -0.03682,0 -0.02046,0.02525 0.02452,0.147407 0,0.166187 -0.01337,0.01024 -0.03766,-0.01261 -0.04915,0 -0.01946,0.02137 0.02068,0.114872 0,0.13476 -0.01048,0.01008 -0.03222,-0.01078 -0.04208,0 -0.01884,0.02059 0.01915,0.06658 0,0.08682 -0.0092,0.0097 -0.03083,-0.01107 -0.03863,0 -0.01747,0.02481 0.02174,0.125756 0,0.145236 -0.01063,0.0095 -0.0318,-0.01069 -0.04143,0 -0.01421,0.01577 0.01639,0.10146 0,0.114342 -0.0109,0.0086 -0.03098,-0.01037 -0.04043,0 -0.01296,0.01422 0.01536,0.103156 0,0.11381 -0.01379,0.0096 -0.0376,-0.01256 -0.04915,0 -0.01915,0.02083 0.02119,0.06969 0,0.08807 -0.01038,0.009 -0.03076,-0.01041 -0.03994,0 -0.01818,0.02061 0.01926,0.06597 0,0.0854 -0.0097,0.0098 -0.03067,-0.01041 -0.03978,0 -0.01905,0.02176 0.01933,0.06837 0,0.08984 -0.0093,0.01031 -0.03077,-0.01043 -0.03994,0 -4.69e-4,5.33e-4 4.62e-4,0.0892 0,0.0902 -0.0088,0.01893 -0.03282,0.02598 -0.04159,0.04492 -0.01201,0.02594 0.01959,0.06717 0,0.087 -0.01012,0.01024 -0.03184,-0.01065 -0.04159,0 -0.0186,0.02033 0.0193,0.0662 0,0.08576 -0.0097,0.0098 -0.03058,-0.01031 -0.03978,0 -0.01696,0.019 0.0175,0.06076 0,0.07919 -0.01786,0.0188 -0.0476,0.0523 -0.06115,0.07315 -0.0222,0.03416 0.0052,0.126633 -0.02285,0.151983 -0.0097,0.0088 -0.02917,-0.0098 -0.03797,0 -0.01428,0.01596 0.01775,0.05539 0,0.06658 -0.03104,0.01957 -0.0471,0.017 -0.06739,0.04226 -0.01379,0.01716 0.01637,0.05391 0,0.06818 -0.0095,0.0083 -0.02863,-0.01 -0.03665,0 -0.01807,0.0224 0.01941,0.06808 0,0.08913 -0.0095,0.01027 -0.03099,-0.01048 -0.04027,0 -0.01822,0.02057 0.01937,0.0661 0,0.0854 -0.0098,0.0098 -0.03083,-0.0104 -0.04011,0 -0.01715,0.01921 0.01814,0.06195 0,0.08008 -0.0086,0.0086 -0.02764,-0.0097 -0.03517,0 -0.01655,0.02131 0.01932,0.06506 0,0.08345 -0.01003,0.0095 -0.03088,-0.01045 -0.04011,0 -0.01913,0.02168 0.01957,0.06862 0,0.08984 -0.0096,0.01044 -0.03142,-0.01056 -0.04093,0 -0.03677,0.04084 0.0025,0.15819 -0.03501,0.197791 -0.0083,0.0088 -0.02755,-0.0097 -0.03501,0 -0.01711,0.02222 0.01618,0.06581 0,0.08842 -0.0063,0.0088 -0.02462,-0.0089 -0.03074,0 -0.01188,0.01723 -0.0031,0.05046 -0.02811,0.0886 -0.01403,0.02136 0.0182,0.106075 0,0.122154 -0.01026,0.0091 -0.03033,-0.01004 -0.03978,0 -0.0168,0.01784 0.01877,0.06096 0,0.07635 -0.01104,0.0091 -0.03173,-0.01053 -0.04159,0 -0.01949,0.0208 0.0196,0.0681 0,0.08877 -0.01004,0.01058 -0.03216,-0.01071 -0.04208,0 -0.01984,0.02143 0.01274,0.06391 0,0.09091 -0.02515,0.0533 -0.06075,0.08361 -0.08564,0.137069 -0.01701,0.03653 0.01694,0.100665 0,0.137245 -0.0089,0.01916 -0.03321,0.02629 -0.04208,0.04545 -0.01255,0.0271 0.01984,0.06948 0,0.09091 -0.0099,0.01071 -0.03212,-0.01067 -0.04208,0 -0.03149,0.03375 0.02653,0.05029 0,0.08309 -0.0067,0.0083 -0.02427,-0.0086 -0.03074,0 -0.01913,0.02541 -0.0054,0.157165 -0.02909,0.176841 -0.01073,0.0089 -0.0312,-0.01052 -0.0406,0 -0.03526,0.03948 -0.0038,0.192919 -0.04093,0.226198 -0.01304,0.01167 -0.03884,-0.01295 -0.05079,0 -0.02178,0.0236 0.02377,0.07873 0,0.09996 -0.01292,0.01154 -0.03841,-0.01277 -0.0503,0 -0.02083,0.02236 0.0218,0.07391 0,0.09517 -0.01045,0.01019 -0.03219,-0.01065 -0.04225,0 -0.02841,0.0301 -0.01276,0.102758 -0.04077,0.133518 -0.0092,0.01012 -0.03046,-0.01036 -0.03945,0 -0.01859,0.02141 0.01893,0.067 0,0.08806 -0.0089,0.0099 -0.02971,-0.0102 -0.0383,0 -0.01844,0.02188 0.01883,0.06729 0,0.08877 -0.0087,0.0099 -0.02949,-0.01015 -0.03797,0 -0.01839,0.02201 0.0187,0.06725 0,0.08895 -0.0085,0.0099 -0.02917,-0.01008 -0.03748,0 -0.01866,0.02263 0.01984,0.06948 0,0.09091 -0.0099,0.01071 -0.03216,-0.01071 -0.04208,0 -0.01974,0.02132 0.01956,0.06924 0,0.09037 -0.0098,0.01059 -0.03185,-0.01065 -0.04159,0 -0.0196,0.02142 0.01972,0.06907 0,0.09037 -0.0098,0.01059 -0.03184,-0.01065 -0.04159,0 -0.01957,0.02139 0.01987,0.06915 0,0.09019 -0.01006,0.01065 -0.03236,-0.01084 -0.04225,0 -0.02438,0.02674 -0.05942,0.155979 -0.08416,0.182699 -0.01957,0.02114 -0.06128,0.02386 -0.08005,0.04545 -0.01819,0.02093 0.01879,0.06582 0,0.08611 -0.0093,0.01 -0.03003,-0.01 -0.03929,0 -0.01561,0.01686 0.01839,0.05836 0,0.07155 -0.01127,0.0081 -0.03103,-0.01034 -0.0406,0 -0.01608,0.01737 0.01865,0.05964 0,0.07368 -0.01083,0.0082 -0.03027,-0.01009 -0.03961,0 -0.02014,0.02175 0.02248,0.128657 0,0.146479 -0.01312,0.0104 -0.03723,-0.01234 -0.04882,0 -0.01384,0.01474 0.01689,0.122296 0,0.133873 -0.03722,0.02551 -0.04663,0.03873 -0.06887,0.07279 -0.01187,0.01817 0.01616,0.104487 0,0.116828 -0.01114,0.0085 -0.03128,-0.01042 -0.04093,0 -0.0085,0.0092 -0.04539,0.08669 -0.05654,0.109371 -0.01758,0.03574 0.03091,0.267826 0,0.288519 -0.0109,0.0073 -0.02934,-0.0097 -0.03847,0 -0.02305,0.02458 -0.0034,0.51642 -0.02877,0.54064 -0.01034,0.0099 -0.03174,-0.01063 -0.04142,0 -0.03148,0.03455 -0.03473,0.534726 -0.05589,0.555199 -0.0102,0.0099 -0.03152,-0.01058 -0.04109,0 -0.0387,0.04281 0,0.334965 0,0.399488 0,0.07445 -0.0092,0.761742 0,0.77181 0.0088,0.0096 0.02906,-0.01 0.03748,0 0.01919,0.02272 0,1.078547 0,1.199529 0,0.0311 0.01855,0.214861 0,0.229927 -0.01095,0.0089 -0.03154,-0.0106 -0.04109,0 -0.03009,0.03341 0.02148,0.154593 0,0.196903 -0.09662,0.190356 -0.04109,1.149654 -0.04109,1.42484 0,0.04695 -0.02612,0.231304 0,0.264017 0.04855,0.06081 0.03501,-0.08312 0.03501,0.04385 0,0.04502 -0.02034,0.168503 0,0.207203 0.01578,0.03 0.03883,0.13198 0.03995,0.13316 0.01,0.0106 0.03216,-0.0107 0.04208,0 0.0064,0.007 -0.0073,0.0995 0.02778,0.15412 0.02019,0.0315 -0.02593,0.14819 0,0.17364 0.0076,0.007 0.02452,-0.009 0.03074,0 0.05304,0.0751 0,0.43408 0,0.52928 0,0.20541 0.05098,1.36851 0,1.47864 -0.04315,0.0932 -0.04208,0.15531 -0.04208,0.26916 0,2.39332 0,4.78664 0,7.17995 0,0.055 -0.03202,0.31164 0,0.34622 0.0099,0.0107 0.03216,-0.0107 0.04208,0 0.021,0.0227 0,0.19168 0,0.22727 0,0.1537 0.03745,0.97826 0,1.05837 -0.0089,0.0191 -0.03305,0.0264 -0.04208,0.0455 -0.04668,0.0987 -0.0037,0.72733 -0.03995,0.7647 -0.0098,0.0101 -0.03228,-0.0115 -0.04077,0 -0.05079,0.0686 0.04502,0.46647 0,0.56373 -0.076,0.16417 -0.0055,0.37496 -0.04208,0.45435 -0.05021,0.1091 -0.04175,0.21317 -0.04175,0.34515 0,0.17685 -0.0044,0.806 0,0.80999 0.01027,0.009 0.0308,-0.0103 0.04027,0 0.04109,0.0446 -0.02639,0.22622 0,0.28425 0.02583,0.0568 0.05791,0.0357 0.08449,0.0921 0.05299,0.11251 0,0.73465 0,0.89361 0,0.10746 0.01227,-0.0193 -0.04109,0.0398 -0.01655,0.0183 0,0.15361 0,0.18181 0,0.16585 -0.05274,0.73125 0,0.84585 0.05975,0.12982 0.04208,0.28983 0.04208,0.44511 0,0.0894 -0.0095,-0.0265 0.03616,0.0309 0.07601,0.0955 -0.07364,-0.004 0,0.0895 0.0075,0.01 0.03709,-0.0122 0.03468,0 -0.0043,0.0219 -0.04405,0.0252 -0.04405,0.0476 0,0.0159 0.03329,-0.0108 0.04405,0 0.01694,0.017 0,0.16391 0,0.19388 0,0.14223 0.03434,0.86932 0,0.94208 -0.103843,0.22004 -0.0429,0.61429 -0.0429,0.87426 0,0.54561 0,1.09122 0,1.63684 0,0.58094 0,1.16188 0,1.74283 0,0.13512 -0.04453,0.62695 0,0.72316 0.0089,0.0192 0.03321,0.0263 0.04208,0.0455 0.03008,0.065 -0.02821,0.47591 0,0.50247 0.05134,0.0483 0.03715,-0.0688 0.03715,0.046 0,0.12933 0.01897,1.2292 0,1.25067 -0.0088,0.01 -0.02954,-0.0101 -0.03813,0 -0.03708,0.0437 0.03804,0.20224 0,0.24466 -0.0071,0.008 -0.02433,-0.009 -0.03041,0 -0.05554,0.0801 0.06482,0.33963 0,0.40836 -0.0086,0.009 -0.02809,-0.01 -0.036,0 -0.04017,0.0495 0.03868,0.5088 0,0.55041 -0.0099,0.0107 -0.03317,-0.0117 -0.04208,0 -0.01455,0.0191 0,0.52682 0,0.59852 0,0.64655 -0.0101,1.2943 0.0061,1.94062 z"
         id="path273" />
    </clipPath>
  </defs>
  <sodipodi:namedview
     id="namedview3"
     pagecolor="#ffffff"
     bordercolor="#000000"
     borderopacity="0.25"
     inkscape:showpageshadow="2"
     inkscape:pageopacity="0.0"
     inkscape:pagecheckerboard="0"
     inkscape:deskcolor="#d1d1d1"
     inkscape:zoom="8.3155757"
     inkscape:cx="26.155736"
     inkscape:cy="54.59634"
     inkscape:window-width="2486"
     inkscape:window-height="1376"
     inkscape:window-x="0"
     inkscape:window-y="0"
     inkscape:window-maximized="1"
     inkscape:current-layer="eDvfmVN7tWS1" />
  <g
     id="g3"
     transform="matrix(2.0207542,0,0,1.8708189,-24.304427,-142.316)"
     clip-path="url(#clipPath273)">
    <rect
       id="RECT"
       width="64.924149"
       height="64.84919"
       fill="#026b79"
       x="53.29903"
       y="59.163792"
       style="stroke-width:0.0129774"
       transform="rotate(18.930619)" />
    <g
       id="group"
       fill="#e4fde1"
       filter=""
       transform="matrix(0.01110565,0.00380895,-0.00367767,0.01072289,31.222054,73.255172)">
      <path
         d="M 41,47 C 29,62 24,71 13,88 Q -13,94 -16,65 -30,44 -6,35 24,14 41,47 Z"
         id="use1" />
      <path
         d="m 76,645 c -8,-15 -11,-26 -11,-44 4,-3 8,-4 11,-4 l 18,41 q -3,16 -18,7 z"
         id="use2" />
      <path
         d="m 48,964 q -19,-1 -8,-17 c 18,-15 30,-21 52,-27 q 24,11 9,31 c -20,6 -31,9 -53,13 z"
         id="use3" />
      <path
         d="m 55,1035 v -36 l 29,12 -13,25 z"
         id="use4" />
      <path
         d="m 255,1420 18,-7 7,10 -16,15 z"
         id="use5" />
      <path
         d="m 223,2027 -19,3 -5,-24 15,-6 z"
         id="use6" />
      <path
         d="m 309,2335 c -12,15 -17,24 -28,41 q -26,6 -29,-23 -14,-21 10,-30 30,-21 47,12 z"
         id="use7" />
      <path
         d="m 297,2450 17,-9 14,11 -12,22 z"
         id="use8" />
      <path
         d="m 85,2780 q -19,-1 -8,-17 c 18,-15 30,-21 52,-27 q 24,11 9,31 c -20,6 -31,9 -53,13 z"
         id="use9" />
      <path
         d="m 13,3142 -19,3 -5,-24 15,-6 z"
         id="use10" />
      <path
         d="m 132,3533 -3,-11 13,-8 -2,22 z"
         id="use11" />
      <path
         d="m 291,4037 17,-9 14,11 -12,22 z"
         id="use12" />
      <path
         d="m 152,4108 q 8,-19 20,-5 c 23,10 29,36 10,56 -10,6 -22,5 -33,-3 q -26,-26 3,-48 z"
         id="use13" />
      <path
         d="m 11,4673 v -36 l 29,12 -13,25 z"
         id="use14" />
      <path
         d="m 176,4891 18,-7 7,10 -16,15 z"
         id="use15" />
      <path
         d="m 87,5272 v -36 l 29,12 -13,25 z"
         id="use16" />
      <path
         d="m -6,5477 17,-9 14,11 -12,22 z"
         id="use17" />
      <path
         d="m 494,103 c -8,-15 -11,-26 -11,-44 4,-3 8,-4 11,-4 l 18,41 q -3,16 -18,7 z"
         id="use18" />
      <path
         d="m 414,573 18,-7 7,10 -16,15 z"
         id="use19" />
      <path
         d="m 604,808 q 8,-19 20,-5 c 23,10 29,36 10,56 -10,6 -22,5 -33,-3 q -26,-26 3,-48 z"
         id="use20" />
      <path
         d="m 513,1144 18,-7 7,10 -16,15 z"
         id="use21" />
      <path
         d="m 466,1500 c -8,-15 -11,-26 -11,-44 4,-3 8,-4 11,-4 l 18,41 q -3,16 -18,7 z"
         id="use22" />
      <path
         d="m 349,1774 q -19,-1 -8,-17 c 18,-15 30,-21 52,-27 q 24,11 9,31 c -20,6 -31,9 -53,13 z"
         id="use23" />
      <path
         d="m 630,2194 q -19,-1 -8,-17 c 18,-15 30,-21 52,-27 q 24,11 9,31 c -20,6 -31,9 -53,13 z"
         id="use24" />
      <path
         d="m 623,2464 q 8,-19 20,-5 c 23,10 29,36 10,56 -10,6 -22,5 -33,-3 q -26,-26 3,-48 z"
         id="use25" />
      <path
         d="m 573,2987 -19,3 -5,-24 15,-6 z"
         id="use26" />
      <path
         d="m 582,3064 -3,-11 13,-8 -2,22 z"
         id="use27" />
      <path
         d="m 532,3687 -3,-11 13,-8 -2,22 z"
         id="use28" />
      <path
         d="m 508,3916 v -36 l 29,12 -13,25 z"
         id="use29" />
      <path
         d="m 331,4058 47,8 c 2,8 0,16 -4,21 l -47,-10 c -1,-7 0,-13 4,-19 z"
         id="use30" />
      <path
         d="m 465,4548 17,-9 14,11 -12,22 z"
         id="use31" />
      <path
         d="m 397,5005 q -19,-1 -8,-17 c 18,-15 30,-21 52,-27 q 24,11 9,31 c -20,6 -31,9 -53,13 z"
         id="use32" />
      <path
         d="m 664,5374 47,8 c 2,8 0,16 -4,21 l -47,-10 c -1,-7 0,-13 4,-19 z"
         id="use33" />
      <path
         d="m 348,5716 17,-9 14,11 -12,22 z"
         id="use34" />
      <path
         d="m 800,4 17,-9 14,11 -12,22 z"
         id="use35" />
      <path
         d="m 701,403 17,-9 14,11 -12,22 z"
         id="use36" />
      <path
         d="m 1009,843 c -12,15 -17,24 -28,41 q -26,6 -29,-23 -14,-21 10,-30 30,-21 47,12 z"
         id="use37" />
      <path
         d="m 800,1123 18,-7 7,10 -16,15 z"
         id="use38" />
      <path
         d="m 900,1387 -3,-11 13,-8 -2,22 z"
         id="use39" />
      <path
         d="m 981,1954 -3,-11 13,-8 -2,22 z"
         id="use40" />
      <path
         d="m 762,2223 v -36 l 29,12 -13,25 z"
         id="use41" />
      <path
         d="m 932,2486 c -12,15 -17,24 -28,41 q -26,6 -29,-23 -14,-21 10,-30 30,-21 47,12 z"
         id="use42" />
      <path
         d="m 806,3042 q -19,-1 -8,-17 c 18,-15 30,-21 52,-27 q 24,11 9,31 c -20,6 -31,9 -53,13 z"
         id="use43" />
      <path
         d="m 982,3289 c -8,-15 -11,-26 -11,-44 4,-3 8,-4 11,-4 l 18,41 q -3,16 -18,7 z"
         id="use44" />
      <path
         d="m 1010,3467 -3,-11 13,-8 -2,22 z"
         id="use45" />
      <path
         d="m 783,3958 47,8 c 2,8 0,16 -4,21 l -47,-10 c -1,-7 0,-13 4,-19 z"
         id="use46" />
      <path
         d="m 932,4093 q -19,-1 -8,-17 c 18,-15 30,-21 52,-27 q 24,11 9,31 c -20,6 -31,9 -53,13 z"
         id="use47" />
      <path
         d="m 739,4677 -3,-11 13,-8 -2,22 z"
         id="use48" />
      <path
         d="m 877,4967 v -36 l 29,12 -13,25 z"
         id="use49" />
      <path
         d="m 987,5227 -19,3 -5,-24 15,-6 z"
         id="use50" />
      <path
         d="m 927,5561 c -12,15 -17,24 -28,41 q -26,6 -29,-23 -14,-21 10,-30 30,-21 47,12 z"
         id="use51" />
      <path
         d="m 1058,196 q 8,-19 20,-5 c 23,10 29,36 10,56 -10,6 -22,5 -33,-3 q -26,-26 3,-48 z"
         id="use52" />
      <path
         d="m 1291,664 17,-9 14,11 -12,22 z"
         id="use53" />
      <path
         d="m 1206,870 c -8,-15 -11,-26 -11,-44 4,-3 8,-4 11,-4 l 18,41 q -3,16 -18,7 z"
         id="use54" />
      <path
         d="m 1015,1334 q -19,-1 -8,-17 c 18,-15 30,-21 52,-27 q 24,11 9,31 c -20,6 -31,9 -53,13 z"
         id="use55" />
      <path
         d="m 1159,1413 v -36 l 29,12 -13,25 z"
         id="use56" />
      <path
         d="m 1233,1696 c -12,15 -17,24 -28,41 q -26,6 -29,-23 -14,-21 10,-30 30,-21 47,12 z"
         id="use57" />
      <path
         d="m 1088,2169 q 8,-19 20,-5 c 23,10 29,36 10,56 -10,6 -22,5 -33,-3 q -26,-26 3,-48 z"
         id="use58" />
      <path
         d="m 1024,2638 18,-7 7,10 -16,15 z"
         id="use59" />
      <path
         d="m 1036,2848 18,-7 7,10 -16,15 z"
         id="use60" />
      <path
         d="m 1298,3189 17,-9 14,11 -12,22 z"
         id="use61" />
      <path
         d="m 1287,3658 q 8,-19 20,-5 c 23,10 29,36 10,56 -10,6 -22,5 -33,-3 q -26,-26 3,-48 z"
         id="use62" />
      <path
         d="m 1342,3997 47,8 c 2,8 0,16 -4,21 l -47,-10 c -1,-7 0,-13 4,-19 z"
         id="use63" />
      <path
         d="m 1248,4256 -19,3 -5,-24 15,-6 z"
         id="use64" />
      <path
         d="m 1137,4618 18,-7 7,10 -16,15 z"
         id="use65" />
      <path
         d="m 1215,5063 -19,3 -5,-24 15,-6 z"
         id="use66" />
      <path
         d="m 1013,5321 q -19,-1 -8,-17 c 18,-15 30,-21 52,-27 q 24,11 9,31 c -20,6 -31,9 -53,13 z"
         id="use67" />
      <path
         d="m 1097,5715 c -8,-15 -11,-26 -11,-44 4,-3 8,-4 11,-4 l 18,41 q -3,16 -18,7 z"
         id="use68" />
      <path
         d="m 1697,158 c -12,15 -17,24 -28,41 q -26,6 -29,-23 -14,-21 10,-30 30,-21 47,12 z"
         id="use69" />
      <path
         d="m 1503,446 q 8,-19 20,-5 c 23,10 29,36 10,56 -10,6 -22,5 -33,-3 q -26,-26 3,-48 z"
         id="use70" />
      <path
         d="m 1483,706 17,-9 14,11 -12,22 z"
         id="use71" />
      <path
         d="m 1438,1127 c -12,15 -17,24 -28,41 q -26,6 -29,-23 -14,-21 10,-30 30,-21 47,12 z"
         id="use72" />
      <path
         d="m 1708,1557 c -8,-15 -11,-26 -11,-44 4,-3 8,-4 11,-4 l 18,41 q -3,16 -18,7 z"
         id="use73" />
      <path
         d="m 1639,1811 -19,3 -5,-24 15,-6 z"
         id="use74" />
      <path
         d="m 1669,2155 -3,-11 13,-8 -2,22 z"
         id="use75" />
      <path
         d="m 1416,2680 q -19,-1 -8,-17 c 18,-15 30,-21 52,-27 q 24,11 9,31 c -20,6 -31,9 -53,13 z"
         id="use76" />
      <path
         d="m 1447,2771 -3,-11 13,-8 -2,22 z"
         id="use77" />
      <path
         d="m 1708,3131 -3,-11 13,-8 -2,22 z"
         id="use78" />
      <path
         d="m 1558,3593 18,-7 7,10 -16,15 z"
         id="use79" />
      <path
         d="m 1701,3957 18,-7 7,10 -16,15 z"
         id="use80" />
      <path
         d="m 1579,4147 47,8 c 2,8 0,16 -4,21 l -47,-10 c -1,-7 0,-13 4,-19 z"
         id="use81" />
      <path
         d="m 1496,4667 v -36 l 29,12 -13,25 z"
         id="use82" />
      <path
         d="m 1693,5014 v -36 l 29,12 -13,25 z"
         id="use83" />
      <path
         d="m 1508,5333 q -19,-1 -8,-17 c 18,-15 30,-21 52,-27 q 24,11 9,31 c -20,6 -31,9 -53,13 z"
         id="use84" />
      <path
         d="m 1418,5531 17,-9 14,11 -12,22 z"
         id="use85" />
      <path
         d="m 1794,107 -19,3 -5,-24 15,-6 z"
         id="use86" />
      <path
         d="m 2035,657 47,8 c 2,8 0,16 -4,21 l -47,-10 c -1,-7 0,-13 4,-19 z"
         id="use87" />
      <path
         d="m 1778,724 q -19,-1 -8,-17 c 18,-15 30,-21 52,-27 q 24,11 9,31 c -20,6 -31,9 -53,13 z"
         id="use88" />
      <path
         d="m 1922,1076 18,-7 7,10 -16,15 z"
         id="use89" />
      <path
         d="m 1827,1406 -3,-11 13,-8 -2,22 z"
         id="use90" />
      <path
         d="m 1890,2036 -3,-11 13,-8 -2,22 z"
         id="use91" />
      <path
         d="m 1930,2170 -19,3 -5,-24 15,-6 z"
         id="use92" />
      <path
         d="m 1824,2553 v -36 l 29,12 -13,25 z"
         id="use93" />
      <path
         d="m 1922,2739 c -12,15 -17,24 -28,41 q -26,6 -29,-23 -14,-21 10,-30 30,-21 47,12 z"
         id="use94" />
      <path
         d="m 1900,3319 v -36 l 29,12 -13,25 z"
         id="use95" />
      <path
         d="m 1904,3528 18,-7 7,10 -16,15 z"
         id="use96" />
      <path
         d="m 1942,3820 18,-7 7,10 -16,15 z"
         id="use97" />
      <path
         d="m 1934,4110 17,-9 14,11 -12,22 z"
         id="use98" />
      <path
         d="m 1914,4624 18,-7 7,10 -16,15 z"
         id="use99" />
      <path
         d="m 1796,4776 c -12,15 -17,24 -28,41 q -26,6 -29,-23 -14,-21 10,-30 30,-21 47,12 z"
         id="use100" />
      <path
         d="m 2025,5132 18,-7 7,10 -16,15 z"
         id="use101" />
      <path
         d="m 1825,5623 47,8 c 2,8 0,16 -4,21 l -47,-10 c -1,-7 0,-13 4,-19 z"
         id="use102" />
      <path
         d="m 2279,150 c -8,-15 -11,-26 -11,-44 4,-3 8,-4 11,-4 l 18,41 q -3,16 -18,7 z"
         id="use103" />
      <path
         d="m 2191,467 -3,-11 13,-8 -2,22 z"
         id="use104" />
      <path
         d="m 2292,705 c -12,15 -17,24 -28,41 q -26,6 -29,-23 -14,-21 10,-30 30,-21 47,12 z"
         id="use105" />
      <path
         d="m 2194,1125 q 8,-19 20,-5 c 23,10 29,36 10,56 -10,6 -22,5 -33,-3 q -26,-26 3,-48 z"
         id="use106" />
      <path
         d="m 2061,1583 18,-7 7,10 -16,15 z"
         id="use107" />
      <path
         d="m 2307,1953 47,8 c 2,8 0,16 -4,21 l -47,-10 c -1,-7 0,-13 4,-19 z"
         id="use108" />
      <path
         d="m 2226,2124 v -36 l 29,12 -13,25 z"
         id="use109" />
      <path
         d="m 2212,2611 c -12,15 -17,24 -28,41 q -26,6 -29,-23 -14,-21 10,-30 30,-21 47,12 z"
         id="use110" />
      <path
         d="m 2294,2871 17,-9 14,11 -12,22 z"
         id="use111" />
      <path
         d="m 2127,3090 c -12,15 -17,24 -28,41 q -26,6 -29,-23 -14,-21 10,-30 30,-21 47,12 z"
         id="use112" />
      <path
         d="m 2173,3641 17,-9 14,11 -12,22 z"
         id="use113" />
      <path
         d="m 2228,3833 18,-7 7,10 -16,15 z"
         id="use114" />
      <path
         d="m 2181,4162 18,-7 7,10 -16,15 z"
         id="use115" />
      <path
         d="m 2223,4564 c -8,-15 -11,-26 -11,-44 4,-3 8,-4 11,-4 l 18,41 q -3,16 -18,7 z"
         id="use116" />
      <path
         d="m 2255,4871 q 8,-19 20,-5 c 23,10 29,36 10,56 -10,6 -22,5 -33,-3 q -26,-26 3,-48 z"
         id="use117" />
      <path
         d="m 2131,5163 v -36 l 29,12 -13,25 z"
         id="use118" />
      <path
         d="m 2315,5593 c -8,-15 -11,-26 -11,-44 4,-3 8,-4 11,-4 l 18,41 q -3,16 -18,7 z"
         id="use119" />
      <path
         d="m 2601,13 18,-7 7,10 -16,15 z"
         id="use120" />
      <path
         d="m 2547,517 18,-7 7,10 -16,15 z"
         id="use121" />
      <path
         d="m 2592,904 q -19,-1 -8,-17 c 18,-15 30,-21 52,-27 q 24,11 9,31 c -20,6 -31,9 -53,13 z"
         id="use122" />
      <path
         d="m 2698,1090 -3,-11 13,-8 -2,22 z"
         id="use123" />
      <path
         d="m 2555,1401 v -36 l 29,12 -13,25 z"
         id="use124" />
      <path
         d="m 2604,1785 47,8 c 2,8 0,16 -4,21 l -47,-10 c -1,-7 0,-13 4,-19 z"
         id="use125" />
      <path
         d="m 2562,2354 c -12,15 -17,24 -28,41 q -26,6 -29,-23 -14,-21 10,-30 30,-21 47,12 z"
         id="use126" />
      <path
         d="m 2425,2468 -19,3 -5,-24 15,-6 z"
         id="use127" />
      <path
         d="m 2636,2699 17,-9 14,11 -12,22 z"
         id="use128" />
      <path
         d="m 2733,3138 -3,-11 13,-8 -2,22 z"
         id="use129" />
      <path
         d="m 2559,3658 q 8,-19 20,-5 c 23,10 29,36 10,56 -10,6 -22,5 -33,-3 q -26,-26 3,-48 z"
         id="use130" />
      <path
         d="m 2696,4033 18,-7 7,10 -16,15 z"
         id="use131" />
      <path
         d="m 2526,4354 v -36 l 29,12 -13,25 z"
         id="use132" />
      <path
         d="m 2487,4523 c -8,-15 -11,-26 -11,-44 4,-3 8,-4 11,-4 l 18,41 q -3,16 -18,7 z"
         id="use133" />
      <path
         d="m 2717,4915 -19,3 -5,-24 15,-6 z"
         id="use134" />
      <path
         d="m 2622,5339 -19,3 -5,-24 15,-6 z"
         id="use135" />
      <path
         d="m 2443,5407 q 8,-19 20,-5 c 23,10 29,36 10,56 -10,6 -22,5 -33,-3 q -26,-26 3,-48 z"
         id="use136" />
      <path
         d="m 2979,98 c -8,-15 -11,-26 -11,-44 4,-3 8,-4 11,-4 l 18,41 q -3,16 -18,7 z"
         id="use137" />
      <path
         d="m 2804,416 c -12,15 -17,24 -28,41 q -26,6 -29,-23 -14,-21 10,-30 30,-21 47,12 z"
         id="use138" />
      <path
         d="m 2950,684 47,8 c 2,8 0,16 -4,21 l -47,-10 c -1,-7 0,-13 4,-19 z"
         id="use139" />
      <path
         d="m 2892,1365 c -8,-15 -11,-26 -11,-44 4,-3 8,-4 11,-4 l 18,41 q -3,16 -18,7 z"
         id="use140" />
      <path
         d="m 2901,1377 18,-7 7,10 -16,15 z"
         id="use141" />
      <path
         d="m 2893,1872 17,-9 14,11 -12,22 z"
         id="use142" />
      <path
         d="m 2853,2358 18,-7 7,10 -16,15 z"
         id="use143" />
      <path
         d="m 2906,2423 -3,-11 13,-8 -2,22 z"
         id="use144" />
      <path
         d="m 2835,2730 -19,3 -5,-24 15,-6 z"
         id="use145" />
      <path
         d="m 3044,3176 c -12,15 -17,24 -28,41 q -26,6 -29,-23 -14,-21 10,-30 30,-21 47,12 z"
         id="use146" />
      <path
         d="m 2994,3506 q -19,-1 -8,-17 c 18,-15 30,-21 52,-27 q 24,11 9,31 c -20,6 -31,9 -53,13 z"
         id="use147" />
      <path
         d="m 2989,3799 c -12,15 -17,24 -28,41 q -26,6 -29,-23 -14,-21 10,-30 30,-21 47,12 z"
         id="use148" />
      <path
         d="m 3018,4266 q 8,-19 20,-5 c 23,10 29,36 10,56 -10,6 -22,5 -33,-3 q -26,-26 3,-48 z"
         id="use149" />
      <path
         d="m 2987,4490 c -8,-15 -11,-26 -11,-44 4,-3 8,-4 11,-4 l 18,41 q -3,16 -18,7 z"
         id="use150" />
      <path
         d="m 3070,4995 c -12,15 -17,24 -28,41 q -26,6 -29,-23 -14,-21 10,-30 30,-21 47,12 z"
         id="use151" />
      <path
         d="m 2996,5419 q -19,-1 -8,-17 c 18,-15 30,-21 52,-27 q 24,11 9,31 c -20,6 -31,9 -53,13 z"
         id="use152" />
      <path
         d="m 3078,5618 18,-7 7,10 -16,15 z"
         id="use153" />
      <path
         d="m 3281,140 v -36 l 29,12 -13,25 z"
         id="use154" />
      <path
         d="m 3234,459 -3,-11 13,-8 -2,22 z"
         id="use155" />
      <path
         d="m 3339,1014 -19,3 -5,-24 15,-6 z"
         id="use156" />
      <path
         d="m 3142,1274 c -8,-15 -11,-26 -11,-44 4,-3 8,-4 11,-4 l 18,41 q -3,16 -18,7 z"
         id="use157" />
      <path
         d="m 3146,1593 -19,3 -5,-24 15,-6 z"
         id="use158" />
      <path
         d="m 3413,1981 47,8 c 2,8 0,16 -4,21 l -47,-10 c -1,-7 0,-13 4,-19 z"
         id="use159" />
      <path
         d="m 3130,2194 18,-7 7,10 -16,15 z"
         id="use160" />
      <path
         d="m 3133,2361 c -12,15 -17,24 -28,41 q -26,6 -29,-23 -14,-21 10,-30 30,-21 47,12 z"
         id="use161" />
      <path
         d="m 3151,2983 c -12,15 -17,24 -28,41 q -26,6 -29,-23 -14,-21 10,-30 30,-21 47,12 z"
         id="use162" />
      <path
         d="m 3126,3235 18,-7 7,10 -16,15 z"
         id="use163" />
      <path
         d="m 3380,3544 c -12,15 -17,24 -28,41 q -26,6 -29,-23 -14,-21 10,-30 30,-21 47,12 z"
         id="use164" />
      <path
         d="m 3369,3805 c -8,-15 -11,-26 -11,-44 4,-3 8,-4 11,-4 l 18,41 q -3,16 -18,7 z"
         id="use165" />
      <path
         d="m 3405,4093 q 8,-19 20,-5 c 23,10 29,36 10,56 -10,6 -22,5 -33,-3 q -26,-26 3,-48 z"
         id="use166" />
      <path
         d="m 3275,4408 18,-7 7,10 -16,15 z"
         id="use167" />
      <path
         d="m 3391,4817 q -19,-1 -8,-17 c 18,-15 30,-21 52,-27 q 24,11 9,31 c -20,6 -31,9 -53,13 z"
         id="use168" />
      <path
         d="m 3286,5178 q -19,-1 -8,-17 c 18,-15 30,-21 52,-27 q 24,11 9,31 c -20,6 -31,9 -53,13 z"
         id="use169" />
      <path
         d="m 3385,5721 c -8,-15 -11,-26 -11,-44 4,-3 8,-4 11,-4 l 18,41 q -3,16 -18,7 z"
         id="use170" />
      <path
         d="m 3580,206 c -12,15 -17,24 -28,41 q -26,6 -29,-23 -14,-21 10,-30 30,-21 47,12 z"
         id="use171" />
      <path
         d="m 3724,341 17,-9 14,11 -12,22 z"
         id="use172" />
      <path
         d="m 3807,863 c -12,15 -17,24 -28,41 q -26,6 -29,-23 -14,-21 10,-30 30,-21 47,12 z"
         id="use173" />
      <path
         d="m 3764,1117 18,-7 7,10 -16,15 z"
         id="use174" />
      <path
         d="m 3550,1471 -3,-11 13,-8 -2,22 z"
         id="use175" />
      <path
         d="m 3752,2016 47,8 c 2,8 0,16 -4,21 l -47,-10 c -1,-7 0,-13 4,-19 z"
         id="use176" />
      <path
         d="m 3587,2100 -3,-11 13,-8 -2,22 z"
         id="use177" />
      <path
         d="m 3441,2505 q -19,-1 -8,-17 c 18,-15 30,-21 52,-27 q 24,11 9,31 c -20,6 -31,9 -53,13 z"
         id="use178" />
      <path
         d="m 3459,2862 -3,-11 13,-8 -2,22 z"
         id="use179" />
      <path
         d="m 3596,3095 -3,-11 13,-8 -2,22 z"
         id="use180" />
      <path
         d="m 3575,3496 -3,-11 13,-8 -2,22 z"
         id="use181" />
      <path
         d="m 3417,4002 47,8 c 2,8 0,16 -4,21 l -47,-10 c -1,-7 0,-13 4,-19 z"
         id="use182" />
      <path
         d="m 3551,4066 47,8 c 2,8 0,16 -4,21 l -47,-10 c -1,-7 0,-13 4,-19 z"
         id="use183" />
      <path
         d="m 3658,4668 v -36 l 29,12 -13,25 z"
         id="use184" />
      <path
         d="m 3485,5003 c -8,-15 -11,-26 -11,-44 4,-3 8,-4 11,-4 l 18,41 q -3,16 -18,7 z"
         id="use185" />
      <path
         d="m 3663,5372 47,8 c 2,8 0,16 -4,21 l -47,-10 c -1,-7 0,-13 4,-19 z"
         id="use186" />
      <path
         d="m 3477,5543 q -19,-1 -8,-17 c 18,-15 30,-21 52,-27 q 24,11 9,31 c -20,6 -31,9 -53,13 z"
         id="use187" />
      <path
         d="m 4027,191 47,8 c 2,8 0,16 -4,21 l -47,-10 c -1,-7 0,-13 4,-19 z"
         id="use188" />
      <path
         d="m 3999,418 18,-7 7,10 -16,15 z"
         id="use189" />
      <path
         d="m 3840,753 47,8 c 2,8 0,16 -4,21 l -47,-10 c -1,-7 0,-13 4,-19 z"
         id="use190" />
      <path
         d="m 4078,1156 q -19,-1 -8,-17 c 18,-15 30,-21 52,-27 q 24,11 9,31 c -20,6 -31,9 -53,13 z"
         id="use191" />
      <path
         d="m 4103,1505 18,-7 7,10 -16,15 z"
         id="use192" />
      <path
         d="m 4031,1946 18,-7 7,10 -16,15 z"
         id="use193" />
      <path
         d="m 3873,2356 q -19,-1 -8,-17 c 18,-15 30,-21 52,-27 q 24,11 9,31 c -20,6 -31,9 -53,13 z"
         id="use194" />
      <path
         d="m 3899,2531 47,8 c 2,8 0,16 -4,21 l -47,-10 c -1,-7 0,-13 4,-19 z"
         id="use195" />
      <path
         d="m 3896,2725 c -12,15 -17,24 -28,41 q -26,6 -29,-23 -14,-21 10,-30 30,-21 47,12 z"
         id="use196" />
      <path
         d="m 3886,3094 -19,3 -5,-24 15,-6 z"
         id="use197" />
      <path
         d="m 4022,3626 -3,-11 13,-8 -2,22 z"
         id="use198" />
      <path
         d="m 3910,3814 -3,-11 13,-8 -2,22 z"
         id="use199" />
      <path
         d="m 4031,4139 -3,-11 13,-8 -2,22 z"
         id="use200" />
      <path
         d="m 3909,4492 q -19,-1 -8,-17 c 18,-15 30,-21 52,-27 q 24,11 9,31 c -20,6 -31,9 -53,13 z"
         id="use201" />
      <path
         d="m 3983,4900 q -19,-1 -8,-17 c 18,-15 30,-21 52,-27 q 24,11 9,31 c -20,6 -31,9 -53,13 z"
         id="use202" />
      <path
         d="m 3957,5122 q -19,-1 -8,-17 c 18,-15 30,-21 52,-27 q 24,11 9,31 c -20,6 -31,9 -53,13 z"
         id="use203" />
      <path
         d="m 3816,5466 17,-9 14,11 -12,22 z"
         id="use204" />
      <path
         d="m 4386,120 18,-7 7,10 -16,15 z"
         id="use205" />
      <path
         d="m 4248,406 c -8,-15 -11,-26 -11,-44 4,-3 8,-4 11,-4 l 18,41 q -3,16 -18,7 z"
         id="use206" />
      <path
         d="m 4289,741 q 8,-19 20,-5 c 23,10 29,36 10,56 -10,6 -22,5 -33,-3 q -26,-26 3,-48 z"
         id="use207" />
      <path
         d="m 4264,1338 17,-9 14,11 -12,22 z"
         id="use208" />
      <path
         d="m 4142,1576 18,-7 7,10 -16,15 z"
         id="use209" />
      <path
         d="m 4322,1816 -19,3 -5,-24 15,-6 z"
         id="use210" />
      <path
         d="m 4230,2213 -3,-11 13,-8 -2,22 z"
         id="use211" />
      <path
         d="m 4155,2713 v -36 l 29,12 -13,25 z"
         id="use212" />
      <path
         d="m 4460,3003 c -12,15 -17,24 -28,41 q -26,6 -29,-23 -14,-21 10,-30 30,-21 47,12 z"
         id="use213" />
      <path
         d="m 4131,3274 17,-9 14,11 -12,22 z"
         id="use214" />
      <path
         d="m 4225,3463 17,-9 14,11 -12,22 z"
         id="use215" />
      <path
         d="m 4120,4078 q -19,-1 -8,-17 c 18,-15 30,-21 52,-27 q 24,11 9,31 c -20,6 -31,9 -53,13 z"
         id="use216" />
      <path
         d="m 4389,4285 v -36 l 29,12 -13,25 z"
         id="use217" />
      <path
         d="m 4438,4569 18,-7 7,10 -16,15 z"
         id="use218" />
      <path
         d="m 4455,5000 -3,-11 13,-8 -2,22 z"
         id="use219" />
      <path
         d="m 4434,5227 q -19,-1 -8,-17 c 18,-15 30,-21 52,-27 q 24,11 9,31 c -20,6 -31,9 -53,13 z"
         id="use220" />
      <path
         d="m 4283,5398 q 8,-19 20,-5 c 23,10 29,36 10,56 -10,6 -22,5 -33,-3 q -26,-26 3,-48 z"
         id="use221" />
      <path
         d="m 4462,345 v -36 l 29,12 -13,25 z"
         id="use222" />
      <path
         d="m 4687,435 18,-7 7,10 -16,15 z"
         id="use223" />
      <path
         d="m 4709,885 v -36 l 29,12 -13,25 z"
         id="use224" />
      <path
         d="m 4782,1000 q 8,-19 20,-5 c 23,10 29,36 10,56 -10,6 -22,5 -33,-3 q -26,-26 3,-48 z"
         id="use225" />
      <path
         d="m 4739,1484 q -19,-1 -8,-17 c 18,-15 30,-21 52,-27 q 24,11 9,31 c -20,6 -31,9 -53,13 z"
         id="use226" />
      <path
         d="m 4701,1772 q -19,-1 -8,-17 c 18,-15 30,-21 52,-27 q 24,11 9,31 c -20,6 -31,9 -53,13 z"
         id="use227" />
      <path
         d="m 4460,2171 q -19,-1 -8,-17 c 18,-15 30,-21 52,-27 q 24,11 9,31 c -20,6 -31,9 -53,13 z"
         id="use228" />
      <path
         d="m 4613,2629 v -36 l 29,12 -13,25 z"
         id="use229" />
      <path
         d="m 4525,2747 18,-7 7,10 -16,15 z"
         id="use230" />
      <path
         d="m 4516,3257 c -12,15 -17,24 -28,41 q -26,6 -29,-23 -14,-21 10,-30 30,-21 47,12 z"
         id="use231" />
      <path
         d="m 4551,3577 18,-7 7,10 -16,15 z"
         id="use232" />
      <path
         d="m 4503,3897 -19,3 -5,-24 15,-6 z"
         id="use233" />
      <path
         d="m 4489,4182 -19,3 -5,-24 15,-6 z"
         id="use234" />
      <path
         d="m 4626,4664 17,-9 14,11 -12,22 z"
         id="use235" />
      <path
         d="m 4494,4795 q -19,-1 -8,-17 c 18,-15 30,-21 52,-27 q 24,11 9,31 c -20,6 -31,9 -53,13 z"
         id="use236" />
      <path
         d="m 4583,5100 18,-7 7,10 -16,15 z"
         id="use237" />
      <path
         d="m 4753,5447 v -36 l 29,12 -13,25 z"
         id="use238" />
      <path
         d="m 4861,188 c -8,-15 -11,-26 -11,-44 4,-3 8,-4 11,-4 l 18,41 q -3,16 -18,7 z"
         id="use239" />
      <path
         d="m 4982,443 -3,-11 13,-8 -2,22 z"
         id="use240" />
      <path
         d="m 5015,853 18,-7 7,10 -16,15 z"
         id="use241" />
      <path
         d="m 5073,1256 c -8,-15 -11,-26 -11,-44 4,-3 8,-4 11,-4 l 18,41 q -3,16 -18,7 z"
         id="use242" />
      <path
         d="m 5003,1543 47,8 c 2,8 0,16 -4,21 l -47,-10 c -1,-7 0,-13 4,-19 z"
         id="use243" />
      <path
         d="m 5085,2003 17,-9 14,11 -12,22 z"
         id="use244" />
      <path
         d="m 4974,2292 q -19,-1 -8,-17 c 18,-15 30,-21 52,-27 q 24,11 9,31 c -20,6 -31,9 -53,13 z"
         id="use245" />
      <path
         d="m 5023,2540 q 8,-19 20,-5 c 23,10 29,36 10,56 -10,6 -22,5 -33,-3 q -26,-26 3,-48 z"
         id="use246" />
      <path
         d="m 4914,3055 -19,3 -5,-24 15,-6 z"
         id="use247" />
      <path
         d="m 4863,3294 v -36 l 29,12 -13,25 z"
         id="use248" />
      <path
         d="m 5047,3527 q 8,-19 20,-5 c 23,10 29,36 10,56 -10,6 -22,5 -33,-3 q -26,-26 3,-48 z"
         id="use249" />
      <path
         d="m 4886,4011 -19,3 -5,-24 15,-6 z"
         id="use250" />
      <path
         d="m 4938,4108 17,-9 14,11 -12,22 z"
         id="use251" />
      <path
         d="m 5080,4567 c -12,15 -17,24 -28,41 q -26,6 -29,-23 -14,-21 10,-30 30,-21 47,12 z"
         id="use252" />
      <path
         d="m 4993,5086 c -8,-15 -11,-26 -11,-44 4,-3 8,-4 11,-4 l 18,41 q -3,16 -18,7 z"
         id="use253" />
      <path
         d="m 4814,5381 18,-7 7,10 -16,15 z"
         id="use254" />
      <path
         d="m 4980,5540 17,-9 14,11 -12,22 z"
         id="use255" />
      <path
         d="m 5207,60 -19,3 -5,-24 15,-6 z"
         id="use256" />
      <path
         d="m 5338,413 v -36 l 29,12 -13,25 z"
         id="use257" />
      <path
         d="m 5249,799 18,-7 7,10 -16,15 z"
         id="use258" />
      <path
         d="m 5274,1082 18,-7 7,10 -16,15 z"
         id="use259" />
      <path
         d="m 5297,1428 -19,3 -5,-24 15,-6 z"
         id="use260" />
      <path
         d="m 5145,1688 47,8 c 2,8 0,16 -4,21 l -47,-10 c -1,-7 0,-13 4,-19 z"
         id="use261" />
      <path
         d="m 5351,2335 -19,3 -5,-24 15,-6 z"
         id="use262" />
      <path
         d="m 5294,2497 q -19,-1 -8,-17 c 18,-15 30,-21 52,-27 q 24,11 9,31 c -20,6 -31,9 -53,13 z"
         id="use263" />
      <path
         d="m 5331,3020 17,-9 14,11 -12,22 z"
         id="use264" />
      <path
         d="m 5317,3357 -19,3 -5,-24 15,-6 z"
         id="use265" />
      <path
         d="m 5202,3451 -3,-11 13,-8 -2,22 z"
         id="use266" />
      <path
         d="m 5304,3778 -3,-11 13,-8 -2,22 z"
         id="use267" />
      <path
         d="m 5350,4185 -3,-11 13,-8 -2,22 z"
         id="use268" />
      <path
         d="m 5248,4618 q 8,-19 20,-5 c 23,10 29,36 10,56 -10,6 -22,5 -33,-3 q -26,-26 3,-48 z"
         id="use269" />
      <path
         d="m 5217,4916 -3,-11 13,-8 -2,22 z"
         id="use270" />
      <path
         d="m 5457,5374 17,-9 14,11 -12,22 z"
         id="use271" />
      <path
         d="m 5360,5654 -3,-11 13,-8 -2,22 z"
         id="use272" />
    </g>
  </g>
  <rect
     width="29.596853"
     height="27.913619"
     rx="1"
     ry="1"
     transform="matrix(.906308 0.422618-.422618 0.906308 42.486474 9.499151)"
     fill="rgba(255,255,255,0)"
     stroke="#114b5f"
     stroke-width="1.5"
     id="rect1"
     style="fill:none" />
  <line
     x1="0"
     y1="-16.463845"
     x2="0"
     y2="48.5"
     transform="translate(31.03 51.5)"
     fill="none"
     stroke="#114b5f"
     stroke-width="1.5"
     stroke-linecap="square"
     id="line1" />
  <line
     x1="0"
     y1="-16.463845"
     x2="0"
     y2="36.228227"
     transform="translate(57.523748 63.771773)"
     fill="none"
     stroke="#114b5f"
     stroke-width="1.5"
     stroke-linecap="square"
     id="line2" />
  <line
     x1="0"
     y1="-16.463845"
     x2="0"
     y2="60.727434"
     transform="translate(68.989779 39.272567)"
     fill="none"
     stroke="#114b5f"
     stroke-width="1.5"
     id="line3" />
</svg>
