<?xml version="1.0" encoding="UTF-8" standalone="no"?>
<svg
   version="1.0"
   width="900.000000pt"
   height="900.000000pt"
   viewBox="0 0 900.000000 900.000000"
   preserveAspectRatio="xMidYMid meet"
   id="svg3"
   sodipodi:docname="powerGlyphAlt.svg"
   inkscape:version="1.3.2 (091e20ef0f, 2023-11-25)"
   xmlns:inkscape="http://www.inkscape.org/namespaces/inkscape"
   xmlns:sodipodi="http://sodipodi.sourceforge.net/DTD/sodipodi-0.dtd"
   xmlns="http://www.w3.org/2000/svg"
   xmlns:svg="http://www.w3.org/2000/svg">
  <defs
     id="defs3" />
  <sodipodi:namedview
     id="namedview3"
     pagecolor="#ffffff"
     bordercolor="#000000"
     borderopacity="0.25"
     inkscape:showpageshadow="2"
     inkscape:pageopacity="0.0"
     inkscape:pagecheckerboard="0"
     inkscape:deskcolor="#d1d1d1"
     inkscape:document-units="pt"
     inkscape:zoom="0.995"
     inkscape:cx="600"
     inkscape:cy="600"
     inkscape:window-width="2486"
     inkscape:window-height="1376"
     inkscape:window-x="0"
     inkscape:window-y="0"
     inkscape:window-maximized="1"
     inkscape:current-layer="svg3" />
  <metadata
     id="metadata1">
Created by potrace 1.10, written by Peter Selinger 2001-2011
</metadata>
  <g
     transform="translate(0.000000,900.000000) scale(0.100000,-0.100000)"
     fill="#000000"
     stroke="none"
     id="g3"
     style="fill:#e4fde1;fill-opacity:1">
    <path
       d="M4055 8884 c-224 -25 -508 -76 -665 -119 -25 -7 -74 -20 -110 -30 -36 -9 -81 -23 -100 -30 -19 -6 -60 -20 -90 -29 -30 -9 -72 -23 -92 -31 -21 -8 -56 -22 -78 -30 -104 -39 -147 -57 -280 -117 -52 -24 -238 -115 -260 -128 -332 -196 -450 -275 -661 -445 -142 -114 -351 -314 -512 -490 -97 -107 -347 -424 -347 -440 0 -4 -12 -24 -27 -44 -16 -20 -34 -45 -40 -56 -192 -313 -278 -475 -363 -685 -12 -30 -28 -68 -35 -85 -46 -107 -136 -387 -179 -560 -132 -534 -167 -1182 -90 -1675 8 -52 14 -106 14 -119 0 -13 7 -55 15 -95 9 -39 23 -105 31 -146 28 -137 94 -376 120 -438 8 -18 14 -39 14 -47 0 -8 6 -29 14 -47 8 -18 21 -52 30 -75 34 -92 49 -129 62 -158 7 -16 25 -57 39 -90 53 -120 171 -351 216 -420 10 -16 23 -39 29 -50 6 -11 18 -32 28 -47 9 -14 30 -48 46 -75 24 -40 101 -150 175 -250 171 -231 423 -501 651 -699 103 -88 383 -304 396 -304 3 0 23 -12 43 -28 20 -15 45 -33 56 -39 11 -7 56 -35 100 -61 173 -107 449 -246 605 -307 25 -9 53 -21 62 -26 23 -12 94 -38 133 -49 17 -4 46 -14 65 -21 19 -6 51 -17 70 -24 19 -7 62 -20 95 -29 33 -10 76 -22 95 -28 19 -7 53 -15 75 -19 22 -4 58 -12 80 -17 121 -30 294 -60 510 -89 187 -24 803 -24 990 0 172 23 305 44 385 62 36 9 72 15 81 15 9 0 39 6 65 14 27 8 78 22 114 31 81 21 253 72 303 91 20 8 55 21 77 29 22 8 57 21 78 29 239 90 524 232 752 376 39 25 79 50 88 55 48 28 273 193 341 250 133 111 197 169 326 297 83 82 186 192 230 245 44 52 87 103 96 112 22 22 156 203 205 274 209 310 372 624 490 940 8 20 21 54 29 75 8 20 22 62 31 92 9 30 23 70 30 88 8 18 14 40 14 48 0 9 7 39 16 68 33 105 38 122 44 161 4 22 12 60 18 85 59 244 93 541 99 880 5 252 -8 474 -39 675 -6 39 -14 97 -18 130 -4 33 -12 83 -18 110 -6 28 -18 86 -28 130 -31 146 -92 365 -120 433 -8 18 -14 39 -14 47 0 8 -6 29 -14 47 -8 18 -21 51 -29 73 -83 221 -218 505 -318 668 -16 26 -29 49 -29 51 0 3 -19 33 -42 68 -24 35 -47 71 -53 80 -25 42 -95 141 -164 232 -289 384 -660 734 -1069 1009 -60 41 -116 77 -123 81 -8 3 -27 15 -44 26 -16 11 -39 24 -50 30 -11 6 -47 26 -80 45 -56 32 -285 147 -365 183 -83 37 -150 65 -205 85 -147 54 -182 66 -220 77 -16 5 -43 13 -60 18 -46 16 -123 38 -195 57 -36 9 -88 23 -116 31 -28 8 -59 14 -70 14 -10 0 -48 6 -84 15 -68 15 -200 36 -360 56 -147 18 -757 20 -915 3z m725 -729 c187 -15 278 -27 377 -51 34 -8 71 -14 84 -14 12 0 45 -6 73 -14 28 -8 80 -22 116 -31 102 -27 239 -70 330 -105 30 -12 66 -25 80 -30 80 -26 352 -155 440 -209 19 -11 44 -25 55 -30 11 -5 36 -20 55 -33 19 -13 42 -27 50 -31 19 -9 52 -30 127 -82 436 -300 817 -704 1077 -1145 31 -52 61 -102 66 -110 39 -65 200 -404 200 -423 0 -7 7 -22 15 -33 8 -10 15 -25 15 -32 0 -8 6 -28 13 -45 18 -41 36 -94 47 -132 5 -16 18 -61 30 -100 12 -38 25 -86 29 -105 5 -19 13 -55 19 -80 57 -237 90 -493 99 -775 11 -341 -59 -849 -159 -1140 -5 -16 -13 -43 -18 -60 -10 -37 -29 -89 -47 -132 -7 -17 -13 -37 -13 -45 0 -7 -7 -22 -15 -32 -8 -11 -15 -26 -15 -33 0 -35 -201 -435 -271 -541 -16 -24 -29 -45 -29 -47 0 -9 -143 -211 -228 -321 -142 -184 -412 -454 -596 -596 -111 -85 -312 -228 -321 -228 -2 0 -21 -12 -42 -26 -21 -14 -47 -30 -58 -35 -11 -5 -36 -19 -55 -30 -80 -49 -410 -209 -431 -209 -6 0 -20 -5 -32 -12 -26 -15 -81 -36 -122 -48 -16 -5 -61 -19 -100 -33 -358 -122 -707 -177 -1135 -177 -407 0 -694 44 -1105 167 -47 15 -70 23 -162 57 -156 57 -390 166 -518 241 -33 19 -69 39 -80 45 -11 6 -33 19 -50 30 -16 11 -37 23 -45 27 -25 12 -141 93 -245 171 -275 207 -541 474 -746 747 -56 75 -190 277 -219 330 -12 22 -31 56 -42 75 -24 40 -143 280 -162 325 -7 17 -20 46 -28 65 -9 19 -23 54 -32 78 -9 23 -22 59 -30 80 -29 75 -101 315 -109 362 -3 14 -9 45 -15 70 -116 482 -116 1131 0 1620 6 25 14 63 19 85 11 56 29 124 44 165 7 19 22 64 34 100 11 36 30 90 41 120 12 30 25 66 30 80 25 77 127 294 195 415 19 33 38 69 44 80 5 11 21 37 35 58 14 21 26 40 26 42 0 13 215 317 266 375 12 14 55 63 95 110 141 162 357 365 524 492 59 45 284 198 291 198 2 0 20 12 41 26 21 14 47 30 58 35 11 5 36 19 55 30 140 85 391 196 630 278 70 25 225 68 310 88 64 15 86 19 205 41 315 59 611 73 935 47z"
       id="path1"
       style="fill:#e4fde1;fill-opacity:1" />
    <path
       d="M4455 7623 c-14 -27 -30 -55 -35 -63 -5 -8 -21 -37 -35 -65 -14 -27 -48 -90 -75 -140 -28 -49 -61 -112 -76 -140 -14 -27 -40 -77 -58 -110 -18 -33 -55 -103 -83 -155 -28 -52 -70 -129 -92 -170 -23 -41 -53 -97 -67 -125 -14 -27 -47 -90 -74 -140 -28 -49 -61 -112 -76 -140 -14 -27 -40 -77 -58 -110 -18 -33 -59 -109 -91 -170 -32 -60 -73 -137 -91 -170 -18 -33 -45 -82 -59 -110 -15 -27 -49 -90 -76 -140 -27 -49 -60 -112 -75 -140 -14 -27 -40 -77 -58 -110 -18 -33 -59 -109 -91 -170 -32 -60 -73 -137 -91 -170 -18 -33 -45 -85 -61 -115 -68 -129 -138 -259 -171 -320 -55 -100 -98 -180 -126 -235 -15 -27 -48 -90 -76 -140 -27 -49 -60 -112 -75 -140 -14 -27 -47 -90 -75 -140 -27 -49 -60 -112 -74 -140 -14 -27 -42 -79 -62 -115 -20 -36 -61 -112 -92 -170 -31 -58 -70 -132 -88 -165 -18 -33 -45 -82 -59 -110 -14 -27 -48 -90 -75 -140 -28 -49 -61 -112 -76 -140 -14 -27 -40 -77 -58 -110 -90 -165 -157 -297 -154 -301 7 -6 5450 -5 5457 1 5 6 -5 25 -99 200 -26 50 -60 113 -74 140 -14 28 -48 91 -75 140 -27 50 -62 115 -78 145 -45 84 -133 250 -157 293 -56 103 -111 206 -238 446 -22 41 -52 97 -67 125 -16 28 -50 92 -76 141 -26 50 -60 113 -75 140 -37 67 -94 174 -142 264 -22 41 -53 99 -70 130 -17 30 -46 85 -65 121 -42 79 -84 158 -143 265 -24 44 -57 105 -73 135 -43 83 -113 213 -200 370 -16 30 -45 84 -64 120 -19 36 -50 92 -68 125 -18 33 -45 83 -59 110 -14 28 -48 91 -76 140 -28 50 -62 113 -76 140 -14 28 -40 77 -59 110 -19 33 -46 83 -60 110 -14 28 -41 77 -60 110 -18 33 -45 83 -60 110 -14 28 -41 77 -60 110 -18 33 -46 83 -60 110 -14 28 -36 68 -49 90 -59 105 -110 199 -181 330 -21 39 -53 97 -71 130 -18 33 -44 84 -58 113 -15 28 -33 52 -40 52 -8 0 -26 -21 -41 -47z m88 -1234 c19 -35 49 -91 67 -124 18 -33 46 -85 63 -115 16 -30 42 -77 57 -105 15 -27 44 -81 65 -120 21 -38 53 -97 71 -130 18 -33 44 -82 59 -110 14 -27 41 -77 60 -110 18 -33 45 -82 59 -110 23 -43 59 -111 144 -265 20 -36 104 -194 155 -290 16 -30 44 -82 62 -115 18 -33 45 -82 59 -110 14 -27 48 -90 76 -140 27 -49 61 -112 75 -140 14 -27 48 -90 75 -140 28 -49 61 -112 76 -140 14 -27 40 -77 58 -110 18 -33 59 -109 91 -170 32 -60 73 -137 91 -170 18 -33 44 -82 59 -110 27 -52 61 -114 135 -250 66 -121 72 -135 66 -150 -5 -13 -231 -15 -1771 -15 -1586 0 -1765 2 -1765 15 0 14 57 127 156 310 18 33 44 83 58 110 15 28 48 91 76 140 27 50 62 115 78 145 66 127 142 269 176 330 20 36 48 88 62 115 14 28 40 77 58 110 18 33 56 105 86 160 29 55 65 123 80 150 15 28 48 89 74 138 25 48 67 126 93 175 25 48 62 116 81 152 19 36 49 92 66 125 18 33 53 98 78 145 25 47 65 121 89 165 23 44 57 107 75 140 18 33 44 83 58 110 14 28 48 91 76 140 28 50 62 113 76 140 14 28 41 77 59 110 19 33 46 84 60 112 22 44 53 78 62 69 1 -1 18 -31 36 -67z"
       id="path2"
       style="fill:#e4fde1;fill-opacity:1" />
    <path
       d="M4340 4923 c-293 -68 -491 -248 -586 -533 -27 -80 -27 -322 0 -400 60 -172 139 -288 268 -386 31 -24 60 -44 64 -44 4 0 15 -6 23 -13 9 -8 45 -26 79 -40 203 -86 472 -74 658 29 252 139 393 377 394 660 0 198 -77 384 -219 524 -176 174 -452 257 -681 203z"
       id="path3"
       style="fill:#e4fde1;fill-opacity:1" />
  </g>
</svg>
