<?xml version="1.0" encoding="UTF-8" standalone="no"?>
<svg
   version="1.0"
   width="900.000000pt"
   height="900.000000pt"
   viewBox="0 0 900.000000 900.000000"
   preserveAspectRatio="xMidYMid meet"
   id="svg15"
   sodipodi:docname="refreshGlyph.svg"
   inkscape:version="1.3.2 (091e20ef0f, 2023-11-25)"
   xmlns:inkscape="http://www.inkscape.org/namespaces/inkscape"
   xmlns:sodipodi="http://sodipodi.sourceforge.net/DTD/sodipodi-0.dtd"
   xmlns="http://www.w3.org/2000/svg"
   xmlns:svg="http://www.w3.org/2000/svg">
  <defs
     id="defs15" />
  <sodipodi:namedview
     id="namedview15"
     pagecolor="#ffffff"
     bordercolor="#000000"
     borderopacity="0.25"
     inkscape:showpageshadow="2"
     inkscape:pageopacity="0.0"
     inkscape:pagecheckerboard="0"
     inkscape:deskcolor="#d1d1d1"
     inkscape:document-units="pt"
     inkscape:zoom="1.0175"
     inkscape:cx="600.4914"
     inkscape:cy="600"
     inkscape:window-width="2560"
     inkscape:window-height="1403"
     inkscape:window-x="0"
     inkscape:window-y="0"
     inkscape:window-maximized="1"
     inkscape:current-layer="svg15" />
  <metadata
     id="metadata1">
Created by potrace 1.10, written by Peter Selinger 2001-2011
</metadata>
  <g
     transform="translate(0.000000,900.000000) scale(0.100000,-0.100000)"
     fill="#000000"
     stroke="none"
     id="g15"
     style="fill:#e4fde1;fill-opacity:1">
    <path
       d="M4464 7818 c-4 -13 -20 -52 -36 -88 -52 -114 -56 -124 -81 -180 -59 -133 -128 -280 -234 -500 -41 -85 -82 -171 -91 -190 -9 -19 -23 -43 -31 -52 -7 -10 -11 -24 -8 -33 6 -13 38 -15 227 -15 l220 0 0 -24 c0 -14 -5 -28 -11 -31 -5 -4 -14 -17 -20 -28 -5 -12 -25 -49 -44 -82 -19 -33 -40 -69 -45 -80 -6 -11 -14 -27 -20 -35 -16 -26 -100 -171 -100 -175 0 -2 -19 -36 -43 -77 -24 -40 -46 -80 -50 -88 -4 -8 -17 -31 -28 -50 -12 -19 -32 -55 -46 -80 -13 -25 -38 -67 -54 -95 -17 -27 -37 -63 -45 -80 -8 -16 -23 -43 -34 -60 -10 -16 -30 -50 -43 -75 -14 -25 -34 -61 -46 -80 -11 -19 -24 -42 -28 -50 -4 -8 -26 -48 -50 -88 -24 -40 -43 -74 -43 -76 0 -3 -27 -50 -60 -106 -33 -56 -60 -103 -60 -105 0 -2 -19 -36 -43 -77 -24 -40 -46 -80 -50 -88 -4 -8 -17 -31 -28 -50 -12 -19 -33 -57 -48 -83 -14 -26 -31 -56 -36 -65 -6 -9 -28 -48 -50 -87 -22 -38 -45 -79 -52 -90 -7 -11 -16 -27 -20 -35 -4 -8 -26 -46 -48 -85 -23 -38 -44 -77 -48 -85 -4 -8 -17 -31 -28 -50 -12 -19 -32 -55 -46 -80 -13 -25 -33 -58 -43 -75 -10 -16 -31 -52 -46 -80 -48 -87 -55 -99 -74 -130 -10 -16 -30 -50 -43 -75 -14 -25 -34 -61 -45 -80 -11 -19 -33 -57 -48 -85 -46 -84 -54 -98 -85 -150 -16 -27 -37 -63 -45 -80 -8 -16 -23 -43 -33 -60 -9 -16 -35 -61 -56 -100 -21 -38 -49 -88 -61 -110 -13 -22 -35 -64 -50 -93 -29 -60 -40 -59 -75 10 l-20 39 38 67 c21 37 48 85 61 107 12 22 32 59 43 83 l22 43 -28 67 c-15 37 -34 85 -42 107 -8 22 -21 55 -29 73 -8 18 -14 43 -14 55 -1 12 -7 33 -15 47 -8 14 -14 36 -15 49 0 13 -6 47 -14 75 -62 221 -74 699 -25 946 20 100 60 252 84 320 125 348 285 602 544 861 160 160 247 227 456 356 65 40 316 155 385 176 8 2 31 33 49 68 40 74 118 221 155 294 14 28 39 75 56 105 19 35 26 58 20 64 -19 19 -350 -67 -498 -130 -18 -8 -37 -14 -42 -14 -18 0 -237 -105 -340 -163 -70 -39 -234 -146 -281 -183 -178 -141 -316 -270 -420 -394 -29 -36 -57 -67 -60 -70 -7 -7 -121 -161 -136 -185 -124 -197 -224 -389 -276 -530 -60 -162 -68 -185 -77 -225 -15 -60 -31 -123 -46 -176 -8 -28 -14 -62 -14 -75 0 -13 -6 -53 -14 -89 -18 -81 -36 -311 -36 -450 0 -129 16 -330 35 -430 8 -41 16 -88 18 -105 6 -43 46 -203 69 -270 5 -16 13 -43 18 -60 5 -16 18 -55 30 -85 12 -30 25 -66 29 -80 21 -66 128 -281 182 -365 10 -16 22 -37 26 -45 10 -21 89 -136 141 -205 128 -168 324 -365 492 -494 79 -61 196 -142 220 -154 8 -4 29 -16 45 -26 91 -59 340 -181 368 -181 7 0 17 -4 23 -9 18 -19 271 -96 404 -124 236 -50 256 -52 555 -52 290 0 374 8 535 47 25 6 63 14 85 18 77 14 188 49 335 105 88 33 250 110 365 173 101 55 295 189 380 262 38 33 312 307 345 345 69 80 203 273 257 370 28 49 131 258 149 302 8 18 20 48 28 65 8 18 17 42 19 53 3 11 16 52 30 90 112 322 159 738 127 1104 -17 187 -37 306 -80 471 -6 25 -15 61 -20 80 -9 39 -29 97 -76 223 -27 71 -39 97 -108 237 -77 155 -69 140 -165 284 -123 186 -297 385 -466 535 -54 47 -241 191 -249 191 -3 0 -33 19 -68 43 -75 49 -79 51 -190 110 -47 25 -126 62 -174 82 -49 20 -102 43 -117 51 -16 8 -35 14 -42 14 -8 0 -29 6 -47 14 -31 13 -79 28 -200 61 -99 27 -216 48 -232 42 -16 -6 -20 3 109 -242 32 -60 76 -144 97 -185 22 -41 45 -81 50 -88 12 -14 94 -52 113 -52 8 0 26 -6 42 -14 28 -15 146 -69 173 -80 119 -48 372 -231 533 -385 79 -75 267 -298 267 -316 0 -4 13 -24 28 -44 16 -20 32 -43 35 -51 4 -8 16 -28 27 -45 31 -47 150 -291 150 -307 0 -8 7 -23 15 -34 8 -10 15 -27 15 -36 0 -10 6 -32 14 -50 22 -51 62 -202 85 -318 6 -30 18 -136 27 -235 14 -150 14 -206 5 -340 -15 -213 -31 -307 -87 -500 -26 -94 -77 -241 -94 -275 -5 -11 -14 -29 -20 -40 -5 -11 -10 -25 -10 -32 0 -13 44 -104 82 -168 63 -108 70 -128 59 -163 -7 -19 -20 -42 -31 -52 -19 -17 -20 -17 -30 6 -6 13 -20 40 -31 59 -12 19 -32 55 -46 80 -13 25 -33 59 -43 75 -10 17 -31 53 -45 80 -14 28 -35 64 -45 80 -11 17 -23 37 -27 45 -4 8 -25 47 -48 85 -22 39 -44 77 -48 85 -4 8 -16 29 -27 45 -11 17 -26 44 -34 60 -8 17 -29 53 -45 80 -17 28 -35 59 -41 70 -6 11 -20 36 -31 55 -12 19 -33 57 -48 83 -14 26 -30 56 -36 65 -5 9 -28 49 -50 87 -22 39 -45 79 -52 90 -7 11 -15 27 -19 35 -4 8 -27 48 -51 88 -24 41 -43 75 -43 77 0 2 -19 36 -43 77 -24 40 -46 80 -50 88 -4 8 -16 29 -27 45 -11 17 -23 37 -27 45 -4 8 -25 47 -48 85 -22 39 -44 77 -48 85 -4 8 -13 24 -20 35 -7 11 -30 52 -52 90 -22 39 -45 79 -52 90 -7 11 -15 27 -19 35 -4 8 -26 47 -49 85 -22 39 -44 77 -48 85 -4 8 -16 29 -26 45 -11 17 -28 46 -38 65 -34 62 -64 114 -84 145 -10 17 -23 39 -28 51 -5 11 -27 50 -48 85 -22 35 -43 71 -47 79 -4 8 -12 24 -19 35 -7 11 -30 52 -52 90 -22 39 -45 79 -52 90 -7 11 -15 27 -19 35 -4 8 -26 47 -49 85 -22 39 -44 77 -48 85 -4 8 -13 24 -20 35 -7 11 -30 51 -52 90 -22 38 -45 79 -52 90 -7 11 -15 27 -19 35 -4 8 -25 44 -46 79 -62 107 -73 101 186 101 131 0 227 4 231 10 3 5 -19 58 -49 117 -65 130 -179 372 -241 508 -15 33 -40 89 -57 125 -16 36 -36 80 -43 98 -36 82 -48 109 -61 135 -8 16 -14 34 -14 41 0 13 -31 46 -43 46 -3 0 -9 -10 -13 -22z m69 -2010 c16 -29 37 -66 47 -83 19 -31 26 -42 74 -130 15 -27 36 -63 47 -80 10 -16 22 -37 26 -45 4 -8 33 -59 65 -113 32 -54 58 -100 58 -102 0 -4 84 -150 100 -175 6 -8 13 -22 17 -30 4 -8 25 -46 48 -85 22 -38 44 -77 48 -85 4 -8 17 -31 28 -50 12 -19 32 -55 46 -80 13 -25 33 -58 43 -75 11 -16 26 -43 34 -60 8 -16 29 -52 45 -80 17 -27 34 -57 38 -65 4 -8 25 -46 48 -85 22 -38 44 -77 48 -85 4 -8 17 -31 28 -50 12 -19 32 -55 46 -80 13 -25 33 -58 43 -75 10 -16 30 -50 43 -75 14 -25 34 -61 46 -80 11 -19 24 -42 28 -50 4 -8 26 -48 50 -88 24 -41 43 -76 43 -78 0 -2 11 -22 25 -44 14 -22 25 -44 25 -50 0 -6 -78 -10 -222 -10 l-223 1 -100 96 c-310 297 -325 313 -319 341 4 15 14 41 22 57 23 46 22 228 -2 286 -37 88 -52 112 -108 173 -56 62 -145 117 -209 130 -15 3 -30 13 -33 23 -7 17 -14 119 -43 631 l-17 303 -31 -3 -30 -3 -12 -225 c-7 -124 -18 -326 -23 -450 -11 -232 -19 -272 -55 -278 -101 -16 -247 -137 -290 -242 -4 -8 -14 -33 -23 -55 -24 -56 -23 -256 1 -304 34 -67 39 -60 -188 -270 -44 -41 -112 -105 -151 -142 l-71 -68 -217 -1 c-120 -1 -220 1 -224 4 -5 5 21 61 53 114 6 10 28 49 50 87 22 39 50 88 63 110 12 22 29 54 38 70 8 17 23 44 34 60 19 31 26 42 74 130 15 28 37 66 48 85 11 19 31 55 45 80 13 25 34 61 45 80 11 19 31 55 45 80 13 25 38 68 54 95 17 28 37 64 45 80 8 17 19 37 24 45 15 23 96 163 103 180 4 8 17 31 28 50 12 19 32 55 46 80 13 25 34 61 45 80 11 19 31 55 45 80 13 25 38 68 54 95 17 28 37 64 45 80 8 17 23 44 34 60 11 17 31 53 45 80 14 28 35 64 45 80 10 17 31 53 46 80 49 89 55 100 74 130 11 17 24 41 30 54 10 22 12 22 28 8 9 -9 30 -40 45 -69z m-323 -1918 c61 -48 138 -82 209 -90 74 -9 178 1 231 22 47 19 140 78 140 89 0 37 58 -20 165 -161 27 -36 57 -74 67 -84 43 -47 53 -46 -537 -46 -305 0 -555 3 -555 7 0 6 137 193 149 203 4 3 21 24 40 48 18 23 37 42 43 42 6 0 27 -13 48 -30z m1988 -750 c7 -38 -267 -309 -427 -422 -78 -56 -257 -164 -321 -195 -378 -182 -808 -256 -1200 -208 -176 22 -356 60 -428 91 -18 8 -39 14 -47 14 -8 0 -31 7 -52 16 -21 9 -51 22 -68 29 -38 15 -233 112 -260 128 -114 69 -230 152 -325 234 -130 113 -295 296 -286 318 5 13 222 15 1708 13 1515 -3 1703 -5 1706 -18z"
       id="path1"
       style="fill:#e4fde1;fill-opacity:1" />
    <path
       d="M3616 3016 c-92 -110 -98 -119 -90 -140 9 -23 39 -20 66 7 60 56 168 192 166 206 -2 10 -15 17 -33 19 -27 2 -39 -8 -109 -92z"
       id="path2"
       style="fill:#e4fde1;fill-opacity:1" />
    <path
       d="M5217 3103 c-13 -12 -7 -28 26 -64 150 -167 162 -179 184 -179 42 0 29 47 -28 110 -28 30 -67 74 -86 98 -26 30 -43 42 -63 42 -14 0 -30 -3 -33 -7z"
       id="path3"
       style="fill:#e4fde1;fill-opacity:1" />
    <path
       d="M3973 2898 c-6 -7 -20 -35 -32 -63 -12 -27 -29 -66 -38 -85 -8 -19 -22 -47 -29 -62 -18 -34 -18 -74 1 -82 31 -12 39 -2 87 104 9 19 30 66 48 103 24 54 28 72 19 83 -14 17 -43 18 -56 2z"
       id="path4"
       style="fill:#e4fde1;fill-opacity:1" />
    <path
       d="M4953 2903 c-21 -8 -16 -27 33 -125 26 -51 54 -108 63 -126 17 -36 45 -57 61 -47 18 11 10 64 -19 122 -16 32 -39 78 -50 103 -36 76 -51 89 -88 73z"
       id="path5"
       style="fill:#e4fde1;fill-opacity:1" />
    <path
       d="M4456 2808 c-10 -38 -7 -285 4 -313 7 -20 16 -26 33 -23 22 3 22 4 22 178 l0 175 -26 3 c-20 2 -28 -2 -33 -20z"
       id="path6"
       style="fill:#e4fde1;fill-opacity:1" />
    <path
       d="M4201 2743 c-11 -44 -30 -141 -38 -196 -6 -36 -4 -39 18 -35 18 2 26 11 31 38 4 19 14 69 22 110 22 100 21 120 -4 120 -14 0 -22 -10 -29 -37z"
       id="path7"
       style="fill:#e4fde1;fill-opacity:1" />
    <path
       d="M4726 2772 c-3 -6 -2 -29 3 -53 5 -24 15 -71 21 -104 18 -86 27 -105 50 -105 24 0 25 6 4 95 -36 156 -41 170 -56 173 -9 2 -19 -1 -22 -6z"
       id="path8"
       style="fill:#e4fde1;fill-opacity:1" />
    <path
       d="M4065 7498 c-172 -25 -440 -93 -577 -147 -87 -34 -119 -47 -168 -69 -79 -35 -210 -100 -245 -122 -16 -10 -48 -28 -70 -40 -81 -44 -319 -211 -350 -245 -5 -6 -32 -29 -60 -50 -142 -112 -377 -373 -504 -558 -62 -93 -79 -118 -91 -142 -6 -11 -19 -33 -29 -50 -56 -87 -137 -250 -191 -385 -46 -115 -74 -193 -94 -262 -35 -125 -45 -166 -60 -238 -56 -275 -56 -275 2 -255 37 13 37 14 55 102 36 178 50 239 59 268 6 17 14 46 18 65 9 40 27 91 77 225 20 53 86 202 112 255 22 43 98 180 119 215 48 77 133 205 145 217 7 7 25 31 42 53 16 22 34 45 40 51 5 7 32 38 60 70 110 130 287 298 420 401 48 37 254 176 275 186 8 4 31 17 50 28 19 12 80 44 135 72 94 46 116 56 198 91 17 7 49 21 70 30 21 9 44 16 52 16 8 0 29 6 47 14 89 37 294 88 467 116 80 13 121 40 121 80 0 23 -19 24 -125 8z"
       id="path9"
       style="fill:#e4fde1;fill-opacity:1" />
    <path
       d="M4780 7505 c0 -3 6 -21 14 -40 16 -37 44 -49 146 -60 82 -9 191 -34 358 -81 66 -19 115 -36 255 -91 86 -33 221 -96 292 -137 22 -12 56 -31 75 -42 48 -26 227 -145 271 -180 177 -140 307 -262 426 -399 55 -64 222 -284 250 -330 6 -11 34 -56 60 -100 76 -125 217 -423 236 -500 3 -11 16 -51 30 -90 38 -109 75 -255 104 -408 l18 -99 37 -13 c34 -11 38 -11 43 6 9 26 -35 265 -71 394 -36 126 -47 162 -60 193 -8 18 -14 40 -14 48 0 9 -6 28 -14 42 -8 15 -22 47 -31 72 -21 54 -69 158 -100 220 -55 106 -77 147 -93 172 -9 15 -35 55 -57 90 -37 60 -134 197 -145 208 -3 3 -28 34 -55 70 -63 83 -327 349 -424 426 -79 64 -284 209 -316 225 -11 5 -33 18 -50 29 -53 34 -266 140 -354 176 -47 20 -101 42 -119 50 -18 8 -39 14 -47 14 -8 0 -29 6 -47 14 -127 54 -618 150 -618 121z"
       id="path10"
       style="fill:#e4fde1;fill-opacity:1" />
    <path
       d="M1645 4820 c-16 -4 -46 -14 -65 -20 -19 -7 -51 -18 -70 -25 -19 -7 -51 -18 -70 -24 -19 -7 -48 -17 -65 -21 -75 -22 -300 -102 -312 -112 -7 -6 -13 -14 -13 -18 0 -7 60 -31 125 -50 17 -4 55 -18 85 -30 30 -12 69 -25 85 -30 17 -5 55 -18 85 -30 121 -47 226 -82 250 -84 l25 -1 3 205 c1 113 0 215 -3 228 -6 23 -12 25 -60 12z"
       id="path11"
       style="fill:#e4fde1;fill-opacity:1" />
    <path
       d="M7287 4823 c-4 -3 -7 -107 -7 -231 l0 -224 23 5 c12 3 47 15 77 27 30 12 69 25 85 30 17 5 55 18 85 30 30 12 69 26 85 30 30 9 59 19 165 60 30 12 70 25 88 30 19 5 37 11 40 15 10 10 -37 45 -60 45 -11 0 -29 5 -41 12 -12 6 -35 15 -52 19 -16 4 -46 13 -65 20 -19 6 -51 17 -70 24 -19 7 -51 18 -70 24 -19 7 -48 16 -65 21 -31 8 -73 23 -135 46 -55 20 -76 25 -83 17z"
       id="path12"
       style="fill:#e4fde1;fill-opacity:1" />
    <path
       d="M1586 4253 c-3 -3 -6 -22 -6 -42 0 -57 48 -339 75 -439 33 -121 48 -169 61 -200 8 -18 14 -39 14 -47 0 -8 6 -29 14 -47 8 -18 24 -58 36 -88 43 -107 93 -213 145 -305 19 -33 39 -69 45 -80 11 -22 12 -23 96 -150 243 -368 588 -685 999 -921 67 -39 249 -125 335 -159 25 -9 56 -22 70 -27 34 -13 124 -42 195 -63 33 -9 76 -22 95 -28 19 -6 55 -14 80 -18 25 -4 70 -12 100 -17 160 -31 235 -41 244 -32 10 10 -21 77 -40 84 -6 2 -46 9 -90 16 -155 22 -254 46 -429 100 -117 36 -145 46 -280 105 -58 25 -240 117 -270 136 -16 10 -37 22 -46 26 -25 13 -242 160 -264 180 -11 10 -52 43 -90 74 -71 58 -223 205 -305 296 -65 71 -250 315 -250 328 0 2 -13 23 -29 47 -55 84 -211 383 -211 407 0 5 -6 22 -14 38 -14 27 -33 75 -61 153 -12 34 -29 93 -59 203 -31 109 -76 355 -76 408 0 20 -6 41 -12 46 -18 14 -64 24 -72 16z"
       id="path13"
       style="fill:#e4fde1;fill-opacity:1" />
    <path
       d="M7350 4249 c-34 -14 -40 -26 -40 -84 0 -27 -5 -70 -11 -95 -6 -25 -14 -70 -19 -100 -12 -87 -38 -188 -95 -360 -48 -145 -53 -157 -117 -300 -225 -495 -602 -926 -1071 -1222 -160 -101 -337 -189 -504 -252 -115 -43 -111 -42 -283 -89 -73 -20 -187 -43 -284 -57 -44 -7 -85 -14 -91 -17 -20 -7 -51 -71 -40 -82 24 -22 469 67 630 126 22 9 56 21 75 28 67 24 125 47 155 60 57 25 240 117 270 135 17 11 44 26 60 35 43 22 240 159 337 235 111 86 356 331 454 455 75 95 215 298 235 340 6 11 25 47 44 80 64 113 115 225 180 395 8 19 22 60 31 90 9 30 23 70 30 88 8 18 14 40 14 48 0 9 6 37 14 63 33 106 80 385 74 445 -3 44 -11 49 -48 35z"
       id="path14"
       style="fill:#e4fde1;fill-opacity:1" />
    <path
       d="M4292 1702 c-4 -13 2 -37 33 -137 7 -22 27 -87 45 -145 17 -58 38 -120 46 -138 8 -18 14 -42 14 -53 0 -11 6 -32 14 -47 7 -15 16 -44 20 -64 11 -59 56 -49 56 12 0 11 6 34 14 52 8 18 22 60 31 93 10 33 23 76 30 95 7 19 21 62 30 95 10 33 24 75 31 93 8 18 14 43 14 55 1 12 7 33 14 46 7 13 11 32 9 41 -4 15 -26 16 -200 16 -153 -1 -197 -4 -201 -14z"
       id="path15"
       style="fill:#e4fde1;fill-opacity:1" />
  </g>
</svg>
