<?xml version="1.0" encoding="UTF-8" standalone="no"?>
<svg
   version="1.0"
   width="300.000000pt"
   height="300.000000pt"
   viewBox="0 0 300.000000 300.000000"
   preserveAspectRatio="xMidYMid meet"
   id="svg13"
   sodipodi:docname="HQIl0501.svg"
   inkscape:version="1.3.2 (091e20ef0f, 2023-11-25)"
   xmlns:inkscape="http://www.inkscape.org/namespaces/inkscape"
   xmlns:sodipodi="http://sodipodi.sourceforge.net/DTD/sodipodi-0.dtd"
   xmlns="http://www.w3.org/2000/svg"
   xmlns:svg="http://www.w3.org/2000/svg">
  <defs
     id="defs13" />
  <sodipodi:namedview
     id="namedview13"
     pagecolor="#ffffff"
     bordercolor="#000000"
     borderopacity="0.25"
     inkscape:showpageshadow="2"
     inkscape:pageopacity="0.0"
     inkscape:pagecheckerboard="0"
     inkscape:deskcolor="#d1d1d1"
     inkscape:document-units="pt"
     inkscape:zoom="2.985"
     inkscape:cx="200"
     inkscape:cy="200"
     inkscape:window-width="2486"
     inkscape:window-height="1376"
     inkscape:window-x="0"
     inkscape:window-y="0"
     inkscape:window-maximized="1"
     inkscape:current-layer="svg13" />
  <metadata
     id="metadata1">
Created by potrace 1.10, written by Peter Selinger 2001-2011
</metadata>
  <path
     style="fill:#028090;fill-opacity:1;stroke-width:4.11525;stroke-linejoin:bevel;stroke-dashoffset:13;stroke-opacity:0.798344"
     d="m 198.77414,92.558498 16.7164,-3.548018 10.73237,4.885763 c 0,0 7.58186,14.844727 6.89875,21.489277 -0.6831,6.64455 9.5448,33.86856 9.5448,33.86856 l 16.19032,14.77996 -6.50714,54.39109 -79.66297,28.86896 -85.970868,0.47699 -49.71537,-19.86593 8.076515,-20.8209 49.475898,-59.9256 32.370835,-23.43554 6.89973,-12.3891 55.47268,-39.722044 z"
     id="path14" />
  <g
     transform="translate(0.000000,300.000000) scale(0.050000,-0.050000)"
     fill="#000000"
     stroke="none"
     id="g13"
     style="fill:#114b5f;fill-opacity:1">
    <path
       d="M3710 4583 c-33 -20 -195 -133 -359 -251 -165 -118 -327 -229 -360 -246 -151 -78 -671 -579 -755 -729 -36 -64 -77 -93 -267 -184 -234 -114 -276 -152 -311 -280 -21 -78 -152 -225 -300 -337 -51 -38 -84 -88 -115 -173 -36 -98 -82 -161 -243 -332 -181 -192 -336 -413 -369 -525 -28 -93 107 -237 343 -366 46 -26 80 -54 75 -62 -19 -31 1011 -124 1778 -161 614 -30 1525 14 2003 96 l80 14 -88 16 c-48 9 -93 21 -99 27 -6 6 119 141 278 300 337 337 315 283 331 800 l12 380 -92 186 c-83 169 -100 190 -179 225 -73 32 -89 50 -99 106 -6 38 -44 112 -85 166 -89 115 -177 298 -158 328 7 12 6 115 -2 230 l-14 210 -162 113 c-206 143 -286 174 -347 135 -68 -44 -84 -36 -126 61 -98 228 -246 329 -370 253z m-19 -477 c-142 -240 -153 -252 -288 -326 -127 -69 -195 -176 -246 -389 -47 -190 -186 -369 -347 -442 -33 -15 -48 -28 -34 -28 145 -5 464 341 464 503 0 187 42 228 519 511 493 293 598 312 746 135 52 -62 53 -69 27 -133 -15 -37 -34 -128 -41 -202 -14 -131 -17 -138 -165 -310 -608 -707 -684 -827 -906 -1436 -171 -466 -192 -495 -547 -727 -240 -157 -292 -178 -365 -145 -69 32 -196 29 -281 -7 -40 -16 -76 -30 -82 -30 -5 0 75 64 178 143 201 154 523 426 585 495 56 61 -18 59 -110 -4 -37 -26 -123 -84 -189 -129 -67 -46 -220 -129 -340 -185 -121 -56 -276 -139 -345 -184 -113 -74 -131 -79 -178 -58 -29 13 -143 46 -252 73 -237 57 -213 37 -194 158 12 77 29 111 82 155 306 257 359 311 410 416 29 61 71 127 95 147 l43 38 -50 -29 c-27 -16 -72 -75 -100 -132 -63 -129 -172 -241 -346 -358 -139 -92 -174 -142 -174 -246 0 -138 -127 -138 -270 0 -44 42 -102 80 -130 83 -146 20 36 328 322 548 104 80 121 104 150 205 71 252 417 661 673 795 142 75 675 578 675 637 0 90 191 248 820 677 l290 198 16 -98 c16 -96 13 -102 -115 -319z m900 -709 c15 -92 33 -198 40 -237 13 -75 -219 -518 -337 -645 -117 -125 -297 -357 -291 -375 4 -10 56 18 115 64 l108 82 -15 -78 c-14 -78 -109 -267 -167 -333 -56 -64 -5 -63 81 1 47 35 144 103 215 152 138 93 255 204 235 223 -24 24 71 301 125 362 30 34 89 113 129 175 41 62 83 112 93 112 25 0 -73 -254 -133 -345 -99 -150 -55 -153 91 -5 135 136 127 138 167 -28 44 -184 44 -181 -55 -422 l-87 -210 -82 -14 c-147 -25 -224 -74 -264 -169 -31 -71 -47 -87 -89 -87 -59 0 -600 -239 -830 -366 l-150 -83 -240 -2 c-170 -2 -266 -12 -328 -36 -120 -46 -121 -43 -21 42 348 292 374 331 583 875 152 397 233 556 372 739 154 200 686 796 699 782 4 -4 20 -82 36 -174z"
       id="path1"
       style="fill:#114b5f;fill-opacity:1" />
    <path
       d="M3233 4071 c-64 -36 -133 -93 -153 -125 -19 -33 -66 -84 -103 -114 l-67 -55 85 42 c48 23 98 67 115 101 17 33 80 93 141 133 60 40 109 76 109 80 0 10 1 11 -127 -62z"
       id="path2"
       style="fill:#114b5f;fill-opacity:1" />
    <path
       d="M4213 3749 c-51 -39 -93 -75 -93 -81 0 -18 121 61 165 107 61 65 34 55 -72 -26z"
       id="path3"
       style="fill:#114b5f;fill-opacity:1" />
    <path
       d="M2377 3251 c-80 -59 -138 -140 -114 -160 4 -3 55 47 114 112 59 64 104 117 100 117 -4 -1 -49 -32 -100 -69z"
       id="path4"
       style="fill:#114b5f;fill-opacity:1" />
    <path
       d="M2509 2843 c-63 -39 -169 -153 -169 -183 0 -9 -5 -33 -11 -53 -6 -21 7 -3 30 38 23 41 87 111 143 155 107 84 110 106 7 43z"
       id="path5"
       style="fill:#114b5f;fill-opacity:1" />
    <path
       d="M1470 2253 c-49 -47 -90 -103 -90 -125 0 -29 19 -17 80 52 149 168 156 213 10 73z"
       id="path6"
       style="fill:#114b5f;fill-opacity:1" />
    <path
       d="M1104 1702 c-68 -125 -74 -142 -47 -142 18 0 130 240 118 252 -4 3 -36 -46 -71 -110z"
       id="path7"
       style="fill:#114b5f;fill-opacity:1" />
    <path
       d="M1682 1567 c-34 -52 -62 -108 -62 -125 1 -40 19 -15 91 123 63 121 50 122 -29 2z"
       id="path8"
       style="fill:#114b5f;fill-opacity:1" />
    <path
       d="M2790 1552 c-89 -58 -168 -141 -220 -232 -10 -16 31 20 91 81 60 61 141 135 179 164 96 73 71 67 -50 -13z"
       id="path9"
       style="fill:#114b5f;fill-opacity:1" />
    <path
       d="M4223 2967 c-64 -130 -76 -191 -19 -103 35 56 100 218 91 228 -4 4 -36 -53 -72 -125z"
       id="path10"
       style="fill:#114b5f;fill-opacity:1" />
    <path
       d="M1620 3280 c-43 -43 -52 -80 -21 -80 11 0 34 27 51 60 36 70 26 76 -30 20z"
       id="path11"
       style="fill:#114b5f;fill-opacity:1" />
    <path
       d="M970 2960 c-16 -26 70 -26 110 0 23 15 15 19 -34 20 -35 0 -69 -9 -76 -20z"
       id="path12"
       style="fill:#114b5f;fill-opacity:1" />
    <path
       d="M540 2710 c0 -39 80 -39 131 -1 36 28 33 30 -46 30 -63 1 -85 -7 -85 -29z"
       id="path13"
       style="fill:#114b5f;fill-opacity:1" />
  </g>
</svg>
