<?xml version="1.0" encoding="UTF-8" standalone="no"?>
<svg
   version="1.0"
   width="300.000000pt"
   height="300.000000pt"
   viewBox="0 0 300.000000 300.000000"
   preserveAspectRatio="xMidYMid meet"
   id="svg22"
   sodipodi:docname="rockOne.svg"
   inkscape:version="1.3.2 (091e20ef0f, 2023-11-25)"
   xmlns:inkscape="http://www.inkscape.org/namespaces/inkscape"
   xmlns:sodipodi="http://sodipodi.sourceforge.net/DTD/sodipodi-0.dtd"
   xmlns="http://www.w3.org/2000/svg"
   xmlns:svg="http://www.w3.org/2000/svg">
  <defs
     id="defs22">
    <clipPath
       clipPathUnits="userSpaceOnUse"
       id="clipPath852">
      <path
         style="display:inline;fill:none;fill-opacity:1;stroke-width:24.8833;stroke-linejoin:bevel;stroke-dashoffset:13;stroke-opacity:0.798344"
         d="m 2216.2047,2311.4649 314.6294,310.8484 154.4874,499.9224 -30.0229,293.1229 -348.7712,48.8312 -322.1367,-31.6113 -236.7488,51.6259 -302.2586,-109.6618 38.7074,-272.1998 375.972,-438.1203 194.9299,-244.9801 129.8988,-100.2996 z"
         id="path852"
         inkscape:label="clipPath" />
    </clipPath>
    <clipPath
       clipPathUnits="userSpaceOnUse"
       id="clipPath853">
      <path
         style="display:inline;fill:none;fill-opacity:1;stroke-width:4.11525;stroke-linejoin:bevel;stroke-dashoffset:13;stroke-opacity:0.798344"
         d="m 171.64349,48.551131 52.034,51.408689 25.54941,82.67809 -4.96526,48.47721 -57.68041,8.07578 -53.27556,-5.22793 -39.153963,8.53799 -49.98807,-18.13607 6.401493,-45.01691 62.17894,-72.45714 32.23787,-40.515258 21.4829,-16.587736 z"
         id="path853"
         inkscape:label="clipPath" />
    </clipPath>
  </defs>
  <sodipodi:namedview
     id="namedview22"
     pagecolor="#ffffff"
     bordercolor="#000000"
     borderopacity="0.25"
     inkscape:showpageshadow="2"
     inkscape:pageopacity="0.0"
     inkscape:pagecheckerboard="0"
     inkscape:deskcolor="#d1d1d1"
     inkscape:document-units="pt"
     inkscape:zoom="0.74625"
     inkscape:cx="316.24791"
     inkscape:cy="-227.80569"
     inkscape:window-width="2486"
     inkscape:window-height="1376"
     inkscape:window-x="0"
     inkscape:window-y="0"
     inkscape:window-maximized="1"
     inkscape:current-layer="svg22" />
  <metadata
     id="metadata1">
Created by potrace 1.10, written by Peter Selinger 2001-2011
</metadata>
  <rect
     id="RECT"
     width="826.90924"
     height="826.90924"
     fill="#026b79"
     x="-194.87665"
     y="-333.72302"
     style="display:inline;stroke-width:0.165382;fill:#028090;fill-opacity:1"
     inkscape:label="RECT"
     clip-path="url(#clipPath853)" />
  <g
     id="group"
     fill="#e4fde1"
     filter=""
     style="display:none"
     transform="matrix(0.16538184,0,0,0.16538184,-194.87652,-333.72318)"
     clip-path="url(#clipPath852)">
    <path
       d="M 41,47 C 29,62 24,71 13,88 Q -13,94 -16,65 -30,44 -6,35 24,14 41,47 Z"
       id="use1" />
    <path
       d="m 76,645 c -8,-15 -11,-26 -11,-44 4,-3 8,-4 11,-4 l 18,41 q -3,16 -18,7 z"
       id="use2" />
    <path
       d="m 48,964 q -19,-1 -8,-17 c 18,-15 30,-21 52,-27 q 24,11 9,31 c -20,6 -31,9 -53,13 z"
       id="use3" />
    <path
       d="m 55,1035 v -36 l 29,12 -13,25 z"
       id="use4" />
    <path
       d="m 255,1420 18,-7 7,10 -16,15 z"
       id="use5" />
    <path
       d="m 223,2027 -19,3 -5,-24 15,-6 z"
       id="use6" />
    <path
       d="m 309,2335 c -12,15 -17,24 -28,41 q -26,6 -29,-23 -14,-21 10,-30 30,-21 47,12 z"
       id="use7" />
    <path
       d="m 297,2450 17,-9 14,11 -12,22 z"
       id="use8" />
    <path
       d="m 85,2780 q -19,-1 -8,-17 c 18,-15 30,-21 52,-27 q 24,11 9,31 c -20,6 -31,9 -53,13 z"
       id="use9" />
    <path
       d="m 13,3142 -19,3 -5,-24 15,-6 z"
       id="use10" />
    <path
       d="m 132,3533 -3,-11 13,-8 -2,22 z"
       id="use11" />
    <path
       d="m 291,4037 17,-9 14,11 -12,22 z"
       id="use12" />
    <path
       d="m 152,4108 q 8,-19 20,-5 c 23,10 29,36 10,56 -10,6 -22,5 -33,-3 q -26,-26 3,-48 z"
       id="use13" />
    <path
       d="m 11,4673 v -36 l 29,12 -13,25 z"
       id="use14" />
    <path
       d="m 176,4891 18,-7 7,10 -16,15 z"
       id="use15" />
    <path
       d="m 87,5272 v -36 l 29,12 -13,25 z"
       id="use16" />
    <path
       d="m -6,5477 17,-9 14,11 -12,22 z"
       id="use17" />
    <path
       d="m 494,103 c -8,-15 -11,-26 -11,-44 4,-3 8,-4 11,-4 l 18,41 q -3,16 -18,7 z"
       id="use18" />
    <path
       d="m 414,573 18,-7 7,10 -16,15 z"
       id="use19" />
    <path
       d="m 604,808 q 8,-19 20,-5 c 23,10 29,36 10,56 -10,6 -22,5 -33,-3 q -26,-26 3,-48 z"
       id="use20" />
    <path
       d="m 513,1144 18,-7 7,10 -16,15 z"
       id="use21" />
    <path
       d="m 466,1500 c -8,-15 -11,-26 -11,-44 4,-3 8,-4 11,-4 l 18,41 q -3,16 -18,7 z"
       id="use22" />
    <path
       d="m 349,1774 q -19,-1 -8,-17 c 18,-15 30,-21 52,-27 q 24,11 9,31 c -20,6 -31,9 -53,13 z"
       id="use23" />
    <path
       d="m 630,2194 q -19,-1 -8,-17 c 18,-15 30,-21 52,-27 q 24,11 9,31 c -20,6 -31,9 -53,13 z"
       id="use24" />
    <path
       d="m 623,2464 q 8,-19 20,-5 c 23,10 29,36 10,56 -10,6 -22,5 -33,-3 q -26,-26 3,-48 z"
       id="use25" />
    <path
       d="m 573,2987 -19,3 -5,-24 15,-6 z"
       id="use26" />
    <path
       d="m 582,3064 -3,-11 13,-8 -2,22 z"
       id="use27" />
    <path
       d="m 532,3687 -3,-11 13,-8 -2,22 z"
       id="use28" />
    <path
       d="m 508,3916 v -36 l 29,12 -13,25 z"
       id="use29" />
    <path
       d="m 331,4058 47,8 c 2,8 0,16 -4,21 l -47,-10 c -1,-7 0,-13 4,-19 z"
       id="use30" />
    <path
       d="m 465,4548 17,-9 14,11 -12,22 z"
       id="use31" />
    <path
       d="m 397,5005 q -19,-1 -8,-17 c 18,-15 30,-21 52,-27 q 24,11 9,31 c -20,6 -31,9 -53,13 z"
       id="use32" />
    <path
       d="m 664,5374 47,8 c 2,8 0,16 -4,21 l -47,-10 c -1,-7 0,-13 4,-19 z"
       id="use33" />
    <path
       d="m 348,5716 17,-9 14,11 -12,22 z"
       id="use34" />
    <path
       d="m 800,4 17,-9 14,11 -12,22 z"
       id="use35" />
    <path
       d="m 701,403 17,-9 14,11 -12,22 z"
       id="use36" />
    <path
       d="m 1009,843 c -12,15 -17,24 -28,41 q -26,6 -29,-23 -14,-21 10,-30 30,-21 47,12 z"
       id="use37" />
    <path
       d="m 800,1123 18,-7 7,10 -16,15 z"
       id="use38" />
    <path
       d="m 900,1387 -3,-11 13,-8 -2,22 z"
       id="use39" />
    <path
       d="m 981,1954 -3,-11 13,-8 -2,22 z"
       id="use40" />
    <path
       d="m 762,2223 v -36 l 29,12 -13,25 z"
       id="use41" />
    <path
       d="m 932,2486 c -12,15 -17,24 -28,41 q -26,6 -29,-23 -14,-21 10,-30 30,-21 47,12 z"
       id="use42" />
    <path
       d="m 806,3042 q -19,-1 -8,-17 c 18,-15 30,-21 52,-27 q 24,11 9,31 c -20,6 -31,9 -53,13 z"
       id="use43" />
    <path
       d="m 982,3289 c -8,-15 -11,-26 -11,-44 4,-3 8,-4 11,-4 l 18,41 q -3,16 -18,7 z"
       id="use44" />
    <path
       d="m 1010,3467 -3,-11 13,-8 -2,22 z"
       id="use45" />
    <path
       d="m 783,3958 47,8 c 2,8 0,16 -4,21 l -47,-10 c -1,-7 0,-13 4,-19 z"
       id="use46" />
    <path
       d="m 932,4093 q -19,-1 -8,-17 c 18,-15 30,-21 52,-27 q 24,11 9,31 c -20,6 -31,9 -53,13 z"
       id="use47" />
    <path
       d="m 739,4677 -3,-11 13,-8 -2,22 z"
       id="use48" />
    <path
       d="m 877,4967 v -36 l 29,12 -13,25 z"
       id="use49" />
    <path
       d="m 987,5227 -19,3 -5,-24 15,-6 z"
       id="use50" />
    <path
       d="m 927,5561 c -12,15 -17,24 -28,41 q -26,6 -29,-23 -14,-21 10,-30 30,-21 47,12 z"
       id="use51" />
    <path
       d="m 1058,196 q 8,-19 20,-5 c 23,10 29,36 10,56 -10,6 -22,5 -33,-3 q -26,-26 3,-48 z"
       id="use52" />
    <path
       d="m 1291,664 17,-9 14,11 -12,22 z"
       id="use53" />
    <path
       d="m 1206,870 c -8,-15 -11,-26 -11,-44 4,-3 8,-4 11,-4 l 18,41 q -3,16 -18,7 z"
       id="use54" />
    <path
       d="m 1015,1334 q -19,-1 -8,-17 c 18,-15 30,-21 52,-27 q 24,11 9,31 c -20,6 -31,9 -53,13 z"
       id="use55" />
    <path
       d="m 1159,1413 v -36 l 29,12 -13,25 z"
       id="use56" />
    <path
       d="m 1233,1696 c -12,15 -17,24 -28,41 q -26,6 -29,-23 -14,-21 10,-30 30,-21 47,12 z"
       id="use57" />
    <path
       d="m 1088,2169 q 8,-19 20,-5 c 23,10 29,36 10,56 -10,6 -22,5 -33,-3 q -26,-26 3,-48 z"
       id="use58" />
    <path
       d="m 1024,2638 18,-7 7,10 -16,15 z"
       id="use59" />
    <path
       d="m 1036,2848 18,-7 7,10 -16,15 z"
       id="use60" />
    <path
       d="m 1298,3189 17,-9 14,11 -12,22 z"
       id="use61" />
    <path
       d="m 1287,3658 q 8,-19 20,-5 c 23,10 29,36 10,56 -10,6 -22,5 -33,-3 q -26,-26 3,-48 z"
       id="use62" />
    <path
       d="m 1342,3997 47,8 c 2,8 0,16 -4,21 l -47,-10 c -1,-7 0,-13 4,-19 z"
       id="use63" />
    <path
       d="m 1248,4256 -19,3 -5,-24 15,-6 z"
       id="use64" />
    <path
       d="m 1137,4618 18,-7 7,10 -16,15 z"
       id="use65" />
    <path
       d="m 1215,5063 -19,3 -5,-24 15,-6 z"
       id="use66" />
    <path
       d="m 1013,5321 q -19,-1 -8,-17 c 18,-15 30,-21 52,-27 q 24,11 9,31 c -20,6 -31,9 -53,13 z"
       id="use67" />
    <path
       d="m 1097,5715 c -8,-15 -11,-26 -11,-44 4,-3 8,-4 11,-4 l 18,41 q -3,16 -18,7 z"
       id="use68" />
    <path
       d="m 1697,158 c -12,15 -17,24 -28,41 q -26,6 -29,-23 -14,-21 10,-30 30,-21 47,12 z"
       id="use69" />
    <path
       d="m 1503,446 q 8,-19 20,-5 c 23,10 29,36 10,56 -10,6 -22,5 -33,-3 q -26,-26 3,-48 z"
       id="use70" />
    <path
       d="m 1483,706 17,-9 14,11 -12,22 z"
       id="use71" />
    <path
       d="m 1438,1127 c -12,15 -17,24 -28,41 q -26,6 -29,-23 -14,-21 10,-30 30,-21 47,12 z"
       id="use72" />
    <path
       d="m 1708,1557 c -8,-15 -11,-26 -11,-44 4,-3 8,-4 11,-4 l 18,41 q -3,16 -18,7 z"
       id="use73" />
    <path
       d="m 1639,1811 -19,3 -5,-24 15,-6 z"
       id="use74" />
    <path
       d="m 1669,2155 -3,-11 13,-8 -2,22 z"
       id="use75" />
    <path
       d="m 1416,2680 q -19,-1 -8,-17 c 18,-15 30,-21 52,-27 q 24,11 9,31 c -20,6 -31,9 -53,13 z"
       id="use76" />
    <path
       d="m 1447,2771 -3,-11 13,-8 -2,22 z"
       id="use77" />
    <path
       d="m 1708,3131 -3,-11 13,-8 -2,22 z"
       id="use78" />
    <path
       d="m 1558,3593 18,-7 7,10 -16,15 z"
       id="use79" />
    <path
       d="m 1701,3957 18,-7 7,10 -16,15 z"
       id="use80" />
    <path
       d="m 1579,4147 47,8 c 2,8 0,16 -4,21 l -47,-10 c -1,-7 0,-13 4,-19 z"
       id="use81" />
    <path
       d="m 1496,4667 v -36 l 29,12 -13,25 z"
       id="use82" />
    <path
       d="m 1693,5014 v -36 l 29,12 -13,25 z"
       id="use83" />
    <path
       d="m 1508,5333 q -19,-1 -8,-17 c 18,-15 30,-21 52,-27 q 24,11 9,31 c -20,6 -31,9 -53,13 z"
       id="use84" />
    <path
       d="m 1418,5531 17,-9 14,11 -12,22 z"
       id="use85" />
    <path
       d="m 1794,107 -19,3 -5,-24 15,-6 z"
       id="use86" />
    <path
       d="m 2035,657 47,8 c 2,8 0,16 -4,21 l -47,-10 c -1,-7 0,-13 4,-19 z"
       id="use87" />
    <path
       d="m 1778,724 q -19,-1 -8,-17 c 18,-15 30,-21 52,-27 q 24,11 9,31 c -20,6 -31,9 -53,13 z"
       id="use88" />
    <path
       d="m 1922,1076 18,-7 7,10 -16,15 z"
       id="use89" />
    <path
       d="m 1827,1406 -3,-11 13,-8 -2,22 z"
       id="use90" />
    <path
       d="m 1890,2036 -3,-11 13,-8 -2,22 z"
       id="use91" />
    <path
       d="m 1930,2170 -19,3 -5,-24 15,-6 z"
       id="use92" />
    <path
       d="m 1824,2553 v -36 l 29,12 -13,25 z"
       id="use93" />
    <path
       d="m 1922,2739 c -12,15 -17,24 -28,41 q -26,6 -29,-23 -14,-21 10,-30 30,-21 47,12 z"
       id="use94" />
    <path
       d="m 1900,3319 v -36 l 29,12 -13,25 z"
       id="use95" />
    <path
       d="m 1904,3528 18,-7 7,10 -16,15 z"
       id="use96" />
    <path
       d="m 1942,3820 18,-7 7,10 -16,15 z"
       id="use97" />
    <path
       d="m 1934,4110 17,-9 14,11 -12,22 z"
       id="use98" />
    <path
       d="m 1914,4624 18,-7 7,10 -16,15 z"
       id="use99" />
    <path
       d="m 1796,4776 c -12,15 -17,24 -28,41 q -26,6 -29,-23 -14,-21 10,-30 30,-21 47,12 z"
       id="use100" />
    <path
       d="m 2025,5132 18,-7 7,10 -16,15 z"
       id="use101" />
    <path
       d="m 1825,5623 47,8 c 2,8 0,16 -4,21 l -47,-10 c -1,-7 0,-13 4,-19 z"
       id="use102" />
    <path
       d="m 2279,150 c -8,-15 -11,-26 -11,-44 4,-3 8,-4 11,-4 l 18,41 q -3,16 -18,7 z"
       id="use103" />
    <path
       d="m 2191,467 -3,-11 13,-8 -2,22 z"
       id="use104" />
    <path
       d="m 2292,705 c -12,15 -17,24 -28,41 q -26,6 -29,-23 -14,-21 10,-30 30,-21 47,12 z"
       id="use105" />
    <path
       d="m 2194,1125 q 8,-19 20,-5 c 23,10 29,36 10,56 -10,6 -22,5 -33,-3 q -26,-26 3,-48 z"
       id="use106" />
    <path
       d="m 2061,1583 18,-7 7,10 -16,15 z"
       id="use107" />
    <path
       d="m 2307,1953 47,8 c 2,8 0,16 -4,21 l -47,-10 c -1,-7 0,-13 4,-19 z"
       id="use108" />
    <path
       d="m 2226,2124 v -36 l 29,12 -13,25 z"
       id="use109" />
    <path
       d="m 2212,2611 c -12,15 -17,24 -28,41 q -26,6 -29,-23 -14,-21 10,-30 30,-21 47,12 z"
       id="use110" />
    <path
       d="m 2294,2871 17,-9 14,11 -12,22 z"
       id="use111" />
    <path
       d="m 2127,3090 c -12,15 -17,24 -28,41 q -26,6 -29,-23 -14,-21 10,-30 30,-21 47,12 z"
       id="use112" />
    <path
       d="m 2173,3641 17,-9 14,11 -12,22 z"
       id="use113" />
    <path
       d="m 2228,3833 18,-7 7,10 -16,15 z"
       id="use114" />
    <path
       d="m 2181,4162 18,-7 7,10 -16,15 z"
       id="use115" />
    <path
       d="m 2223,4564 c -8,-15 -11,-26 -11,-44 4,-3 8,-4 11,-4 l 18,41 q -3,16 -18,7 z"
       id="use116" />
    <path
       d="m 2255,4871 q 8,-19 20,-5 c 23,10 29,36 10,56 -10,6 -22,5 -33,-3 q -26,-26 3,-48 z"
       id="use117" />
    <path
       d="m 2131,5163 v -36 l 29,12 -13,25 z"
       id="use118" />
    <path
       d="m 2315,5593 c -8,-15 -11,-26 -11,-44 4,-3 8,-4 11,-4 l 18,41 q -3,16 -18,7 z"
       id="use119" />
    <path
       d="m 2601,13 18,-7 7,10 -16,15 z"
       id="use120" />
    <path
       d="m 2547,517 18,-7 7,10 -16,15 z"
       id="use121" />
    <path
       d="m 2592,904 q -19,-1 -8,-17 c 18,-15 30,-21 52,-27 q 24,11 9,31 c -20,6 -31,9 -53,13 z"
       id="use122" />
    <path
       d="m 2698,1090 -3,-11 13,-8 -2,22 z"
       id="use123" />
    <path
       d="m 2555,1401 v -36 l 29,12 -13,25 z"
       id="use124" />
    <path
       d="m 2604,1785 47,8 c 2,8 0,16 -4,21 l -47,-10 c -1,-7 0,-13 4,-19 z"
       id="use125" />
    <path
       d="m 2562,2354 c -12,15 -17,24 -28,41 q -26,6 -29,-23 -14,-21 10,-30 30,-21 47,12 z"
       id="use126" />
    <path
       d="m 2425,2468 -19,3 -5,-24 15,-6 z"
       id="use127" />
    <path
       d="m 2636,2699 17,-9 14,11 -12,22 z"
       id="use128" />
    <path
       d="m 2733,3138 -3,-11 13,-8 -2,22 z"
       id="use129" />
    <path
       d="m 2559,3658 q 8,-19 20,-5 c 23,10 29,36 10,56 -10,6 -22,5 -33,-3 q -26,-26 3,-48 z"
       id="use130" />
    <path
       d="m 2696,4033 18,-7 7,10 -16,15 z"
       id="use131" />
    <path
       d="m 2526,4354 v -36 l 29,12 -13,25 z"
       id="use132" />
    <path
       d="m 2487,4523 c -8,-15 -11,-26 -11,-44 4,-3 8,-4 11,-4 l 18,41 q -3,16 -18,7 z"
       id="use133" />
    <path
       d="m 2717,4915 -19,3 -5,-24 15,-6 z"
       id="use134" />
    <path
       d="m 2622,5339 -19,3 -5,-24 15,-6 z"
       id="use135" />
    <path
       d="m 2443,5407 q 8,-19 20,-5 c 23,10 29,36 10,56 -10,6 -22,5 -33,-3 q -26,-26 3,-48 z"
       id="use136" />
    <path
       d="m 2979,98 c -8,-15 -11,-26 -11,-44 4,-3 8,-4 11,-4 l 18,41 q -3,16 -18,7 z"
       id="use137" />
    <path
       d="m 2804,416 c -12,15 -17,24 -28,41 q -26,6 -29,-23 -14,-21 10,-30 30,-21 47,12 z"
       id="use138" />
    <path
       d="m 2950,684 47,8 c 2,8 0,16 -4,21 l -47,-10 c -1,-7 0,-13 4,-19 z"
       id="use139" />
    <path
       d="m 2892,1365 c -8,-15 -11,-26 -11,-44 4,-3 8,-4 11,-4 l 18,41 q -3,16 -18,7 z"
       id="use140" />
    <path
       d="m 2901,1377 18,-7 7,10 -16,15 z"
       id="use141" />
    <path
       d="m 2893,1872 17,-9 14,11 -12,22 z"
       id="use142" />
    <path
       d="m 2853,2358 18,-7 7,10 -16,15 z"
       id="use143" />
    <path
       d="m 2906,2423 -3,-11 13,-8 -2,22 z"
       id="use144" />
    <path
       d="m 2835,2730 -19,3 -5,-24 15,-6 z"
       id="use145" />
    <path
       d="m 3044,3176 c -12,15 -17,24 -28,41 q -26,6 -29,-23 -14,-21 10,-30 30,-21 47,12 z"
       id="use146" />
    <path
       d="m 2994,3506 q -19,-1 -8,-17 c 18,-15 30,-21 52,-27 q 24,11 9,31 c -20,6 -31,9 -53,13 z"
       id="use147" />
    <path
       d="m 2989,3799 c -12,15 -17,24 -28,41 q -26,6 -29,-23 -14,-21 10,-30 30,-21 47,12 z"
       id="use148" />
    <path
       d="m 3018,4266 q 8,-19 20,-5 c 23,10 29,36 10,56 -10,6 -22,5 -33,-3 q -26,-26 3,-48 z"
       id="use149" />
    <path
       d="m 2987,4490 c -8,-15 -11,-26 -11,-44 4,-3 8,-4 11,-4 l 18,41 q -3,16 -18,7 z"
       id="use150" />
    <path
       d="m 3070,4995 c -12,15 -17,24 -28,41 q -26,6 -29,-23 -14,-21 10,-30 30,-21 47,12 z"
       id="use151" />
    <path
       d="m 2996,5419 q -19,-1 -8,-17 c 18,-15 30,-21 52,-27 q 24,11 9,31 c -20,6 -31,9 -53,13 z"
       id="use152" />
    <path
       d="m 3078,5618 18,-7 7,10 -16,15 z"
       id="use153" />
    <path
       d="m 3281,140 v -36 l 29,12 -13,25 z"
       id="use154" />
    <path
       d="m 3234,459 -3,-11 13,-8 -2,22 z"
       id="use155" />
    <path
       d="m 3339,1014 -19,3 -5,-24 15,-6 z"
       id="use156" />
    <path
       d="m 3142,1274 c -8,-15 -11,-26 -11,-44 4,-3 8,-4 11,-4 l 18,41 q -3,16 -18,7 z"
       id="use157" />
    <path
       d="m 3146,1593 -19,3 -5,-24 15,-6 z"
       id="use158" />
    <path
       d="m 3413,1981 47,8 c 2,8 0,16 -4,21 l -47,-10 c -1,-7 0,-13 4,-19 z"
       id="use159" />
    <path
       d="m 3130,2194 18,-7 7,10 -16,15 z"
       id="use160" />
    <path
       d="m 3133,2361 c -12,15 -17,24 -28,41 q -26,6 -29,-23 -14,-21 10,-30 30,-21 47,12 z"
       id="use161" />
    <path
       d="m 3151,2983 c -12,15 -17,24 -28,41 q -26,6 -29,-23 -14,-21 10,-30 30,-21 47,12 z"
       id="use162" />
    <path
       d="m 3126,3235 18,-7 7,10 -16,15 z"
       id="use163" />
    <path
       d="m 3380,3544 c -12,15 -17,24 -28,41 q -26,6 -29,-23 -14,-21 10,-30 30,-21 47,12 z"
       id="use164" />
    <path
       d="m 3369,3805 c -8,-15 -11,-26 -11,-44 4,-3 8,-4 11,-4 l 18,41 q -3,16 -18,7 z"
       id="use165" />
    <path
       d="m 3405,4093 q 8,-19 20,-5 c 23,10 29,36 10,56 -10,6 -22,5 -33,-3 q -26,-26 3,-48 z"
       id="use166" />
    <path
       d="m 3275,4408 18,-7 7,10 -16,15 z"
       id="use167" />
    <path
       d="m 3391,4817 q -19,-1 -8,-17 c 18,-15 30,-21 52,-27 q 24,11 9,31 c -20,6 -31,9 -53,13 z"
       id="use168" />
    <path
       d="m 3286,5178 q -19,-1 -8,-17 c 18,-15 30,-21 52,-27 q 24,11 9,31 c -20,6 -31,9 -53,13 z"
       id="use169" />
    <path
       d="m 3385,5721 c -8,-15 -11,-26 -11,-44 4,-3 8,-4 11,-4 l 18,41 q -3,16 -18,7 z"
       id="use170" />
    <path
       d="m 3580,206 c -12,15 -17,24 -28,41 q -26,6 -29,-23 -14,-21 10,-30 30,-21 47,12 z"
       id="use171" />
    <path
       d="m 3724,341 17,-9 14,11 -12,22 z"
       id="use172" />
    <path
       d="m 3807,863 c -12,15 -17,24 -28,41 q -26,6 -29,-23 -14,-21 10,-30 30,-21 47,12 z"
       id="use173" />
    <path
       d="m 3764,1117 18,-7 7,10 -16,15 z"
       id="use174" />
    <path
       d="m 3550,1471 -3,-11 13,-8 -2,22 z"
       id="use175" />
    <path
       d="m 3752,2016 47,8 c 2,8 0,16 -4,21 l -47,-10 c -1,-7 0,-13 4,-19 z"
       id="use176" />
    <path
       d="m 3587,2100 -3,-11 13,-8 -2,22 z"
       id="use177" />
    <path
       d="m 3441,2505 q -19,-1 -8,-17 c 18,-15 30,-21 52,-27 q 24,11 9,31 c -20,6 -31,9 -53,13 z"
       id="use178" />
    <path
       d="m 3459,2862 -3,-11 13,-8 -2,22 z"
       id="use179" />
    <path
       d="m 3596,3095 -3,-11 13,-8 -2,22 z"
       id="use180" />
    <path
       d="m 3575,3496 -3,-11 13,-8 -2,22 z"
       id="use181" />
    <path
       d="m 3417,4002 47,8 c 2,8 0,16 -4,21 l -47,-10 c -1,-7 0,-13 4,-19 z"
       id="use182" />
    <path
       d="m 3551,4066 47,8 c 2,8 0,16 -4,21 l -47,-10 c -1,-7 0,-13 4,-19 z"
       id="use183" />
    <path
       d="m 3658,4668 v -36 l 29,12 -13,25 z"
       id="use184" />
    <path
       d="m 3485,5003 c -8,-15 -11,-26 -11,-44 4,-3 8,-4 11,-4 l 18,41 q -3,16 -18,7 z"
       id="use185" />
    <path
       d="m 3663,5372 47,8 c 2,8 0,16 -4,21 l -47,-10 c -1,-7 0,-13 4,-19 z"
       id="use186" />
    <path
       d="m 3477,5543 q -19,-1 -8,-17 c 18,-15 30,-21 52,-27 q 24,11 9,31 c -20,6 -31,9 -53,13 z"
       id="use187" />
    <path
       d="m 4027,191 47,8 c 2,8 0,16 -4,21 l -47,-10 c -1,-7 0,-13 4,-19 z"
       id="use188" />
    <path
       d="m 3999,418 18,-7 7,10 -16,15 z"
       id="use189" />
    <path
       d="m 3840,753 47,8 c 2,8 0,16 -4,21 l -47,-10 c -1,-7 0,-13 4,-19 z"
       id="use190" />
    <path
       d="m 4078,1156 q -19,-1 -8,-17 c 18,-15 30,-21 52,-27 q 24,11 9,31 c -20,6 -31,9 -53,13 z"
       id="use191" />
    <path
       d="m 4103,1505 18,-7 7,10 -16,15 z"
       id="use192" />
    <path
       d="m 4031,1946 18,-7 7,10 -16,15 z"
       id="use193" />
    <path
       d="m 3873,2356 q -19,-1 -8,-17 c 18,-15 30,-21 52,-27 q 24,11 9,31 c -20,6 -31,9 -53,13 z"
       id="use194" />
    <path
       d="m 3899,2531 47,8 c 2,8 0,16 -4,21 l -47,-10 c -1,-7 0,-13 4,-19 z"
       id="use195" />
    <path
       d="m 3896,2725 c -12,15 -17,24 -28,41 q -26,6 -29,-23 -14,-21 10,-30 30,-21 47,12 z"
       id="use196" />
    <path
       d="m 3886,3094 -19,3 -5,-24 15,-6 z"
       id="use197" />
    <path
       d="m 4022,3626 -3,-11 13,-8 -2,22 z"
       id="use198" />
    <path
       d="m 3910,3814 -3,-11 13,-8 -2,22 z"
       id="use199" />
    <path
       d="m 4031,4139 -3,-11 13,-8 -2,22 z"
       id="use200" />
    <path
       d="m 3909,4492 q -19,-1 -8,-17 c 18,-15 30,-21 52,-27 q 24,11 9,31 c -20,6 -31,9 -53,13 z"
       id="use201" />
    <path
       d="m 3983,4900 q -19,-1 -8,-17 c 18,-15 30,-21 52,-27 q 24,11 9,31 c -20,6 -31,9 -53,13 z"
       id="use202" />
    <path
       d="m 3957,5122 q -19,-1 -8,-17 c 18,-15 30,-21 52,-27 q 24,11 9,31 c -20,6 -31,9 -53,13 z"
       id="use203" />
    <path
       d="m 3816,5466 17,-9 14,11 -12,22 z"
       id="use204" />
    <path
       d="m 4386,120 18,-7 7,10 -16,15 z"
       id="use205" />
    <path
       d="m 4248,406 c -8,-15 -11,-26 -11,-44 4,-3 8,-4 11,-4 l 18,41 q -3,16 -18,7 z"
       id="use206" />
    <path
       d="m 4289,741 q 8,-19 20,-5 c 23,10 29,36 10,56 -10,6 -22,5 -33,-3 q -26,-26 3,-48 z"
       id="use207" />
    <path
       d="m 4264,1338 17,-9 14,11 -12,22 z"
       id="use208" />
    <path
       d="m 4142,1576 18,-7 7,10 -16,15 z"
       id="use209" />
    <path
       d="m 4322,1816 -19,3 -5,-24 15,-6 z"
       id="use210" />
    <path
       d="m 4230,2213 -3,-11 13,-8 -2,22 z"
       id="use211" />
    <path
       d="m 4155,2713 v -36 l 29,12 -13,25 z"
       id="use212" />
    <path
       d="m 4460,3003 c -12,15 -17,24 -28,41 q -26,6 -29,-23 -14,-21 10,-30 30,-21 47,12 z"
       id="use213" />
    <path
       d="m 4131,3274 17,-9 14,11 -12,22 z"
       id="use214" />
    <path
       d="m 4225,3463 17,-9 14,11 -12,22 z"
       id="use215" />
    <path
       d="m 4120,4078 q -19,-1 -8,-17 c 18,-15 30,-21 52,-27 q 24,11 9,31 c -20,6 -31,9 -53,13 z"
       id="use216" />
    <path
       d="m 4389,4285 v -36 l 29,12 -13,25 z"
       id="use217" />
    <path
       d="m 4438,4569 18,-7 7,10 -16,15 z"
       id="use218" />
    <path
       d="m 4455,5000 -3,-11 13,-8 -2,22 z"
       id="use219" />
    <path
       d="m 4434,5227 q -19,-1 -8,-17 c 18,-15 30,-21 52,-27 q 24,11 9,31 c -20,6 -31,9 -53,13 z"
       id="use220" />
    <path
       d="m 4283,5398 q 8,-19 20,-5 c 23,10 29,36 10,56 -10,6 -22,5 -33,-3 q -26,-26 3,-48 z"
       id="use221" />
    <path
       d="m 4462,345 v -36 l 29,12 -13,25 z"
       id="use222" />
    <path
       d="m 4687,435 18,-7 7,10 -16,15 z"
       id="use223" />
    <path
       d="m 4709,885 v -36 l 29,12 -13,25 z"
       id="use224" />
    <path
       d="m 4782,1000 q 8,-19 20,-5 c 23,10 29,36 10,56 -10,6 -22,5 -33,-3 q -26,-26 3,-48 z"
       id="use225" />
    <path
       d="m 4739,1484 q -19,-1 -8,-17 c 18,-15 30,-21 52,-27 q 24,11 9,31 c -20,6 -31,9 -53,13 z"
       id="use226" />
    <path
       d="m 4701,1772 q -19,-1 -8,-17 c 18,-15 30,-21 52,-27 q 24,11 9,31 c -20,6 -31,9 -53,13 z"
       id="use227" />
    <path
       d="m 4460,2171 q -19,-1 -8,-17 c 18,-15 30,-21 52,-27 q 24,11 9,31 c -20,6 -31,9 -53,13 z"
       id="use228" />
    <path
       d="m 4613,2629 v -36 l 29,12 -13,25 z"
       id="use229" />
    <path
       d="m 4525,2747 18,-7 7,10 -16,15 z"
       id="use230" />
    <path
       d="m 4516,3257 c -12,15 -17,24 -28,41 q -26,6 -29,-23 -14,-21 10,-30 30,-21 47,12 z"
       id="use231" />
    <path
       d="m 4551,3577 18,-7 7,10 -16,15 z"
       id="use232" />
    <path
       d="m 4503,3897 -19,3 -5,-24 15,-6 z"
       id="use233" />
    <path
       d="m 4489,4182 -19,3 -5,-24 15,-6 z"
       id="use234" />
    <path
       d="m 4626,4664 17,-9 14,11 -12,22 z"
       id="use235" />
    <path
       d="m 4494,4795 q -19,-1 -8,-17 c 18,-15 30,-21 52,-27 q 24,11 9,31 c -20,6 -31,9 -53,13 z"
       id="use236" />
    <path
       d="m 4583,5100 18,-7 7,10 -16,15 z"
       id="use237" />
    <path
       d="m 4753,5447 v -36 l 29,12 -13,25 z"
       id="use238" />
    <path
       d="m 4861,188 c -8,-15 -11,-26 -11,-44 4,-3 8,-4 11,-4 l 18,41 q -3,16 -18,7 z"
       id="use239" />
    <path
       d="m 4982,443 -3,-11 13,-8 -2,22 z"
       id="use240" />
    <path
       d="m 5015,853 18,-7 7,10 -16,15 z"
       id="use241" />
    <path
       d="m 5073,1256 c -8,-15 -11,-26 -11,-44 4,-3 8,-4 11,-4 l 18,41 q -3,16 -18,7 z"
       id="use242" />
    <path
       d="m 5003,1543 47,8 c 2,8 0,16 -4,21 l -47,-10 c -1,-7 0,-13 4,-19 z"
       id="use243" />
    <path
       d="m 5085,2003 17,-9 14,11 -12,22 z"
       id="use244" />
    <path
       d="m 4974,2292 q -19,-1 -8,-17 c 18,-15 30,-21 52,-27 q 24,11 9,31 c -20,6 -31,9 -53,13 z"
       id="use245" />
    <path
       d="m 5023,2540 q 8,-19 20,-5 c 23,10 29,36 10,56 -10,6 -22,5 -33,-3 q -26,-26 3,-48 z"
       id="use246" />
    <path
       d="m 4914,3055 -19,3 -5,-24 15,-6 z"
       id="use247" />
    <path
       d="m 4863,3294 v -36 l 29,12 -13,25 z"
       id="use248" />
    <path
       d="m 5047,3527 q 8,-19 20,-5 c 23,10 29,36 10,56 -10,6 -22,5 -33,-3 q -26,-26 3,-48 z"
       id="use249" />
    <path
       d="m 4886,4011 -19,3 -5,-24 15,-6 z"
       id="use250" />
    <path
       d="m 4938,4108 17,-9 14,11 -12,22 z"
       id="use251" />
    <path
       d="m 5080,4567 c -12,15 -17,24 -28,41 q -26,6 -29,-23 -14,-21 10,-30 30,-21 47,12 z"
       id="use252" />
    <path
       d="m 4993,5086 c -8,-15 -11,-26 -11,-44 4,-3 8,-4 11,-4 l 18,41 q -3,16 -18,7 z"
       id="use253" />
    <path
       d="m 4814,5381 18,-7 7,10 -16,15 z"
       id="use254" />
    <path
       d="m 4980,5540 17,-9 14,11 -12,22 z"
       id="use255" />
    <path
       d="m 5207,60 -19,3 -5,-24 15,-6 z"
       id="use256" />
    <path
       d="m 5338,413 v -36 l 29,12 -13,25 z"
       id="use257" />
    <path
       d="m 5249,799 18,-7 7,10 -16,15 z"
       id="use258" />
    <path
       d="m 5274,1082 18,-7 7,10 -16,15 z"
       id="use259" />
    <path
       d="m 5297,1428 -19,3 -5,-24 15,-6 z"
       id="use260" />
    <path
       d="m 5145,1688 47,8 c 2,8 0,16 -4,21 l -47,-10 c -1,-7 0,-13 4,-19 z"
       id="use261" />
    <path
       d="m 5351,2335 -19,3 -5,-24 15,-6 z"
       id="use262" />
    <path
       d="m 5294,2497 q -19,-1 -8,-17 c 18,-15 30,-21 52,-27 q 24,11 9,31 c -20,6 -31,9 -53,13 z"
       id="use263" />
    <path
       d="m 5331,3020 17,-9 14,11 -12,22 z"
       id="use264" />
    <path
       d="m 5317,3357 -19,3 -5,-24 15,-6 z"
       id="use265" />
    <path
       d="m 5202,3451 -3,-11 13,-8 -2,22 z"
       id="use266" />
    <path
       d="m 5304,3778 -3,-11 13,-8 -2,22 z"
       id="use267" />
    <path
       d="m 5350,4185 -3,-11 13,-8 -2,22 z"
       id="use268" />
    <path
       d="m 5248,4618 q 8,-19 20,-5 c 23,10 29,36 10,56 -10,6 -22,5 -33,-3 q -26,-26 3,-48 z"
       id="use269" />
    <path
       d="m 5217,4916 -3,-11 13,-8 -2,22 z"
       id="use270" />
    <path
       d="m 5457,5374 17,-9 14,11 -12,22 z"
       id="use271" />
    <path
       d="m 5360,5654 -3,-11 13,-8 -2,22 z"
       id="use272" />
  </g>
  <g
     transform="matrix(0.1,0,0,-0.1,0,300)"
     fill="#000000"
     stroke="none"
     id="g22"
     style="display:inline;fill:#114b5f;fill-opacity:1">
    <path
       d="M 1547,2438 C 1428,2345 1389,2308 1325,2225 1223,2093 1211,2080 1105,1995 984,1898 975,1887 875,1720 789,1578 741,1517 471,1210 348,1071 343,1059 335,919 331,856 324,790 318,772 c -8,-27 -5,-42 23,-102 17,-39 38,-70 45,-70 6,0 176,-22 377,-49 l 365,-50 184,34 c 100,18 213,45 251,59 l 68,26 130,-31 131,-31 82,21 c 83,20 83,20 134,1 29,-11 59,-20 68,-20 16,0 184,59 344,121 76,29 82,33 106,80 l 25,50 -70,182 c -66,172 -70,189 -84,319 l -14,136 -66,119 c -61,110 -68,129 -102,283 -43,189 -41,186 -185,297 -120,93 -165,138 -220,219 -55,80 -166,184 -198,184 -11,0 -86,-51 -165,-112 z m 123,23 c 0,-18 -167,-182 -241,-237 -55,-40 -18,-27 61,22 41,25 80,48 85,52 14,7 -33,-46 -75,-86 -34,-33 -24,-35 14,-3 27,22 19,8 -79,-129 -101,-142 -205,-297 -205,-306 0,-8 24,22 288,354 l 222,280 41,-16 c 33,-13 46,-26 68,-71 27,-53 151,-514 151,-558 0,-12 -26,-47 -62,-83 -64,-63 -63,-67 7,-20 22,15 47,30 54,35 8,5 -7,-20 -34,-56 -74,-98 -73,-100 4,-19 80,84 79,81 57,222 l -13,88 66,62 c 66,63 66,63 69,35 4,-30 -19,-228 -48,-427 -17,-119 -22,-135 -108,-325 -184,-410 -182,-406 -250,-457 -44,-33 -67,-44 -85,-41 -23,5 -19,12 87,161 151,212 165,237 51,94 -64,-80 -88,-99 -31,-25 20,27 44,62 52,78 9,17 40,59 68,95 76,95 77,105 2,25 -36,-38 -66,-65 -66,-60 0,6 4,15 8,20 13,15 74,125 69,125 -2,0 -34,-38 -71,-85 -37,-47 -70,-85 -72,-85 -3,0 34,57 82,128 253,368 252,361 12,101 -476,-516 -617,-665 -655,-689 -39,-25 -46,-26 -90,-17 -27,6 -50,12 -52,14 -3,2 35,45 85,95 91,92 95,104 14,38 -69,-56 -137,-100 -155,-100 -9,0 -29,7 -46,15 l -30,16 33,39 c 18,21 57,66 86,99 30,34 52,61 49,61 -3,0 -46,-36 -97,-79 -77,-65 -97,-78 -114,-71 -12,4 -61,25 -110,45 -96,40 -84,39 -190,8 -65,-19 95,218 219,324 39,32 160,121 269,197 231,160 322,226 314,226 -8,0 -476,-256 -581,-318 -47,-28 -100,-58 -118,-67 l -34,-16 40,35 c 45,41 52,41 -84,-10 -35,-13 -68,-24 -73,-24 -5,0 55,72 134,160 79,88 165,190 193,225 27,35 50,63 52,61 2,-1 -10,-41 -26,-88 -54,-159 -42,-154 26,12 38,91 72,171 76,177 4,7 87,75 185,152 248,196 283,228 152,141 -98,-65 -99,-62 -5,19 l 40,34 -40,-23 c -22,-13 -51,-31 -65,-40 -14,-10 -36,-23 -50,-29 -27,-13 9,24 105,108 l 50,43 -49,-38 c -60,-46 -53,-34 58,116 68,91 108,132 189,197 56,45 105,83 110,83 4,0 7,-9 7,-19 z m -41,-108 c -17,-23 -41,-43 -51,-43 -8,0 52,59 61,60 2,0 -3,-8 -10,-17 z m 406,-209 c 17,-8 40,-25 53,-37 l 22,-21 -37,-40 -38,-39 34,23 c 31,22 33,22 22,3 -6,-12 -26,-30 -45,-41 l -35,-21 -5,32 c -3,18 -10,59 -16,91 -5,33 -10,61 -10,63 0,8 28,1 55,-13 z m 247,-576 5,-83 -35,-35 c -35,-35 -35,-28 0,22 30,43 21,40 -27,-10 l -45,-47 v 83 c 0,45 3,82 8,82 4,0 13,9 19,19 10,17 9,18 -9,13 -20,-5 -21,-2 -15,34 4,21 7,53 7,69 l 1,30 43,-47 c 43,-47 44,-49 48,-130 z m 107,-132 c 12,-14 -10,-165 -55,-381 -18,-85 -173,-370 -206,-378 -26,-7 -27,-12 51,232 33,107 61,199 60,205 0,6 -28,-68 -62,-166 -57,-162 -65,-179 -101,-207 -34,-27 -47,-31 -100,-31 -33,0 -66,4 -73,8 -9,6 -1,44 30,151 l 42,143 135,173 c 74,95 136,170 138,166 1,-4 -34,-130 -78,-281 -44,-150 -78,-275 -76,-278 3,-2 52,141 111,319 58,178 113,331 121,341 17,18 39,13 63,-16 z m -385,-358 c -10,-13 -30,-36 -45,-53 -22,-24 -32,-53 -49,-140 -33,-167 -31,-161 -45,-142 -17,24 5,190 33,243 21,40 95,114 115,114 6,0 2,-10 -9,-22 z m 402,-25 c 8,-21 21,-60 29,-88 l 13,-50 -76,-79 c -67,-69 -82,-93 -29,-48 22,20 22,11 -3,-31 -12,-20 -32,-38 -46,-41 -14,-4 -44,-18 -66,-32 -22,-14 -42,-24 -44,-21 -4,3 198,427 203,427 2,0 10,-17 19,-37 z m 17,-222 c -6,-23 -61,-91 -74,-91 -7,0 70,110 78,110 0,0 -1,-8 -4,-19 z"
       id="path1"
       style="fill:#114b5f;fill-opacity:1" />
    <path
       d="m 1407,1019 c -38,-39 -66,-73 -64,-75 5,-6 147,128 147,139 0,17 -19,3 -83,-64 z"
       id="path2"
       style="fill:#114b5f;fill-opacity:1" />
    <path
       d="m 1537,1064 c -15,-15 -27,-32 -27,-38 0,-6 14,4 32,21 18,18 30,35 27,38 -4,3 -18,-7 -32,-21 z"
       id="path3"
       style="fill:#114b5f;fill-opacity:1" />
    <path
       d="m 1456,1001 c -10,-11 -16,-25 -14,-32 2,-7 14,1 27,19 24,35 15,44 -13,13 z"
       id="path4"
       style="fill:#114b5f;fill-opacity:1" />
  </g>
</svg>
