<?xml version="1.0" encoding="UTF-8" standalone="no"?>
<svg
   id="eevB4THh1os1"
   viewBox="0 0 300 300"
   shape-rendering="geometricPrecision"
   text-rendering="geometricPrecision"
   version="1.1"
   sodipodi:docname="roundBase (1).svg"
   xml:space="preserve"
   inkscape:version="1.3 (0e150ed6c4, 2023-07-21)"
   xmlns:inkscape="http://www.inkscape.org/namespaces/inkscape"
   xmlns:sodipodi="http://sodipodi.sourceforge.net/DTD/sodipodi-0.dtd"
   xmlns:xlink="http://www.w3.org/1999/xlink"
   xmlns="http://www.w3.org/2000/svg"
   xmlns:svg="http://www.w3.org/2000/svg"><defs
     id="defs2"><linearGradient
       id="linearGradient4"
       inkscape:collect="always"><stop
         style="stop-color:#000000;stop-opacity:1;"
         offset="0"
         id="stop4" /><stop
         style="stop-color:#000000;stop-opacity:0;"
         offset="0.43900561"
         id="stop5" /></linearGradient><filter
       id="goo"><feGaussianBlur
         in="SourceGraphic"
         stdDeviation="0"
         result="blur"
         id="feGaussianBlur1" /><feColorMatrix
         in="blur"
         type="matrix"
         values="1 0 0 0 0 0 1 0 0 0 0 0 1 0 0 0 0 0 19 -9"
         result="good"
         id="feColorMatrix1" /><feComposite
         in="SourceGraphic"
         in2="goo"
         operator="atop"
         id="feComposite1" /></filter><path
       d="M227,271Q208,270 219,254C237,239 249,233 271,227Q295,238 280,258C260,264 249,267 227,271z"
       id="P0" /><path
       d="M242,258L239,247L252,239L250,261L242,258z"
       id="P1" /><path
       d="M228,236L275,244C277,252 275,260 271,265L224,255C223,248 224,242 228,236z"
       id="P2" /><path
       d="M238,245L256,238L263,248L247,263L238,245z"
       id="P3" /><path
       d="M248,274C240,259 237,248 237,230C241,227 245,226 248,226L266,267Q263,283 248,274z"
       id="P4" /><path
       d="M240,268L240,232L269,244L256,269L240,268z"
       id="P5" /><path
       d="M278,239C266,254 261,263 250,280Q224,286 221,257Q207,236 231,227Q261,206 278,239z"
       id="P6" /><path
       d="M235,242L252,233L266,244L254,266L235,242z"
       id="P7" /><path
       d="M234,225Q242,206 254,220C277,230 283,256 264,276C254,282 242,281 231,273Q205,247 234,225z"
       id="P8" /><path
       d="M262,261L243,264L238,240L253,234L262,261z"
       id="P9" /><linearGradient
       inkscape:collect="always"
       xlink:href="#linearGradient4"
       id="linearGradient5"
       x1="71.316658"
       y1="186.1581"
       x2="149.81348"
       y2="186.1581"
       gradientUnits="userSpaceOnUse"
       spreadMethod="reflect"
       gradientTransform="matrix(1.0039797,0,0,0.94140359,-0.28382009,18.030714)" /><filter
       inkscape:collect="always"
       style="color-interpolation-filters:sRGB"
       id="filter5"
       x="-0.014036348"
       y="-2.3392024e-09"
       width="1.0280727"
       height="1"><feGaussianBlur
         inkscape:collect="always"
         stdDeviation="0.928 0"
         id="feGaussianBlur5" /></filter><clipPath
       clipPathUnits="userSpaceOnUse"
       id="clipPath285"><path
         style="opacity:0.35;fill:none;stroke:#11ed5f;stroke-width:30.7494;stroke-dasharray:none;stroke-opacity:1"
         d="m 1538.5264,4990.2393 2467.3295,-7.989 V 1420.9761 c 0,0 -124.7412,-952.74188 -1252.4128,-926.61011 C 1494.906,523.53033 1542.1945,1572.7132 1542.1945,1572.7132 Z"
         id="path286"
         sodipodi:nodetypes="cccscc" /></clipPath></defs><sodipodi:namedview
     id="namedview2"
     pagecolor="#ffffff"
     bordercolor="#000000"
     borderopacity="0.25"
     inkscape:showpageshadow="2"
     inkscape:pageopacity="0.0"
     inkscape:pagecheckerboard="0"
     inkscape:deskcolor="#d1d1d1"
     inkscape:zoom="2.8284271"
     inkscape:cx="127.10244"
     inkscape:cy="150.26019"
     inkscape:window-width="2486"
     inkscape:window-height="1376"
     inkscape:window-x="0"
     inkscape:window-y="0"
     inkscape:window-maximized="1"
     inkscape:current-layer="eevB4THh1os1" /><g
     id="g3"
     transform="matrix(0.06432776,0,0,0.06576417,-28.107655,-26.322505)"
     clip-path="url(#clipPath285)"><rect
       id="RECT"
       width="5000"
       height="5000"
       fill="#026b79"
       x="0"
       y="0"
       style="display:inline" /><g
       id="group"
       fill="#e4fde1"
       filter=""><use
         x="-237"
         y="-192"
         href="#P6"
         id="use1" /><use
         x="-172"
         y="371"
         href="#P4"
         id="use2" /><use
         x="-179"
         y="693"
         href="#P0"
         id="use3" /><use
         x="-185"
         y="767"
         href="#P5"
         id="use4" /><use
         x="17"
         y="1175"
         href="#P3"
         id="use5" /><use
         x="-39"
         y="1766"
         href="#P9"
         id="use6" /><use
         x="31"
         y="2096"
         href="#P6"
         id="use7" /><use
         x="62"
         y="2208"
         href="#P7"
         id="use8" /><use
         x="-142"
         y="2509"
         href="#P0"
         id="use9" /><use
         x="-249"
         y="2881"
         href="#P9"
         id="use10" /><use
         x="-110"
         y="3275"
         href="#P1"
         id="use11" /><use
         x="56"
         y="3795"
         href="#P7"
         id="use12" /><use
         x="-82"
         y="3883"
         href="#P8"
         id="use13" /><use
         x="-229"
         y="4405"
         href="#P5"
         id="use14" /><use
         x="-62"
         y="4646"
         href="#P3"
         id="use15" /><use
         x="-153"
         y="5004"
         href="#P5"
         id="use16" /><use
         x="-241"
         y="5235"
         href="#P7"
         id="use17" /><use
         x="246"
         y="-171"
         href="#P4"
         id="use18" /><use
         x="176"
         y="328"
         href="#P3"
         id="use19" /><use
         x="370"
         y="583"
         href="#P8"
         id="use20" /><use
         x="275"
         y="899"
         href="#P3"
         id="use21" /><use
         x="218"
         y="1226"
         href="#P4"
         id="use22" /><use
         x="122"
         y="1503"
         href="#P0"
         id="use23" /><use
         x="403"
         y="1923"
         href="#P0"
         id="use24" /><use
         x="389"
         y="2239"
         href="#P8"
         id="use25" /><use
         x="311"
         y="2726"
         href="#P9"
         id="use26" /><use
         x="340"
         y="2806"
         href="#P1"
         id="use27" /><use
         x="290"
         y="3429"
         href="#P1"
         id="use28" /><use
         x="268"
         y="3648"
         href="#P5"
         id="use29" /><use
         x="103"
         y="3822"
         href="#P2"
         id="use30" /><use
         x="230"
         y="4306"
         href="#P7"
         id="use31" /><use
         x="170"
         y="4734"
         href="#P0"
         id="use32" /><use
         x="436"
         y="5138"
         href="#P2"
         id="use33" /><use
         x="113"
         y="5474"
         href="#P7"
         id="use34" /><use
         x="565"
         y="-238"
         href="#P7"
         id="use35" /><use
         x="466"
         y="161"
         href="#P7"
         id="use36" /><use
         x="731"
         y="604"
         href="#P6"
         id="use37" /><use
         x="562"
         y="878"
         href="#P3"
         id="use38" /><use
         x="658"
         y="1129"
         href="#P1"
         id="use39" /><use
         x="739"
         y="1696"
         href="#P1"
         id="use40" /><use
         x="522"
         y="1955"
         href="#P5"
         id="use41" /><use
         x="654"
         y="2247"
         href="#P6"
         id="use42" /><use
         x="579"
         y="2771"
         href="#P0"
         id="use43" /><use
         x="734"
         y="3015"
         href="#P4"
         id="use44" /><use
         x="768"
         y="3209"
         href="#P1"
         id="use45" /><use
         x="555"
         y="3722"
         href="#P2"
         id="use46" /><use
         x="705"
         y="3822"
         href="#P0"
         id="use47" /><use
         x="497"
         y="4419"
         href="#P1"
         id="use48" /><use
         x="637"
         y="4699"
         href="#P5"
         id="use49" /><use
         x="725"
         y="4966"
         href="#P9"
         id="use50" /><use
         x="649"
         y="5322"
         href="#P6"
         id="use51" /><use
         x="824"
         y="-29"
         href="#P8"
         id="use52" /><use
         x="1056"
         y="422"
         href="#P7"
         id="use53" /><use
         x="958"
         y="596"
         href="#P4"
         id="use54" /><use
         x="788"
         y="1063"
         href="#P0"
         id="use55" /><use
         x="919"
         y="1145"
         href="#P5"
         id="use56" /><use
         x="955"
         y="1457"
         href="#P6"
         id="use57" /><use
         x="854"
         y="1944"
         href="#P8"
         id="use58" /><use
         x="786"
         y="2393"
         href="#P3"
         id="use59" /><use
         x="798"
         y="2603"
         href="#P3"
         id="use60" /><use
         x="1063"
         y="2947"
         href="#P7"
         id="use61" /><use
         x="1053"
         y="3433"
         href="#P8"
         id="use62" /><use
         x="1114"
         y="3761"
         href="#P2"
         id="use63" /><use
         x="986"
         y="3995"
         href="#P9"
         id="use64" /><use
         x="899"
         y="4373"
         href="#P3"
         id="use65" /><use
         x="953"
         y="4802"
         href="#P9"
         id="use66" /><use
         x="786"
         y="5050"
         href="#P0"
         id="use67" /><use
         x="849"
         y="5441"
         href="#P4"
         id="use68" /><use
         x="1419"
         y="-81"
         href="#P6"
         id="use69" /><use
         x="1269"
         y="221"
         href="#P8"
         id="use70" /><use
         x="1248"
         y="464"
         href="#P7"
         id="use71" /><use
         x="1160"
         y="888"
         href="#P6"
         id="use72" /><use
         x="1460"
         y="1283"
         href="#P4"
         id="use73" /><use
         x="1377"
         y="1550"
         href="#P9"
         id="use74" /><use
         x="1427"
         y="1897"
         href="#P1"
         id="use75" /><use
         x="1189"
         y="2409"
         href="#P0"
         id="use76" /><use
         x="1205"
         y="2513"
         href="#P1"
         id="use77" /><use
         x="1466"
         y="2873"
         href="#P1"
         id="use78" /><use
         x="1320"
         y="3348"
         href="#P3"
         id="use79" /><use
         x="1463"
         y="3712"
         href="#P3"
         id="use80" /><use
         x="1351"
         y="3911"
         href="#P2"
         id="use81" /><use
         x="1256"
         y="4399"
         href="#P5"
         id="use82" /><use
         x="1453"
         y="4746"
         href="#P5"
         id="use83" /><use
         x="1281"
         y="5062"
         href="#P0"
         id="use84" /><use
         x="1183"
         y="5289"
         href="#P7"
         id="use85" /><use
         x="1532"
         y="-154"
         href="#P9"
         id="use86" /><use
         x="1807"
         y="421"
         href="#P2"
         id="use87" /><use
         x="1551"
         y="453"
         href="#P0"
         id="use88" /><use
         x="1684"
         y="831"
         href="#P3"
         id="use89" /><use
         x="1585"
         y="1148"
         href="#P1"
         id="use90" /><use
         x="1648"
         y="1778"
         href="#P1"
         id="use91" /><use
         x="1668"
         y="1909"
         href="#P9"
         id="use92" /><use
         x="1584"
         y="2285"
         href="#P5"
         id="use93" /><use
         x="1644"
         y="2500"
         href="#P6"
         id="use94" /><use
         x="1660"
         y="3051"
         href="#P5"
         id="use95" /><use
         x="1666"
         y="3283"
         href="#P3"
         id="use96" /><use
         x="1704"
         y="3575"
         href="#P3"
         id="use97" /><use
         x="1699"
         y="3868"
         href="#P7"
         id="use98" /><use
         x="1676"
         y="4379"
         href="#P3"
         id="use99" /><use
         x="1518"
         y="4537"
         href="#P6"
         id="use100" /><use
         x="1787"
         y="4887"
         href="#P3"
         id="use101" /><use
         x="1597"
         y="5387"
         href="#P2"
         id="use102" /><use
         x="2031"
         y="-124"
         href="#P4"
         id="use103" /><use
         x="1949"
         y="209"
         href="#P1"
         id="use104" /><use
         x="2014"
         y="466"
         href="#P6"
         id="use105" /><use
         x="1960"
         y="900"
         href="#P8"
         id="use106" /><use
         x="1823"
         y="1338"
         href="#P3"
         id="use107" /><use
         x="2079"
         y="1717"
         href="#P2"
         id="use108" /><use
         x="1986"
         y="1856"
         href="#P5"
         id="use109" /><use
         x="1934"
         y="2372"
         href="#P6"
         id="use110" /><use
         x="2059"
         y="2629"
         href="#P7"
         id="use111" /><use
         x="1849"
         y="2851"
         href="#P6"
         id="use112" /><use
         x="1938"
         y="3399"
         href="#P7"
         id="use113" /><use
         x="1990"
         y="3588"
         href="#P3"
         id="use114" /><use
         x="1943"
         y="3917"
         href="#P3"
         id="use115" /><use
         x="1975"
         y="4290"
         href="#P4"
         id="use116" /><use
         x="2021"
         y="4646"
         href="#P8"
         id="use117" /><use
         x="1891"
         y="4895"
         href="#P5"
         id="use118" /><use
         x="2067"
         y="5319"
         href="#P4"
         id="use119" /><use
         x="2363"
         y="-232"
         href="#P3"
         id="use120" /><use
         x="2309"
         y="272"
         href="#P3"
         id="use121" /><use
         x="2365"
         y="633"
         href="#P0"
         id="use122" /><use
         x="2456"
         y="832"
         href="#P1"
         id="use123" /><use
         x="2315"
         y="1133"
         href="#P5"
         id="use124" /><use
         x="2376"
         y="1549"
         href="#P2"
         id="use125" /><use
         x="2284"
         y="2115"
         href="#P6"
         id="use126" /><use
         x="2163"
         y="2207"
         href="#P9"
         id="use127" /><use
         x="2401"
         y="2457"
         href="#P7"
         id="use128" /><use
         x="2491"
         y="2880"
         href="#P1"
         id="use129" /><use
         x="2325"
         y="3433"
         href="#P8"
         id="use130" /><use
         x="2458"
         y="3788"
         href="#P3"
         id="use131" /><use
         x="2286"
         y="4086"
         href="#P5"
         id="use132" /><use
         x="2239"
         y="4249"
         href="#P4"
         id="use133" /><use
         x="2455"
         y="4654"
         href="#P9"
         id="use134" /><use
         x="2360"
         y="5078"
         href="#P9"
         id="use135" /><use
         x="2209"
         y="5182"
         href="#P8"
         id="use136" /><use
         x="2731"
         y="-176"
         href="#P4"
         id="use137" /><use
         x="2526"
         y="177"
         href="#P6"
         id="use138" /><use
         x="2722"
         y="448"
         href="#P2"
         id="use139" /><use
         x="2644"
         y="1091"
         href="#P4"
         id="use140" /><use
         x="2663"
         y="1132"
         href="#P3"
         id="use141" /><use
         x="2658"
         y="1630"
         href="#P7"
         id="use142" /><use
         x="2615"
         y="2113"
         href="#P3"
         id="use143" /><use
         x="2664"
         y="2165"
         href="#P1"
         id="use144" /><use
         x="2573"
         y="2469"
         href="#P9"
         id="use145" /><use
         x="2766"
         y="2937"
         href="#P6"
         id="use146" /><use
         x="2767"
         y="3235"
         href="#P0"
         id="use147" /><use
         x="2711"
         y="3560"
         href="#P6"
         id="use148" /><use
         x="2784"
         y="4041"
         href="#P8"
         id="use149" /><use
         x="2739"
         y="4216"
         href="#P4"
         id="use150" /><use
         x="2792"
         y="4756"
         href="#P6"
         id="use151" /><use
         x="2769"
         y="5148"
         href="#P0"
         id="use152" /><use
         x="2840"
         y="5373"
         href="#P3"
         id="use153" /><use
         x="3041"
         y="-128"
         href="#P5"
         id="use154" /><use
         x="2992"
         y="201"
         href="#P1"
         id="use155" /><use
         x="3077"
         y="753"
         href="#P9"
         id="use156" /><use
         x="2894"
         y="1000"
         href="#P4"
         id="use157" /><use
         x="2884"
         y="1332"
         href="#P9"
         id="use158" /><use
         x="3185"
         y="1745"
         href="#P2"
         id="use159" /><use
         x="2892"
         y="1949"
         href="#P3"
         id="use160" /><use
         x="2855"
         y="2122"
         href="#P6"
         id="use161" /><use
         x="2873"
         y="2744"
         href="#P6"
         id="use162" /><use
         x="2888"
         y="2990"
         href="#P3"
         id="use163" /><use
         x="3102"
         y="3305"
         href="#P6"
         id="use164" /><use
         x="3121"
         y="3531"
         href="#P4"
         id="use165" /><use
         x="3171"
         y="3868"
         href="#P8"
         id="use166" /><use
         x="3037"
         y="4163"
         href="#P3"
         id="use167" /><use
         x="3164"
         y="4546"
         href="#P0"
         id="use168" /><use
         x="3059"
         y="4907"
         href="#P0"
         id="use169" /><use
         x="3137"
         y="5447"
         href="#P4"
         id="use170" /><use
         x="3302"
         y="-33"
         href="#P6"
         id="use171" /><use
         x="3489"
         y="99"
         href="#P7"
         id="use172" /><use
         x="3529"
         y="624"
         href="#P6"
         id="use173" /><use
         x="3526"
         y="872"
         href="#P3"
         id="use174" /><use
         x="3308"
         y="1213"
         href="#P1"
         id="use175" /><use
         x="3524"
         y="1780"
         href="#P2"
         id="use176" /><use
         x="3345"
         y="1842"
         href="#P1"
         id="use177" /><use
         x="3214"
         y="2234"
         href="#P0"
         id="use178" /><use
         x="3217"
         y="2604"
         href="#P1"
         id="use179" /><use
         x="3354"
         y="2837"
         href="#P1"
         id="use180" /><use
         x="3333"
         y="3238"
         href="#P1"
         id="use181" /><use
         x="3189"
         y="3766"
         href="#P2"
         id="use182" /><use
         x="3323"
         y="3830"
         href="#P2"
         id="use183" /><use
         x="3418"
         y="4400"
         href="#P5"
         id="use184" /><use
         x="3237"
         y="4729"
         href="#P4"
         id="use185" /><use
         x="3435"
         y="5136"
         href="#P2"
         id="use186" /><use
         x="3250"
         y="5272"
         href="#P0"
         id="use187" /><use
         x="3799"
         y="-45"
         href="#P2"
         id="use188" /><use
         x="3761"
         y="173"
         href="#P3"
         id="use189" /><use
         x="3612"
         y="517"
         href="#P2"
         id="use190" /><use
         x="3851"
         y="885"
         href="#P0"
         id="use191" /><use
         x="3865"
         y="1260"
         href="#P3"
         id="use192" /><use
         x="3793"
         y="1701"
         href="#P3"
         id="use193" /><use
         x="3646"
         y="2085"
         href="#P0"
         id="use194" /><use
         x="3671"
         y="2295"
         href="#P2"
         id="use195" /><use
         x="3618"
         y="2486"
         href="#P6"
         id="use196" /><use
         x="3624"
         y="2833"
         href="#P9"
         id="use197" /><use
         x="3780"
         y="3368"
         href="#P1"
         id="use198" /><use
         x="3668"
         y="3556"
         href="#P1"
         id="use199" /><use
         x="3789"
         y="3881"
         href="#P1"
         id="use200" /><use
         x="3682"
         y="4221"
         href="#P0"
         id="use201" /><use
         x="3756"
         y="4629"
         href="#P0"
         id="use202" /><use
         x="3730"
         y="4851"
         href="#P0"
         id="use203" /><use
         x="3581"
         y="5224"
         href="#P7"
         id="use204" /><use
         x="4148"
         y="-125"
         href="#P3"
         id="use205" /><use
         x="4000"
         y="132"
         href="#P4"
         id="use206" /><use
         x="4055"
         y="516"
         href="#P8"
         id="use207" /><use
         x="4029"
         y="1096"
         href="#P7"
         id="use208" /><use
         x="3904"
         y="1331"
         href="#P3"
         id="use209" /><use
         x="4060"
         y="1555"
         href="#P9"
         id="use210" /><use
         x="3988"
         y="1955"
         href="#P1"
         id="use211" /><use
         x="3915"
         y="2445"
         href="#P5"
         id="use212" /><use
         x="4182"
         y="2764"
         href="#P6"
         id="use213" /><use
         x="3896"
         y="3032"
         href="#P7"
         id="use214" /><use
         x="3990"
         y="3221"
         href="#P7"
         id="use215" /><use
         x="3893"
         y="3807"
         href="#P0"
         id="use216" /><use
         x="4149"
         y="4017"
         href="#P5"
         id="use217" /><use
         x="4200"
         y="4324"
         href="#P3"
         id="use218" /><use
         x="4213"
         y="4742"
         href="#P1"
         id="use219" /><use
         x="4207"
         y="4956"
         href="#P0"
         id="use220" /><use
         x="4049"
         y="5173"
         href="#P8"
         id="use221" /><use
         x="4222"
         y="77"
         href="#P5"
         id="use222" /><use
         x="4449"
         y="190"
         href="#P3"
         id="use223" /><use
         x="4469"
         y="617"
         href="#P5"
         id="use224" /><use
         x="4548"
         y="775"
         href="#P8"
         id="use225" /><use
         x="4512"
         y="1213"
         href="#P0"
         id="use226" /><use
         x="4474"
         y="1501"
         href="#P0"
         id="use227" /><use
         x="4233"
         y="1900"
         href="#P0"
         id="use228" /><use
         x="4373"
         y="2361"
         href="#P5"
         id="use229" /><use
         x="4287"
         y="2502"
         href="#P3"
         id="use230" /><use
         x="4238"
         y="3018"
         href="#P6"
         id="use231" /><use
         x="4313"
         y="3332"
         href="#P3"
         id="use232" /><use
         x="4241"
         y="3636"
         href="#P9"
         id="use233" /><use
         x="4227"
         y="3921"
         href="#P9"
         id="use234" /><use
         x="4391"
         y="4422"
         href="#P7"
         id="use235" /><use
         x="4267"
         y="4524"
         href="#P0"
         id="use236" /><use
         x="4345"
         y="4855"
         href="#P3"
         id="use237" /><use
         x="4513"
         y="5179"
         href="#P5"
         id="use238" /><use
         x="4613"
         y="-86"
         href="#P4"
         id="use239" /><use
         x="4740"
         y="185"
         href="#P1"
         id="use240" /><use
         x="4777"
         y="608"
         href="#P3"
         id="use241" /><use
         x="4825"
         y="982"
         href="#P4"
         id="use242" /><use
         x="4775"
         y="1307"
         href="#P2"
         id="use243" /><use
         x="4850"
         y="1761"
         href="#P7"
         id="use244" /><use
         x="4747"
         y="2021"
         href="#P0"
         id="use245" /><use
         x="4789"
         y="2315"
         href="#P8"
         id="use246" /><use
         x="4652"
         y="2794"
         href="#P9"
         id="use247" /><use
         x="4623"
         y="3026"
         href="#P5"
         id="use248" /><use
         x="4813"
         y="3302"
         href="#P8"
         id="use249" /><use
         x="4624"
         y="3750"
         href="#P9"
         id="use250" /><use
         x="4703"
         y="3866"
         href="#P7"
         id="use251" /><use
         x="4802"
         y="4328"
         href="#P6"
         id="use252" /><use
         x="4745"
         y="4812"
         href="#P4"
         id="use253" /><use
         x="4576"
         y="5136"
         href="#P3"
         id="use254" /><use
         x="4745"
         y="5298"
         href="#P7"
         id="use255" /><use
         x="4945"
         y="-201"
         href="#P9"
         id="use256" /><use
         x="5098"
         y="145"
         href="#P5"
         id="use257" /><use
         x="5011"
         y="554"
         href="#P3"
         id="use258" /><use
         x="5036"
         y="837"
         href="#P3"
         id="use259" /><use
         x="5035"
         y="1167"
         href="#P9"
         id="use260" /><use
         x="4917"
         y="1452"
         href="#P2"
         id="use261" /><use
         x="5089"
         y="2074"
         href="#P9"
         id="use262" /><use
         x="5067"
         y="2226"
         href="#P0"
         id="use263" /><use
         x="5096"
         y="2778"
         href="#P7"
         id="use264" /><use
         x="5055"
         y="3096"
         href="#P9"
         id="use265" /><use
         x="4960"
         y="3193"
         href="#P1"
         id="use266" /><use
         x="5062"
         y="3520"
         href="#P1"
         id="use267" /><use
         x="5108"
         y="3927"
         href="#P1"
         id="use268" /><use
         x="5014"
         y="4393"
         href="#P8"
         id="use269" /><use
         x="4975"
         y="4658"
         href="#P1"
         id="use270" /><use
         x="5222"
         y="5132"
         href="#P7"
         id="use271" /><use
         x="5118"
         y="5396"
         href="#P1"
         id="use272" /></g></g><g
     id="g2"
     style="stroke-width:5;stroke-dasharray:none"><path
       id="rect3"
       style="opacity:0.15;fill:url(#linearGradient5);stroke:#114b5f;stroke-width:0;filter:url(#filter5)"
       d="m 71.316658,86.443413 c 86.328552,131.521507 157.272732,1.51039 157.273692,1.969656 l 0.44091,211.704771 H 71.316658 c 0,0 -2.158137,-216.962347 0,-213.674427 z"
       sodipodi:nodetypes="ssccs" /><ellipse
       rx="79.20593"
       ry="79.20593"
       transform="matrix(1 0 0 0.823721 150 71.131809)"
       fill="none"
       stroke="#114b5f"
       stroke-width="3"
       id="ellipse1"
       style="stroke-width:5.50909086;stroke-dasharray:none" /><path
       d="M77.258101,134.710412v160.049413"
       transform="matrix(1 0 0 1.429985-6.464031-121.502057)"
       fill="none"
       stroke="#114b5f"
       stroke-width="3"
       id="path1"
       style="stroke-width:4.18123198;stroke-dasharray:none" /><path
       d="M235.669961,134.710413v160.049413"
       transform="matrix(-1 0 0 1.429985 464.875891-121.502058)"
       fill="none"
       stroke="#114b5f"
       stroke-width="3"
       id="path2"
       style="stroke-width:4.18123198;stroke-dasharray:none" /></g></svg>
