<?xml version="1.0" encoding="UTF-8" standalone="no"?>
<svg
   id="eiDkhR7FfJs1"
   viewBox="0 0 300 300"
   shape-rendering="geometricPrecision"
   text-rendering="geometricPrecision"
   version="1.1"
   sodipodi:docname="roundBase.svg"
   inkscape:version="1.3.2 (091e20ef0f, 2023-11-25)"
   xmlns:inkscape="http://www.inkscape.org/namespaces/inkscape"
   xmlns:sodipodi="http://sodipodi.sourceforge.net/DTD/sodipodi-0.dtd"
   xmlns="http://www.w3.org/2000/svg"
   xmlns:svg="http://www.w3.org/2000/svg">
  <defs
     id="defs3">
    <inkscape:path-effect
       effect="spiro"
       id="path-effect24"
       is_visible="true"
       lpeversion="1" />
    <inkscape:path-effect
       effect="spiro"
       id="path-effect23"
       is_visible="true"
       lpeversion="1" />
    <inkscape:path-effect
       effect="spiro"
       id="path-effect22"
       is_visible="true"
       lpeversion="1" />
    <inkscape:path-effect
       effect="spiro"
       id="path-effect24-5"
       is_visible="true"
       lpeversion="1" />
    <clipPath
       clipPathUnits="userSpaceOnUse"
       id="clipPath8">
      <path
         style="display:inline;fill:none;fill-opacity:1;stroke:none;stroke-width:2;stroke-linejoin:bevel;stroke-dashoffset:13;stroke-opacity:0.503085"
         d="m 69.967773,208.37882 -37.5,-13.25683 c 0,0 -47.361328,91.76562 59.691406,135.49414 107.052731,43.72851 115.141601,12.11816 142.739261,-14.40528 27.59765,-26.52343 68.833,-112.52246 39.39941,-120.00879 -29.43359,-7.48632 -43.91894,12.94336 -43.91894,12.94336 0,0 14.58007,20.44825 -9.7129,60.0752 -24.29296,39.62695 -93.65332,28.16406 -93.65332,28.16406 0,0 -32.128901,-10.01367 -46.95605,-26.81738 C 65.229492,253.76359 61.891601,212.57706 69.967773,208.37882 Z"
         id="path8"
         inkscape:label="base clip" />
    </clipPath>
  </defs>
  <sodipodi:namedview
     id="namedview3"
     pagecolor="#ffffff"
     bordercolor="#000000"
     borderopacity="0.25"
     inkscape:showpageshadow="2"
     inkscape:pageopacity="0.0"
     inkscape:pagecheckerboard="0"
     inkscape:deskcolor="#d1d1d1"
     inkscape:zoom="4"
     inkscape:cx="144.5"
     inkscape:cy="140.75"
     inkscape:window-width="2486"
     inkscape:window-height="1376"
     inkscape:window-x="0"
     inkscape:window-y="0"
     inkscape:window-maximized="1"
     inkscape:current-layer="eiDkhR7FfJs1" />
  <g
     id="g3"
     transform="translate(0,-72.652264)"
     style="display:inline"
     clip-path="url(#clipPath8)">
    <ellipse
       style="display:inline;fill:#028090;stroke:none;stroke-width:2.54617;stroke-linejoin:bevel;stroke-dashoffset:13;stroke-opacity:0.503085"
       id="path1-3-6-7"
       cx="149.7598"
       cy="230.67418"
       rx="116.9948"
       ry="97.871918" />
    <ellipse
       style="display:inline;fill:none;stroke:#114b5f;stroke-width:3;stroke-linejoin:bevel;stroke-dashoffset:13;stroke-opacity:0.40354836;stroke-dasharray:none"
       id="path1-3-6"
       cx="149.75362"
       cy="230.67201"
       rx="115.73071"
       ry="96.611511" />
    <ellipse
       style="display:inline;fill:none;stroke:#114b5f;stroke-width:3;stroke-linejoin:bevel;stroke-dashoffset:13;stroke-opacity:0.59813672;stroke-dasharray:none"
       id="path1-3"
       cx="149.75327"
       cy="230.67192"
       rx="105.36581"
       ry="87.569946" />
    <ellipse
       style="display:inline;fill:none;stroke:#114b5f;stroke-width:3;stroke-linejoin:bevel;stroke-dashoffset:13;stroke-opacity:0.79834419;stroke-dasharray:none"
       id="path1"
       cx="149.75287"
       cy="230.67154"
       rx="95.346367"
       ry="78.901749" />
  </g>
  <path
     d="M 74.268417,-27.922923 C 77.597751,-19.172906 79.20593,-9.918434 79.20593,0 79.20593,43.744227 43.744227,79.20593 0,79.20593 -43.744227,79.20593 -79.20593,43.744227 -79.20593,0 c 0,-9.828516 1.66545,-19.238915 4.937513,-27.922923"
     transform="matrix(1.066482,0,0,0.878485,150,157.76652)"
     fill="none"
     stroke="#114b5f"
     stroke-width="3"
     id="path3"
     style="display:inline;stroke-width:5.1698;stroke-dasharray:none" />
  <path
     style="display:none;fill:none;fill-opacity:1;stroke:#114b5f;stroke-width:3;stroke-linejoin:bevel;stroke-dasharray:none;stroke-dashoffset:13;stroke-opacity:0.798344"
     d="m 69.207031,137.28711 -41.850586,-1.26172 c 0,0 16.783203,-83.750976 120.493165,-82.964843 103.70996,0.786133 124.85351,86.333983 124.85351,86.333983 l -42.61328,-3.66699 c 0,0 11.91504,33.31933 -9.88183,60.55566 -21.79688,27.23633 -59.2168,30.65723 -59.2168,30.65723 0,0 -34.12207,3.42383 -56.36719,-10.07422 -22.245114,-13.49805 -38.043942,-37.54687 -38.018551,-50.3457 0.02539,-12.79883 2.601562,-29.2334 2.601562,-29.2334 z"
     id="path6"
     inkscape:label="background clip" />
</svg>
