<?xml version="1.0" encoding="UTF-8" standalone="no"?>
<svg
   version="1.0"
   width="900.000000pt"
   height="900.000000pt"
   viewBox="0 0 900.000000 900.000000"
   preserveAspectRatio="xMidYMid meet"
   id="svg6"
   sodipodi:docname="atYHPe01.svg"
   inkscape:version="1.3.2 (091e20ef0f, 2023-11-25)"
   xmlns:inkscape="http://www.inkscape.org/namespaces/inkscape"
   xmlns:sodipodi="http://sodipodi.sourceforge.net/DTD/sodipodi-0.dtd"
   xmlns="http://www.w3.org/2000/svg"
   xmlns:svg="http://www.w3.org/2000/svg">
  <defs
     id="defs6" />
  <sodipodi:namedview
     id="namedview6"
     pagecolor="#ffffff"
     bordercolor="#000000"
     borderopacity="0.25"
     inkscape:showpageshadow="2"
     inkscape:pageopacity="0.0"
     inkscape:pagecheckerboard="0"
     inkscape:deskcolor="#d1d1d1"
     inkscape:document-units="pt"
     inkscape:zoom="0.995"
     inkscape:cx="600"
     inkscape:cy="600"
     inkscape:window-width="2486"
     inkscape:window-height="1376"
     inkscape:window-x="0"
     inkscape:window-y="0"
     inkscape:window-maximized="1"
     inkscape:current-layer="svg6" />
  <metadata
     id="metadata1">
Created by potrace 1.10, written by Peter Selinger 2001-2011
</metadata>
  <g
     transform="translate(0.000000,900.000000) scale(0.100000,-0.100000)"
     fill="#000000"
     stroke="none"
     id="g6"
     style="fill:#e4fde1;fill-opacity:1">
    <path
       d="M4265 7870 c-33 -4 -96 -10 -140 -14 -174 -16 -542 -96 -653 -142 -18 -8 -39 -14 -47 -14 -8 0 -29 -6 -47 -14 -18 -8 -53 -22 -78 -31 -90 -34 -123 -48 -280 -125 -58 -28 -123 -61 -145 -73 -22 -13 -56 -32 -75 -42 -19 -11 -63 -39 -98 -62 -35 -24 -65 -43 -67 -43 -5 0 -147 -101 -155 -110 -3 -3 -34 -28 -70 -55 -186 -140 -469 -437 -614 -643 -68 -98 -122 -178 -129 -192 -4 -8 -16 -28 -27 -45 -56 -88 -162 -298 -221 -438 -28 -67 -57 -137 -65 -155 -8 -18 -14 -39 -14 -47 0 -8 -6 -29 -14 -47 -21 -50 -64 -209 -89 -328 -9 -41 -23 -107 -32 -146 -8 -40 -15 -85 -15 -101 0 -16 -7 -74 -15 -129 -21 -137 -21 -704 0 -819 8 -44 15 -95 15 -114 0 -18 7 -65 15 -105 9 -39 23 -105 32 -146 8 -41 22 -97 29 -125 36 -126 47 -162 60 -193 8 -18 14 -39 14 -47 0 -8 6 -29 14 -47 8 -18 22 -53 31 -78 41 -107 153 -337 212 -438 24 -41 43 -75 43 -77 0 -8 127 -195 184 -270 224 -299 558 -611 861 -805 205 -131 423 -243 615 -315 25 -9 60 -23 78 -31 18 -8 39 -14 47 -14 8 0 29 -6 47 -14 32 -13 79 -27 198 -59 114 -30 240 -53 475 -88 120 -18 494 -23 616 -9 57 6 140 16 183 20 44 5 100 13 125 19 25 5 73 15 106 21 92 18 134 28 210 51 39 11 86 24 105 29 44 11 203 66 227 79 10 5 58 26 106 46 86 35 277 131 347 174 19 11 42 24 50 28 8 4 43 26 78 50 35 24 65 43 68 43 6 0 237 174 278 210 98 83 132 115 236 220 107 107 169 178 279 319 44 57 202 294 214 321 4 8 16 29 27 45 19 29 140 271 165 330 7 17 20 46 28 65 14 33 26 63 61 158 8 20 22 64 31 97 10 33 24 78 31 100 131 423 167 1040 88 1535 -8 52 -21 124 -29 160 -9 36 -15 72 -15 81 0 9 -7 41 -16 70 -8 30 -22 79 -30 109 -8 30 -20 69 -26 85 -5 17 -13 44 -18 60 -5 17 -18 55 -30 85 -12 30 -25 66 -30 80 -19 60 -132 305 -170 370 -137 235 -157 266 -281 430 -102 136 -275 327 -384 425 -115 103 -115 103 -180 153 -33 25 -62 49 -65 52 -12 12 -288 200 -295 200 -2 0 -36 19 -77 43 -114 67 -313 161 -448 212 -25 9 -60 23 -78 31 -18 8 -39 14 -47 14 -8 0 -29 6 -47 14 -118 49 -415 113 -683 147 -110 13 -508 20 -590 9z m490 -335 c215 -20 366 -46 540 -92 65 -18 247 -76 292 -94 183 -74 397 -181 501 -250 24 -16 45 -29 47 -29 6 0 135 -89 204 -142 167 -126 424 -380 544 -538 41 -54 180 -259 190 -280 4 -8 16 -28 27 -45 10 -16 31 -52 45 -80 14 -27 30 -57 35 -65 5 -8 11 -22 14 -30 3 -8 10 -22 14 -30 62 -109 154 -357 205 -555 36 -139 77 -355 77 -407 0 -31 6 -42 38 -65 151 -113 250 -277 252 -419 0 -43 -16 -54 -81 -54 -64 0 -74 8 -85 65 -19 105 -128 238 -244 299 -93 48 -258 72 -325 46 -39 -15 -43 11 -10 73 33 64 59 139 79 234 54 246 -49 547 -252 741 -186 177 -447 269 -686 242 -141 -16 -291 -65 -379 -123 -32 -22 -54 -17 -66 15 -5 13 -17 43 -26 68 -32 84 -90 200 -102 204 -6 3 -31 -10 -55 -28 -24 -18 -96 -71 -160 -119 -65 -48 -118 -94 -118 -102 0 -9 14 -41 30 -72 17 -31 30 -59 30 -64 0 -4 5 -20 12 -36 46 -112 71 -297 57 -438 -12 -132 -38 -222 -102 -355 -28 -58 -82 -147 -97 -160 -3 -3 -25 -29 -49 -58 -119 -144 -322 -264 -533 -316 -92 -22 -344 -22 -436 0 -181 44 -338 126 -464 243 -42 39 -84 71 -93 71 -9 0 -33 -12 -53 -27 -20 -15 -59 -43 -87 -63 -27 -20 -84 -62 -126 -93 -46 -35 -85 -57 -101 -57 -35 0 -88 60 -88 99 0 35 14 47 211 195 l146 108 -37 75 c-49 96 -76 184 -95 311 -16 103 -15 109 11 302 10 68 53 192 97 279 26 52 27 55 10 70 -25 23 -154 127 -222 179 -89 68 -121 103 -121 132 0 33 24 66 61 86 34 17 56 13 91 -19 53 -48 298 -237 308 -237 3 0 33 26 65 58 101 97 241 186 370 234 155 59 395 70 565 28 189 -48 308 -113 452 -248 49 -45 83 -70 91 -66 31 19 326 244 332 254 8 13 -61 98 -154 190 -69 68 -190 163 -276 217 -94 58 -261 133 -345 153 -19 5 -55 14 -80 20 -25 6 -65 16 -90 22 -80 20 -391 22 -499 4 -172 -30 -390 -103 -494 -166 -17 -11 -39 -23 -47 -26 -61 -27 -341 -245 -352 -273 -2 -5 -21 -29 -43 -53 -61 -65 -127 -155 -177 -239 -51 -86 -108 -203 -108 -222 0 -7 -4 -17 -8 -22 -10 -11 -42 -116 -68 -220 -14 -54 -18 -120 -20 -295 -1 -124 -2 -226 -3 -228 -1 -1 -25 14 -53 34 -148 101 -342 125 -493 59 -16 -7 -37 -16 -45 -19 -20 -8 -46 -25 -95 -61 -105 -77 -179 -188 -220 -328 -17 -58 -17 -198 1 -286 l7 -33 -50 7 c-58 8 -157 -9 -223 -38 -55 -25 -157 -124 -166 -163 -12 -51 -31 -64 -93 -64 -81 0 -86 6 -70 71 24 99 112 206 216 261 l41 22 11 115 c13 137 37 286 57 357 8 28 14 59 14 70 0 10 6 39 14 64 8 25 29 90 46 145 36 115 50 153 104 278 16 35 112 230 130 262 212 378 482 687 825 944 146 109 193 140 288 192 26 15 64 36 83 47 91 54 258 127 448 196 116 42 317 92 482 120 263 45 507 54 755 31z m-154 -3431 c27 -9 52 -20 55 -25 3 -5 614 -9 1415 -9 1302 0 1410 -1 1416 -17 6 -15 -16 -158 -39 -253 -6 -25 -14 -63 -19 -85 -11 -54 -29 -123 -44 -165 -7 -19 -20 -60 -29 -90 -51 -161 -178 -437 -281 -608 -221 -367 -535 -694 -915 -954 -36 -24 -72 -47 -80 -51 -8 -4 -42 -23 -75 -42 -80 -47 -301 -155 -395 -193 -361 -147 -771 -220 -1170 -209 -370 11 -670 66 -960 177 -30 12 -66 25 -80 29 -68 22 -338 156 -425 212 -16 10 -37 22 -45 26 -25 12 -142 93 -260 182 -270 202 -616 595 -769 873 -13 24 -36 66 -51 93 -39 70 -64 120 -95 190 -14 33 -32 74 -39 90 -33 73 -68 170 -91 250 -9 33 -23 78 -30 100 -7 22 -19 74 -28 115 -9 41 -23 107 -31 145 -9 39 -17 95 -18 125 l-3 55 540 3 c297 1 546 0 554 -3 10 -4 -3 -21 -42 -55 -37 -34 -66 -71 -87 -115 -54 -111 -147 -100 830 -103 470 -1 865 0 876 3 18 4 23 15 29 62 23 189 206 305 386 247z"
       id="path1"
       style="fill:#e4fde1;fill-opacity:1" />
    <path
       d="M4210 6300 c-82 -21 -196 -65 -221 -87 -8 -7 -19 -13 -23 -13 -7 0 -59 -35 -82 -55 -6 -5 -34 -30 -63 -53 -65 -56 -66 -78 -7 -120 24 -17 77 -60 119 -94 138 -115 156 -128 176 -128 12 0 21 4 21 10 0 19 119 78 191 94 97 23 199 6 296 -49 25 -14 54 -25 65 -25 17 0 328 226 342 248 6 11 -66 83 -134 135 -65 49 -202 112 -297 136 -108 27 -275 28 -383 1z"
       id="path2"
       style="fill:#e4fde1;fill-opacity:1" />
    <path
       d="M3636 5845 c-9 -13 -16 -29 -16 -34 0 -5 -6 -22 -14 -38 -33 -65 -66 -228 -66 -324 0 -130 65 -354 111 -382 12 -8 26 -3 57 19 161 115 232 167 262 193 l35 29 0 143 0 144 -34 30 c-19 16 -58 48 -86 70 -90 69 -193 154 -200 165 -11 17 -32 11 -49 -15z"
       id="path3"
       style="fill:#e4fde1;fill-opacity:1" />
    <path
       d="M4948 5749 c-96 -73 -158 -126 -158 -137 0 -9 7 -47 17 -83 16 -62 16 -70 -1 -140 -20 -87 -39 -129 -84 -186 -83 -106 -219 -161 -367 -148 -72 7 -163 44 -207 84 -12 12 -27 21 -33 21 -10 0 -175 -118 -264 -188 -18 -15 -44 -32 -56 -39 -41 -23 -37 -39 28 -100 109 -102 247 -170 420 -208 125 -28 306 -14 432 32 58 22 165 74 199 98 120 83 234 212 287 325 69 148 82 208 82 370 0 147 -8 196 -50 305 -39 100 -48 114 -68 114 -11 0 -91 -54 -177 -120z"
       id="path4"
       style="fill:#e4fde1;fill-opacity:1" />
    <path
       d="M4375 5705 c-5 -2 -28 -9 -51 -14 -50 -13 -115 -68 -143 -121 -28 -55 -29 -165 -2 -218 41 -79 140 -142 225 -142 77 0 174 57 218 128 19 31 23 50 23 122 -1 79 -3 88 -33 132 -38 54 -87 87 -157 105 -52 13 -63 14 -80 8z"
       id="path5"
       style="fill:#e4fde1;fill-opacity:1" />
    <path
       d="M4439 3950 c-59 -31 -69 -65 -69 -239 l0 -151 -26 -10 c-15 -6 -46 -15 -71 -20 -24 -6 -51 -14 -61 -19 -9 -4 -35 -16 -57 -27 -153 -70 -293 -212 -362 -364 -45 -99 -53 -122 -53 -148 0 -59 -5 -60 -240 -64 -239 -3 -251 -6 -284 -76 -21 -44 -20 -68 5 -108 39 -63 42 -64 274 -64 115 0 215 -4 222 -8 7 -4 17 -28 22 -52 41 -173 166 -352 312 -446 65 -42 82 -53 99 -60 8 -3 29 -12 45 -19 52 -22 129 -45 153 -45 l22 0 0 -186 c0 -152 3 -192 16 -220 18 -37 76 -74 115 -74 27 0 96 38 106 59 4 9 10 103 13 210 4 159 8 195 20 201 8 4 42 16 75 26 147 44 239 100 351 211 88 88 137 173 184 318 l26 80 225 5 c243 5 255 8 285 65 27 52 12 116 -36 160 -20 19 -39 20 -247 23 l-224 4 -10 26 c-6 15 -17 50 -24 78 -50 192 -205 374 -395 465 -25 12 -52 25 -61 29 -8 4 -44 15 -79 24 -35 9 -69 21 -77 27 -10 9 -13 50 -13 168 0 175 -6 196 -60 223 -45 22 -77 22 -121 -2z m-9 -914 c0 -147 -3 -186 -14 -195 -22 -18 -29 -66 -16 -106 12 -37 62 -75 100 -75 28 0 87 35 100 60 15 29 12 106 -5 120 -12 10 -15 44 -15 191 0 105 4 180 10 184 12 8 90 -14 111 -32 8 -7 19 -13 23 -13 11 0 85 -59 118 -95 16 -16 45 -64 65 -105 35 -72 36 -80 36 -180 0 -98 -2 -110 -31 -171 -55 -115 -149 -200 -266 -244 -70 -25 -223 -26 -291 0 -258 97 -372 360 -261 605 52 115 208 234 314 239 l22 1 0 -184z"
       id="path6"
       style="fill:#e4fde1;fill-opacity:1" />
  </g>
</svg>
