<?xml version="1.0" encoding="UTF-8" standalone="no"?>
<svg
   version="1.0"
   width="300.000000pt"
   height="300.000000pt"
   viewBox="0 0 300.000000 300.000000"
   preserveAspectRatio="xMidYMid meet"
   id="svg6"
   sodipodi:docname="weeds1.svg"
   inkscape:version="1.3 (0e150ed6c4, 2023-07-21)"
   xmlns:inkscape="http://www.inkscape.org/namespaces/inkscape"
   xmlns:sodipodi="http://sodipodi.sourceforge.net/DTD/sodipodi-0.dtd"
   xmlns:xlink="http://www.w3.org/1999/xlink"
   xmlns="http://www.w3.org/2000/svg"
   xmlns:svg="http://www.w3.org/2000/svg">
  <defs
     id="defs6">
    <linearGradient
       id="linearGradient1"
       inkscape:collect="always">
      <stop
         style="stop-color:#114b5f;stop-opacity:1;"
         offset="0"
         id="stop1" />
      <stop
         style="stop-color:#028090;stop-opacity:1;"
         offset="1"
         id="stop2" />
    </linearGradient>
    <linearGradient
       inkscape:collect="always"
       xlink:href="#linearGradient1"
       id="linearGradient2"
       x1="2804.8955"
       y1="914.06458"
       x2="2797.979"
       y2="530.95312"
       gradientUnits="userSpaceOnUse" />
  </defs>
  <sodipodi:namedview
     id="namedview6"
     pagecolor="#ffffff"
     bordercolor="#000000"
     borderopacity="0.25"
     inkscape:showpageshadow="2"
     inkscape:pageopacity="0.0"
     inkscape:pagecheckerboard="0"
     inkscape:deskcolor="#d1d1d1"
     inkscape:document-units="pt"
     inkscape:zoom="2.94"
     inkscape:cx="199.82993"
     inkscape:cy="200"
     inkscape:window-width="2486"
     inkscape:window-height="1376"
     inkscape:window-x="0"
     inkscape:window-y="0"
     inkscape:window-maximized="1"
     inkscape:current-layer="svg6" />
  <metadata
     id="metadata1">&#10;Created by potrace 1.10, written by Peter Selinger 2001-2011&#10;</metadata>
  <g
     transform="translate(0.000000,300.000000) scale(0.050000,-0.050000)"
     fill="#000000"
     stroke="none"
     id="g6"
     style="fill:url(#linearGradient2);fill-opacity:1">
    <path
       d="M2705 5469 c0 -27 6 -49 14 -49 17 0 61 -91 61 -125 0 -13 -39 15 -86 61 -47 46 -95 84 -107 84 -19 0 -55 -81 -41 -91 2 -2 31 -19 64 -37 l60 -34 -59 9 c-65 10 -121 -32 -104 -77 9 -24 22 -25 59 -8 37 17 65 14 126 -14 l78 -35 -120 -19 c-142 -23 -124 -12 -141 -79 -11 -47 -7 -55 29 -55 23 0 42 -9 42 -20 0 -42 51 -17 84 40 51 90 165 87 205 -5 334 -761 568 -1800 465 -2065 l-31 -80 -2 94 c-4 288 -89 646 -210 883 -85 165 -88 177 -46 166 66 -16 107 13 70 49 -16 16 -25 38 -21 50 4 12 -4 22 -18 22 -14 1 -48 6 -76 11 -29 6 -61 -1 -76 -17 -14 -16 -18 -28 -10 -28 9 0 4 -9 -12 -18 -22 -14 -19 -22 15 -41 24 -12 43 -16 43 -9 0 7 41 -68 90 -166 174 -346 276 -984 192 -1196 l-40 -100 -1 120 c-1 66 -9 132 -18 146 -9 14 -12 -46 -7 -133 8 -139 1 -182 -56 -356 -81 -247 -92 -257 -110 -114 -19 157 -98 464 -147 576 l-41 91 60 144 c32 79 99 218 149 309 90 164 84 212 -9 77 -66 -97 -66 -97 -136 165 -95 354 -95 355 -48 446 47 90 56 137 12 59 -25 -44 -29 -45 -29 -10 -1 103 45 171 65 95 7 -26 10 -23 12 11 1 37 10 44 40 35 58 -19 69 21 19 67 -30 29 -61 38 -100 31 -67 -11 -61 40 6 58 57 15 35 62 -32 70 -76 8 -113 -30 -65 -67 34 -24 34 -32 8 -83 -38 -72 -44 -123 -25 -191 28 -103 -3 -106 -64 -7 l-62 99 58 36 c33 19 59 51 59 70 0 30 -4 29 -29 -5 -29 -38 -30 -38 -30 4 -1 35 -11 42 -56 37 -55 -6 -125 45 -125 90 0 12 -8 17 -19 11 -10 -6 -23 -3 -30 7 -14 24 -91 4 -91 -24 0 -11 -6 -15 -12 -8 -28 27 -70 -44 -50 -83 11 -21 14 -45 6 -54 -8 -8 4 -9 26 0 124 47 150 49 171 10 15 -29 14 -39 -5 -39 -18 -1 -17 -6 4 -20 18 -12 21 -20 6 -20 -13 0 -33 16 -44 35 -12 19 -21 24 -21 10 -1 -14 -19 -25 -41 -25 -22 0 -40 -10 -40 -21 0 -13 -18 -16 -45 -7 -38 12 -41 9 -20 -16 14 -16 18 -36 10 -44 -19 -20 36 -51 90 -52 25 0 45 -8 45 -19 0 -28 -36 -44 -49 -22 -15 23 -67 7 -119 -37 -35 -30 -36 -29 -24 11 8 24 4 49 -7 56 -12 8 -21 2 -21 -12 0 -14 -14 -8 -31 14 -22 28 -35 32 -42 14 -6 -14 -21 -25 -34 -26 -37 -1 -92 -89 -74 -118 12 -19 49 -23 132 -15 73 7 106 4 88 -7 -16 -10 -21 -19 -12 -19 10 0 8 -12 -5 -28 -18 -21 -16 -30 9 -40 48 -18 63 -14 29 8 -26 17 -26 19 3 20 17 0 44 14 58 31 22 27 32 24 82 -24 78 -75 71 -99 -14 -49 -83 49 -91 50 -84 17 3 -14 41 -38 84 -55 89 -34 88 -32 141 -330 17 -99 37 -206 43 -238 11 -55 7 -54 -146 63 -389 298 -465 428 -467 800 0 58 -9 105 -20 105 -38 0 -8 -273 52 -468 7 -23 6 -35 -3 -27 -15 14 -201 430 -222 495 -5 18 47 96 127 189 75 88 125 152 111 144 -33 -20 -32 -12 15 97 24 57 48 87 62 79 36 -22 177 -28 189 -7 6 10 -5 18 -25 19 -34 0 -34 1 -1 21 43 24 46 58 6 58 -18 0 -25 12 -18 30 7 19 -1 30 -21 30 -18 0 -30 11 -27 25 3 17 -23 26 -80 27 -47 1 -85 -5 -85 -13 0 -9 -18 -11 -40 -5 -44 12 -53 -13 -16 -50 36 -36 8 -48 -50 -22 -35 16 -47 33 -39 55 11 29 8 29 -21 6 -31 -25 -34 -21 -34 41 0 63 6 71 75 87 86 22 123 129 44 129 -22 0 -39 14 -39 30 0 36 -40 41 -41 5 0 -14 -10 -8 -22 12 -18 31 -25 33 -39 10 -15 -23 -21 -22 -37 2 -16 25 -25 23 -57 -15 -21 -24 -53 -44 -71 -44 -50 0 -39 -38 15 -51 28 -7 46 -26 45 -46 -2 -24 12 -32 52 -29 41 3 55 -6 55 -33 0 -48 -59 -72 -62 -25 0 19 -5 24 -11 10 -5 -14 -41 -31 -78 -38 -38 -7 -69 -20 -69 -30 0 -10 -10 -18 -21 -18 -12 0 -16 9 -9 20 7 11 3 20 -9 20 -11 0 -21 -10 -21 -22 0 -16 -9 -15 -30 2 -25 21 -30 19 -30 -12 0 -54 -48 2 -78 92 -22 64 -20 73 22 105 83 63 96 76 96 96 0 10 -13 19 -30 19 -16 0 -30 11 -30 25 0 31 -118 42 -151 14 -14 -11 -37 -18 -52 -15 -17 4 -25 -10 -22 -39 2 -25 -2 -43 -10 -40 -19 6 -105 -79 -105 -104 0 -11 -15 -14 -33 -7 -26 10 -31 5 -20 -23 10 -27 6 -33 -19 -23 -25 10 -29 4 -18 -23 8 -19 15 -47 16 -61 0 -19 23 -22 84 -13 74 11 87 7 117 -39 32 -50 24 -63 -32 -54 -8 1 -15 -11 -15 -28 0 -16 -14 -30 -31 -30 -17 0 -26 -9 -19 -20 7 -11 5 -20 -4 -20 -9 0 -17 -23 -19 -50 -3 -55 12 -63 52 -25 22 20 24 20 11 -3 -13 -23 -8 -25 22 -11 48 23 259 15 309 -11 37 -20 229 -397 211 -414 -6 -7 -346 150 -411 189 -4 3 2 16 15 29 32 32 30 56 -4 56 -19 0 -25 15 -17 45 8 36 5 40 -16 21 -20 -20 -31 -17 -52 10 -17 23 -26 26 -26 8 -1 -18 -15 -22 -41 -14 -24 8 -40 4 -40 -10 0 -12 -7 -18 -16 -12 -33 20 -88 -69 -63 -100 17 -20 18 -28 1 -28 -31 0 -28 -34 5 -46 14 -6 70 -2 124 8 95 18 105 15 342 -104 l244 -123 51 -119 c29 -65 52 -123 52 -128 0 -5 -58 40 -129 101 -140 118 -240 178 -277 165 -13 -4 13 -27 58 -50 46 -23 154 -109 241 -191 l159 -150 83 -246 c195 -579 354 -1339 338 -1614 -6 -95 -11 -203 -11 -239 -1 -60 -4 -63 -41 -40 -41 26 -52 72 -44 189 2 35 -5 70 -16 77 -33 20 -24 113 14 144 32 26 32 27 -8 16 -40 -11 -46 -1 -67 104 -12 64 -44 194 -71 290 -54 190 -50 226 22 245 84 21 57 56 -31 41 -79 -13 -100 2 -58 44 15 15 10 29 -18 49 -21 15 -60 82 -87 148 -110 271 -317 567 -317 452 0 -28 17 -51 49 -63 51 -19 272 -436 303 -570 l14 -60 -43 38 c-27 24 -44 64 -46 110 -2 49 -5 57 -11 26 -8 -40 -14 -43 -41 -20 -28 23 -29 21 -8 -18 34 -63 29 -159 -9 -174 -45 -17 -52 -15 -36 11 10 16 3 19 -21 10 -28 -11 -34 -5 -26 24 16 60 -15 97 -53 64 -38 -31 -42 -74 -7 -87 14 -5 19 -15 12 -23 -8 -8 -32 -5 -54 7 -22 12 -54 16 -72 10 -42 -17 -40 -67 4 -70 90 -6 105 -9 106 -28 1 -11 -35 -29 -80 -41 -64 -16 -77 -25 -57 -45 19 -19 19 -24 -1 -24 -14 0 -20 -8 -14 -19 18 -28 94 -15 155 26 104 70 186 -18 103 -111 -36 -40 -36 -41 5 -28 38 12 45 1 65 -101 40 -201 34 -234 -36 -198 -96 50 -95 36 7 -67 61 -62 92 -109 84 -125 -7 -15 -27 -49 -42 -77 -44 -74 -37 -155 17 -209 l48 -47 -95 -7 -95 -7 -131 320 c-143 346 -162 407 -193 620 -11 77 -40 242 -65 366 -37 189 -40 233 -18 268 32 51 3 85 -56 67 -48 -16 -57 -71 -12 -71 22 0 30 -22 30 -81 0 -75 -3 -79 -42 -58 -51 28 -72 11 -38 -31 14 -17 41 -26 59 -20 31 9 123 -414 120 -551 0 -16 -65 97 -145 251 -79 154 -159 301 -178 327 -18 26 -29 59 -23 73 13 35 -24 55 -73 40 -26 -8 -40 -30 -40 -62 0 -43 5 -47 39 -29 34 19 48 4 123 -134 46 -85 116 -213 155 -285 42 -76 57 -119 37 -102 -57 45 -166 207 -190 282 -19 57 -22 60 -16 14 4 -35 -5 -61 -26 -73 -27 -15 -23 -22 23 -39 30 -12 55 -29 55 -39 0 -9 54 -76 120 -148 66 -72 138 -174 161 -228 34 -77 228 -550 273 -662 6 -14 -4 -25 -22 -25 -38 0 -253 440 -246 505 2 22 -7 45 -21 49 -31 11 -58 -53 -30 -71 22 -14 209 -405 199 -416 -21 -20 -170 232 -160 270 13 51 -35 60 -74 13 -20 -24 -19 -32 5 -41 17 -6 64 -61 106 -121 41 -61 98 -128 125 -149 28 -22 46 -42 42 -46 -4 -3 -78 -39 -163 -79 -134 -62 -222 -124 -120 -85 154 61 366 53 411 -16 54 -82 64 -141 21 -124 -103 42 -109 31 -23 -41 77 -65 102 -103 144 -227 65 -188 63 -188 -66 -19 -142 185 -154 160 -22 -47 58 -91 115 -181 128 -201 18 -29 14 -42 -17 -65 -35 -26 -22 -29 125 -29 l164 0 0 100 c0 55 9 100 19 100 35 0 64 -81 51 -141 l-13 -59 256 2 c293 2 327 8 327 54 -1 29 -3 30 -20 4 -17 -26 -19 -26 -20 3 0 18 14 38 30 44 17 7 30 34 30 61 0 27 8 54 17 60 10 6 23 38 30 72 7 33 21 60 33 60 24 0 27 -133 3 -148 -10 -6 -24 -49 -31 -96 -11 -64 -19 -78 -33 -56 -15 24 -18 21 -19 -15 0 -44 5 -45 190 -41 105 2 190 12 190 21 0 10 -9 12 -20 5 -29 -18 -25 37 5 70 21 24 20 24 -10 1 -60 -45 -64 -6 -8 79 58 87 77 99 72 45 -2 -19 -3 -78 -1 -130 l2 -95 190 0 c105 0 190 8 190 18 0 24 -52 42 -124 42 -51 0 -57 5 -37 29 30 36 177 66 401 82 214 15 361 55 437 119 32 28 73 50 91 50 41 0 42 32 0 48 -50 19 -68 14 -56 -16 15 -38 -101 -105 -244 -140 -111 -27 -445 -61 -426 -44 4 4 89 36 188 71 438 154 471 171 589 312 67 79 72 131 17 172 -25 19 -38 41 -30 50 29 28 114 -99 87 -131 -19 -23 -15 -25 23 -13 29 9 63 3 92 -16 53 -35 91 -19 86 37 -3 32 10 41 66 47 87 8 110 41 60 87 -47 44 -60 45 -60 6 0 -31 -63 -78 -133 -99 -37 -11 -42 -6 -33 28 7 26 -1 45 -22 53 -53 20 -36 48 30 48 54 0 59 4 38 30 -14 17 -17 30 -7 30 9 0 4 9 -13 19 -24 15 -25 24 -5 44 33 33 32 57 -5 57 -16 0 -35 -22 -42 -50 -7 -27 -20 -45 -30 -39 -10 6 -28 -14 -39 -45 -18 -46 -25 -51 -40 -24 -9 17 -38 29 -63 26 -25 -2 -67 -5 -92 -6 -29 -1 -41 -10 -33 -24 8 -12 3 -30 -11 -38 -17 -11 5 -29 68 -57 239 -106 77 -261 -477 -456 -110 -39 -234 -88 -275 -109 -93 -47 -93 -43 -8 77 37 52 86 132 109 178 39 77 52 86 187 126 224 65 248 84 96 72 -71 -5 -161 -15 -200 -22 -61 -10 -54 -3 58 59 71 39 148 89 172 112 23 22 66 40 95 40 29 0 58 9 65 20 7 11 -3 20 -23 20 -28 0 -23 12 23 60 32 33 69 60 82 60 14 0 29 11 33 25 6 18 31 12 91 -21 111 -61 200 -26 142 56 -17 24 -20 21 -12 -15 12 -52 -31 -60 -115 -22 -78 36 -20 97 92 97 23 0 37 10 32 25 -10 31 -95 46 -95 17 0 -52 -108 -79 -150 -38 -40 39 -40 39 17 85 41 33 50 50 33 61 -15 9 -33 2 -44 -17 -10 -18 -31 -33 -47 -33 -16 0 -29 -13 -29 -28 0 -16 -52 -74 -115 -130 -63 -56 -104 -102 -90 -102 14 0 25 -10 25 -21 0 -12 -17 -9 -41 8 -23 16 -60 24 -83 18 -40 -11 -40 -11 2 67 24 43 61 121 82 174 35 84 44 93 78 75 40 -21 37 -101 -4 -101 -11 0 -15 -6 -8 -13 7 -7 -14 -46 -47 -88 -79 -100 -76 -129 3 -33 35 42 67 71 73 65 19 -19 65 32 65 72 0 22 21 46 51 57 28 11 46 29 39 40 -7 11 6 39 29 64 23 24 41 55 41 69 0 27 49 17 94 -18 29 -22 -10 -113 -78 -189 -42 -45 -34 -86 15 -86 17 0 29 20 29 49 0 30 17 59 41 72 33 17 37 28 18 50 -22 27 -12 38 27 31 9 -1 30 11 46 28 29 28 -22 69 -88 70 -46 1 -67 37 -46 76 25 47 -10 89 -37 45 -11 -17 -20 -9 -30 22 -14 44 -16 44 -25 7 -6 -22 -19 -50 -29 -63 -12 -15 -11 -28 2 -36 34 -21 25 -62 -33 -149 -65 -100 -117 -118 -67 -23 14 26 13 36 -5 36 -97 -4 -115 5 -95 44 24 44 29 208 6 194 -9 -5 -60 -96 -115 -202 -97 -188 -100 -192 -113 -129 -11 51 -2 79 46 145 69 96 137 242 137 296 0 20 10 37 21 37 12 0 16 -9 9 -20 -7 -11 -2 -20 11 -20 13 0 50 -22 83 -50 32 -27 74 -50 93 -50 18 0 -10 29 -63 63 -103 68 -106 127 -4 80 74 -33 86 -29 83 27 -3 49 -93 79 -93 30 0 -11 -8 -20 -19 -20 -10 0 -15 18 -11 40 5 25 -7 50 -31 65 -45 29 -51 55 -11 55 15 0 38 14 52 30 20 25 19 30 -8 30 -20 0 -32 17 -33 45 0 39 -3 41 -25 13 -13 -17 -33 -28 -44 -25 -11 4 -38 -20 -59 -52 -41 -61 -103 -91 -122 -59 -23 36 -51 17 -38 -25 11 -34 7 -41 -19 -31 -17 7 -32 4 -32 -7 0 -10 9 -19 20 -19 42 0 17 -37 -60 -87 l-80 -53 38 95 c81 202 185 436 203 454 21 21 99 -41 99 -80 0 -53 59 -78 90 -37 37 49 37 68 1 68 -33 0 -71 59 -71 110 0 29 6 29 61 -4 53 -31 63 -32 80 -6 26 42 12 70 -36 70 -23 0 -48 7 -57 15 -8 8 4 15 26 15 30 0 40 12 37 45 -3 31 34 84 117 170 66 69 112 125 101 125 -12 0 -60 -40 -109 -90 -49 -49 -98 -90 -110 -90 -11 0 -37 -18 -55 -40 -19 -22 -47 -40 -61 -40 -15 0 -29 -11 -30 -25 -12 -90 -19 -115 -43 -144 -40 -48 -43 -29 -10 64 15 46 23 96 18 112 -6 15 3 33 20 40 17 6 31 31 31 55 0 38 -4 40 -33 15 -18 -15 -39 -24 -45 -21 -7 4 -17 -14 -23 -40 l-11 -46 -25 44 c-16 30 -34 40 -58 31 -21 -8 3 39 59 118 52 72 155 218 230 324 369 524 392 553 449 553 58 0 117 -63 117 -124 0 -38 30 -49 49 -18 6 10 29 14 51 8 68 -18 54 85 -15 110 -110 40 -143 79 -82 94 30 8 73 3 99 -11 34 -18 48 -19 54 -2 4 13 20 23 36 23 15 0 28 9 28 20 0 11 -9 20 -20 20 -11 0 -20 12 -20 28 0 20 -22 25 -90 17 -104 -12 -120 18 -31 58 76 34 89 82 28 111 -40 19 -51 16 -68 -16 -11 -21 -38 -38 -60 -38 -43 0 -52 39 -16 75 30 30 -28 90 -72 73 -23 -9 -29 -29 -21 -75 6 -35 2 -108 -7 -163 -10 -55 -19 -83 -21 -63 -3 50 -103 273 -122 273 -31 0 -80 -97 -54 -105 18 -6 16 -18 -6 -45 -28 -34 -27 -36 15 -25 33 8 57 -4 95 -48 83 -99 68 -142 -145 -422 -86 -113 -232 -315 -324 -450 -92 -135 -170 -242 -174 -239 -14 14 37 134 57 134 11 0 15 14 9 30 -7 17 -2 55 9 85 12 30 34 247 49 482 33 503 32 503 274 712 85 73 155 142 155 152 0 11 20 19 45 20 39 0 41 4 14 25 -17 13 -28 42 -25 64 3 22 -11 4 -32 -40 -34 -72 -222 -279 -222 -244 0 63 349 531 383 513 44 -24 54 36 13 77 -34 34 -76 30 -76 -8 0 -34 -422 -673 -436 -659 -4 5 15 79 43 165 28 86 61 195 73 242 12 48 28 101 35 119 7 19 4 26 -8 19 -21 -13 -4 142 23 211 9 21 5 35 -8 35 -12 0 -22 20 -22 45 -1 33 -5 38 -18 17 -13 -19 -38 -23 -90 -14 -82 16 -101 -18 -27 -47 41 -17 39 -19 -20 -20 -87 -1 -92 -61 -5 -61 69 0 69 3 30 -210 -16 -88 -29 -210 -29 -271 -1 -167 -65 -378 -166 -553 -50 -86 -123 -219 -162 -296 l-71 -140 -1 273 c-1 233 4 275 31 285 27 10 28 18 7 43 -59 71 -69 18 -64 -323 5 -340 -86 -841 -121 -668 -100 489 -246 991 -416 1429 -85 218 -98 328 -43 375 57 49 98 55 145 22 42 -30 44 -29 32 9 -9 27 -3 44 17 52 25 10 27 21 8 62 -32 69 -53 65 -162 -36 -52 -48 -95 -85 -95 -82 0 32 71 188 100 219 47 50 26 94 -48 102 -47 5 -52 -1 -52 -65 0 -86 -42 -82 -68 6 -25 81 -127 94 -127 16z m175 -190 c0 -33 -9 -59 -20 -59 -11 0 -20 32 -20 71 0 43 8 66 20 59 11 -7 20 -39 20 -71z m1220 -49 c0 -59 -51 -68 -65 -11 -7 27 -2 35 17 27 16 -5 28 0 28 12 0 12 5 22 10 22 6 0 10 -22 10 -50z m-13 -145 c-15 -114 -91 -428 -101 -418 -21 22 39 425 69 458 43 48 44 46 32 -40z m-2699 -129 c16 -58 27 -107 24 -111 -15 -15 -74 101 -64 126 5 15 2 33 -9 40 -24 15 -25 49 -1 49 11 0 33 -47 50 -104z m-50 -53 c11 -20 52 -75 91 -122 78 -94 85 -117 41 -134 -47 -18 -140 11 -115 36 14 14 33 14 62 -1 60 -33 78 -27 27 9 -24 17 -44 44 -44 60 0 16 -13 29 -30 29 -16 0 -30 11 -30 23 0 13 -6 18 -13 11 -18 -18 -66 48 -66 91 -1 46 52 45 77 -2z m704 -188 c-13 -43 -144 -314 -157 -322 -8 -5 -15 35 -15 89 0 54 6 98 13 98 7 0 18 15 25 32 9 23 4 29 -18 21 -16 -7 -30 -2 -30 9 0 11 -13 34 -30 51 -49 49 -36 84 35 92 64 7 185 -41 177 -70z m-303 20 c2 40 35 29 47 -15 11 -42 -33 -58 -56 -20 -18 30 -50 24 -50 -9 0 -15 -14 -42 -31 -59 -17 -18 -26 -41 -19 -52 21 -34 -14 -22 -42 15 -60 79 -36 170 42 161 40 -4 71 1 71 13 1 12 10 3 19 -19 9 -22 18 -29 19 -15z m105 -216 c24 -111 -4 -141 -36 -39 -34 111 -34 125 -4 115 14 -4 32 -39 40 -76z m-67 -16 c28 -94 30 -216 4 -233 -29 -17 -145 225 -131 271 23 73 101 49 127 -38z m1031 -280 c6 -9 5 -52 -3 -95 -11 -71 -14 -74 -27 -28 -29 103 -9 187 30 123z m1049 -283 c-35 -513 -50 -582 -125 -553 -37 14 -94 -38 -81 -73 7 -18 33 -34 59 -38 l46 -6 -68 -170 c-66 -164 -322 -426 -281 -288 6 21 25 110 43 198 17 88 48 194 69 236 21 43 26 66 11 54 -40 -33 -67 -113 -119 -350 -58 -266 -66 -239 -13 41 45 237 131 558 186 698 43 111 277 557 287 547 3 -4 -3 -137 -14 -296z m-1220 207 c44 -69 38 -105 -20 -107 -7 0 -17 -18 -23 -40 -6 -24 -27 -40 -52 -40 -54 0 -55 52 -2 85 49 30 51 55 5 56 -27 0 -24 7 15 31 46 27 47 29 5 17 -49 -13 -67 39 -20 58 41 16 43 15 92 -60z m-172 -197 c6 -33 0 -50 -17 -50 -35 0 -51 30 -36 68 18 47 42 39 53 -18z m326 -100 c15 -97 14 -123 -3 -105 -30 33 -88 209 -73 223 35 35 59 -2 76 -118z m-131 65 c0 -14 17 -58 38 -97 l39 -72 -84 18 c-45 10 -92 19 -103 20 -34 4 -28 92 7 107 27 12 24 17 -17 30 -42 12 -36 15 35 17 56 1 85 -7 85 -23z m143 -237 c19 -21 57 -113 85 -204 l52 -166 -70 -139 c-38 -77 -70 -150 -70 -164 0 -39 -18 -30 -76 38 -80 93 -78 89 -123 358 -23 137 -46 269 -52 294 -13 60 199 46 254 -17z m-393 -428 c338 -271 356 -304 282 -520 -26 -77 -73 -252 -105 -389 l-57 -249 -11 139 c-11 125 -12 116 -17 -91 -4 -180 -34 -392 -41 -289 -5 71 -44 365 -53 394 -7 23 0 35 21 35 35 0 36 3 19 48 -7 18 -23 32 -36 32 -15 0 -39 76 -61 195 -79 420 -219 935 -250 916 -9 -6 -13 6 -7 27 9 35 17 31 70 -30 33 -37 144 -135 246 -218z m1393 -208 c54 -51 33 -86 -33 -55 -49 23 -63 53 -37 80 20 19 24 17 70 -25z m54 -167 c-1 -36 -44 -168 -97 -295 -52 -126 -106 -263 -119 -303 -20 -66 -74 -136 -87 -115 -13 22 -74 217 -74 238 0 81 188 521 218 508 63 -26 144 -23 134 5 -6 15 -3 27 7 27 10 0 18 -29 18 -65z m-353 -239 c-43 -113 -95 -249 -115 -302 -88 -238 -145 -184 -98 92 l35 204 118 117 c151 149 157 139 60 -111z m-665 49 c13 -52 28 -129 34 -171 5 -42 17 -99 28 -127 11 -28 33 -132 49 -231 l29 -181 -93 -258 c-112 -312 -132 -304 -138 52 -3 137 -13 243 -25 247 -27 9 -48 -31 -23 -46 11 -7 20 -41 20 -75 0 -66 -28 -57 -46 15 -7 28 -10 22 -12 -20 -3 -63 -71 -230 -93 -230 -7 0 -7 16 1 35 9 19 14 62 12 96 -5 113 191 1016 217 999 9 -5 27 -52 40 -105z m-914 -4 c-4 -13 3 -19 13 -12 11 6 25 2 32 -9 7 -11 -8 -29 -34 -39 -34 -14 -37 -19 -11 -20 39 -1 41 -8 23 -98 -27 -134 -94 -82 -81 62 6 69 11 133 12 142 1 9 12 12 26 7 14 -5 23 -20 20 -33z m175 -379 c72 -319 72 -290 5 -321 -120 -57 -210 -9 -154 81 9 14 7 19 -5 12 -12 -8 -19 34 -18 111 2 114 6 124 52 135 49 12 49 13 10 37 -36 23 -34 24 20 14 l60 -11 -55 31 c-59 32 -67 74 -34 161 32 85 54 40 119 -250z m1087 -167 c-62 -334 -74 -378 -97 -377 -11 1 -21 38 -23 83 -2 45 -8 87 -14 92 -11 12 52 202 94 282 16 30 38 80 50 110 39 98 37 59 -10 -190z m273 89 c0 -107 -5 -120 -63 -163 -71 -53 -72 -67 4 154 53 154 59 155 59 9z m494 73 c56 -54 57 -69 5 -190 -116 -270 -329 -361 -366 -158 -23 122 1 166 156 292 140 113 143 113 205 56z m-688 -392 c-6 -47 -19 -85 -30 -85 -11 0 -15 14 -8 31 6 18 3 26 -8 19 -27 -16 -25 38 4 182 l25 118 14 -90 c8 -49 10 -128 3 -175z m138 65 c-10 -81 -15 -85 -45 -29 -16 31 -16 49 2 70 38 47 52 34 43 -41z m-1199 -174 l12 -74 -68 62 c-81 73 -85 100 -24 141 50 34 56 25 80 -129z m506 -33 c-7 -31 2 -125 19 -210 31 -150 15 -313 -31 -313 -28 0 -43 155 -20 198 18 34 17 39 -9 29 -23 -9 -30 5 -30 61 0 46 11 77 29 85 25 9 25 15 4 37 -16 16 -23 53 -17 90 6 45 14 56 26 37 14 -21 17 -19 18 8 0 19 5 35 12 35 6 0 6 -26 -1 -57z m-671 -4 c12 -22 20 -74 16 -115 -6 -73 -6 -73 -38 41 -32 114 -20 153 22 74z m1185 30 c6 -7 -11 -79 -39 -162 -59 -174 -79 -180 -46 -14 37 189 48 212 85 176z m-246 -141 c-14 -16 -19 -35 -12 -42 7 -7 13 -2 13 11 0 13 9 23 20 23 26 0 26 -391 0 -440 -20 -37 -119 -16 -120 26 0 9 7 12 15 7 8 -5 16 22 17 61 0 38 14 77 30 87 20 13 21 18 3 19 -33 0 -32 43 5 113 17 34 21 60 10 64 -27 9 -25 63 5 145 l25 68 6 -56 c4 -31 -4 -70 -17 -86z m419 113 c19 -10 52 -56 73 -103 l38 -84 -98 -86 c-68 -60 -106 -81 -122 -68 -16 14 -31 3 -48 -35 -24 -52 -27 -53 -42 -15 -15 38 -16 37 -18 -6 -1 -46 -53 -164 -72 -164 -15 0 6 95 43 191 18 49 39 85 46 80 7 -4 30 63 51 150 40 166 61 187 149 140z m-1386 -152 c11 -78 8 -94 -12 -76 -13 13 -29 67 -35 120 -14 132 30 92 47 -44z m1616 83 c-14 -37 -63 -56 -79 -31 -17 29 9 59 52 59 24 0 34 -10 27 -28z m92 -139 c0 -163 -19 -178 -72 -59 l-43 96 41 45 c62 69 74 56 74 -82z m459 -36 c-80 -68 -91 -69 -105 -18 -12 46 16 74 86 85 84 13 90 -8 19 -67z m-1954 -26 c-9 -47 -85 -136 -85 -99 0 20 75 148 87 148 4 0 3 -22 -2 -49z m1254 -251 c-104 -147 -177 -169 -182 -54 -2 49 -5 53 -11 18 -5 -26 -31 -55 -59 -65 -134 -51 -100 8 106 183 l157 133 12 -83 c10 -61 4 -95 -23 -132z m118 66 c-30 -36 -56 0 -57 76 0 79 24 86 54 16 20 -49 21 -70 3 -92z m-1217 44 c0 -49 -9 -90 -20 -90 -22 0 -28 145 -7 167 24 23 27 15 27 -77z m1630 57 c25 -9 4 -31 -84 -90 -145 -96 -163 -97 -92 -2 81 108 103 120 176 92z m-1959 -114 c-4 -24 -9 -54 -10 -67 -2 -42 -95 -127 -125 -116 -26 10 -96 171 -96 220 0 12 49 17 120 13 110 -6 119 -10 111 -50z m177 -52 c-40 -90 -88 -108 -88 -32 0 44 93 144 115 123 5 -5 -7 -46 -27 -91z m1412 -60 c-27 -66 -60 -81 -60 -28 0 36 60 113 76 98 5 -5 -2 -37 -16 -70z m-1150 -56 c-8 -19 -19 -51 -25 -70 -5 -19 -19 -29 -30 -22 -13 8 -15 3 -7 -10 8 -13 23 -19 32 -13 10 6 27 -5 38 -25 17 -29 21 -24 21 30 1 36 10 65 21 65 11 0 20 -47 20 -105 1 -75 6 -96 20 -75 22 34 26 19 8 -28 -7 -18 -20 -27 -30 -21 -10 6 -18 2 -18 -10 0 -11 -14 -21 -31 -21 -41 0 -170 131 -150 153 31 34 57 143 39 161 -10 10 8 19 45 22 52 4 59 -1 47 -31z m-294 -74 c8 -95 -28 -78 -40 19 -5 44 0 68 13 64 12 -4 24 -41 27 -83z m1463 -75 c-45 -57 -99 -138 -121 -180 -47 -93 -66 -98 -47 -12 27 124 86 233 143 264 101 55 108 34 25 -72z m-379 64 c0 -12 -31 -67 -70 -123 l-70 -101 0 77 c0 43 14 98 31 123 32 44 109 61 109 24z m-1179 -127 c-12 -12 -21 -37 -21 -57 0 -63 -37 -39 -58 37 -26 94 -12 115 50 74 35 -23 44 -39 29 -54z m753 -39 c-15 -23 -38 -44 -51 -46 -13 -3 -16 -1 -6 4 9 5 13 31 8 57 -8 41 -3 47 34 37 38 -10 40 -15 15 -52z m-826 -86 c7 -17 6 -55 -1 -84 -15 -60 -43 -17 -46 71 -1 52 29 60 47 13z"
       id="path1"
       style="fill:url(#linearGradient2);fill-opacity:1" />
    <path
       d="M2426 2568 c-6 -18 -1 -39 13 -47 14 -9 33 -46 43 -83 16 -64 17 -64 8 15 -7 54 -2 86 14 92 31 10 2 55 -36 55 -16 0 -35 -14 -42 -32z"
       id="path2"
       style="fill:url(#linearGradient2);fill-opacity:1" />
    <path
       d="M3324 1597 c-45 -131 -31 -251 15 -130 12 31 16 64 10 74 -6 10 -2 52 9 93 34 120 11 97 -34 -37z"
       id="path3"
       style="fill:url(#linearGradient2);fill-opacity:1" />
    <path
       d="M4152 5423 c-5 -9 -5 -36 1 -60 13 -48 65 -7 66 52 1 28 -51 34 -67 8z"
       id="path4"
       style="fill:url(#linearGradient2);fill-opacity:1" />
    <path
       d="M4140 5082 c0 -25 54 -43 90 -29 16 6 25 19 19 29 -15 23 -109 23 -109 0z"
       id="path5"
       style="fill:url(#linearGradient2);fill-opacity:1" />
    <path
       d="M1735 2948 c-22 -22 4 -48 48 -48 23 0 37 10 32 25 -9 29 -60 43 -80 23z"
       id="path6"
       style="fill:url(#linearGradient2);fill-opacity:1" />
  </g>
</svg>
