<?xml version="1.0" encoding="UTF-8" standalone="no"?>
<svg
   version="1.0"
   width="300.000000pt"
   height="300.000000pt"
   viewBox="0 0 300.000000 300.000000"
   preserveAspectRatio="xMidYMid meet"
   id="svg15"
   sodipodi:docname="weeds2.svg"
   inkscape:version="1.3 (0e150ed6c4, 2023-07-21)"
   xmlns:inkscape="http://www.inkscape.org/namespaces/inkscape"
   xmlns:sodipodi="http://sodipodi.sourceforge.net/DTD/sodipodi-0.dtd"
   xmlns:xlink="http://www.w3.org/1999/xlink"
   xmlns="http://www.w3.org/2000/svg"
   xmlns:svg="http://www.w3.org/2000/svg">
  <defs
     id="defs15">
    <linearGradient
       id="linearGradient82"
       inkscape:collect="always">
      <stop
         style="stop-color:#1f4b5f;stop-opacity:1;"
         offset="0"
         id="stop82" />
      <stop
         style="stop-color:#028090;stop-opacity:1;"
         offset="1"
         id="stop83" />
    </linearGradient>
    <linearGradient
       id="swatch79"
       inkscape:swatch="solid">
      <stop
         style="stop-color:#1f4b5f;stop-opacity:1;"
         offset="0"
         id="stop80" />
    </linearGradient>
    <linearGradient
       inkscape:collect="always"
       xlink:href="#linearGradient82"
       id="linearGradient83"
       x1="2994.4517"
       y1="711.38513"
       x2="2987.7695"
       y2="277.6319"
       gradientUnits="userSpaceOnUse" />
  </defs>
  <sodipodi:namedview
     id="namedview15"
     pagecolor="#ffffff"
     bordercolor="#000000"
     borderopacity="0.25"
     inkscape:showpageshadow="2"
     inkscape:pageopacity="0.0"
     inkscape:pagecheckerboard="0"
     inkscape:deskcolor="#d1d1d1"
     inkscape:document-units="pt"
     inkscape:zoom="2.94"
     inkscape:cx="199.82993"
     inkscape:cy="281.63265"
     inkscape:window-width="2486"
     inkscape:window-height="1376"
     inkscape:window-x="0"
     inkscape:window-y="0"
     inkscape:window-maximized="1"
     inkscape:current-layer="svg15" />
  <metadata
     id="metadata1">&#10;Created by potrace 1.10, written by Peter Selinger 2001-2011&#10;</metadata>
  <g
     transform="translate(0.000000,300.000000) scale(0.050000,-0.050000)"
     fill="#000000"
     stroke="none"
     id="g15"
     style="fill:url(#linearGradient83);fill-opacity:1;fill-rule:nonzero">
    <path
       d="M4386 5671 c-19 -40 -45 -68 -58 -63 -18 7 -28 -50 -38 -204 -21 -354 -81 -334 -141 45 -7 44 -27 107 -46 140 l-33 61 -6 -85 c-7 -97 -10 -99 -79 -45 -126 100 -147 15 -33 -135 l50 -65 -56 -1 c-51 -1 -53 -3 -18 -25 180 -114 272 -180 272 -197 0 -26 -115 -2 -176 36 -25 16 -52 24 -61 19 -9 -6 -69 3 -134 18 -163 39 -175 38 -150 -9 30 -54 33 -51 -94 -98 -223 -83 -220 -106 14 -110 142 -3 161 -7 161 -40 0 -42 -7 -43 196 48 194 87 239 55 68 -49 -142 -86 -244 -214 -145 -182 35 11 37 6 18 -62 -11 -40 -14 -106 -7 -145 l13 -71 64 112 c101 179 253 399 268 389 56 -34 -26 -884 -125 -1303 -37 -154 -104 -469 -151 -700 -59 -298 -94 -431 -121 -459 -56 -59 -61 -32 -18 110 55 179 52 191 -35 120 l-75 -62 -44 186 c-24 102 -77 334 -117 515 -41 182 -99 409 -131 505 -31 96 -52 188 -45 205 6 16 -13 70 -42 120 -63 107 -65 106 109 30 158 -69 169 -71 152 -28 -9 23 -4 29 18 21 17 -7 55 -2 85 9 68 26 17 78 -77 78 -55 0 -95 50 -52 66 18 7 18 15 1 34 -13 14 -19 38 -13 54 9 24 -15 27 -151 20 l-162 -9 40 57 c23 31 49 62 60 69 32 20 21 -36 -16 -78 -34 -38 -33 -38 3 -19 21 12 54 16 75 11 29 -8 37 2 37 43 0 39 -10 52 -41 52 -57 0 -16 75 46 84 37 5 44 17 38 66 -9 80 -31 99 -69 61 -33 -33 -84 -43 -66 -13 14 21 -44 142 -68 142 -10 0 -31 -19 -47 -42 -24 -33 -37 -37 -69 -20 -30 16 -46 13 -71 -15 -43 -47 -42 -53 12 -104 42 -39 42 -43 10 -61 -42 -24 -47 -67 -6 -51 21 8 33 -8 43 -59 19 -101 -1 -103 -64 -9 -38 57 -48 89 -34 103 17 17 14 98 -3 98 -49 0 -131 -52 -131 -82 0 -34 -10 -37 -80 -26 -93 15 -105 -13 -37 -86 37 -39 39 -46 10 -46 -22 0 -33 -17 -33 -50 0 -64 90 -73 110 -10 13 40 90 57 90 20 0 -11 -11 -18 -24 -15 -41 9 -41 -61 0 -74 46 -14 108 6 93 31 -17 26 18 22 58 -8 77 -56 5 -113 -95 -75 -67 26 -392 68 -406 53 -7 -6 2 -28 20 -48 32 -34 28 -38 -65 -72 -170 -61 -170 -92 -1 -92 120 0 142 -5 133 -30 -17 -44 28 -37 135 20 131 70 132 65 13 -61 -111 -117 -122 -167 -22 -93 33 24 66 44 74 44 9 0 49 33 91 74 102 100 119 70 21 -37 -102 -111 -138 -177 -98 -177 36 0 53 -43 53 -136 l0 -73 63 63 c65 65 93 165 96 341 1 107 21 107 68 0 30 -70 39 -78 51 -48 35 92 129 -163 223 -604 35 -161 94 -423 132 -581 45 -193 62 -295 48 -309 -13 -13 -24 -9 -32 14 -31 79 -93 -39 -137 -261 -38 -189 -75 -165 -113 70 -29 184 -106 351 -154 335 -27 -8 -57 15 -113 89 -95 124 -95 124 -79 -10 10 -88 6 -111 -18 -121 -26 -10 -23 -25 19 -100 l49 -89 -86 -1 -87 -1 100 -92 c55 -50 166 -136 247 -190 177 -120 173 -136 -16 -68 -79 29 -163 52 -187 52 -76 1 -107 31 -73 72 27 32 25 34 -21 20 -27 -9 -81 -23 -120 -31 -38 -9 -59 -17 -45 -19 34 -3 31 -52 -5 -82 -25 -21 -30 -16 -30 32 0 78 -30 40 -65 -81 -27 -94 -30 -97 -53 -55 -37 69 -61 52 -39 -27 24 -87 7 -174 -52 -275 l-45 -75 9 255 c11 290 35 359 193 532 65 73 95 92 124 82 29 -11 33 -8 15 11 -38 41 -167 62 -167 27 0 -19 -12 -26 -30 -19 -23 9 -30 -4 -31 -53 0 -60 -2 -61 -29 -26 -26 34 -27 30 -16 -38 9 -55 6 -72 -11 -62 -14 9 -18 3 -11 -16 11 -28 -28 -183 -42 -168 -18 18 -50 340 -38 387 7 30 58 111 111 181 54 71 89 128 77 128 -43 0 31 79 85 91 46 10 52 18 34 40 -29 35 -120 30 -134 -7 -9 -23 -13 -23 -27 -1 -12 19 -18 12 -18 -23 0 -35 -6 -42 -18 -23 -20 33 -42 -13 -42 -91 0 -33 -9 -47 -26 -40 -18 7 -23 -8 -18 -54 4 -35 -6 -95 -22 -133 l-28 -69 -16 139 c-17 155 10 347 60 423 17 26 28 51 25 56 -12 19 75 92 111 92 33 0 35 5 13 31 -71 86 -166 -4 -209 -200 -10 -45 -17 -52 -31 -30 -32 51 3 224 63 317 68 104 78 154 15 70 -72 -95 -77 -98 -77 -50 0 55 108 162 163 162 22 0 34 9 27 20 -7 11 2 20 19 20 17 0 31 9 31 20 0 11 13 20 29 20 18 0 25 12 19 29 -19 48 -236 -79 -278 -163 -18 -35 -25 -36 -47 -12 -15 16 -32 24 -38 17 -6 -6 4 -27 22 -47 22 -25 33 -72 33 -144 0 -112 -14 -128 -27 -29 -8 70 -52 168 -76 172 -57 8 -68 6 -81 -12 -7 -11 11 -30 42 -43 40 -17 55 -36 52 -69 -2 -25 13 -62 33 -82 21 -21 37 -58 37 -84 0 -27 5 -78 10 -116 6 -37 4 -53 -3 -37 -19 43 -88 130 -104 130 -7 0 -22 6 -33 12 -37 20 -80 8 -80 -22 0 -17 15 -28 35 -24 19 3 35 -5 35 -17 0 -13 36 -57 80 -97 94 -86 138 -263 72 -289 -32 -12 -71 50 -72 113 -1 16 -7 14 -18 -4 -14 -21 -21 -17 -32 20 -9 25 -46 78 -84 117 l-68 71 14 -60 c7 -33 27 -76 44 -95 17 -19 22 -35 12 -36 -10 0 9 -23 42 -50 33 -27 48 -49 33 -49 -17 0 -9 -16 20 -40 32 -28 36 -36 12 -28 -64 22 -36 -11 44 -51 43 -22 83 -48 89 -58 14 -22 73 -409 64 -418 -11 -11 -90 132 -104 186 -7 27 -22 55 -33 62 -14 8 -17 -3 -10 -30 19 -71 -16 -49 -88 56 -66 99 -119 140 -76 59 20 -37 18 -39 -18 -20 -22 12 -57 22 -77 22 -40 0 125 -177 167 -179 12 -1 44 -19 70 -40 l47 -40 -44 0 c-80 -2 -67 -36 18 -47 189 -25 208 -186 95 -824 -25 -143 -51 -264 -57 -270 -7 -5 -13 -94 -15 -196 -2 -147 -10 -194 -38 -225 -48 -53 -45 -58 -89 223 -98 640 -290 1170 -568 1575 -93 135 -113 177 -102 219 l13 51 78 -88 c44 -49 103 -136 132 -194 30 -58 61 -105 70 -105 24 0 22 7 -33 103 -89 155 -42 201 101 98 49 -35 89 -53 89 -41 0 31 -95 191 -132 222 -24 20 -25 28 -4 42 41 27 -36 74 -148 88 -53 7 -96 20 -96 29 0 8 -18 11 -40 5 -22 -6 -40 -1 -40 11 0 13 50 20 135 19 91 -2 173 11 252 38 134 47 129 55 -37 76 -143 17 -159 25 -128 62 37 45 6 57 -79 31 -105 -31 -124 -29 -111 12 6 19 -44 -23 -111 -95 -168 -179 -152 -121 22 81 103 119 131 162 100 154 -51 -13 -54 6 -12 86 44 86 -39 70 -146 -27 -57 -52 -33 -89 -243 384 -185 419 -191 442 -116 442 32 1 37 5 17 18 -21 13 -19 19 8 29 25 10 28 20 11 40 -12 15 -15 33 -7 41 7 8 -2 8 -21 1 -27 -11 -32 -5 -23 24 11 34 10 35 -11 2 -23 -37 -9 -83 20 -65 9 6 23 2 29 -9 7 -11 -7 -15 -33 -10 -24 4 -51 -3 -60 -16 -9 -15 -16 1 -16 40 0 36 -10 65 -22 65 -14 0 -17 -20 -9 -55 14 -55 14 -55 -25 -15 -21 22 -34 48 -28 58 5 10 0 12 -13 4 -13 -8 -18 -23 -12 -33 6 -11 -2 -19 -19 -19 -16 0 -35 -9 -42 -20 -8 -13 5 -13 37 -1 56 21 65 -27 12 -60 -25 -16 -25 -19 1 -21 17 -2 -1 -10 -40 -18 l-70 -15 66 -2 c53 -3 61 -8 41 -29 -14 -15 -48 -24 -76 -20 -45 6 -47 4 -11 -12 37 -18 37 -19 -10 -21 -45 -2 -46 -4 -14 -23 27 -16 53 -11 107 21 91 54 98 46 34 -35 -37 -47 -66 -64 -111 -64 -52 0 -57 4 -36 30 20 24 19 30 -6 30 -17 0 -35 11 -40 25 -6 17 -23 9 -51 -23 -47 -52 -52 -77 -25 -119 18 -29 102 -14 102 18 0 11 25 19 56 19 66 0 138 60 175 148 l26 62 19 -50 c47 -121 227 -546 275 -646 45 -95 49 -117 27 -157 -14 -27 -24 -112 -24 -197 l2 -150 -80 169 c-66 141 -83 164 -99 134 -16 -27 -26 -30 -48 -12 -15 12 -35 18 -45 12 -9 -6 -50 11 -91 39 -87 59 -88 56 -18 -78 30 -57 55 -114 55 -126 1 -37 47 -82 111 -108 81 -34 74 -53 -16 -45 l-75 7 44 -38 43 -38 -53 -43 -54 -42 85 12 c114 16 108 2 -45 -94 -71 -46 -130 -91 -130 -102 0 -10 -25 -41 -55 -67 -64 -56 -47 -61 82 -22 83 25 93 25 93 -3 0 -49 91 45 175 180 104 169 149 136 65 -48 -48 -107 -53 -181 -10 -164 17 6 30 0 30 -15 0 -31 99 -178 120 -178 8 0 10 42 5 93 -8 67 -4 89 12 79 36 -22 28 54 -17 168 -22 56 -40 106 -40 113 0 25 216 -185 287 -280 124 -165 240 -410 211 -446 -18 -21 -28 -23 -39 -5 -10 16 -27 0 -50 -44 -31 -61 -37 -64 -49 -28 -14 38 -15 38 -28 -5 -8 -25 -21 -45 -29 -45 -8 0 -27 -33 -41 -73 -20 -53 -31 -65 -44 -45 -10 16 -18 19 -19 8 -1 -11 -17 30 -37 90 -19 61 -45 108 -57 105 -13 -2 -28 14 -35 36 -21 67 -52 21 -42 -63 7 -52 2 -78 -14 -79 -42 -1 105 -119 148 -119 37 0 40 -9 30 -85 -10 -79 -10 -80 9 -21 15 49 41 74 110 104 97 43 192 127 216 191 69 181 351 -1051 353 -1535 0 -63 7 -76 35 -70 30 6 34 27 29 148 -5 120 1 146 35 177 53 48 58 -93 11 -269 -34 -128 -36 -140 -13 -140 25 0 64 193 77 386 10 146 46 274 46 163 0 -21 11 -29 30 -22 17 7 53 3 82 -8 45 -17 49 -15 38 21 -9 27 -2 44 19 53 50 19 50 12 20 -233 -16 -127 -29 -232 -29 -235 0 -3 8 -5 18 -5 19 0 37 108 60 348 7 78 22 140 33 138 10 -1 35 -9 55 -17 23 -9 34 -5 30 11 -3 14 5 29 19 34 14 5 25 1 25 -10 0 -10 25 -14 55 -9 50 9 52 7 20 -18 -31 -24 -23 -27 70 -27 165 -1 354 -50 420 -109 l58 -52 -92 8 c-148 12 -192 -18 -266 -181 -65 -142 -77 -215 -16 -98 33 63 70 82 72 37 1 -14 10 -4 20 21 10 26 27 41 37 35 11 -6 25 7 32 30 11 33 19 36 42 18 23 -20 28 -15 28 22 0 25 6 40 12 33 7 -7 28 6 46 28 71 88 142 21 142 -133 0 -115 4 -131 35 -125 31 6 35 33 32 242 -1 128 5 234 14 234 9 0 30 5 47 12 28 11 32 -21 32 -270 0 -232 5 -282 29 -282 46 0 49 19 52 307 3 290 6 296 99 243 57 -33 100 -38 100 -12 0 10 -32 24 -71 31 -59 11 -69 20 -59 52 10 30 3 39 -31 39 -43 0 -43 1 -28 295 15 316 32 410 58 330 18 -58 46 -58 55 0 6 40 13 35 71 -45 96 -132 133 -178 147 -179 29 -2 33 210 5 264 -15 30 -21 55 -13 55 9 0 -31 31 -88 70 -95 64 -147 136 -118 165 7 7 41 -14 75 -46 34 -33 66 -49 70 -38 4 12 36 18 70 13 82 -12 105 28 56 98 -59 83 -41 142 21 68 14 -17 17 -30 8 -30 -10 0 14 -17 52 -38 39 -21 68 -48 65 -60 -3 -12 11 -22 30 -22 30 -1 31 -3 5 -20 -27 -17 -27 -19 0 -20 62 -2 109 -56 79 -91 -24 -29 -29 -27 -52 15 -20 36 -26 39 -26 11 -1 -41 -23 -45 -57 -11 -13 13 -28 18 -35 12 -6 -6 19 -30 55 -53 64 -41 64 -42 16 -43 -36 0 -42 -5 -23 -18 23 -14 23 -19 0 -29 -15 -7 -5 -7 21 -1 40 11 46 7 35 -23 -12 -30 -10 -31 18 -8 28 23 32 22 26 -3 -4 -16 0 -31 8 -34 33 -9 55 -3 55 17 0 12 -9 16 -20 9 -37 -23 -21 15 23 52 46 40 86 31 69 -15 -7 -16 -5 -25 4 -20 22 14 18 -160 -4 -180 -11 -10 -13 -3 -6 17 8 23 3 31 -15 23 -16 -5 -38 9 -51 33 -18 34 -28 38 -51 19 -23 -19 -29 -18 -29 4 0 15 -31 45 -69 65 -39 21 -65 46 -58 56 6 11 -7 7 -30 -7 -42 -26 -39 -57 6 -57 31 0 82 -56 66 -72 -6 -6 -44 -2 -85 9 -56 16 -71 15 -63 -3 5 -13 47 -108 92 -211 l82 -187 -39 -203 c-53 -277 -73 -513 -44 -513 13 0 22 37 22 91 0 124 61 509 81 509 47 0 87 -301 53 -393 -29 -78 -29 -88 -3 -67 26 23 28 12 16 -90 -11 -94 -8 -114 15 -106 19 6 35 66 49 182 19 158 29 184 120 317 54 80 97 150 95 156 -2 6 15 31 39 56 23 25 32 45 20 45 -12 0 -68 -52 -125 -115 -57 -63 -98 -97 -92 -75 21 72 71 458 72 543 0 91 44 130 79 71 18 -32 20 -32 20 0 1 18 -8 39 -19 46 -34 21 -1 50 58 50 30 0 62 7 70 15 9 8 21 16 29 17 7 1 39 8 70 17 41 12 62 9 75 -11 14 -22 17 -23 18 -1 0 29 110 15 153 -20 15 -12 26 -10 31 5 6 18 18 18 52 0 28 -15 44 -16 44 -3 0 12 16 22 35 23 22 1 26 5 9 12 -21 8 -21 16 0 42 23 27 21 29 -14 15 -54 -23 -190 -28 -240 -9 -32 12 -33 16 -6 17 31 1 159 101 129 101 -7 0 -49 -15 -95 -33 -63 -26 -85 -27 -97 -8 -12 18 -18 17 -27 -6 -7 -17 -30 -31 -53 -32 -23 0 -59 -2 -81 -2 -25 -1 -44 -20 -52 -51 -8 -33 -20 -43 -35 -32 -37 29 -96 46 -83 24 7 -11 -1 -20 -17 -20 -19 0 -26 13 -19 40 6 22 19 40 28 40 10 0 36 18 58 40 45 45 37 51 -23 18 -56 -29 -63 -15 -39 76 23 85 145 219 180 197 12 -7 22 0 22 18 0 18 17 31 39 31 27 0 36 10 28 30 -8 21 2 30 32 30 24 0 38 9 31 20 -12 20 15 28 67 21 15 -2 21 6 14 18 -8 13 12 31 50 44 51 18 58 26 33 40 -19 10 -53 8 -87 -7 -32 -13 -66 -24 -77 -25 -11 0 -32 -17 -47 -37 -21 -28 -33 -31 -55 -12 -23 19 -27 18 -18 -6 7 -16 -2 -41 -19 -55 -17 -14 -31 -18 -31 -9 0 10 -32 -30 -72 -89 -88 -131 -85 -136 -65 115 21 272 98 369 268 337 26 -5 51 1 55 13 5 15 23 14 62 -3 39 -18 51 -19 40 -2 -10 17 0 19 34 9 26 -7 67 -17 90 -20 23 -3 54 -13 68 -22 17 -11 21 -8 12 7 -9 14 -2 23 17 23 17 0 31 9 31 20 0 11 -12 20 -26 20 -39 0 -134 48 -134 67 0 10 -13 7 -30 -7 -25 -21 -30 -19 -30 11 0 34 -2 34 -40 -1 -38 -34 -40 -34 -58 12 -14 35 -20 38 -21 13 -1 -40 -40 -49 -42 -10 -1 14 -11 5 -23 -20 -12 -25 -28 -45 -36 -45 -8 0 -24 20 -36 45 -21 45 -21 45 -23 -8 -1 -39 -20 -64 -73 -96 -53 -31 -70 -35 -62 -13 7 16 18 64 25 106 21 118 210 292 262 240 6 -6 28 7 49 28 22 22 48 34 57 28 10 -6 24 -1 31 10 7 12 28 17 47 11 51 -16 102 23 63 49 -38 25 -114 26 -129 1 -7 -11 -26 -14 -42 -8 -17 7 -48 -4 -70 -24 -30 -27 -39 -29 -40 -7 0 15 -12 8 -26 -18 -14 -25 -31 -40 -37 -33 -7 7 -23 -6 -35 -29 -43 -80 -99 -91 -82 -15 23 101 149 253 210 253 6 0 29 18 51 40 22 22 34 40 28 40 -7 0 -2 13 11 28 50 62 -18 47 -84 -17 -39 -38 -76 -63 -83 -57 -7 7 -12 -2 -12 -20 0 -17 -22 -57 -49 -88 l-49 -56 11 80 c15 105 48 171 97 198 21 12 49 35 62 50 13 17 32 22 48 12 20 -12 23 -7 14 17 -9 24 -2 33 25 33 21 0 44 9 52 21 7 11 30 15 51 8 22 -7 38 -2 38 11 0 13 11 16 25 7 57 -36 97 -29 71 12 -28 44 -98 62 -144 37 -22 -12 -32 -10 -32 6 0 16 -13 12 -37 -9 -20 -18 -42 -27 -49 -20 -7 7 -19 -3 -26 -22 -11 -27 -17 -29 -30 -8 -13 21 -17 18 -18 -9 0 -20 -9 -31 -19 -24 -11 6 -25 -11 -32 -38 -7 -28 -26 -61 -42 -75 -50 -41 -12 74 85 260 49 92 88 180 88 195 0 16 9 28 19 28 11 0 30 36 43 79 23 77 71 95 52 19 -6 -21 -2 -43 8 -49 10 -6 18 21 18 61 0 43 8 67 20 60 11 -7 15 1 8 17 -11 29 -76 24 -119 -9 -36 -28 -75 13 -59 62 9 29 7 40 -6 32 -11 -7 -25 -1 -31 13 -24 59 -10 -41 16 -115 35 -101 17 -201 -63 -360 l-61 -119 -2 196 c-1 107 -7 203 -12 211 -5 9 -2 42 7 74 12 42 9 66 -12 85 -45 42 -50 18 -25 -125 29 -165 21 -188 -59 -177 -38 6 -62 1 -62 -13 0 -12 16 -22 36 -22 22 0 50 -28 70 -70 18 -38 25 -70 15 -70 -9 0 -14 -47 -10 -105 6 -85 4 -93 -9 -40 -23 87 -57 125 -114 125 -66 0 -61 -36 5 -44 30 -3 58 -19 63 -34 6 -18 1 -22 -16 -12 -14 9 -6 -11 19 -44 32 -43 42 -81 37 -138 l-6 -78 -63 120 c-46 89 -84 132 -145 166 -88 50 -115 30 -32 -24 27 -18 48 -40 45 -48 -3 -8 31 -54 75 -101 114 -123 115 -128 88 -298 -24 -149 -53 -160 -57 -20 0 30 -11 55 -23 55 -13 0 -19 20 -14 46 5 25 -3 57 -18 71 -14 13 -26 20 -26 14 0 -5 -33 13 -73 40 -89 60 -119 44 -41 -23 46 -39 50 -48 20 -49 -30 -1 -29 -4 7 -19 47 -19 81 -60 49 -60 -11 0 2 -23 30 -50 28 -28 45 -59 38 -70 -7 -11 -4 -20 7 -20 45 0 59 -115 31 -251 -36 -171 -36 -171 -79 -55 -20 53 -43 105 -52 115 -9 10 -17 34 -17 53 0 18 -13 39 -30 45 -16 7 -30 28 -30 47 -1 29 -4 30 -18 8 -14 -21 -25 -15 -49 30 -17 32 -32 45 -33 28 -1 -19 -12 -11 -30 20 -25 45 -29 46 -30 10 0 -30 -5 -33 -18 -13 -20 32 -142 51 -142 23 0 -11 14 -20 31 -20 17 0 26 -9 19 -20 -7 -11 1 -20 18 -20 66 0 142 -41 111 -61 -22 -14 -14 -19 31 -20 33 -1 48 -7 33 -13 -17 -7 -6 -23 35 -48 34 -21 60 -44 58 -53 -2 -8 25 -60 60 -114 68 -105 72 -136 46 -391 l-13 -130 -27 110 c-33 134 -143 250 -325 342 -128 64 -211 69 -102 6 36 -21 65 -45 65 -53 0 -8 14 -15 32 -15 199 0 463 -541 300 -615 -49 -23 -75 -2 -32 25 12 7 15 22 9 32 -7 11 -1 35 14 54 14 19 3 14 -25 -11 -65 -58 -74 -57 -84 10 -7 48 -8 47 -11 -14 -3 -65 -4 -67 -34 -30 -30 38 -31 37 -17 -10 12 -45 11 -47 -19 -16 -18 17 -33 47 -33 65 0 18 -8 27 -19 21 -10 -7 -27 4 -38 24 -11 19 -25 33 -31 31 -6 -2 -43 9 -81 25 -38 16 -79 29 -90 29 -12 0 -21 14 -21 32 0 26 -15 29 -80 18 -86 -14 -97 -1 -51 61 19 25 25 64 19 109 -7 41 10 157 39 280 27 116 73 332 103 480 29 149 79 374 111 501 100 402 124 596 127 1024 2 454 -12 433 199 296 245 -160 309 -189 273 -121 -27 51 44 55 191 11 123 -37 131 -29 46 56 -48 48 -95 72 -157 83 -124 20 -130 27 -77 85 l47 50 -70 -12 c-160 -28 -375 -38 -387 -17 -17 27 79 57 269 82 218 30 366 102 207 102 -48 0 -49 2 -22 55 81 161 52 258 -46 156 -74 -77 -121 -91 -121 -37 0 19 -28 -11 -62 -65 -83 -132 -137 -189 -181 -189 -52 0 -48 12 53 168 101 156 106 172 52 172 -34 0 -37 8 -21 65 40 144 -37 247 -95 126z m-1139 -971 c-1 -38 -14 -97 -29 -130 l-26 -60 -8 76 c-3 42 4 90 17 105 19 23 17 29 -9 29 -17 0 -32 14 -32 31 0 22 15 30 45 25 38 -5 45 -18 42 -76z m73 -2 c0 -16 9 -15 30 2 55 45 35 -26 -28 -101 -71 -84 -87 -74 -59 37 20 76 57 117 57 62z m100 -347 c73 -9 76 -13 20 -31 -72 -23 -176 -23 -190 0 -23 37 13 64 67 51 29 -8 76 -16 103 -20z m-1978 -1506 c11 -30 25 -82 31 -115 l10 -60 -61 65 c-59 62 -78 122 -49 152 26 26 48 12 69 -42z m2418 -424 c0 -21 -22 -64 -49 -95 -67 -75 -72 -9 -6 75 54 69 55 69 55 20z m-180 -225 c-79 -64 -199 -36 -125 29 86 74 154 95 162 49 4 -26 -10 -56 -37 -78z m-689 -171 c-12 -31 -8 -31 138 4 248 58 182 -51 -125 -207 -85 -44 -86 -44 -65 -3 13 23 18 41 13 41 -32 0 -166 -111 -190 -156 -18 -34 -32 -44 -37 -28 -5 15 8 46 30 70 76 85 76 104 -1 59 -41 -24 -74 -34 -74 -22 0 12 -37 -16 -83 -61 -45 -46 -87 -78 -93 -73 -13 13 156 270 259 394 l78 93 79 -43 c45 -24 76 -54 71 -68z m728 -16 c26 -25 24 -29 -15 -29 -99 0 -209 68 -171 106 15 16 148 -39 186 -77z m-101 -117 l84 -108 -14 -213 c-11 -163 -23 -224 -50 -258 -45 -53 -49 -13 -7 68 19 37 22 59 8 59 -13 0 -16 17 -9 40 9 28 4 40 -18 40 -17 0 -37 -22 -44 -50 -7 -27 -20 -50 -30 -50 -10 0 -19 -25 -21 -55 -5 -75 -32 310 -35 490 -3 180 21 187 136 37z m-174 -297 c7 -395 10 -373 -49 -324 -25 21 -34 25 -20 9 34 -39 31 -67 -5 -53 -25 10 -27 5 -10 -26 11 -21 20 -95 21 -165 1 -124 1 -125 31 -70 16 30 38 50 49 43 28 -17 22 -113 -9 -154 -32 -42 -52 -45 -52 -7 0 15 -15 39 -33 55 -31 25 -31 23 0 -37 57 -111 42 -141 -33 -64 -65 67 -175 130 -309 179 -48 18 -60 31 -46 48 24 28 253 2 296 -34 74 -60 41 21 -39 96 -108 103 -149 109 -269 38 -99 -58 -110 -76 -35 -57 47 12 50 10 31 -26 -15 -29 -15 -47 3 -66 24 -26 16 -25 -76 12 -16 7 -30 4 -30 -6 0 -11 -27 -15 -60 -10 -40 6 -60 0 -60 -17 0 -17 -13 -13 -40 11 -54 49 -51 75 17 147 32 34 53 66 47 72 -6 6 4 11 21 11 18 0 38 -9 45 -20 7 -11 22 -20 34 -20 14 0 13 9 -2 28 -30 36 36 56 88 27 28 -16 34 -14 26 7 -6 16 10 44 37 64 47 36 47 36 48 -20 l0 -56 76 80 c61 66 85 116 130 280 131 470 169 476 177 25z m1122 226 c-13 -49 -59 -89 -73 -65 -13 20 41 104 66 104 10 0 13 -18 7 -39z m-99 -70 c11 -29 -39 -85 -59 -65 -16 15 11 94 31 94 9 0 22 -13 28 -29z m-1398 -10 c12 -19 -55 -145 -77 -142 -6 0 -30 -8 -52 -20 -33 -17 -40 -14 -40 19 0 28 -16 42 -55 47 l-55 8 65 16 c35 9 59 24 53 34 -11 19 61 54 116 56 18 0 39 -7 45 -18z m-240 -139 c13 -22 -38 -67 -56 -48 -7 7 -13 -21 -13 -62 0 -44 -8 -69 -20 -62 -22 14 -27 109 -8 158 13 34 78 44 97 14z m-145 -34 c38 -24 17 -104 -24 -94 -22 6 -40 1 -40 -11 0 -12 -12 -17 -26 -12 -15 6 -27 -6 -28 -31 -2 -24 9 -40 28 -40 25 0 26 -6 6 -30 -21 -25 -18 -30 13 -30 28 -1 30 -5 10 -18 -21 -13 -20 -19 5 -29 48 -18 35 -253 -14 -253 -11 0 -15 6 -8 13 23 22 -27 87 -67 87 -21 0 -39 -9 -39 -20 0 -11 -10 -20 -21 -20 -13 0 -16 18 -8 45 14 44 13 44 -26 9 -63 -56 -68 -17 -25 218 22 118 40 224 40 234 0 19 190 3 224 -18z m316 -122 c0 -16 -11 -25 -25 -20 -14 5 -41 -5 -60 -22 -41 -36 -54 29 -13 70 29 29 98 9 98 -28z m1240 -27 c-12 -22 -17 -60 -11 -85 6 -24 -3 -14 -20 22 -32 71 -25 104 23 104 23 0 25 -8 8 -41z m115 -31 c4 -35 4 -36 -11 -2 -10 23 -15 -4 -15 -74 0 -163 -41 -187 -59 -35 -7 67 -8 130 -2 140 20 32 82 12 87 -29z m141 -93 c-2 -58 -52 -405 -72 -492 -13 -61 -18 -51 -62 125 -40 157 -44 201 -25 243 13 28 23 68 23 89 0 21 10 44 22 51 15 9 18 -19 9 -94 -7 -59 -3 -165 8 -237 l19 -130 -8 151 c-11 185 6 299 43 299 15 0 27 9 27 20 0 11 4 20 9 20 5 0 8 -20 7 -45z m-836 -201 c0 -99 -4 -107 -60 -128 -45 -17 -60 -17 -60 1 0 13 -6 42 -12 65 -11 41 74 168 114 168 10 0 18 -48 18 -106z m-1226 -70 c30 -19 71 -124 48 -124 -9 0 -28 14 -42 30 -14 17 -37 30 -52 30 -16 0 -28 18 -28 40 0 41 31 51 74 24z m1046 -265 c0 -67 -4 -76 -27 -55 -16 14 -25 37 -20 51 21 72 27 85 36 85 6 0 11 -36 11 -81z"
       id="path1"
       style="fill:url(#linearGradient83);fill-opacity:1;fill-rule:nonzero" />
    <path
       d="M888 4577 c-4 -7 -26 -9 -48 -3 -25 7 -44 -1 -52 -22 -7 -17 -28 -32 -48 -32 -19 0 -46 -13 -60 -30 -14 -16 -17 -30 -8 -30 9 0 -3 -14 -28 -31 -74 -52 -48 -126 36 -99 22 7 40 27 40 44 0 25 5 26 30 6 26 -21 29 -20 19 6 -22 58 62 84 324 101 130 8 159 -41 65 -109 -32 -22 -53 -49 -47 -60 15 -24 90 16 84 45 -3 12 17 25 45 30 27 4 58 17 69 28 27 27 -15 91 -55 83 -17 -3 -37 13 -44 35 -7 23 -23 42 -36 44 -78 9 -279 5 -286 -6z"
       id="path2"
       style="fill:url(#linearGradient83);fill-opacity:1;fill-rule:nonzero" />
    <path
       d="M1183 4313 c-13 -15 -17 -33 -9 -40 7 -7 -9 -14 -36 -15 -42 -2 -40 -5 17 -23 70 -22 74 -29 46 -74 -16 -26 -28 -25 -90 5 -97 46 -118 42 -31 -6 93 -51 117 -49 144 10 12 28 34 50 49 50 32 0 34 29 6 81 -24 45 -65 50 -96 12z"
       id="path3"
       style="fill:url(#linearGradient83);fill-opacity:1;fill-rule:nonzero" />
    <path
       d="M5002 4283 c-2 -43 -6 -45 -37 -20 -35 28 -17 -8 67 -131 14 -21 23 -61 20 -90 -4 -29 -3 -36 2 -17 11 43 33 45 65 6 13 -16 38 -23 55 -17 26 10 26 15 -4 31 -28 16 -30 23 -7 37 21 14 20 17 -7 18 -23 0 -31 11 -23 30 6 17 2 30 -10 30 -12 0 -17 14 -10 30 8 22 2 27 -23 17 -28 -11 -32 -5 -21 30 10 33 7 40 -16 31 -18 -7 -33 3 -39 26 -7 27 -10 25 -12 -11z"
       id="path4"
       style="fill:url(#linearGradient83);fill-opacity:1;fill-rule:nonzero" />
    <path
       d="M583 4237 c-51 -50 -58 -68 -42 -99 26 -48 99 -51 99 -3 1 26 5 28 17 9 13 -21 22 -20 42 5 22 26 20 31 -9 31 -59 0 6 60 67 62 50 2 50 3 -9 17 -34 8 -71 20 -82 27 -11 7 -48 -15 -83 -49z"
       id="path5"
       style="fill:url(#linearGradient83);fill-opacity:1;fill-rule:nonzero" />
    <path
       d="M2340 3886 c0 -24 10 -69 21 -99 16 -41 15 -58 -1 -64 -14 -4 -10 -21 12 -45 31 -35 31 -38 1 -38 -18 0 -33 -9 -33 -20 0 -37 58 -21 81 22 16 30 16 39 1 29 -32 -19 -28 57 8 142 35 84 36 87 12 87 -10 0 -28 -25 -39 -55 -16 -43 -20 -47 -22 -15 -3 61 -40 113 -41 56z"
       id="path6"
       style="fill:url(#linearGradient83);fill-opacity:1;fill-rule:nonzero" />
    <path
       d="M1578 2223 c-14 -33 -34 -56 -42 -50 -9 5 -16 -10 -16 -34 0 -37 -5 -40 -30 -19 -25 21 -30 18 -30 -17 0 -63 46 -223 64 -223 39 0 108 155 112 250 4 133 -22 175 -58 93z"
       id="path7"
       style="fill:url(#linearGradient83);fill-opacity:1;fill-rule:nonzero" />
    <path
       d="M2030 2045 c31 -41 83 -100 118 -129 39 -34 51 -55 32 -55 -16 -1 4 -24 45 -52 65 -43 111 -94 55 -59 -11 7 -20 3 -20 -9 0 -11 8 -21 18 -21 11 0 47 -23 80 -52 34 -28 62 -47 62 -43 0 58 -49 246 -85 324 l-45 99 -10 -79 -10 -79 -65 115 c-61 107 -104 155 -77 84 10 -28 7 -28 -33 0 -91 64 -126 40 -65 -44z"
       id="path8"
       style="fill:url(#linearGradient83);fill-opacity:1;fill-rule:nonzero" />
    <path
       d="M700 1887 c0 -22 203 -266 264 -318 46 -38 56 -57 38 -68 -34 -21 5 -84 76 -127 56 -32 320 60 294 103 -46 73 -232 0 -232 -91 0 -41 -35 -13 -72 57 -27 54 -28 63 -1 84 35 26 67 133 40 133 -9 0 -19 38 -22 84 -5 81 -45 162 -45 90 0 -19 -9 -34 -20 -34 -11 0 -20 -23 -20 -51 0 -34 -8 -46 -23 -37 -17 10 -20 -5 -12 -54 l12 -68 -27 60 c-16 33 -29 69 -30 80 -3 34 -100 142 -100 111 0 -24 -4 -23 -25 2 -26 33 -95 64 -95 44z"
       id="path9"
       style="fill:url(#linearGradient83);fill-opacity:1;fill-rule:nonzero" />
    <path
       d="M1745 1742 c-24 -7 -62 -28 -85 -47 -22 -19 -40 -25 -40 -12 0 15 -9 15 -29 -2 -41 -34 -61 -142 -30 -161 14 -9 19 -30 13 -48 -20 -50 6 -92 56 -92 48 0 99 45 76 67 -7 7 6 13 29 13 61 0 161 63 173 109 14 52 7 56 -55 32 -100 -38 -141 10 -81 96 38 54 34 61 -27 45z"
       id="path10"
       style="fill:url(#linearGradient83);fill-opacity:1;fill-rule:nonzero" />
    <path
       d="M1320 1620 c34 -63 137 -110 153 -70 12 32 -49 95 -76 78 -8 -5 -20 0 -27 12 -26 41 -73 23 -50 -20z"
       id="path11"
       style="fill:url(#linearGradient83);fill-opacity:1;fill-rule:nonzero" />
    <path
       d="M556 1587 c32 -59 109 -121 169 -135 30 -7 55 -22 55 -32 0 -22 86 -26 156 -7 l46 12 -46 50 c-61 65 -118 90 -259 113 -29 4 -73 14 -97 22 -38 12 -41 9 -24 -23z"
       id="path12"
       style="fill:url(#linearGradient83);fill-opacity:1;fill-rule:nonzero" />
    <path
       d="M1477 1507 c-18 -5 -39 -33 -46 -62 -9 -35 -19 -45 -29 -29 -15 25 -159 -63 -192 -116 -10 -16 -21 -15 -42 2 -24 19 -27 17 -16 -9 7 -18 25 -33 41 -33 16 0 25 -7 19 -17 -5 -9 33 -69 86 -135 53 -65 115 -162 139 -215 23 -53 65 -115 93 -137 l51 -39 -53 -63 c-51 -61 -41 -91 23 -66 16 6 36 12 44 14 8 1 56 38 105 81 147 130 139 126 185 81 l41 -41 -116 -34 c-70 -20 -106 -39 -91 -48 18 -11 10 -30 -27 -67 -29 -29 -52 -66 -52 -83 0 -40 58 -40 73 -1 16 43 37 38 114 -30 38 -33 76 -60 86 -60 9 1 -5 18 -33 39 -56 43 -50 59 27 65 50 4 74 45 36 59 -36 14 -48 97 -14 97 17 0 31 10 31 21 0 12 25 5 55 -16 30 -21 69 -45 85 -53 40 -20 -38 45 -139 114 -97 68 -80 146 25 117 10 -2 12 5 5 15 -6 11 11 60 39 111 55 98 45 114 -35 51 -65 -51 -75 -50 -75 3 0 24 -6 38 -12 31 -7 -7 -27 2 -45 20 -29 30 -33 29 -43 -12 -5 -24 -17 -44 -25 -43 -46 3 -55 -2 -57 -34 -1 -22 -9 -15 -21 20 -25 67 -57 54 -57 -23 0 -40 -14 -62 -51 -79 -59 -27 -49 -65 12 -49 36 10 40 5 27 -46 -21 -89 -27 -92 -88 -48 -123 88 -155 313 -55 387 l55 41 90 -44 c50 -24 90 -37 90 -29 0 8 38 17 84 20 94 5 142 36 89 57 -28 10 -30 18 -9 44 23 27 17 29 -49 19 -78 -13 -92 -1 -50 43 36 38 -59 8 -128 -41 -75 -53 -92 -46 -36 14 40 43 43 54 19 69 -21 13 -36 6 -53 -25 -22 -41 -23 -41 -33 -4 -9 36 -11 36 -24 -6 -8 -25 -23 -45 -32 -45 -10 0 -15 -19 -13 -42 3 -24 -13 -54 -35 -69 -38 -26 -40 -23 -37 67 4 85 2 82 -19 -36 l-24 -130 -90 98 c-68 73 -79 94 -47 84 68 -21 153 6 126 40 -18 20 -15 35 11 61 23 23 38 26 47 11 9 -13 25 2 40 37 15 33 32 56 40 51 7 -4 14 13 16 40 1 26 -3 47 -10 46 -7 -2 -28 -7 -46 -11z"
       id="path13"
       style="fill:url(#linearGradient83);fill-opacity:1;fill-rule:nonzero" />
    <path
       d="M5029 1345 c-90 -84 -188 -130 -201 -97 -7 18 -20 27 -30 21 -10 -7 -27 9 -37 35 -10 25 -19 36 -20 23 -1 -16 -23 -18 -71 -7 -85 19 -85 17 -11 -76 66 -84 88 -184 52 -237 -13 -21 -45 -91 -71 -157 -26 -66 -73 -172 -104 -237 -77 -154 -99 -213 -79 -213 9 0 50 76 91 168 84 187 91 191 310 193 104 0 109 2 72 30 -46 36 -15 68 65 69 25 0 43 11 40 23 -3 13 17 35 44 49 l48 25 -53 14 c-68 17 -191 -31 -321 -124 -112 -81 -127 -78 -82 16 35 73 187 197 241 197 26 0 28 6 10 28 -18 21 -16 30 9 40 17 6 26 21 19 32 -15 25 40 26 125 1 36 -10 65 -15 65 -11 0 19 -128 68 -147 56 -13 -8 -9 8 9 35 18 27 63 64 100 83 37 19 57 35 45 35 -13 1 -36 6 -51 11 -15 6 -45 -5 -67 -25z"
       id="path14"
       style="fill:url(#linearGradient83);fill-opacity:1;fill-rule:nonzero" />
    <path
       d="M1020 1333 c0 -18 -16 -24 -50 -18 -29 6 -50 0 -50 -13 0 -12 -27 -22 -60 -22 -55 0 -58 -3 -35 -40 15 -25 47 -40 85 -41 l60 -1 -71 -38 c-107 -56 -134 -95 -59 -84 77 11 75 -8 -5 -92 -56 -60 -59 -67 -21 -55 44 13 44 12 16 -56 -24 -58 -24 -71 -2 -80 31 -11 104 64 116 120 5 20 18 35 31 32 12 -2 28 23 35 56 10 46 20 56 39 40 19 -16 25 0 26 73 1 66 12 102 37 120 20 14 26 26 15 26 -11 0 -31 23 -43 50 -25 54 -64 68 -64 23z"
       id="path15"
       style="fill:url(#linearGradient83);fill-opacity:1;fill-rule:nonzero" />
  </g>
</svg>
