<?xml version="1.0" encoding="UTF-8" standalone="no"?>
<!-- Created with Inkscape (http://www.inkscape.org/) -->

<svg
   width="4000mm"
   height="100mm"
   viewBox="0 0 4000 100"
   version="1.1"
   id="svg1"
   inkscape:version="1.3.2 (091e20ef0f, 2023-11-25)"
   sodipodi:docname="windLineThree.svg"
   xmlns:inkscape="http://www.inkscape.org/namespaces/inkscape"
   xmlns:sodipodi="http://sodipodi.sourceforge.net/DTD/sodipodi-0.dtd"
   xmlns="http://www.w3.org/2000/svg"
   xmlns:svg="http://www.w3.org/2000/svg">
  <sodipodi:namedview
     id="namedview1"
     pagecolor="#ffffff"
     bordercolor="#000000"
     borderopacity="0.25"
     inkscape:showpageshadow="2"
     inkscape:pageopacity="0.0"
     inkscape:pagecheckerboard="0"
     inkscape:deskcolor="#d1d1d1"
     inkscape:document-units="mm"
     inkscape:zoom="0.74079554"
     inkscape:cx="13488.877"
     inkscape:cy="190.33592"
     inkscape:window-width="2486"
     inkscape:window-height="1376"
     inkscape:window-x="0"
     inkscape:window-y="0"
     inkscape:window-maximized="1"
     inkscape:current-layer="layer1" />
  <defs
     id="defs1">
    <inkscape:path-effect
       effect="spiro"
       id="path-effect5"
       is_visible="true"
       lpeversion="1" />
    <inkscape:path-effect
       effect="spiro"
       id="path-effect4"
       is_visible="true"
       lpeversion="1" />
    <inkscape:path-effect
       effect="spiro"
       id="path-effect3"
       is_visible="true"
       lpeversion="1" />
    <inkscape:path-effect
       effect="spiro"
       id="path-effect2"
       is_visible="true"
       lpeversion="1" />
    <inkscape:path-effect
       effect="spiro"
       id="path-effect1"
       is_visible="true"
       lpeversion="1" />
  </defs>
  <g
     inkscape:label="Layer 1"
     inkscape:groupmode="layer"
     id="layer1">
    <path
       style="fill:none;stroke:#e4fde1;stroke-width:2.038;stroke-dasharray:none;stroke-opacity:1"
       d="M -6.9234494,55.405353 C 12.481345,45.220651 34.107114,39.294613 55.993117,38.164535 c 32.610889,-1.683855 64.801123,7.11919 95.902683,17.068959 31.10157,9.94977 62.13838,21.204294 94.60725,24.6797 66.81019,7.151238 131.99727,-19.009436 197.41982,-34.327143 58.53232,-13.704465 121.15496,-18.597673 177.9053,1.23271 18.28091,6.387934 35.60803,15.220889 53.65536,22.241651 18.04733,7.020763 37.24618,12.26702 56.56795,10.976097 18.30954,-1.223294 35.68893,-8.225472 52.50483,-15.571292 16.8159,-7.345821 33.67732,-15.199269 51.76343,-18.302214 19.70242,-3.380248 40.00557,-0.941836 59.42917,3.784132 19.42361,4.725969 38.21542,11.701442 57.32616,17.56583 50.18983,15.401432 103.84543,23.095488 155.36143,12.97978 28.6404,-5.62385 55.9211,-16.586591 83.9897,-24.590261 45.2416,-12.900523 92.7861,-18.069931 139.655,-14.003919 48.0432,4.167887 94.8595,17.897834 142.8872,22.240691 34.5882,3.127598 69.9568,1.270982 103.1314,-9.003724 31.2371,-9.674625 60.8137,-26.793677 93.4722,-28.459831 21.3639,-1.089935 42.5246,4.599549 62.5675,12.075514 20.0428,7.475966 39.3995,16.782411 59.741,23.402728 33.8068,11.002693 70.1411,14.35775 105.3164,9.194574 43.2002,-6.341105 83.5658,-25.11605 126.1056,-34.956023 30.4435,-7.041935 62.3953,-9.425482 92.9402,-2.837583 25.4912,5.497926 49.2021,17.016952 73.4626,26.580554 24.2604,9.563601 50.1147,17.326719 76.0628,14.733693 17.9057,-1.789331 34.9171,-8.420829 51.727,-14.842762 16.8099,-6.421933 33.9774,-12.764753 51.9344,-13.930294 21.7308,-1.410481 43.1642,4.840123 63.9155,11.442947 20.7513,6.602824 41.77,13.696375 63.5436,14.046633 23.6182,0.37993 46.5538,-7.19455 68.9622,-14.666533 22.4083,-7.471982 45.3603,-15.014586 68.9773,-14.567658 24.3677,0.461133 47.6589,9.384099 70.6232,17.547021 22.9644,8.162921 46.981,15.777875 71.2451,13.486928 21.2207,-2.003593 40.9102,-11.4256 60.3743,-20.113559 19.464,-8.687958 39.9409,-16.926459 61.2474,-16.322452 16.8809,0.478547 33.0902,6.501378 48.554,13.288329 15.4638,6.78695 30.6814,14.459752 47.0605,18.57295 29.6961,7.457442 61.0149,2.712292 90.9452,-3.741582 29.9302,-6.453875 59.9337,-14.632958 90.5444,-13.956029 27.9586,0.618282 55.1512,8.605495 82.1435,15.918731 26.9923,7.313235 54.704,14.063529 82.6025,12.129576 41.7975,-2.897443 79.8224,-24.893424 120.8516,-33.380609 46.6882,-9.657792 95.091,-1.456727 141.6868,8.637478 46.5958,10.094205 93.5304,22.153932 141.1652,20.158634 61.1453,-2.561215 119.0354,-28.086906 179.6913,-36.221156 78.0159,-10.462313 159.6951,9.294251 224.3053,54.255"
       id="path4"
       inkscape:path-effect="#path-effect5"
       inkscape:original-d="M -6.9234494,55.405353 C 14.810407,60.454399 32.580953,38.271545 55.993117,38.164535 159.41318,37.691832 198.79142,89.284783 246.50305,79.913194 307.90487,67.852555 380.76534,64.325648 443.92287,45.586051 c 29.54158,-8.556931 144.95606,-7.233921 177.9053,1.23271 25.83369,6.638219 97.45552,36.050797 110.22331,33.217748 22.32068,-4.95274 93.64973,-29.59293 104.26826,-33.873506 21.40901,-8.630469 90.73441,13.138696 116.75533,21.349962 27.73186,8.751178 84.72493,-10.272598 155.36143,12.97978 23.2887,6.939891 47.8854,-8.167212 83.9897,-24.590261 95.3536,-43.374378 -34.7781,123.481586 139.655,-14.003919 14.1658,-11.211554 114.6133,15.12717 142.8872,22.240691 28.2739,7.113519 68.7338,-9.204976 103.1314,-9.003724 34.3976,0.20125 52.6971,-18.331483 93.4722,-28.459831 40.7752,-10.128348 69.8476,22.015433 122.3085,35.478242 52.4609,13.462812 80.7417,18.174808 105.3164,9.194574 23.5193,-8.594587 101.1885,-23.749072 126.1056,-34.956023 24.917,-11.206952 22.5745,-3.450546 92.9402,-2.837583 70.3657,0.612962 123.3917,31.673902 149.5254,41.314247 26.1338,9.640345 71.8212,-25.762545 103.6614,-28.773056 31.8402,-3.010514 82.0401,18.069187 127.4591,25.48958 45.419,7.420393 91.9597,-19.05045 137.9395,-29.234191 45.9799,-10.183741 83.1766,19.118348 141.8683,31.033949 58.6915,11.9156 82.1676,-19.764772 121.6217,-36.436011 39.4542,-16.671237 85.1722,24.65667 95.6145,31.861279 10.4423,7.20461 109.8796,-18.169176 181.4896,-17.697611 71.6098,0.471564 109.3703,18.917446 164.746,28.048307 55.3757,9.13086 81.0281,-22.472314 120.8516,-33.380609 39.8235,-10.908294 189.0443,19.197407 282.852,28.796112 93.8078,9.598703 119.3179,-24.147438 179.6913,-36.221156 60.3731,-12.073719 149.5369,36.169999 224.3053,54.255"
       sodipodi:nodetypes="csssssssssssssssssssssssssssssc" />
  </g>
</svg>
