<?xml version="1.0" encoding="UTF-8" standalone="no"?>
<!-- Created with Inkscape (http://www.inkscape.org/) -->

<svg
   width="4000mm"
   height="100mm"
   viewBox="0 0 4000 100"
   version="1.1"
   id="svg1"
   inkscape:version="1.3.2 (091e20ef0f, 2023-11-25)"
   sodipodi:docname="windLineTwo.svg"
   xmlns:inkscape="http://www.inkscape.org/namespaces/inkscape"
   xmlns:sodipodi="http://sodipodi.sourceforge.net/DTD/sodipodi-0.dtd"
   xmlns="http://www.w3.org/2000/svg"
   xmlns:svg="http://www.w3.org/2000/svg">
  <sodipodi:namedview
     id="namedview1"
     pagecolor="#ffffff"
     bordercolor="#000000"
     borderopacity="0.25"
     inkscape:showpageshadow="2"
     inkscape:pageopacity="0.0"
     inkscape:pagecheckerboard="0"
     inkscape:deskcolor="#d1d1d1"
     inkscape:document-units="mm"
     inkscape:zoom="0.52382155"
     inkscape:cx="1257.1075"
     inkscape:cy="120.26997"
     inkscape:window-width="2486"
     inkscape:window-height="1376"
     inkscape:window-x="0"
     inkscape:window-y="0"
     inkscape:window-maximized="1"
     inkscape:current-layer="layer1" />
  <defs
     id="defs1">
    <inkscape:path-effect
       effect="spiro"
       id="path-effect4"
       is_visible="true"
       lpeversion="1" />
    <inkscape:path-effect
       effect="spiro"
       id="path-effect3"
       is_visible="true"
       lpeversion="1" />
    <inkscape:path-effect
       effect="spiro"
       id="path-effect2"
       is_visible="true"
       lpeversion="1" />
    <inkscape:path-effect
       effect="spiro"
       id="path-effect1"
       is_visible="true"
       lpeversion="1" />
  </defs>
  <g
     inkscape:label="Layer 1"
     inkscape:groupmode="layer"
     id="layer1">
    <path
       style="fill:none;stroke:#e4fde1;stroke-width:2.038;stroke-dasharray:none;stroke-opacity:1"
       d="M -5.9448141,75.218768 C 25.899443,59.625754 59.913218,48.471229 94.807258,42.177993 c 31.193892,-5.625904 63.854122,-7.283782 94.164042,1.990813 25.83657,7.905784 49.03557,23.457665 75.36872,29.507034 31.90489,7.329335 65.21805,0.04681 96.78703,-8.615792 31.56898,-8.662599 63.52587,-18.824006 96.22312,-17.233198 38.78816,1.887147 75.61497,20.245954 114.44901,20.247488 40.73491,0.0016 79.23081,-20.188788 119.93806,-21.689791 24.67632,-0.909893 49.05182,5.098465 72.8114,11.823894 23.75957,6.725429 47.5058,14.25343 72.09565,16.509171 29.31417,2.689125 58.84975,-2.228049 87.3215,-9.705456 26.13883,-6.864722 51.73235,-15.900789 78.24171,-21.156073 26.5093,-5.255284 54.4886,-6.576196 80.1492,1.903003 15.1997,5.022524 29.0711,13.296902 43.2653,20.698281 14.1942,7.401379 29.1814,14.075056 45.1295,15.457949 19.6802,1.706504 39.1089,-4.765341 57.4076,-12.206952 18.2988,-7.44161 36.4499,-16.030386 55.9937,-18.904174 23.0061,-3.382885 46.3552,1.379741 69.0525,6.435024 22.6973,5.055282 45.7962,10.462526 68.9548,8.36486 19.1405,-1.733703 37.3955,-8.519104 55.6854,-14.421846 18.2898,-5.902743 37.3562,-11.025 56.4947,-9.270597 17.0268,1.560823 33.0691,8.476357 48.4506,15.943331 15.3816,7.466975 30.602,15.637088 47.1301,20.015592 21.4821,5.690897 44.2927,4.689209 66.0907,0.363105 21.798,-4.326103 42.8015,-11.879549 63.756,-19.280755 27.6968,-9.782639 55.5994,-19.379405 84.4824,-24.725857 28.8831,-5.346453 58.9816,-6.32438 87.4081,1.074849 19.9686,5.197685 38.6304,14.373431 57.3513,23.050111 18.721,8.67668 37.9042,16.986073 58.2757,20.266337 36.694,5.908545 73.8644,-4.914965 109.0301,-16.945711 35.1657,-12.030746 70.8365,-25.568559 108.002,-25.267799 33.4438,0.270643 65.6352,11.750571 97.3213,22.45349 31.6861,10.702919 64.5593,20.885467 97.9144,18.436098 31.8288,-2.33729 61.5327,-15.976432 91.8339,-25.994996 45.4394,-15.02373 95.1574,-22.005665 141.1325,-8.711038 19.1087,5.525682 37.0498,14.387591 55.3973,22.071638 18.3476,7.684048 37.5496,14.288861 57.4319,14.899464 23.6538,0.726431 46.6759,-7.047858 68.8272,-15.375432 22.1514,-8.327574 44.4475,-17.405183 68.0218,-19.474637 31.1057,-2.730591 61.8312,6.929295 91.4534,16.805785 29.6222,9.87649 59.9826,20.222375 91.1805,18.916373 37.5479,-1.571818 72.0252,-19.749418 106.9042,-33.74121 35.9588,-14.42496 73.8135,-24.725514 112.4627,-27.437473 38.6492,-2.71196 78.1662,2.3533 113.8013,17.560361 18.6399,7.95447 36.0168,18.561092 54.2047,27.500818 18.1879,8.939726 37.6305,16.303767 57.8826,17.060626 26.4911,0.990024 52.0313,-9.341969 75.867,-20.944504 23.8357,-11.602536 47.3517,-24.810179 73.29,-30.283893 36.5409,-7.711157 74.5302,0.633996 110.1024,12.006038 35.8275,11.453681 71.0596,26.096904 108.4114,30.52908 48.2154,5.721257 98.3581,-6.570767 138.461,-33.942464"
       id="path3"
       inkscape:path-effect="#path-effect4"
       inkscape:original-d="M -5.9448141,75.218768 C 27.470843,64.205177 61.391601,53.191584 94.807258,42.177993 128.22291,31.1644 157.73389,43.505201 188.9713,44.168806 c 31.2374,0.663604 49.92684,19.671355 75.36872,29.507034 25.44188,9.835679 128.67343,-17.232662 193.01015,-25.84899 64.33669,-8.616331 76.45718,13.378627 114.44901,20.247488 37.99182,6.868861 84.5982,-15.376718 119.93806,-21.689791 65.53551,-11.70719 89.06048,6.39042 144.90705,28.333065 22.7526,8.939712 66.16168,-0.569287 87.3215,-9.705456 59.95555,-25.886993 105.47671,-33.237676 158.39091,-19.25307 31.2282,8.253246 56.6218,32.325375 88.3948,36.15623 47.5287,5.730516 78.3108,-9.809589 113.4013,-31.111126 105.9507,-64.316818 -116.6587,22.092732 138.0073,14.799884 24.6659,-0.706353 70.3046,-23.734535 112.1801,-23.692443 41.8754,0.04209 67.5008,24.456015 95.5807,35.958923 28.0798,11.502911 86.233,-12.440769 129.8467,-18.91765 43.6137,-6.47688 115.0666,-15.782464 171.8905,-23.651008 56.824,-7.868542 76.9433,28.553394 115.627,43.316448 38.6837,14.763054 147.4795,-17.359898 217.0321,-42.21351 77.7572,-27.7854143 117.2584,42.344767 195.2357,40.889588 17.6336,-0.329071 72.6893,-21.516162 91.8339,-25.994996 19.1445,-4.478835 82.1409,-1.621194 141.1325,-8.711038 58.9918,-7.089843 82.2981,23.549068 112.8292,36.971102 30.531,13.422035 94.1862,-23.118695 136.849,-34.850069 85.6835,-23.561138 98.446,-4.628144 182.6339,35.722158 17.3546,8.317852 74.4822,-22.665796 106.9042,-33.74121 32.4218,-11.075413 151.1774,-6.419006 226.264,-9.877112 75.0866,-3.458107 74.8525,29.541893 112.0873,44.561444 37.2348,15.019549 98.9782,-34.152265 149.157,-51.228397 50.1788,-17.076131 73.7336,8.004027 110.1024,12.006038 36.3686,4.002013 72.2744,20.352718 108.4114,30.52908 36.1371,10.176359 92.3073,-22.62831 138.461,-33.942464"
       sodipodi:nodetypes="cssssssssssssssssssssssssssssssc" />
  </g>
</svg>
