<?xml version="1.0" encoding="UTF-8" standalone="no"?>
<!-- Created with Inkscape (http://www.inkscape.org/) -->

<svg
   width="4000mm"
   height="100mm"
   viewBox="0 0 4000 100"
   version="1.1"
   id="svg1"
   inkscape:version="1.3.2 (091e20ef0f, 2023-11-25)"
   sodipodi:docname="windLineOne.svg"
   xmlns:inkscape="http://www.inkscape.org/namespaces/inkscape"
   xmlns:sodipodi="http://sodipodi.sourceforge.net/DTD/sodipodi-0.dtd"
   xmlns="http://www.w3.org/2000/svg"
   xmlns:svg="http://www.w3.org/2000/svg">
  <sodipodi:namedview
     id="namedview1"
     pagecolor="#ffffff"
     bordercolor="#000000"
     borderopacity="0.25"
     inkscape:showpageshadow="2"
     inkscape:pageopacity="0.0"
     inkscape:pagecheckerboard="0"
     inkscape:deskcolor="#d1d1d1"
     inkscape:document-units="mm"
     inkscape:zoom="0.37039777"
     inkscape:cx="12980.64"
     inkscape:cy="-564.25826"
     inkscape:window-width="2486"
     inkscape:window-height="1376"
     inkscape:window-x="0"
     inkscape:window-y="0"
     inkscape:window-maximized="1"
     inkscape:current-layer="layer1" />
  <defs
     id="defs1">
    <inkscape:path-effect
       effect="spiro"
       id="path-effect3"
       is_visible="true"
       lpeversion="1" />
    <inkscape:path-effect
       effect="spiro"
       id="path-effect2"
       is_visible="true"
       lpeversion="1" />
    <inkscape:path-effect
       effect="spiro"
       id="path-effect1"
       is_visible="true"
       lpeversion="1" />
  </defs>
  <g
     inkscape:label="Layer 1"
     inkscape:groupmode="layer"
     id="layer1">
    <path
       style="fill:none;stroke:#e4fde1;stroke-width:2.038;stroke-dasharray:none;stroke-opacity:1"
       d="m -13.495695,28.346879 c 20.540011,23.291084 51.394118,37.133973 82.448042,36.990831 21.94358,-0.101148 43.302213,-6.785392 63.878393,-14.411117 20.57618,-7.625724 40.91576,-16.301697 62.41882,-20.677689 36.54263,-7.436627 74.41427,-2.073127 111.0021,5.137834 37.92922,7.47533 75.47015,16.920426 112.42098,28.284513 55.93071,17.051837 116.75269,17.712479 173.0406,1.879549 35.72746,-10.049591 70.69856,-26.725064 107.79221,-25.497396 20.71705,0.685662 40.77629,6.976297 60.68504,12.747607 19.90876,5.77131 40.3864,11.119951 61.07582,9.849399 28.56756,-1.754353 54.80982,-15.899634 82.75585,-22.080456 45.97115,-10.167438 93.62916,1.618211 139.24044,13.294442 36.1356,9.250522 73.7129,18.526934 110.345,11.495018 35.541,-6.82248 66.6869,-28.405988 101.8196,-37.089485 24.7188,-6.10955 50.6856,-5.616193 75.8839,-1.957131 25.1983,3.659061 49.8256,10.412776 74.4826,16.766881 62.4551,16.094666 126.7887,29.805122 191.0094,23.856205 48.4852,-4.491299 95.2716,-20.059491 143.4411,-27.178828 32.0439,-4.73601 65.4661,-5.588839 96.1253,4.863578 14.5989,4.977094 28.2181,12.394529 42.1326,19.049379 13.9144,6.65485 28.419,12.634895 43.7387,14.425469 21.5336,2.51686 43.1076,-3.387482 63.7149,-10.123026 20.6074,-6.735544 41.2706,-14.435612 62.9157,-15.668746 20.3889,-1.16157 40.6216,3.483893 60.4447,8.393494 19.8231,4.909601 39.8264,10.14909 60.2484,10.206244 24.436,0.06839 48.2131,-7.275821 71.538,-14.560862 23.3249,-7.285041 47.0908,-14.652939 71.5269,-14.634179 28.2826,0.02171 55.4699,9.906378 82.6669,17.666864 13.5986,3.880243 27.4014,7.262953 41.4766,8.627691 14.0753,1.364738 28.4851,0.664653 42.0035,-3.486042 11.831,-3.632581 22.6927,-9.797489 33.5929,-15.658616 10.9002,-5.861127 22.1115,-11.523631 34.2348,-14.012182 11.9794,-2.459006 24.4543,-1.710428 36.42,0.814184 11.9658,2.524613 23.4919,6.786438 34.832,11.363939 22.6803,9.155003 45.5464,19.803504 69.9929,20.562748 22.3692,0.694727 44.0647,-6.982326 65.0157,-14.851297 20.951,-7.868972 42.305,-16.144369 64.6774,-16.727445 23.083,-0.601596 45.5032,7.033427 67.2386,14.82839 21.7353,7.794964 43.8749,15.945417 66.9605,16.438609 28.7047,0.613238 56.1495,-10.61891 82.953,-20.910114 26.8036,-10.291203 55.1996,-19.973621 83.65,-16.112286 24.2759,3.29476 46.0283,16.117472 67.4931,27.925806 21.4648,11.808334 44.4477,23.125844 68.9454,22.937574 20.5159,-0.157669 40.0057,-8.390763 58.8056,-16.605944 18.8,-8.215181 38.1299,-16.691926 58.6347,-17.383872 21.4548,-0.724003 42.1606,7.137941 62.1792,14.889547 20.0187,7.751606 40.71,15.63758 62.1665,14.964747 19.482,-0.610919 38.0257,-8.261206 55.5047,-16.887314 17.4789,-8.626108 34.5755,-18.411573 53.2975,-23.834566 28.1875,-8.164754 58.4343,-5.925209 87.1476,0.136374 28.7134,6.061584 56.5146,15.824748 85.0351,22.737251 50.3732,12.208945 104.4167,15.206479 153.3281,-1.945433 20.3756,-7.145189 39.5552,-17.662729 60.4129,-23.24653 23.2121,-6.214101 48.1017,-6.03434 71.2216,0.514387 23.1199,6.548727 44.4066,19.448436 60.9118,36.912489"
       id="path2"
       inkscape:path-effect="#path-effect3"
       inkscape:original-d="M -13.495695,28.346879 C 5.682398,38.936922 47.062892,64.443262 68.952347,65.33771 100.09981,66.610461 160.17804,41.195045 195.24956,30.248904 c 31.47943,-9.825014 60.57462,20.131105 111.0021,5.137834 42.97984,-12.778915 81.70177,11.061659 112.42098,28.284513 61.37863,-30.242494 108.95705,-13.197425 173.0406,1.879549 21.5092,4.172597 79.04679,-14.956028 107.79221,-25.497396 28.74544,-10.541375 133.91384,40.318239 121.76086,22.597006 -24.83486,-36.213708 39.54058,-6.402702 82.75585,-22.080456 17.30805,-6.279063 93.26827,8.758391 139.24044,13.294442 45.9722,4.536053 75.3207,13.299706 110.345,11.495018 35.0244,-1.804689 69.6103,-43.570293 101.8196,-37.089485 64.9171,13.061901 89.3748,43.573373 150.3665,14.80975 32.7505,-15.445151 130.7655,11.549606 191.0094,23.856205 60.244,12.306601 95.4755,-17.782485 143.4411,-27.178828 47.9656,-9.396346 60.8451,1.560028 96.1253,4.863578 35.2802,3.303553 64.9104,50.516294 85.8713,33.474848 50.4734,-41.035314 58.7866,-25.250768 126.6306,-25.791772 36.9986,-0.295035 99.0816,18.31449 120.6931,18.599738 35.4,0.467244 95.6347,-43.208249 143.0649,-29.195041 60.5232,17.881501 101.1022,28.338047 166.147,22.808513 45.3453,-3.854863 44.8705,-19.529298 67.8277,-29.670798 22.9572,-10.141503 103.3204,21.150479 141.2449,32.740871 70.0823,21.418372 60.6364,12.473792 129.6931,-31.578742 27.6196,-17.619034 98.1392,22.844987 134.1991,31.266999 76.013,17.753302 84.6965,-31.474675 166.603,-37.0224 22.5447,-1.527009 52.4292,6.869417 136.4385,50.86338 17.6717,9.254296 84.372,-34.63934 117.4403,-33.989816 48.7126,0.956807 78.0746,19.351239 124.3457,29.854294 26.2504,5.958564 72.7334,-27.147919 108.8022,-40.72188 36.0688,-13.573959 114.7482,15.249083 172.1827,22.873625 57.4341,7.624541 102.1503,-1.296955 153.3281,-1.945433 51.1776,-0.648475 40.5061,-15.497688 60.4129,-23.24653 19.9067,-7.748845 87.7681,24.951251 132.1334,37.426876"
       sodipodi:nodetypes="cssssssssssssssssssssssssssssssssc" />
  </g>
</svg>
