<?xml version="1.0" encoding="UTF-8" standalone="no"?>
<!-- Created with Inkscape (http://www.inkscape.org/) -->

<svg
   width="4000mm"
   height="100mm"
   viewBox="0 0 4000 100"
   version="1.1"
   id="svg1"
   inkscape:version="1.3.2 (091e20ef0f, 2023-11-25)"
   sodipodi:docname="windLineOne.svg"
   xmlns:inkscape="http://www.inkscape.org/namespaces/inkscape"
   xmlns:sodipodi="http://sodipodi.sourceforge.net/DTD/sodipodi-0.dtd"
   xmlns="http://www.w3.org/2000/svg"
   xmlns:svg="http://www.w3.org/2000/svg">
  <sodipodi:namedview
     id="namedview1"
     pagecolor="#ffffff"
     bordercolor="#000000"
     borderopacity="0.25"
     inkscape:showpageshadow="2"
     inkscape:pageopacity="0.0"
     inkscape:pagecheckerboard="0"
     inkscape:deskcolor="#d1d1d1"
     inkscape:document-units="mm"
     inkscape:zoom="0.52382155"
     inkscape:cx="14093.54"
     inkscape:cy="120.26997"
     inkscape:window-width="2486"
     inkscape:window-height="1376"
     inkscape:window-x="0"
     inkscape:window-y="0"
     inkscape:window-maximized="1"
     inkscape:current-layer="layer1" />
  <defs
     id="defs1">
    <inkscape:path-effect
       effect="spiro"
       id="path-effect3"
       is_visible="true"
       lpeversion="1" />
    <inkscape:path-effect
       effect="spiro"
       id="path-effect2"
       is_visible="true"
       lpeversion="1" />
    <inkscape:path-effect
       effect="spiro"
       id="path-effect1"
       is_visible="true"
       lpeversion="1" />
  </defs>
  <g
     inkscape:label="Layer 1"
     inkscape:groupmode="layer"
     id="layer1">
    <path
       style="fill:none;stroke:#e4fde1;stroke-width:2.038;stroke-dasharray:none;stroke-opacity:1"
       d="m -13.495695,28.346879 c 20.8620806,22.908647 51.465647,36.639129 82.448042,36.990831 21.958465,0.249266 43.492443,-5.877351 64.153293,-13.318146 20.66086,-7.440795 40.88502,-16.266526 62.14392,-21.77066 36.45336,-9.438124 75.94878,-8.616817 111.0021,5.137834 17.63853,6.921225 33.88284,16.930031 51.05161,24.94593 17.16877,8.015898 35.91592,14.113921 54.787,12.409916 14.39161,-1.299522 27.95354,-7.042083 41.27615,-12.638086 13.32261,-5.596003 26.97524,-11.187984 41.39286,-12.157292 16.48749,-1.108468 32.70321,3.90038 48.47253,8.839467 15.76932,4.939087 31.99742,9.923343 48.48143,8.764127 17.38599,-1.222648 33.50039,-9.166236 48.99394,-17.148571 15.49355,-7.982334 31.33265,-16.294607 48.63871,-18.360496 22.70995,-2.710971 45.16063,5.617884 66.27987,14.396778 21.11924,8.778893 42.76965,18.327209 65.64055,18.211899 14.3348,-0.07227 28.37296,-3.97446 41.93142,-8.628492 13.55846,-4.654031 26.88638,-10.101956 40.82443,-13.451964 22.91245,-5.507004 46.91204,-5.184294 70.2546,-1.954406 23.34257,3.229888 46.18244,9.306346 68.98584,15.248848 36.1019,9.408073 73.7147,18.57169 110.345,11.495018 35.5323,-6.864537 66.684,-28.420265 101.8196,-37.089485 24.7205,-6.099438 50.6854,-5.602592 75.8831,-1.944492 25.1977,3.658101 49.8254,10.406683 74.4834,16.754242 62.4575,16.078092 126.7866,29.762017 191.0094,23.856205 48.4883,-4.458896 95.2868,-19.956305 143.4411,-27.178828 32.0456,-4.806429 65.5253,-5.797731 96.1253,4.863578 14.5778,5.07903 28.1233,12.669616 42.0207,19.390617 13.8973,6.721 28.4786,12.666224 43.8506,14.084231 21.6084,1.993294 42.9224,-5.063615 63.4037,-12.233907 20.4813,-7.170292 41.5546,-14.656793 63.2269,-13.557865 16.9546,0.85971 33.1431,6.93571 49.144,12.607509 16.0009,5.6718 32.5502,11.071047 49.5167,10.493017 23.3198,-0.794479 44.5604,-12.674567 66.3439,-21.036711 31.3039,-12.016778 65.5061,-17.012594 98.7534,-12.659118 28.0992,3.679379 54.8812,13.835743 82.3328,20.872346 27.4516,7.036603 56.9206,10.871483 83.8142,1.936167 11.7454,-3.902373 22.5644,-10.103706 33.4869,-15.92445 10.9225,-5.820743 22.1973,-11.355069 34.3408,-13.746348 11.9942,-2.361884 24.4535,-1.556889 36.4092,0.992596 11.9558,2.549486 23.4764,6.806673 34.819,11.365871 22.685,9.118396 45.578,19.671552 70.0167,20.382404 22.3695,0.650663 44.0557,-7.031228 65.0085,-14.892374 20.9528,-7.861146 42.313,-16.115171 64.6846,-16.686368 23.0831,-0.589361 45.5008,7.047146 67.2366,14.839992 21.7359,7.792845 43.8772,15.937353 66.9625,16.427007 28.7048,0.608844 56.1487,-10.623723 82.9524,-20.914132 26.8038,-10.290408 55.2003,-19.970658 83.6506,-16.108268 24.2758,3.295666 46.028,16.118438 67.4929,27.926617 21.4649,11.808178 44.4479,23.125257 68.9456,22.936763 20.5159,-0.157856 40.0057,-8.39097 58.8056,-16.606119 18.8,-8.215149 38.1299,-16.691804 58.6347,-17.383697 21.4548,-0.723947 42.1606,7.138002 62.1792,14.889597 20.0187,7.751596 40.71,15.637542 62.1665,14.964697 19.482,-0.61093 38.0257,-8.261219 55.5047,-16.887325 17.4789,-8.626106 34.5755,-18.411566 53.2975,-23.834555 28.1875,-8.164749 58.4343,-5.925203 87.1476,0.136379 28.7134,6.061583 56.5146,15.824744 85.0351,22.737246 50.3732,12.208942 104.4167,15.206478 153.3281,-1.945433 20.3756,-7.145189 39.5552,-17.662729 60.4129,-23.24653 23.2121,-6.214101 48.1017,-6.03434 71.2216,0.514387 23.1199,6.548727 44.4066,19.448436 60.9118,36.912489"
       id="path2"
       inkscape:path-effect="#path-effect3"
       inkscape:original-d="M -13.495695,28.346879 C 5.682398,38.936922 47.062892,64.443262 68.952347,65.33771 100.09981,66.610461 160.17804,41.195045 195.24956,30.248904 c 31.47943,-9.825014 60.57462,20.131105 111.0021,5.137834 42.97984,-12.778915 75.1194,20.132992 105.83861,37.355846 17.65905,9.900618 60.65042,-20.02183 82.66901,-24.795378 47.49156,-10.295996 53.6994,9.212591 96.95396,17.603594 21.5092,4.172597 68.88723,-24.967699 97.63265,-35.509067 28.74544,-10.541375 144.0734,50.32991 131.92042,32.608677 -24.83486,-36.213708 39.54058,-6.402702 82.75585,-22.080456 17.30805,-6.279063 93.26827,8.758391 139.24044,13.294442 45.9722,4.536053 75.3207,13.299706 110.345,11.495018 35.0244,-1.804689 69.6103,-43.570293 101.8196,-37.089485 64.9171,13.061901 89.3748,43.573373 150.3665,14.80975 32.7505,-15.445151 130.7655,11.549606 191.0094,23.856205 60.244,12.306601 95.4755,-17.782485 143.4411,-27.178828 47.9656,-9.396346 60.8451,1.560028 96.1253,4.863578 35.2802,3.303553 64.9104,50.516294 85.8713,33.474848 50.4734,-41.035314 58.7866,-25.250768 126.6306,-25.791772 36.9986,-0.295035 81.5773,9.86067 98.6607,23.100526 17.0833,13.239855 44.1997,-14.346082 66.3439,-21.036711 22.1443,-6.690628 79.0635,-24.482727 98.7534,-12.659118 54.1041,32.489204 101.1022,28.338047 166.147,22.808513 45.3453,-3.854863 44.8705,-19.529298 67.8277,-29.670798 22.9572,-10.141503 103.3204,21.150479 141.2449,32.740871 70.0823,21.418372 60.6364,12.473792 129.6931,-31.578742 27.6196,-17.619034 98.1392,22.844987 134.1991,31.266999 76.013,17.753302 84.6965,-31.474675 166.603,-37.0224 22.5447,-1.527009 52.4292,6.869417 136.4385,50.86338 17.6717,9.254296 84.372,-34.63934 117.4403,-33.989816 48.7126,0.956807 78.0746,19.351239 124.3457,29.854294 26.2504,5.958564 72.7334,-27.147919 108.8022,-40.72188 36.0688,-13.573959 114.7482,15.249083 172.1827,22.873625 57.4341,7.624541 102.1503,-1.296955 153.3281,-1.945433 51.1776,-0.648475 40.5061,-15.497688 60.4129,-23.24653 19.9067,-7.748845 87.7681,24.951251 132.1334,37.426876"
       sodipodi:nodetypes="cssssssssssssssssssssssssssssssssssc" />
  </g>
</svg>
